<svg width="345" height="520" viewBox="0 0 345 520" fill="none" xmlns="http://www.w3.org/2000/svg">
<g clip-path="url(#clip0_37_378)">
<rect width="345" height="520" rx="33" fill="#333333"/>
<path d="M-180.743 222.933L647.281 -274.594" stroke="white" stroke-opacity="0.2" stroke-dasharray="2 2"/>
<path d="M-119.659 324.593L708.365 -172.934" stroke="white" stroke-opacity="0.2" stroke-dasharray="2 2"/>
<path d="M-58.5757 426.253L769.448 -71.274" stroke="white" stroke-opacity="0.2" stroke-dasharray="2 2"/>
<path d="M2.50781 527.913L830.532 30.3861" stroke="white" stroke-opacity="0.2" stroke-dasharray="2 2"/>
<path d="M63.5913 629.573L891.615 132.046" stroke="white" stroke-opacity="0.2" stroke-dasharray="2 2"/>
<rect x="124.417" y="730.804" width="966" height="1" transform="rotate(-31 124.417 730.804)" fill="white" fill-opacity="0.4"/>
<path opacity="0.2" d="M-61.9457 412.829L-64.4403 416.492L123.775 729.735L951.761 232.23L887.749 125.696L886.21 130.949L884.67 136.202L873.577 125.555L876.815 138.758L867.633 131.291L887.113 171.525L876.019 160.877L873.525 164.54L851.922 136.402L852.294 144.835L841.201 134.188L840.617 141.031L837.167 143.104L823.208 127.686L830.267 147.25L822.04 141.372L807.125 124.365L818.006 150.288L814.557 152.361L824.482 176.695L744.6 51.563L733.507 40.9154L729.101 41.3983L739.027 65.7321L732.711 63.0349L740.726 84.1885L715.301 49.69L714.718 56.5331L720.822 74.5067L718.327 78.1697L713.922 78.6526L704.74 71.1851L706.067 81.2084L696.884 73.7409L692.479 74.2238L696.672 89.0172L692.267 89.5001L683.085 82.0327L678.679 82.5155L672.363 79.8183L671.779 86.6614L669.285 90.3244L662.013 86.0371L660.474 91.2901L657.024 93.3631L659.307 104.976L654.901 105.459L652.407 109.122L650.868 114.375L648.373 118.038L659.254 143.962L656.76 147.625L652.354 148.108L649.86 151.771L631.123 128.403L628.629 132.066L624.223 132.549L612.175 120.311L607.77 120.794L606.23 126.047L614.245 147.201L613.662 154.044L598.747 137.036L596.252 140.699L587.07 133.232L593.174 151.205L588.769 151.688L576.72 139.451L579.958 152.654L578.419 157.907L573.058 156.8L563.876 149.332L559.47 149.815L559.842 158.248L555.437 158.731L531.923 127.413L522.741 119.945L510.692 107.708L528.261 144.762L525.767 148.425L521.361 148.908L530.332 171.652L525.926 172.135L523.432 175.798L534.313 201.721L527.041 197.434L558.942 258.339L545.937 244.512L541.532 244.995L547.636 262.968L537.499 253.911L532.138 252.803L527.732 253.286L525.238 256.949L490.259 206.55L487.765 210.213L483.36 210.696L490.419 230.26L486.014 230.743L483.519 234.406L479.114 234.888L465.154 219.471L463.615 224.724L458.255 223.616L453.849 224.099L450.399 226.172L445.039 225.065L455.92 250.989L451.514 251.472L449.02 255.135L444.615 255.618L442.12 259.281L437.715 259.764L435.22 263.427L430.815 263.909L413.989 243.722L409.584 244.204L407.089 247.867L402.684 248.35L399.234 250.423L394.829 250.906L392.334 254.569L407.992 288.443L406.453 293.696L393.449 279.869L390.955 283.532L394.192 296.735L380.233 281.317L375.828 281.8L364.734 271.153L360.329 271.635L357.835 275.298L354.385 277.371L358.578 292.165L354.173 292.648L346.901 288.36L342.496 288.843L342.867 297.276L295.469 226.206L301.573 244.18L314.365 273.284L329.068 305.568L324.662 306.051L322.168 309.714L317.762 310.197L303.803 294.779L284.111 269.821L282.572 275.074L278.167 275.557L290.959 304.661L304.706 335.355L286.925 313.577L293.985 333.141L297.222 346.344L292.817 346.827L290.323 350.49L285.917 350.973L283.423 354.636L268.508 337.628L266.013 341.291L261.608 341.774L277.266 375.648L255.663 347.51L256.991 357.533L252.585 358.016L246.269 355.319L242.819 357.391L240.325 361.054L244.518 375.848L242.023 379.511L237.618 379.994L230.346 375.706L225.941 376.189L223.447 379.852L209.487 364.435L202.216 360.147L212.141 384.481L209.647 388.144L205.241 388.627L196.059 381.159L191.654 381.642L183.427 375.765L162.779 349.217L160.285 352.88L150.147 343.822L150.519 352.255L147.069 354.328L141.708 353.221L147.812 371.195L141.496 368.497L142.823 378.521L150.838 399.674L154.076 412.878L151.581 416.541L149.087 420.204L157.102 441.358L152.697 441.84L135.871 421.652L118.09 399.874L129.926 427.388L120.744 419.921L118.249 423.584L106.201 411.346L103.706 415.009L99.301 415.492L92.9849 412.795L67.5606 378.296L50.7349 358.108L46.3296 358.591L35.2364 347.944L30.831 348.427L36.9352 366.4L23.9311 352.572L36.7231 381.676L21.8083 364.669L23.1354 374.692L18.73 375.175L26.745 396.328L44.314 433.383L46.5965 444.996L31.6817 427.988L33.9642 439.602L53.444 479.836L38.5292 462.828L22.6589 444.23L20.1644 447.893L14.8036 446.786L0.844219 431.368L0.260498 438.211L-4.14485 438.694L-8.5502 439.177L-11.0447 442.84L-15.4501 443.323L-21.7662 440.626L-51.9676 398.177L-54.4621 401.84L-49.3134 418.223L-51.8079 421.886L-61.9457 412.829Z" fill="url(#paint0_linear_37_378)"/>
<path d="M-64.4403 416.492L-61.9457 412.829L-51.8079 421.886L-49.3134 418.223L-54.4621 401.84L-51.9676 398.177L-21.7662 440.626L-15.4501 443.323L-11.0447 442.84L-8.5502 439.177L-4.14485 438.694L0.260497 438.211L0.844218 431.368L14.8036 446.786L20.1644 447.893L22.6589 444.23L38.5292 462.828L53.444 479.836L33.9642 439.602L31.6817 427.988L46.5965 444.996L44.314 433.383L26.745 396.328L18.73 375.175L23.1354 374.692L21.8083 364.669L36.7231 381.676L23.9311 352.572L36.9352 366.4L30.831 348.427L35.2364 347.944L46.3296 358.591L50.7349 358.108L67.5606 378.296L92.9849 412.795L99.301 415.492L103.706 415.009L106.201 411.346L118.25 423.584L120.744 419.921L129.926 427.388L118.09 399.874L135.871 421.652L152.697 441.84L157.102 441.358L149.087 420.204L151.581 416.541L154.076 412.878L150.838 399.674L142.823 378.521L141.496 368.497L147.812 371.195L141.708 353.221L147.069 354.328L150.519 352.255L150.147 343.822L160.285 352.88L162.779 349.217L183.427 375.765L191.654 381.642L196.059 381.159L205.241 388.627L209.647 388.144L212.141 384.481L202.216 360.147L209.487 364.435L223.447 379.852L225.941 376.189L230.346 375.706L237.618 379.994L242.023 379.511L244.518 375.848L240.325 361.054L242.819 357.391L246.269 355.319L252.585 358.016L256.991 357.533L255.663 347.51L277.266 375.648L261.608 341.774L266.013 341.291L268.508 337.628L283.423 354.636L285.917 350.973L290.323 350.49L292.817 346.827L297.222 346.344L293.984 333.141L286.925 313.577L304.706 335.355L290.959 304.661L278.167 275.557L282.572 275.074L284.111 269.821L303.803 294.779L317.762 310.197L322.168 309.714L324.662 306.051L329.068 305.568L314.365 273.284L301.573 244.18L295.469 226.206L342.867 297.276L342.496 288.843L346.901 288.36L354.173 292.648L358.578 292.165L354.385 277.371L357.835 275.298L360.329 271.635L364.734 271.153L375.828 281.8L380.233 281.317L394.192 296.735L390.955 283.532L393.449 279.869L406.453 293.696L407.992 288.443L392.334 254.569L394.829 250.906L399.234 250.423L402.684 248.35L407.089 247.867L409.584 244.204L413.989 243.722L430.815 263.909L435.22 263.427L437.715 259.764L442.12 259.281L444.614 255.618L449.02 255.135L451.514 251.472L455.92 250.989L445.039 225.065L450.399 226.172L453.849 224.099L458.255 223.616L463.615 224.724L465.154 219.471L479.114 234.888L483.519 234.406L486.014 230.743L490.419 230.26L483.36 210.696L487.765 210.213L490.259 206.55L525.238 256.949L527.732 253.286L532.138 252.803L537.498 253.911L547.636 262.968L541.532 244.995L545.938 244.512L558.942 258.339L527.041 197.434L534.313 201.721L523.432 175.798L525.926 172.135L530.332 171.652L521.361 148.908L525.767 148.425L528.261 144.762L510.692 107.708L522.741 119.945L531.923 127.413L555.437 158.731L559.842 158.248L559.47 149.815L563.876 149.332L573.058 156.8L578.419 157.907L579.958 152.654L576.72 139.45L588.769 151.688L593.174 151.205L587.07 133.232L596.252 140.699L598.747 137.036L613.662 154.044L614.245 147.201L606.23 126.047L607.77 120.794L612.175 120.311L624.223 132.549L628.629 132.066L631.123 128.403L649.86 151.771L652.354 148.108L656.76 147.625L659.254 143.962L648.373 118.038L650.868 114.375L652.407 109.122L654.901 105.459L659.307 104.976L657.024 93.3631L660.474 91.2901L662.013 86.0371L669.285 90.3244L671.779 86.6614L672.363 79.8183L678.679 82.5155L683.085 82.0327L692.267 89.5001L696.672 89.0172L692.479 74.2238L696.884 73.7409L706.067 81.2084L704.74 71.1851L713.922 78.6526L718.327 78.1697L720.822 74.5067L714.718 56.5331L715.301 49.69L740.726 84.1885L732.711 63.0348L739.027 65.7321L729.101 41.3983L733.507 40.9154L744.6 51.563L824.482 176.695L814.557 152.361L818.006 150.288L807.125 124.365L822.04 141.372L830.267 147.25L823.208 127.686L837.167 143.104L840.617 141.031L841.201 134.188L852.294 144.835L851.922 136.402L873.525 164.54L876.019 160.877L887.113 171.525L867.633 131.291L876.815 138.758L873.577 125.555L884.67 136.202L886.21 130.949L887.749 125.696" stroke="#58D764" stroke-linejoin="round"/>
<path d="M27.67 99.35H18.55L16.87 104H13.99L21.55 83.21H24.7L32.23 104H29.35L27.67 99.35ZM26.89 97.13L23.11 86.57L19.33 97.13H26.89ZM50.1048 87.56V104H47.3748V101.57C46.8548 102.41 46.1248 103.07 45.1848 103.55C44.2648 104.01 43.2448 104.24 42.1248 104.24C40.8448 104.24 39.6948 103.98 38.6748 103.46C37.6548 102.92 36.8448 102.12 36.2448 101.06C35.6648 100 35.3748 98.71 35.3748 97.19V87.56H38.0748V96.83C38.0748 98.45 38.4848 99.7 39.3048 100.58C40.1248 101.44 41.2448 101.87 42.6648 101.87C44.1248 101.87 45.2748 101.42 46.1148 100.52C46.9548 99.62 47.3748 98.31 47.3748 96.59V87.56H50.1048ZM58.0443 89.81V99.5C58.0443 100.3 58.2143 100.87 58.5543 101.21C58.8943 101.53 59.4843 101.69 60.3243 101.69H62.3343V104H59.8743C58.3543 104 57.2143 103.65 56.4543 102.95C55.6943 102.25 55.3143 101.1 55.3143 99.5V89.81H53.1843V87.56H55.3143V83.42H58.0443V87.56H62.3343V89.81H58.0443ZM72.812 104.27C71.272 104.27 69.872 103.92 68.612 103.22C67.372 102.52 66.392 101.53 65.672 100.25C64.972 98.95 64.622 97.45 64.622 95.75C64.622 94.07 64.982 92.59 65.702 91.31C66.442 90.01 67.442 89.02 68.702 88.34C69.962 87.64 71.372 87.29 72.932 87.29C74.492 87.29 75.902 87.64 77.162 88.34C78.422 89.02 79.412 90 80.132 91.28C80.872 92.56 81.242 94.05 81.242 95.75C81.242 97.45 80.862 98.95 80.102 100.25C79.362 101.53 78.352 102.52 77.072 103.22C75.792 103.92 74.372 104.27 72.812 104.27ZM72.812 101.87C73.792 101.87 74.712 101.64 75.572 101.18C76.432 100.72 77.122 100.03 77.642 99.11C78.182 98.19 78.452 97.07 78.452 95.75C78.452 94.43 78.192 93.31 77.672 92.39C77.152 91.47 76.472 90.79 75.632 90.35C74.792 89.89 73.882 89.66 72.902 89.66C71.902 89.66 70.982 89.89 70.142 90.35C69.322 90.79 68.662 91.47 68.162 92.39C67.662 93.31 67.412 94.43 67.412 95.75C67.412 97.09 67.652 98.22 68.132 99.14C68.632 100.06 69.292 100.75 70.112 101.21C70.932 101.65 71.832 101.87 72.812 101.87ZM104.601 87.26C105.881 87.26 107.021 87.53 108.021 88.07C109.021 88.59 109.811 89.38 110.391 90.44C110.971 91.5 111.261 92.79 111.261 94.31V104H108.561V94.7C108.561 93.06 108.151 91.81 107.331 90.95C106.531 90.07 105.441 89.63 104.061 89.63C102.641 89.63 101.511 90.09 100.671 91.01C99.8315 91.91 99.4115 93.22 99.4115 94.94V104H96.7115V94.7C96.7115 93.06 96.3015 91.81 95.4815 90.95C94.6815 90.07 93.5915 89.63 92.2115 89.63C90.7915 89.63 89.6615 90.09 88.8215 91.01C87.9815 91.91 87.5615 93.22 87.5615 94.94V104H84.8315V87.56H87.5615V89.93C88.1015 89.07 88.8215 88.41 89.7215 87.95C90.6415 87.49 91.6515 87.26 92.7515 87.26C94.1315 87.26 95.3515 87.57 96.4115 88.19C97.4715 88.81 98.2615 89.72 98.7815 90.92C99.2415 89.76 100.001 88.86 101.061 88.22C102.121 87.58 103.301 87.26 104.601 87.26ZM114.72 95.72C114.72 94.04 115.06 92.57 115.74 91.31C116.42 90.03 117.35 89.04 118.53 88.34C119.73 87.64 121.06 87.29 122.52 87.29C123.96 87.29 125.21 87.6 126.27 88.22C127.33 88.84 128.12 89.62 128.64 90.56V87.56H131.4V104H128.64V100.94C128.1 101.9 127.29 102.7 126.21 103.34C125.15 103.96 123.91 104.27 122.49 104.27C121.03 104.27 119.71 103.91 118.53 103.19C117.35 102.47 116.42 101.46 115.74 100.16C115.06 98.86 114.72 97.38 114.72 95.72ZM128.64 95.75C128.64 94.51 128.39 93.43 127.89 92.51C127.39 91.59 126.71 90.89 125.85 90.41C125.01 89.91 124.08 89.66 123.06 89.66C122.04 89.66 121.11 89.9 120.27 90.38C119.43 90.86 118.76 91.56 118.26 92.48C117.76 93.4 117.51 94.48 117.51 95.72C117.51 96.98 117.76 98.08 118.26 99.02C118.76 99.94 119.43 100.65 120.27 101.15C121.11 101.63 122.04 101.87 123.06 101.87C124.08 101.87 125.01 101.63 125.85 101.15C126.71 100.65 127.39 99.94 127.89 99.02C128.39 98.08 128.64 96.99 128.64 95.75ZM139.343 89.81V99.5C139.343 100.3 139.513 100.87 139.853 101.21C140.193 101.53 140.783 101.69 141.623 101.69H143.633V104H141.173C139.653 104 138.513 103.65 137.753 102.95C136.993 102.25 136.613 101.1 136.613 99.5V89.81H134.483V87.56H136.613V83.42H139.343V87.56H143.633V89.81H139.343ZM161.941 95.15C161.941 95.67 161.911 96.22 161.851 96.8H148.711C148.811 98.42 149.361 99.69 150.361 100.61C151.381 101.51 152.611 101.96 154.051 101.96C155.231 101.96 156.211 101.69 156.991 101.15C157.791 100.59 158.351 99.85 158.671 98.93H161.611C161.171 100.51 160.291 101.8 158.971 102.8C157.651 103.78 156.011 104.27 154.051 104.27C152.491 104.27 151.091 103.92 149.851 103.22C148.631 102.52 147.671 101.53 146.971 100.25C146.271 98.95 145.921 97.45 145.921 95.75C145.921 94.05 146.261 92.56 146.941 91.28C147.621 90 148.571 89.02 149.791 88.34C151.031 87.64 152.451 87.29 154.051 87.29C155.611 87.29 156.991 87.63 158.191 88.31C159.391 88.99 160.311 89.93 160.951 91.13C161.611 92.31 161.941 93.65 161.941 95.15ZM159.121 94.58C159.121 93.54 158.891 92.65 158.431 91.91C157.971 91.15 157.341 90.58 156.541 90.2C155.761 89.8 154.891 89.6 153.931 89.6C152.551 89.6 151.371 90.04 150.391 90.92C149.431 91.8 148.881 93.02 148.741 94.58H159.121ZM187.702 87.56L177.802 111.74H174.982L178.222 103.82L171.592 87.56H174.622L179.782 100.88L184.882 87.56H187.702ZM197.617 104.27C196.077 104.27 194.677 103.92 193.417 103.22C192.177 102.52 191.197 101.53 190.477 100.25C189.777 98.95 189.427 97.45 189.427 95.75C189.427 94.07 189.787 92.59 190.507 91.31C191.247 90.01 192.247 89.02 193.507 88.34C194.767 87.64 196.177 87.29 197.737 87.29C199.297 87.29 200.707 87.64 201.967 88.34C203.227 89.02 204.217 90 204.937 91.28C205.677 92.56 206.047 94.05 206.047 95.75C206.047 97.45 205.667 98.95 204.907 100.25C204.167 101.53 203.157 102.52 201.877 103.22C200.597 103.92 199.177 104.27 197.617 104.27ZM197.617 101.87C198.597 101.87 199.517 101.64 200.377 101.18C201.237 100.72 201.927 100.03 202.447 99.11C202.987 98.19 203.257 97.07 203.257 95.75C203.257 94.43 202.997 93.31 202.477 92.39C201.957 91.47 201.277 90.79 200.437 90.35C199.597 89.89 198.687 89.66 197.707 89.66C196.707 89.66 195.787 89.89 194.947 90.35C194.127 90.79 193.467 91.47 192.967 92.39C192.467 93.31 192.217 94.43 192.217 95.75C192.217 97.09 192.457 98.22 192.937 99.14C193.437 100.06 194.097 100.75 194.917 101.21C195.737 101.65 196.637 101.87 197.617 101.87ZM224.216 87.56V104H221.486V101.57C220.966 102.41 220.236 103.07 219.296 103.55C218.376 104.01 217.356 104.24 216.236 104.24C214.956 104.24 213.806 103.98 212.786 103.46C211.766 102.92 210.956 102.12 210.356 101.06C209.776 100 209.486 98.71 209.486 97.19V87.56H212.186V96.83C212.186 98.45 212.596 99.7 213.416 100.58C214.236 101.44 215.356 101.87 216.776 101.87C218.236 101.87 219.386 101.42 220.226 100.52C221.066 99.62 221.486 98.31 221.486 96.59V87.56H224.216ZM231.556 90.23C232.036 89.29 232.716 88.56 233.596 88.04C234.496 87.52 235.586 87.26 236.866 87.26V90.08H236.146C233.086 90.08 231.556 91.74 231.556 95.06V104H228.826V87.56H231.556V90.23ZM35.08 125.26C36.36 125.26 37.5 125.53 38.5 126.07C39.5 126.59 40.29 127.38 40.87 128.44C41.45 129.5 41.74 130.79 41.74 132.31V142H39.04V132.7C39.04 131.06 38.63 129.81 37.81 128.95C37.01 128.07 35.92 127.63 34.54 127.63C33.12 127.63 31.99 128.09 31.15 129.01C30.31 129.91 29.89 131.22 29.89 132.94V142H27.19V132.7C27.19 131.06 26.78 129.81 25.96 128.95C25.16 128.07 24.07 127.63 22.69 127.63C21.27 127.63 20.14 128.09 19.3 129.01C18.46 129.91 18.04 131.22 18.04 132.94V142H15.31V125.56H18.04V127.93C18.58 127.07 19.3 126.41 20.2 125.95C21.12 125.49 22.13 125.26 23.23 125.26C24.61 125.26 25.83 125.57 26.89 126.19C27.95 126.81 28.74 127.72 29.26 128.92C29.72 127.76 30.48 126.86 31.54 126.22C32.6 125.58 33.78 125.26 35.08 125.26ZM45.1982 133.72C45.1982 132.04 45.5382 130.57 46.2182 129.31C46.8982 128.03 47.8282 127.04 49.0082 126.34C50.2082 125.64 51.5382 125.29 52.9982 125.29C54.4382 125.29 55.6882 125.6 56.7482 126.22C57.8082 126.84 58.5982 127.62 59.1182 128.56V125.56H61.8782V142H59.1182V138.94C58.5782 139.9 57.7682 140.7 56.6882 141.34C55.6282 141.96 54.3882 142.27 52.9682 142.27C51.5082 142.27 50.1882 141.91 49.0082 141.19C47.8282 140.47 46.8982 139.46 46.2182 138.16C45.5382 136.86 45.1982 135.38 45.1982 133.72ZM59.1182 133.75C59.1182 132.51 58.8682 131.43 58.3682 130.51C57.8682 129.59 57.1882 128.89 56.3282 128.41C55.4882 127.91 54.5582 127.66 53.5382 127.66C52.5182 127.66 51.5882 127.9 50.7482 128.38C49.9082 128.86 49.2382 129.56 48.7382 130.48C48.2382 131.4 47.9882 132.48 47.9882 133.72C47.9882 134.98 48.2382 136.08 48.7382 137.02C49.2382 137.94 49.9082 138.65 50.7482 139.15C51.5882 139.63 52.5182 139.87 53.5382 139.87C54.5582 139.87 55.4882 139.63 56.3282 139.15C57.1882 138.65 57.8682 137.94 58.3682 137.02C58.8682 136.08 59.1182 134.99 59.1182 133.75ZM69.2216 128.23C69.7016 127.29 70.3816 126.56 71.2616 126.04C72.1616 125.52 73.2516 125.26 74.5316 125.26V128.08H73.8116C70.7516 128.08 69.2216 129.74 69.2216 133.06V142H66.4916V125.56H69.2216V128.23ZM86.863 142L80.413 134.74V142H77.683V119.8H80.413V132.85L86.743 125.56H90.553L82.813 133.75L90.583 142H86.863ZM108.123 133.15C108.123 133.67 108.093 134.22 108.033 134.8H94.8925C94.9925 136.42 95.5425 137.69 96.5425 138.61C97.5625 139.51 98.7925 139.96 100.233 139.96C101.413 139.96 102.393 139.69 103.173 139.15C103.973 138.59 104.533 137.85 104.853 136.93H107.793C107.353 138.51 106.473 139.8 105.153 140.8C103.833 141.78 102.193 142.27 100.233 142.27C98.6725 142.27 97.2725 141.92 96.0325 141.22C94.8125 140.52 93.8525 139.53 93.1525 138.25C92.4525 136.95 92.1025 135.45 92.1025 133.75C92.1025 132.05 92.4425 130.56 93.1225 129.28C93.8025 128 94.7525 127.02 95.9725 126.34C97.2125 125.64 98.6325 125.29 100.233 125.29C101.793 125.29 103.173 125.63 104.373 126.31C105.573 126.99 106.493 127.93 107.133 129.13C107.793 130.31 108.123 131.65 108.123 133.15ZM105.303 132.58C105.303 131.54 105.073 130.65 104.613 129.91C104.153 129.15 103.523 128.58 102.723 128.2C101.943 127.8 101.073 127.6 100.113 127.6C98.7325 127.6 97.5525 128.04 96.5725 128.92C95.6125 129.8 95.0625 131.02 94.9225 132.58H105.303ZM115.056 127.81V137.5C115.056 138.3 115.226 138.87 115.566 139.21C115.906 139.53 116.496 139.69 117.336 139.69H119.346V142H116.886C115.366 142 114.226 141.65 113.466 140.95C112.706 140.25 112.326 139.1 112.326 137.5V127.81H110.196V125.56H112.326V121.42H115.056V125.56H119.346V127.81H115.056ZM124.064 122.89C123.544 122.89 123.104 122.71 122.744 122.35C122.384 121.99 122.204 121.55 122.204 121.03C122.204 120.51 122.384 120.07 122.744 119.71C123.104 119.35 123.544 119.17 124.064 119.17C124.564 119.17 124.984 119.35 125.324 119.71C125.684 120.07 125.864 120.51 125.864 121.03C125.864 121.55 125.684 121.99 125.324 122.35C124.984 122.71 124.564 122.89 124.064 122.89ZM125.384 125.56V142H122.654V125.56H125.384ZM138.047 125.26C140.047 125.26 141.667 125.87 142.907 127.09C144.147 128.29 144.767 130.03 144.767 132.31V142H142.067V132.7C142.067 131.06 141.657 129.81 140.837 128.95C140.017 128.07 138.897 127.63 137.477 127.63C136.037 127.63 134.887 128.08 134.027 128.98C133.187 129.88 132.767 131.19 132.767 132.91V142H130.037V125.56H132.767V127.9C133.307 127.06 134.037 126.41 134.957 125.95C135.897 125.49 136.927 125.26 138.047 125.26ZM156.006 125.29C157.426 125.29 158.666 125.6 159.726 126.22C160.806 126.84 161.606 127.62 162.126 128.56V125.56H164.886V142.36C164.886 143.86 164.566 145.19 163.926 146.35C163.286 147.53 162.366 148.45 161.166 149.11C159.986 149.77 158.606 150.1 157.026 150.1C154.866 150.1 153.066 149.59 151.626 148.57C150.186 147.55 149.336 146.16 149.076 144.4H151.776C152.076 145.4 152.696 146.2 153.636 146.8C154.576 147.42 155.706 147.73 157.026 147.73C158.526 147.73 159.746 147.26 160.686 146.32C161.646 145.38 162.126 144.06 162.126 142.36V138.91C161.586 139.87 160.786 140.67 159.726 141.31C158.666 141.95 157.426 142.27 156.006 142.27C154.546 142.27 153.216 141.91 152.016 141.19C150.836 140.47 149.906 139.46 149.226 138.16C148.546 136.86 148.206 135.38 148.206 133.72C148.206 132.04 148.546 130.57 149.226 129.31C149.906 128.03 150.836 127.04 152.016 126.34C153.216 125.64 154.546 125.29 156.006 125.29ZM162.126 133.75C162.126 132.51 161.876 131.43 161.376 130.51C160.876 129.59 160.196 128.89 159.336 128.41C158.496 127.91 157.566 127.66 156.546 127.66C155.526 127.66 154.596 127.9 153.756 128.38C152.916 128.86 152.246 129.56 151.746 130.48C151.246 131.4 150.996 132.48 150.996 133.72C150.996 134.98 151.246 136.08 151.746 137.02C152.246 137.94 152.916 138.65 153.756 139.15C154.596 139.63 155.526 139.87 156.546 139.87C157.566 139.87 158.496 139.63 159.336 139.15C160.196 138.65 160.876 137.94 161.376 137.02C161.876 136.08 162.126 134.99 162.126 133.75Z" fill="white"/>
<path d="M28.248 166.848L25.016 178H23.384L20.792 169.024L18.104 178L16.488 178.016L13.368 166.848H14.92L17.352 176.304L20.04 166.848H21.672L24.232 176.272L26.68 166.848H28.248ZM37.8414 173.28C37.8414 173.557 37.8254 173.851 37.7934 174.16H30.7854C30.8387 175.024 31.132 175.701 31.6654 176.192C32.2094 176.672 32.8654 176.912 33.6334 176.912C34.2627 176.912 34.7854 176.768 35.2014 176.48C35.628 176.181 35.9267 175.787 36.0974 175.296H37.6654C37.4307 176.139 36.9614 176.827 36.2574 177.36C35.5534 177.883 34.6787 178.144 33.6334 178.144C32.8014 178.144 32.0547 177.957 31.3934 177.584C30.7427 177.211 30.2307 176.683 29.8574 176C29.484 175.307 29.2974 174.507 29.2974 173.6C29.2974 172.693 29.4787 171.899 29.8414 171.216C30.204 170.533 30.7107 170.011 31.3614 169.648C32.0227 169.275 32.78 169.088 33.6334 169.088C34.4654 169.088 35.2014 169.269 35.8414 169.632C36.4814 169.995 36.972 170.496 37.3134 171.136C37.6654 171.765 37.8414 172.48 37.8414 173.28ZM36.3374 172.976C36.3374 172.421 36.2147 171.947 35.9694 171.552C35.724 171.147 35.388 170.843 34.9614 170.64C34.5454 170.427 34.0814 170.32 33.5694 170.32C32.8334 170.32 32.204 170.555 31.6814 171.024C31.1694 171.493 30.876 172.144 30.8014 172.976H36.3374ZM55.7089 169.232L52.9729 178H51.4689L49.3569 171.04L47.2449 178H45.7409L42.9889 169.232H44.4769L46.4929 176.592L48.6689 169.232H50.1569L52.2849 176.608L54.2689 169.232H55.7089ZM57.9059 167.808C57.6285 167.808 57.3939 167.712 57.2019 167.52C57.0099 167.328 56.9139 167.093 56.9139 166.816C56.9139 166.539 57.0099 166.304 57.2019 166.112C57.3939 165.92 57.6285 165.824 57.9059 165.824C58.1725 165.824 58.3965 165.92 58.5779 166.112C58.7699 166.304 58.8659 166.539 58.8659 166.816C58.8659 167.093 58.7699 167.328 58.5779 167.52C58.3965 167.712 58.1725 167.808 57.9059 167.808ZM58.6099 169.232V178H57.1539V169.232H58.6099ZM62.5474 166.16V178H61.0914V166.16H62.5474ZM66.4849 166.16V178H65.0289V166.16H66.4849ZM73.984 167.808C73.7067 167.808 73.472 167.712 73.28 167.52C73.088 167.328 72.992 167.093 72.992 166.816C72.992 166.539 73.088 166.304 73.28 166.112C73.472 165.92 73.7067 165.824 73.984 165.824C74.2507 165.824 74.4747 165.92 74.656 166.112C74.848 166.304 74.944 166.539 74.944 166.816C74.944 167.093 74.848 167.328 74.656 167.52C74.4747 167.712 74.2507 167.808 73.984 167.808ZM74.688 169.232V178H73.232V169.232H74.688ZM81.4415 169.072C82.5082 169.072 83.3722 169.397 84.0335 170.048C84.6948 170.688 85.0255 171.616 85.0255 172.832V178H83.5855V173.04C83.5855 172.165 83.3668 171.499 82.9295 171.04C82.4922 170.571 81.8948 170.336 81.1375 170.336C80.3695 170.336 79.7562 170.576 79.2975 171.056C78.8495 171.536 78.6255 172.235 78.6255 173.152V178H77.1695V169.232H78.6255V170.48C78.9135 170.032 79.3028 169.685 79.7935 169.44C80.2948 169.195 80.8442 169.072 81.4415 169.072ZM89.1799 170.432V175.6C89.1799 176.027 89.2705 176.331 89.4519 176.512C89.6332 176.683 89.9479 176.768 90.3959 176.768H91.4679V178H90.1559C89.3452 178 88.7372 177.813 88.3319 177.44C87.9265 177.067 87.7239 176.453 87.7239 175.6V170.432H86.5879V169.232H87.7239V167.024H89.1799V169.232H91.4679V170.432H89.1799ZM101.232 173.28C101.232 173.557 101.216 173.851 101.184 174.16H94.176C94.2293 175.024 94.5227 175.701 95.056 176.192C95.6 176.672 96.256 176.912 97.024 176.912C97.6533 176.912 98.176 176.768 98.592 176.48C99.0187 176.181 99.3173 175.787 99.488 175.296H101.056C100.821 176.139 100.352 176.827 99.648 177.36C98.944 177.883 98.0693 178.144 97.024 178.144C96.192 178.144 95.4453 177.957 94.784 177.584C94.1333 177.211 93.6213 176.683 93.248 176C92.8747 175.307 92.688 174.507 92.688 173.6C92.688 172.693 92.8693 171.899 93.232 171.216C93.5947 170.533 94.1013 170.011 94.752 169.648C95.4133 169.275 96.1707 169.088 97.024 169.088C97.856 169.088 98.592 169.269 99.232 169.632C99.872 169.995 100.363 170.496 100.704 171.136C101.056 171.765 101.232 172.48 101.232 173.28ZM99.728 172.976C99.728 172.421 99.6053 171.947 99.36 171.552C99.1147 171.147 98.7787 170.843 98.352 170.64C97.936 170.427 97.472 170.32 96.96 170.32C96.224 170.32 95.5947 170.555 95.072 171.024C94.56 171.493 94.2667 172.144 94.192 172.976H99.728ZM106.77 169.088C107.527 169.088 108.189 169.253 108.754 169.584C109.33 169.915 109.757 170.331 110.034 170.832V169.232H111.506V178.192C111.506 178.992 111.335 179.701 110.994 180.32C110.653 180.949 110.162 181.44 109.522 181.792C108.893 182.144 108.157 182.32 107.314 182.32C106.162 182.32 105.202 182.048 104.434 181.504C103.666 180.96 103.213 180.219 103.074 179.28H104.514C104.674 179.813 105.005 180.24 105.506 180.56C106.007 180.891 106.61 181.056 107.314 181.056C108.114 181.056 108.765 180.805 109.266 180.304C109.778 179.803 110.034 179.099 110.034 178.192V176.352C109.746 176.864 109.319 177.291 108.754 177.632C108.189 177.973 107.527 178.144 106.77 178.144C105.991 178.144 105.282 177.952 104.642 177.568C104.013 177.184 103.517 176.645 103.154 175.952C102.791 175.259 102.61 174.469 102.61 173.584C102.61 172.688 102.791 171.904 103.154 171.232C103.517 170.549 104.013 170.021 104.642 169.648C105.282 169.275 105.991 169.088 106.77 169.088ZM110.034 173.6C110.034 172.939 109.901 172.363 109.634 171.872C109.367 171.381 109.005 171.008 108.546 170.752C108.098 170.485 107.602 170.352 107.058 170.352C106.514 170.352 106.018 170.48 105.57 170.736C105.122 170.992 104.765 171.365 104.498 171.856C104.231 172.347 104.098 172.923 104.098 173.584C104.098 174.256 104.231 174.843 104.498 175.344C104.765 175.835 105.122 176.213 105.57 176.48C106.018 176.736 106.514 176.864 107.058 176.864C107.602 176.864 108.098 176.736 108.546 176.48C109.005 176.213 109.367 175.835 109.634 175.344C109.901 174.843 110.034 174.261 110.034 173.6ZM115.422 170.656C115.678 170.155 116.041 169.765 116.51 169.488C116.99 169.211 117.572 169.072 118.254 169.072V170.576H117.87C116.238 170.576 115.422 171.461 115.422 173.232V178H113.966V169.232H115.422V170.656ZM119.391 173.584C119.391 172.688 119.572 171.904 119.935 171.232C120.298 170.549 120.794 170.021 121.423 169.648C122.063 169.275 122.772 169.088 123.551 169.088C124.319 169.088 124.986 169.253 125.551 169.584C126.116 169.915 126.538 170.331 126.815 170.832V169.232H128.287V178H126.815V176.368C126.527 176.88 126.095 177.307 125.519 177.648C124.954 177.979 124.292 178.144 123.535 178.144C122.756 178.144 122.052 177.952 121.423 177.568C120.794 177.184 120.298 176.645 119.935 175.952C119.572 175.259 119.391 174.469 119.391 173.584ZM126.815 173.6C126.815 172.939 126.682 172.363 126.415 171.872C126.148 171.381 125.786 171.008 125.327 170.752C124.879 170.485 124.383 170.352 123.839 170.352C123.295 170.352 122.799 170.48 122.351 170.736C121.903 170.992 121.546 171.365 121.279 171.856C121.012 172.347 120.879 172.923 120.879 173.584C120.879 174.256 121.012 174.843 121.279 175.344C121.546 175.835 121.903 176.213 122.351 176.48C122.799 176.736 123.295 176.864 123.839 176.864C124.383 176.864 124.879 176.736 125.327 176.48C125.786 176.213 126.148 175.835 126.415 175.344C126.682 174.843 126.815 174.261 126.815 173.6ZM132.524 170.432V175.6C132.524 176.027 132.614 176.331 132.796 176.512C132.977 176.683 133.292 176.768 133.74 176.768H134.812V178H133.5C132.689 178 132.081 177.813 131.676 177.44C131.27 177.067 131.068 176.453 131.068 175.6V170.432H129.932V169.232H131.068V167.024H132.524V169.232H134.812V170.432H132.524ZM144.576 173.28C144.576 173.557 144.56 173.851 144.528 174.16H137.52C137.573 175.024 137.866 175.701 138.4 176.192C138.944 176.672 139.6 176.912 140.368 176.912C140.997 176.912 141.52 176.768 141.936 176.48C142.362 176.181 142.661 175.787 142.832 175.296H144.4C144.165 176.139 143.696 176.827 142.992 177.36C142.288 177.883 141.413 178.144 140.368 178.144C139.536 178.144 138.789 177.957 138.128 177.584C137.477 177.211 136.965 176.683 136.592 176C136.218 175.307 136.032 174.507 136.032 173.6C136.032 172.693 136.213 171.899 136.576 171.216C136.938 170.533 137.445 170.011 138.096 169.648C138.757 169.275 139.514 169.088 140.368 169.088C141.2 169.088 141.936 169.269 142.576 169.632C143.216 169.995 143.706 170.496 144.048 171.136C144.4 171.765 144.576 172.48 144.576 173.28ZM143.072 172.976C143.072 172.421 142.949 171.947 142.704 171.552C142.458 171.147 142.122 170.843 141.696 170.64C141.28 170.427 140.816 170.32 140.304 170.32C139.568 170.32 138.938 170.555 138.416 171.024C137.904 171.493 137.61 172.144 137.536 172.976H143.072ZM158.315 169.232L153.035 182.128H151.531L153.259 177.904L149.723 169.232H151.339L154.091 176.336L156.811 169.232H158.315ZM163.603 178.144C162.782 178.144 162.035 177.957 161.363 177.584C160.702 177.211 160.179 176.683 159.795 176C159.422 175.307 159.235 174.507 159.235 173.6C159.235 172.704 159.427 171.915 159.811 171.232C160.206 170.539 160.739 170.011 161.411 169.648C162.083 169.275 162.835 169.088 163.667 169.088C164.499 169.088 165.251 169.275 165.923 169.648C166.595 170.011 167.123 170.533 167.507 171.216C167.902 171.899 168.099 172.693 168.099 173.6C168.099 174.507 167.896 175.307 167.491 176C167.096 176.683 166.558 177.211 165.875 177.584C165.192 177.957 164.435 178.144 163.603 178.144ZM163.603 176.864C164.126 176.864 164.616 176.741 165.075 176.496C165.534 176.251 165.902 175.883 166.179 175.392C166.467 174.901 166.611 174.304 166.611 173.6C166.611 172.896 166.472 172.299 166.195 171.808C165.918 171.317 165.555 170.955 165.107 170.72C164.659 170.475 164.174 170.352 163.651 170.352C163.118 170.352 162.627 170.475 162.179 170.72C161.742 170.955 161.39 171.317 161.123 171.808C160.856 172.299 160.723 172.896 160.723 173.6C160.723 174.315 160.851 174.917 161.107 175.408C161.374 175.899 161.726 176.267 162.163 176.512C162.6 176.747 163.08 176.864 163.603 176.864ZM177.789 169.232V178H176.333V176.704C176.056 177.152 175.667 177.504 175.165 177.76C174.675 178.005 174.131 178.128 173.533 178.128C172.851 178.128 172.237 177.989 171.693 177.712C171.149 177.424 170.717 176.997 170.397 176.432C170.088 175.867 169.933 175.179 169.933 174.368V169.232H171.373V174.176C171.373 175.04 171.592 175.707 172.029 176.176C172.467 176.635 173.064 176.864 173.821 176.864C174.6 176.864 175.213 176.624 175.661 176.144C176.109 175.664 176.333 174.965 176.333 174.048V169.232H177.789ZM181.704 170.656C181.96 170.155 182.322 169.765 182.792 169.488C183.272 169.211 183.853 169.072 184.536 169.072V170.576H184.152C182.52 170.576 181.704 171.461 181.704 173.232V178H180.248V169.232H181.704V170.656ZM189.938 173.584C189.938 172.688 190.119 171.904 190.482 171.232C190.845 170.549 191.341 170.021 191.97 169.648C192.61 169.275 193.325 169.088 194.114 169.088C194.797 169.088 195.431 169.248 196.018 169.568C196.605 169.877 197.053 170.288 197.362 170.8V166.16H198.834V178H197.362V176.352C197.074 176.875 196.647 177.307 196.082 177.648C195.517 177.979 194.855 178.144 194.098 178.144C193.319 178.144 192.61 177.952 191.97 177.568C191.341 177.184 190.845 176.645 190.482 175.952C190.119 175.259 189.938 174.469 189.938 173.584ZM197.362 173.6C197.362 172.939 197.229 172.363 196.962 171.872C196.695 171.381 196.333 171.008 195.874 170.752C195.426 170.485 194.93 170.352 194.386 170.352C193.842 170.352 193.346 170.48 192.898 170.736C192.45 170.992 192.093 171.365 191.826 171.856C191.559 172.347 191.426 172.923 191.426 173.584C191.426 174.256 191.559 174.843 191.826 175.344C192.093 175.835 192.45 176.213 192.898 176.48C193.346 176.736 193.842 176.864 194.386 176.864C194.93 176.864 195.426 176.736 195.874 176.48C196.333 176.213 196.695 175.835 196.962 175.344C197.229 174.843 197.362 174.261 197.362 173.6ZM200.751 173.584C200.751 172.688 200.932 171.904 201.295 171.232C201.657 170.549 202.153 170.021 202.783 169.648C203.423 169.275 204.132 169.088 204.911 169.088C205.679 169.088 206.345 169.253 206.911 169.584C207.476 169.915 207.897 170.331 208.175 170.832V169.232H209.647V178H208.175V176.368C207.887 176.88 207.455 177.307 206.879 177.648C206.313 177.979 205.652 178.144 204.895 178.144C204.116 178.144 203.412 177.952 202.783 177.568C202.153 177.184 201.657 176.645 201.295 175.952C200.932 175.259 200.751 174.469 200.751 173.584ZM208.175 173.6C208.175 172.939 208.041 172.363 207.775 171.872C207.508 171.381 207.145 171.008 206.687 170.752C206.239 170.485 205.743 170.352 205.199 170.352C204.655 170.352 204.159 170.48 203.711 170.736C203.263 170.992 202.905 171.365 202.639 171.856C202.372 172.347 202.239 172.923 202.239 173.584C202.239 174.256 202.372 174.843 202.639 175.344C202.905 175.835 203.263 176.213 203.711 176.48C204.159 176.736 204.655 176.864 205.199 176.864C205.743 176.864 206.239 176.736 206.687 176.48C207.145 176.213 207.508 175.835 207.775 175.344C208.041 174.843 208.175 174.261 208.175 173.6ZM213.883 170.432V175.6C213.883 176.027 213.974 176.331 214.155 176.512C214.336 176.683 214.651 176.768 215.099 176.768H216.171V178H214.859C214.048 178 213.44 177.813 213.035 177.44C212.63 177.067 212.427 176.453 212.427 175.6V170.432H211.291V169.232H212.427V167.024H213.883V169.232H216.171V170.432H213.883ZM217.391 173.584C217.391 172.688 217.572 171.904 217.935 171.232C218.298 170.549 218.794 170.021 219.423 169.648C220.063 169.275 220.772 169.088 221.551 169.088C222.319 169.088 222.986 169.253 223.551 169.584C224.116 169.915 224.538 170.331 224.815 170.832V169.232H226.287V178H224.815V176.368C224.527 176.88 224.095 177.307 223.519 177.648C222.954 177.979 222.292 178.144 221.535 178.144C220.756 178.144 220.052 177.952 219.423 177.568C218.794 177.184 218.298 176.645 217.935 175.952C217.572 175.259 217.391 174.469 217.391 173.584ZM224.815 173.6C224.815 172.939 224.682 172.363 224.415 171.872C224.148 171.381 223.786 171.008 223.327 170.752C222.879 170.485 222.383 170.352 221.839 170.352C221.295 170.352 220.799 170.48 220.351 170.736C219.903 170.992 219.546 171.365 219.279 171.856C219.012 172.347 218.879 172.923 218.879 173.584C218.879 174.256 219.012 174.843 219.279 175.344C219.546 175.835 219.903 176.213 220.351 176.48C220.799 176.736 221.295 176.864 221.839 176.864C222.383 176.864 222.879 176.736 223.327 176.48C223.786 176.213 224.148 175.835 224.415 175.344C224.682 174.843 224.815 174.261 224.815 173.6ZM230.204 170.864C230.502 170.341 230.94 169.915 231.516 169.584C232.092 169.253 232.748 169.088 233.484 169.088C234.273 169.088 234.982 169.275 235.612 169.648C236.241 170.021 236.737 170.549 237.1 171.232C237.462 171.904 237.644 172.688 237.644 173.584C237.644 174.469 237.462 175.259 237.1 175.952C236.737 176.645 236.236 177.184 235.596 177.568C234.966 177.952 234.262 178.144 233.484 178.144C232.726 178.144 232.06 177.979 231.484 177.648C230.918 177.317 230.492 176.896 230.204 176.384V178H228.748V166.16H230.204V170.864ZM236.156 173.584C236.156 172.923 236.022 172.347 235.756 171.856C235.489 171.365 235.126 170.992 234.668 170.736C234.22 170.48 233.724 170.352 233.18 170.352C232.646 170.352 232.15 170.485 231.692 170.752C231.244 171.008 230.881 171.387 230.604 171.888C230.337 172.379 230.204 172.949 230.204 173.6C230.204 174.261 230.337 174.843 230.604 175.344C230.881 175.835 231.244 176.213 231.692 176.48C232.15 176.736 232.646 176.864 233.18 176.864C233.724 176.864 234.22 176.736 234.668 176.48C235.126 176.213 235.489 175.835 235.756 175.344C236.022 174.843 236.156 174.256 236.156 173.584ZM239.016 173.584C239.016 172.688 239.197 171.904 239.56 171.232C239.923 170.549 240.419 170.021 241.048 169.648C241.688 169.275 242.397 169.088 243.176 169.088C243.944 169.088 244.611 169.253 245.176 169.584C245.741 169.915 246.163 170.331 246.44 170.832V169.232H247.912V178H246.44V176.368C246.152 176.88 245.72 177.307 245.144 177.648C244.579 177.979 243.917 178.144 243.16 178.144C242.381 178.144 241.677 177.952 241.048 177.568C240.419 177.184 239.923 176.645 239.56 175.952C239.197 175.259 239.016 174.469 239.016 173.584ZM246.44 173.6C246.44 172.939 246.307 172.363 246.04 171.872C245.773 171.381 245.411 171.008 244.952 170.752C244.504 170.485 244.008 170.352 243.464 170.352C242.92 170.352 242.424 170.48 241.976 170.736C241.528 170.992 241.171 171.365 240.904 171.856C240.637 172.347 240.504 172.923 240.504 173.584C240.504 174.256 240.637 174.843 240.904 175.344C241.171 175.835 241.528 176.213 241.976 176.48C242.424 176.736 242.92 176.864 243.464 176.864C244.008 176.864 244.504 176.736 244.952 176.48C245.411 176.213 245.773 175.835 246.04 175.344C246.307 174.843 246.44 174.261 246.44 173.6ZM253.477 178.144C252.805 178.144 252.202 178.032 251.669 177.808C251.135 177.573 250.714 177.253 250.405 176.848C250.095 176.432 249.925 175.957 249.893 175.424H251.397C251.439 175.861 251.642 176.219 252.005 176.496C252.378 176.773 252.863 176.912 253.461 176.912C254.015 176.912 254.453 176.789 254.773 176.544C255.093 176.299 255.253 175.989 255.253 175.616C255.253 175.232 255.082 174.949 254.741 174.768C254.399 174.576 253.871 174.389 253.157 174.208C252.506 174.037 251.973 173.867 251.557 173.696C251.151 173.515 250.799 173.253 250.501 172.912C250.213 172.56 250.069 172.101 250.069 171.536C250.069 171.088 250.202 170.677 250.469 170.304C250.735 169.931 251.114 169.637 251.605 169.424C252.095 169.2 252.655 169.088 253.285 169.088C254.255 169.088 255.039 169.333 255.637 169.824C256.234 170.315 256.554 170.987 256.597 171.84H255.141C255.109 171.381 254.922 171.013 254.581 170.736C254.25 170.459 253.802 170.32 253.237 170.32C252.714 170.32 252.298 170.432 251.989 170.656C251.679 170.88 251.525 171.173 251.525 171.536C251.525 171.824 251.615 172.064 251.797 172.256C251.989 172.437 252.223 172.587 252.501 172.704C252.789 172.811 253.183 172.933 253.685 173.072C254.314 173.243 254.826 173.413 255.221 173.584C255.615 173.744 255.951 173.989 256.229 174.32C256.517 174.651 256.666 175.083 256.677 175.616C256.677 176.096 256.543 176.528 256.277 176.912C256.01 177.296 255.631 177.6 255.141 177.824C254.661 178.037 254.106 178.144 253.477 178.144ZM266.732 173.28C266.732 173.557 266.716 173.851 266.684 174.16H259.676C259.729 175.024 260.023 175.701 260.556 176.192C261.1 176.672 261.756 176.912 262.524 176.912C263.153 176.912 263.676 176.768 264.092 176.48C264.519 176.181 264.817 175.787 264.988 175.296H266.556C266.321 176.139 265.852 176.827 265.148 177.36C264.444 177.883 263.569 178.144 262.524 178.144C261.692 178.144 260.945 177.957 260.284 177.584C259.633 177.211 259.121 176.683 258.748 176C258.375 175.307 258.188 174.507 258.188 173.6C258.188 172.693 258.369 171.899 258.732 171.216C259.095 170.533 259.601 170.011 260.252 169.648C260.913 169.275 261.671 169.088 262.524 169.088C263.356 169.088 264.092 169.269 264.732 169.632C265.372 169.995 265.863 170.496 266.204 171.136C266.556 171.765 266.732 172.48 266.732 173.28ZM265.228 172.976C265.228 172.421 265.105 171.947 264.86 171.552C264.615 171.147 264.279 170.843 263.852 170.64C263.436 170.427 262.972 170.32 262.46 170.32C261.724 170.32 261.095 170.555 260.572 171.024C260.06 171.493 259.767 172.144 259.692 172.976H265.228ZM270.158 175.984L268.366 180.288H267.39L268.558 175.984H270.158ZM279.195 178.144C278.523 178.144 277.921 178.032 277.387 177.808C276.854 177.573 276.433 177.253 276.123 176.848C275.814 176.432 275.643 175.957 275.611 175.424H277.115C277.158 175.861 277.361 176.219 277.723 176.496C278.097 176.773 278.582 176.912 279.179 176.912C279.734 176.912 280.171 176.789 280.491 176.544C280.811 176.299 280.971 175.989 280.971 175.616C280.971 175.232 280.801 174.949 280.459 174.768C280.118 174.576 279.59 174.389 278.875 174.208C278.225 174.037 277.691 173.867 277.275 173.696C276.87 173.515 276.518 173.253 276.219 172.912C275.931 172.56 275.787 172.101 275.787 171.536C275.787 171.088 275.921 170.677 276.187 170.304C276.454 169.931 276.833 169.637 277.323 169.424C277.814 169.2 278.374 169.088 279.003 169.088C279.974 169.088 280.758 169.333 281.355 169.824C281.953 170.315 282.273 170.987 282.315 171.84H280.859C280.827 171.381 280.641 171.013 280.299 170.736C279.969 170.459 279.521 170.32 278.955 170.32C278.433 170.32 278.017 170.432 277.707 170.656C277.398 170.88 277.243 171.173 277.243 171.536C277.243 171.824 277.334 172.064 277.515 172.256C277.707 172.437 277.942 172.587 278.219 172.704C278.507 172.811 278.902 172.933 279.403 173.072C280.033 173.243 280.545 173.413 280.939 173.584C281.334 173.744 281.67 173.989 281.947 174.32C282.235 174.651 282.385 175.083 282.395 175.616C282.395 176.096 282.262 176.528 281.995 176.912C281.729 177.296 281.35 177.6 280.859 177.824C280.379 178.037 279.825 178.144 279.195 178.144ZM294.995 169.072C295.677 169.072 296.285 169.216 296.819 169.504C297.352 169.781 297.773 170.203 298.083 170.768C298.392 171.333 298.547 172.021 298.547 172.832V178H297.107V173.04C297.107 172.165 296.888 171.499 296.451 171.04C296.024 170.571 295.443 170.336 294.707 170.336C293.949 170.336 293.347 170.581 292.899 171.072C292.451 171.552 292.227 172.251 292.227 173.168V178H290.787V173.04C290.787 172.165 290.568 171.499 290.131 171.04C289.704 170.571 289.123 170.336 288.387 170.336C287.629 170.336 287.027 170.581 286.579 171.072C286.131 171.552 285.907 172.251 285.907 173.168V178H284.451V169.232H285.907V170.496C286.195 170.037 286.579 169.685 287.059 169.44C287.549 169.195 288.088 169.072 288.675 169.072C289.411 169.072 290.061 169.237 290.627 169.568C291.192 169.899 291.613 170.384 291.891 171.024C292.136 170.405 292.541 169.925 293.107 169.584C293.672 169.243 294.301 169.072 294.995 169.072ZM304.039 178.144C303.367 178.144 302.764 178.032 302.231 177.808C301.698 177.573 301.276 177.253 300.967 176.848C300.658 176.432 300.487 175.957 300.455 175.424H301.959C302.002 175.861 302.204 176.219 302.567 176.496C302.94 176.773 303.426 176.912 304.023 176.912C304.578 176.912 305.015 176.789 305.335 176.544C305.655 176.299 305.815 175.989 305.815 175.616C305.815 175.232 305.644 174.949 305.303 174.768C304.962 174.576 304.434 174.389 303.719 174.208C303.068 174.037 302.535 173.867 302.119 173.696C301.714 173.515 301.362 173.253 301.063 172.912C300.775 172.56 300.631 172.101 300.631 171.536C300.631 171.088 300.764 170.677 301.031 170.304C301.298 169.931 301.676 169.637 302.167 169.424C302.658 169.2 303.218 169.088 303.847 169.088C304.818 169.088 305.602 169.333 306.199 169.824C306.796 170.315 307.116 170.987 307.159 171.84H305.703C305.671 171.381 305.484 171.013 305.143 170.736C304.812 170.459 304.364 170.32 303.799 170.32C303.276 170.32 302.86 170.432 302.551 170.656C302.242 170.88 302.087 171.173 302.087 171.536C302.087 171.824 302.178 172.064 302.359 172.256C302.551 172.437 302.786 172.587 303.063 172.704C303.351 172.811 303.746 172.933 304.247 173.072C304.876 173.243 305.388 173.413 305.783 173.584C306.178 173.744 306.514 173.989 306.791 174.32C307.079 174.651 307.228 175.083 307.239 175.616C307.239 176.096 307.106 176.528 306.839 176.912C306.572 177.296 306.194 177.6 305.703 177.824C305.223 178.037 304.668 178.144 304.039 178.144ZM13.688 197.584C13.688 196.688 13.8693 195.904 14.232 195.232C14.5947 194.549 15.0907 194.021 15.72 193.648C16.36 193.275 17.0693 193.088 17.848 193.088C18.616 193.088 19.2827 193.253 19.848 193.584C20.4133 193.915 20.8347 194.331 21.112 194.832V193.232H22.584V202H21.112V200.368C20.824 200.88 20.392 201.307 19.816 201.648C19.2507 201.979 18.5893 202.144 17.832 202.144C17.0533 202.144 16.3493 201.952 15.72 201.568C15.0907 201.184 14.5947 200.645 14.232 199.952C13.8693 199.259 13.688 198.469 13.688 197.584ZM21.112 197.6C21.112 196.939 20.9787 196.363 20.712 195.872C20.4453 195.381 20.0827 195.008 19.624 194.752C19.176 194.485 18.68 194.352 18.136 194.352C17.592 194.352 17.096 194.48 16.648 194.736C16.2 194.992 15.8427 195.365 15.576 195.856C15.3093 196.347 15.176 196.923 15.176 197.584C15.176 198.256 15.3093 198.843 15.576 199.344C15.8427 199.835 16.2 200.213 16.648 200.48C17.096 200.736 17.592 200.864 18.136 200.864C18.68 200.864 19.176 200.736 19.624 200.48C20.0827 200.213 20.4453 199.835 20.712 199.344C20.9787 198.843 21.112 198.261 21.112 197.6ZM29.3165 193.072C30.3832 193.072 31.2472 193.397 31.9085 194.048C32.5698 194.688 32.9005 195.616 32.9005 196.832V202H31.4605V197.04C31.4605 196.165 31.2418 195.499 30.8045 195.04C30.3672 194.571 29.7698 194.336 29.0125 194.336C28.2445 194.336 27.6312 194.576 27.1725 195.056C26.7245 195.536 26.5005 196.235 26.5005 197.152V202H25.0445V193.232H26.5005V194.48C26.7885 194.032 27.1778 193.685 27.6685 193.44C28.1698 193.195 28.7192 193.072 29.3165 193.072ZM34.7349 197.584C34.7349 196.688 34.9162 195.904 35.2789 195.232C35.6415 194.549 36.1375 194.021 36.7669 193.648C37.4069 193.275 38.1215 193.088 38.9109 193.088C39.5935 193.088 40.2282 193.248 40.8149 193.568C41.4015 193.877 41.8495 194.288 42.1589 194.8V190.16H43.6309V202H42.1589V200.352C41.8709 200.875 41.4442 201.307 40.8789 201.648C40.3135 201.979 39.6522 202.144 38.8949 202.144C38.1162 202.144 37.4069 201.952 36.7669 201.568C36.1375 201.184 35.6415 200.645 35.2789 199.952C34.9162 199.259 34.7349 198.469 34.7349 197.584ZM42.1589 197.6C42.1589 196.939 42.0255 196.363 41.7589 195.872C41.4922 195.381 41.1295 195.008 40.6709 194.752C40.2229 194.485 39.7269 194.352 39.1829 194.352C38.6389 194.352 38.1429 194.48 37.6949 194.736C37.2469 194.992 36.8895 195.365 36.6229 195.856C36.3562 196.347 36.2229 196.923 36.2229 197.584C36.2229 198.256 36.3562 198.843 36.6229 199.344C36.8895 199.835 37.2469 200.213 37.6949 200.48C38.1429 200.736 38.6389 200.864 39.1829 200.864C39.7269 200.864 40.2229 200.736 40.6709 200.48C41.1295 200.213 41.4922 199.835 41.7589 199.344C42.0255 198.843 42.1589 198.261 42.1589 197.6ZM54.629 193.072C55.6957 193.072 56.5597 193.397 57.221 194.048C57.8823 194.688 58.213 195.616 58.213 196.832V202H56.773V197.04C56.773 196.165 56.5543 195.499 56.117 195.04C55.6797 194.571 55.0823 194.336 54.325 194.336C53.557 194.336 52.9437 194.576 52.485 195.056C52.037 195.536 51.813 196.235 51.813 197.152V202H50.357V193.232H51.813V194.48C52.101 194.032 52.4903 193.685 52.981 193.44C53.4823 193.195 54.0317 193.072 54.629 193.072ZM64.4154 202.144C63.594 202.144 62.8474 201.957 62.1754 201.584C61.514 201.211 60.9914 200.683 60.6074 200C60.234 199.307 60.0474 198.507 60.0474 197.6C60.0474 196.704 60.2394 195.915 60.6234 195.232C61.018 194.539 61.5514 194.011 62.2234 193.648C62.8954 193.275 63.6474 193.088 64.4794 193.088C65.3114 193.088 66.0634 193.275 66.7354 193.648C67.4074 194.011 67.9354 194.533 68.3194 195.216C68.714 195.899 68.9114 196.693 68.9114 197.6C68.9114 198.507 68.7087 199.307 68.3034 200C67.9087 200.683 67.37 201.211 66.6874 201.584C66.0047 201.957 65.2474 202.144 64.4154 202.144ZM64.4154 200.864C64.938 200.864 65.4287 200.741 65.8874 200.496C66.346 200.251 66.714 199.883 66.9914 199.392C67.2794 198.901 67.4234 198.304 67.4234 197.6C67.4234 196.896 67.2847 196.299 67.0074 195.808C66.73 195.317 66.3674 194.955 65.9194 194.72C65.4714 194.475 64.986 194.352 64.4634 194.352C63.93 194.352 63.4394 194.475 62.9914 194.72C62.554 194.955 62.202 195.317 61.9354 195.808C61.6687 196.299 61.5354 196.896 61.5354 197.6C61.5354 198.315 61.6634 198.917 61.9194 199.408C62.186 199.899 62.538 200.267 62.9754 200.512C63.4127 200.747 63.8927 200.864 64.4154 200.864ZM72.6018 194.432V199.6C72.6018 200.027 72.6924 200.331 72.8738 200.512C73.0551 200.683 73.3698 200.768 73.8177 200.768H74.8898V202H73.5778C72.7671 202 72.1591 201.813 71.7538 201.44C71.3484 201.067 71.1458 200.453 71.1458 199.6V194.432H70.0098V193.232H71.1458V191.024H72.6018V193.232H74.8898V194.432H72.6018ZM77.4059 191.808C77.1285 191.808 76.8939 191.712 76.7019 191.52C76.5099 191.328 76.4139 191.093 76.4139 190.816C76.4139 190.539 76.5099 190.304 76.7019 190.112C76.8939 189.92 77.1285 189.824 77.4059 189.824C77.6725 189.824 77.8965 189.92 78.0779 190.112C78.2699 190.304 78.3659 190.539 78.3659 190.816C78.3659 191.093 78.2699 191.328 78.0779 191.52C77.8965 191.712 77.6725 191.808 77.4059 191.808ZM78.1099 193.232V202H76.6539V193.232H78.1099ZM84.1594 194.432H82.3194V202H80.8634V194.432H79.7274V193.232H80.8634V192.608C80.8634 191.627 81.114 190.912 81.6154 190.464C82.1274 190.005 82.9434 189.776 84.0634 189.776V190.992C83.4234 190.992 82.97 191.12 82.7034 191.376C82.4474 191.621 82.3194 192.032 82.3194 192.608V193.232H84.1594V194.432ZM86.609 191.808C86.3317 191.808 86.097 191.712 85.905 191.52C85.713 191.328 85.617 191.093 85.617 190.816C85.617 190.539 85.713 190.304 85.905 190.112C86.097 189.92 86.3317 189.824 86.609 189.824C86.8757 189.824 87.0997 189.92 87.281 190.112C87.473 190.304 87.569 190.539 87.569 190.816C87.569 191.093 87.473 191.328 87.281 191.52C87.0997 191.712 86.8757 191.808 86.609 191.808ZM87.313 193.232V202H85.857V193.232H87.313ZM89.2505 197.6C89.2505 196.693 89.4318 195.904 89.7945 195.232C90.1572 194.549 90.6585 194.021 91.2985 193.648C91.9492 193.275 92.6905 193.088 93.5225 193.088C94.5998 193.088 95.4852 193.349 96.1785 193.872C96.8825 194.395 97.3465 195.12 97.5705 196.048H96.0025C95.8532 195.515 95.5598 195.093 95.1225 194.784C94.6958 194.475 94.1625 194.32 93.5225 194.32C92.6905 194.32 92.0185 194.608 91.5065 195.184C90.9945 195.749 90.7385 196.555 90.7385 197.6C90.7385 198.656 90.9945 199.472 91.5065 200.048C92.0185 200.624 92.6905 200.912 93.5225 200.912C94.1625 200.912 94.6958 200.763 95.1225 200.464C95.5492 200.165 95.8425 199.739 96.0025 199.184H97.5705C97.3358 200.08 96.8665 200.8 96.1625 201.344C95.4585 201.877 94.5785 202.144 93.5225 202.144C92.6905 202.144 91.9492 201.957 91.2985 201.584C90.6585 201.211 90.1572 200.683 89.7945 200C89.4318 199.317 89.2505 198.517 89.2505 197.6ZM98.9693 197.584C98.9693 196.688 99.1506 195.904 99.5133 195.232C99.8759 194.549 100.372 194.021 101.001 193.648C101.641 193.275 102.351 193.088 103.129 193.088C103.897 193.088 104.564 193.253 105.129 193.584C105.695 193.915 106.116 194.331 106.393 194.832V193.232H107.865V202H106.393V200.368C106.105 200.88 105.673 201.307 105.097 201.648C104.532 201.979 103.871 202.144 103.113 202.144C102.335 202.144 101.631 201.952 101.001 201.568C100.372 201.184 99.8759 200.645 99.5133 199.952C99.1506 199.259 98.9693 198.469 98.9693 197.584ZM106.393 197.6C106.393 196.939 106.26 196.363 105.993 195.872C105.727 195.381 105.364 195.008 104.905 194.752C104.457 194.485 103.961 194.352 103.417 194.352C102.873 194.352 102.377 194.48 101.929 194.736C101.481 194.992 101.124 195.365 100.857 195.856C100.591 196.347 100.457 196.923 100.457 197.584C100.457 198.256 100.591 198.843 100.857 199.344C101.124 199.835 101.481 200.213 101.929 200.48C102.377 200.736 102.873 200.864 103.417 200.864C103.961 200.864 104.457 200.736 104.905 200.48C105.364 200.213 105.727 199.835 105.993 199.344C106.26 198.843 106.393 198.261 106.393 197.6ZM112.102 194.432V199.6C112.102 200.027 112.192 200.331 112.374 200.512C112.555 200.683 112.87 200.768 113.318 200.768H114.39V202H113.078C112.267 202 111.659 201.813 111.254 201.44C110.848 201.067 110.646 200.453 110.646 199.6V194.432H109.51V193.232H110.646V191.024H112.102V193.232H114.39V194.432H112.102ZM116.906 191.808C116.629 191.808 116.394 191.712 116.202 191.52C116.01 191.328 115.914 191.093 115.914 190.816C115.914 190.539 116.01 190.304 116.202 190.112C116.394 189.92 116.629 189.824 116.906 189.824C117.173 189.824 117.397 189.92 117.578 190.112C117.77 190.304 117.866 190.539 117.866 190.816C117.866 191.093 117.77 191.328 117.578 191.52C117.397 191.712 117.173 191.808 116.906 191.808ZM117.61 193.232V202H116.154V193.232H117.61ZM123.915 202.144C123.094 202.144 122.347 201.957 121.675 201.584C121.014 201.211 120.491 200.683 120.107 200C119.734 199.307 119.547 198.507 119.547 197.6C119.547 196.704 119.739 195.915 120.123 195.232C120.518 194.539 121.051 194.011 121.723 193.648C122.395 193.275 123.147 193.088 123.979 193.088C124.811 193.088 125.563 193.275 126.235 193.648C126.907 194.011 127.435 194.533 127.819 195.216C128.214 195.899 128.411 196.693 128.411 197.6C128.411 198.507 128.209 199.307 127.803 200C127.409 200.683 126.87 201.211 126.187 201.584C125.505 201.957 124.747 202.144 123.915 202.144ZM123.915 200.864C124.438 200.864 124.929 200.741 125.387 200.496C125.846 200.251 126.214 199.883 126.491 199.392C126.779 198.901 126.923 198.304 126.923 197.6C126.923 196.896 126.785 196.299 126.507 195.808C126.23 195.317 125.867 194.955 125.419 194.72C124.971 194.475 124.486 194.352 123.963 194.352C123.43 194.352 122.939 194.475 122.491 194.72C122.054 194.955 121.702 195.317 121.435 195.808C121.169 196.299 121.035 196.896 121.035 197.6C121.035 198.315 121.163 198.917 121.419 199.408C121.686 199.899 122.038 200.267 122.475 200.512C122.913 200.747 123.393 200.864 123.915 200.864ZM134.598 193.072C135.664 193.072 136.528 193.397 137.19 194.048C137.851 194.688 138.182 195.616 138.182 196.832V202H136.742V197.04C136.742 196.165 136.523 195.499 136.086 195.04C135.648 194.571 135.051 194.336 134.294 194.336C133.526 194.336 132.912 194.576 132.454 195.056C132.006 195.536 131.782 196.235 131.782 197.152V202H130.326V193.232H131.782V194.48C132.07 194.032 132.459 193.685 132.95 193.44C133.451 193.195 134 193.072 134.598 193.072ZM147.93 202.144C147.258 202.144 146.655 202.032 146.122 201.808C145.588 201.573 145.167 201.253 144.858 200.848C144.548 200.432 144.378 199.957 144.346 199.424H145.85C145.892 199.861 146.095 200.219 146.458 200.496C146.831 200.773 147.316 200.912 147.914 200.912C148.468 200.912 148.906 200.789 149.226 200.544C149.546 200.299 149.706 199.989 149.706 199.616C149.706 199.232 149.535 198.949 149.194 198.768C148.852 198.576 148.324 198.389 147.61 198.208C146.959 198.037 146.426 197.867 146.01 197.696C145.604 197.515 145.252 197.253 144.954 196.912C144.666 196.56 144.522 196.101 144.522 195.536C144.522 195.088 144.655 194.677 144.922 194.304C145.188 193.931 145.567 193.637 146.058 193.424C146.548 193.2 147.108 193.088 147.738 193.088C148.708 193.088 149.492 193.333 150.09 193.824C150.687 194.315 151.007 194.987 151.05 195.84H149.594C149.562 195.381 149.375 195.013 149.034 194.736C148.703 194.459 148.255 194.32 147.69 194.32C147.167 194.32 146.751 194.432 146.442 194.656C146.132 194.88 145.978 195.173 145.978 195.536C145.978 195.824 146.068 196.064 146.25 196.256C146.442 196.437 146.676 196.587 146.954 196.704C147.242 196.811 147.636 196.933 148.138 197.072C148.767 197.243 149.279 197.413 149.674 197.584C150.068 197.744 150.404 197.989 150.682 198.32C150.97 198.651 151.119 199.083 151.13 199.616C151.13 200.096 150.996 200.528 150.73 200.912C150.463 201.296 150.084 201.6 149.594 201.824C149.114 202.037 148.559 202.144 147.93 202.144ZM160.737 193.232L155.457 206.128H153.953L155.681 201.904L152.145 193.232H153.761L156.513 200.336L159.233 193.232H160.737ZM165.305 202.144C164.633 202.144 164.03 202.032 163.497 201.808C162.963 201.573 162.542 201.253 162.233 200.848C161.923 200.432 161.753 199.957 161.721 199.424H163.225C163.267 199.861 163.47 200.219 163.833 200.496C164.206 200.773 164.691 200.912 165.289 200.912C165.843 200.912 166.281 200.789 166.601 200.544C166.921 200.299 167.081 199.989 167.081 199.616C167.081 199.232 166.91 198.949 166.569 198.768C166.227 198.576 165.699 198.389 164.985 198.208C164.334 198.037 163.801 197.867 163.385 197.696C162.979 197.515 162.627 197.253 162.329 196.912C162.041 196.56 161.897 196.101 161.897 195.536C161.897 195.088 162.03 194.677 162.297 194.304C162.563 193.931 162.942 193.637 163.433 193.424C163.923 193.2 164.483 193.088 165.113 193.088C166.083 193.088 166.867 193.333 167.465 193.824C168.062 194.315 168.382 194.987 168.425 195.84H166.969C166.937 195.381 166.75 195.013 166.409 194.736C166.078 194.459 165.63 194.32 165.065 194.32C164.542 194.32 164.126 194.432 163.817 194.656C163.507 194.88 163.353 195.173 163.353 195.536C163.353 195.824 163.443 196.064 163.625 196.256C163.817 196.437 164.051 196.587 164.329 196.704C164.617 196.811 165.011 196.933 165.513 197.072C166.142 197.243 166.654 197.413 167.049 197.584C167.443 197.744 167.779 197.989 168.057 198.32C168.345 198.651 168.494 199.083 168.505 199.616C168.505 200.096 168.371 200.528 168.105 200.912C167.838 201.296 167.459 201.6 166.969 201.824C166.489 202.037 165.934 202.144 165.305 202.144ZM172.336 194.432V199.6C172.336 200.027 172.427 200.331 172.608 200.512C172.789 200.683 173.104 200.768 173.552 200.768H174.624V202H173.312C172.501 202 171.893 201.813 171.488 201.44C171.083 201.067 170.88 200.453 170.88 199.6V194.432H169.744V193.232H170.88V191.024H172.336V193.232H174.624V194.432H172.336ZM184.388 197.28C184.388 197.557 184.372 197.851 184.34 198.16H177.332C177.386 199.024 177.679 199.701 178.212 200.192C178.756 200.672 179.412 200.912 180.18 200.912C180.81 200.912 181.332 200.768 181.748 200.48C182.175 200.181 182.474 199.787 182.644 199.296H184.212C183.978 200.139 183.508 200.827 182.804 201.36C182.1 201.883 181.226 202.144 180.18 202.144C179.348 202.144 178.602 201.957 177.94 201.584C177.29 201.211 176.778 200.683 176.404 200C176.031 199.307 175.844 198.507 175.844 197.6C175.844 196.693 176.026 195.899 176.388 195.216C176.751 194.533 177.258 194.011 177.908 193.648C178.57 193.275 179.327 193.088 180.18 193.088C181.012 193.088 181.748 193.269 182.388 193.632C183.028 193.995 183.519 194.496 183.86 195.136C184.212 195.765 184.388 196.48 184.388 197.28ZM182.884 196.976C182.884 196.421 182.762 195.947 182.516 195.552C182.271 195.147 181.935 194.843 181.508 194.64C181.092 194.427 180.628 194.32 180.116 194.32C179.38 194.32 178.751 194.555 178.228 195.024C177.716 195.493 177.423 196.144 177.348 196.976H182.884ZM196.854 193.072C197.537 193.072 198.145 193.216 198.678 193.504C199.211 193.781 199.633 194.203 199.942 194.768C200.251 195.333 200.406 196.021 200.406 196.832V202H198.966V197.04C198.966 196.165 198.747 195.499 198.31 195.04C197.883 194.571 197.302 194.336 196.566 194.336C195.809 194.336 195.206 194.581 194.758 195.072C194.31 195.552 194.086 196.251 194.086 197.168V202H192.646V197.04C192.646 196.165 192.427 195.499 191.99 195.04C191.563 194.571 190.982 194.336 190.246 194.336C189.489 194.336 188.886 194.581 188.438 195.072C187.99 195.552 187.766 196.251 187.766 197.168V202H186.31V193.232H187.766V194.496C188.054 194.037 188.438 193.685 188.918 193.44C189.409 193.195 189.947 193.072 190.534 193.072C191.27 193.072 191.921 193.237 192.486 193.568C193.051 193.899 193.473 194.384 193.75 195.024C193.995 194.405 194.401 193.925 194.966 193.584C195.531 193.243 196.161 193.072 196.854 193.072ZM205.899 202.144C205.227 202.144 204.624 202.032 204.091 201.808C203.557 201.573 203.136 201.253 202.827 200.848C202.517 200.432 202.347 199.957 202.315 199.424H203.819C203.861 199.861 204.064 200.219 204.427 200.496C204.8 200.773 205.285 200.912 205.883 200.912C206.437 200.912 206.875 200.789 207.195 200.544C207.515 200.299 207.675 199.989 207.675 199.616C207.675 199.232 207.504 198.949 207.163 198.768C206.821 198.576 206.293 198.389 205.579 198.208C204.928 198.037 204.395 197.867 203.979 197.696C203.573 197.515 203.221 197.253 202.923 196.912C202.635 196.56 202.491 196.101 202.491 195.536C202.491 195.088 202.624 194.677 202.891 194.304C203.157 193.931 203.536 193.637 204.027 193.424C204.517 193.2 205.077 193.088 205.707 193.088C206.677 193.088 207.461 193.333 208.059 193.824C208.656 194.315 208.976 194.987 209.019 195.84H207.563C207.531 195.381 207.344 195.013 207.003 194.736C206.672 194.459 206.224 194.32 205.659 194.32C205.136 194.32 204.72 194.432 204.411 194.656C204.101 194.88 203.947 195.173 203.947 195.536C203.947 195.824 204.037 196.064 204.219 196.256C204.411 196.437 204.645 196.587 204.923 196.704C205.211 196.811 205.605 196.933 206.107 197.072C206.736 197.243 207.248 197.413 207.643 197.584C208.037 197.744 208.373 197.989 208.651 198.32C208.939 198.651 209.088 199.083 209.099 199.616C209.099 200.096 208.965 200.528 208.699 200.912C208.432 201.296 208.053 201.6 207.563 201.824C207.083 202.037 206.528 202.144 205.899 202.144ZM217.196 194.432V199.6C217.196 200.027 217.286 200.331 217.468 200.512C217.649 200.683 217.964 200.768 218.411 200.768H219.484V202H218.172C217.361 202 216.753 201.813 216.348 201.44C215.942 201.067 215.74 200.453 215.74 199.6V194.432H214.604V193.232H215.74V191.024H217.196V193.232H219.484V194.432H217.196ZM225.072 202.144C224.25 202.144 223.504 201.957 222.832 201.584C222.17 201.211 221.648 200.683 221.264 200C220.89 199.307 220.704 198.507 220.704 197.6C220.704 196.704 220.896 195.915 221.28 195.232C221.674 194.539 222.208 194.011 222.88 193.648C223.552 193.275 224.304 193.088 225.136 193.088C225.968 193.088 226.72 193.275 227.392 193.648C228.064 194.011 228.592 194.533 228.976 195.216C229.37 195.899 229.568 196.693 229.568 197.6C229.568 198.507 229.365 199.307 228.96 200C228.565 200.683 228.026 201.211 227.344 201.584C226.661 201.957 225.904 202.144 225.072 202.144ZM225.072 200.864C225.594 200.864 226.085 200.741 226.544 200.496C227.002 200.251 227.37 199.883 227.648 199.392C227.936 198.901 228.08 198.304 228.08 197.6C228.08 196.896 227.941 196.299 227.664 195.808C227.386 195.317 227.024 194.955 226.576 194.72C226.128 194.475 225.642 194.352 225.12 194.352C224.586 194.352 224.096 194.475 223.648 194.72C223.21 194.955 222.858 195.317 222.592 195.808C222.325 196.299 222.192 196.896 222.192 197.6C222.192 198.315 222.32 198.917 222.576 199.408C222.842 199.899 223.194 200.267 223.632 200.512C224.069 200.747 224.549 200.864 225.072 200.864ZM235.204 197.584C235.204 196.688 235.385 195.904 235.748 195.232C236.11 194.549 236.606 194.021 237.236 193.648C237.876 193.275 238.585 193.088 239.364 193.088C240.132 193.088 240.798 193.253 241.364 193.584C241.929 193.915 242.35 194.331 242.628 194.832V193.232H244.1V202H242.628V200.368C242.34 200.88 241.908 201.307 241.332 201.648C240.766 201.979 240.105 202.144 239.348 202.144C238.569 202.144 237.865 201.952 237.236 201.568C236.606 201.184 236.11 200.645 235.748 199.952C235.385 199.259 235.204 198.469 235.204 197.584ZM242.628 197.6C242.628 196.939 242.494 196.363 242.228 195.872C241.961 195.381 241.598 195.008 241.14 194.752C240.692 194.485 240.196 194.352 239.652 194.352C239.108 194.352 238.612 194.48 238.164 194.736C237.716 194.992 237.358 195.365 237.092 195.856C236.825 196.347 236.692 196.923 236.692 197.584C236.692 198.256 236.825 198.843 237.092 199.344C237.358 199.835 237.716 200.213 238.164 200.48C238.612 200.736 239.108 200.864 239.652 200.864C240.196 200.864 240.692 200.736 241.14 200.48C241.598 200.213 241.961 199.835 242.228 199.344C242.494 198.843 242.628 198.261 242.628 197.6ZM248.016 190.16V202H246.56V190.16H248.016ZM251.954 190.16V202H250.498V190.16H251.954ZM258.259 202.144C257.438 202.144 256.691 201.957 256.019 201.584C255.358 201.211 254.835 200.683 254.451 200C254.078 199.307 253.891 198.507 253.891 197.6C253.891 196.704 254.083 195.915 254.467 195.232C254.862 194.539 255.395 194.011 256.067 193.648C256.739 193.275 257.491 193.088 258.323 193.088C259.155 193.088 259.907 193.275 260.579 193.648C261.251 194.011 261.779 194.533 262.163 195.216C262.558 195.899 262.755 196.693 262.755 197.6C262.755 198.507 262.552 199.307 262.147 200C261.752 200.683 261.214 201.211 260.531 201.584C259.848 201.957 259.091 202.144 258.259 202.144ZM258.259 200.864C258.782 200.864 259.272 200.741 259.731 200.496C260.19 200.251 260.558 199.883 260.835 199.392C261.123 198.901 261.267 198.304 261.267 197.6C261.267 196.896 261.128 196.299 260.851 195.808C260.574 195.317 260.211 194.955 259.763 194.72C259.315 194.475 258.83 194.352 258.307 194.352C257.774 194.352 257.283 194.475 256.835 194.72C256.398 194.955 256.046 195.317 255.779 195.808C255.512 196.299 255.379 196.896 255.379 197.6C255.379 198.315 255.507 198.917 255.763 199.408C256.03 199.899 256.382 200.267 256.819 200.512C257.256 200.747 257.736 200.864 258.259 200.864ZM276.35 193.232L273.614 202H272.11L269.998 195.04L267.886 202H266.382L263.63 193.232H265.118L267.134 200.592L269.31 193.232H270.798L272.926 200.608L274.91 193.232H276.35ZM289.612 193.232L284.332 206.128H282.828L284.556 201.904L281.02 193.232H282.636L285.388 200.336L288.108 193.232H289.612ZM294.9 202.144C294.078 202.144 293.332 201.957 292.66 201.584C291.998 201.211 291.476 200.683 291.092 200C290.718 199.307 290.532 198.507 290.532 197.6C290.532 196.704 290.724 195.915 291.108 195.232C291.502 194.539 292.036 194.011 292.708 193.648C293.38 193.275 294.132 193.088 294.964 193.088C295.796 193.088 296.548 193.275 297.22 193.648C297.892 194.011 298.42 194.533 298.804 195.216C299.198 195.899 299.396 196.693 299.396 197.6C299.396 198.507 299.193 199.307 298.788 200C298.393 200.683 297.854 201.211 297.172 201.584C296.489 201.957 295.732 202.144 294.9 202.144ZM294.9 200.864C295.422 200.864 295.913 200.741 296.372 200.496C296.83 200.251 297.198 199.883 297.476 199.392C297.764 198.901 297.908 198.304 297.908 197.6C297.908 196.896 297.769 196.299 297.492 195.808C297.214 195.317 296.852 194.955 296.404 194.72C295.956 194.475 295.47 194.352 294.948 194.352C294.414 194.352 293.924 194.475 293.476 194.72C293.038 194.955 292.686 195.317 292.42 195.808C292.153 196.299 292.02 196.896 292.02 197.6C292.02 198.315 292.148 198.917 292.404 199.408C292.67 199.899 293.022 200.267 293.46 200.512C293.897 200.747 294.377 200.864 294.9 200.864ZM309.086 193.232V202H307.63V200.704C307.353 201.152 306.963 201.504 306.462 201.76C305.971 202.005 305.427 202.128 304.83 202.128C304.147 202.128 303.534 201.989 302.99 201.712C302.446 201.424 302.014 200.997 301.694 200.432C301.385 199.867 301.23 199.179 301.23 198.368V193.232H302.67V198.176C302.67 199.04 302.889 199.707 303.326 200.176C303.763 200.635 304.361 200.864 305.118 200.864C305.897 200.864 306.51 200.624 306.958 200.144C307.406 199.664 307.63 198.965 307.63 198.048V193.232H309.086ZM16.008 218.432V223.6C16.008 224.027 16.0987 224.331 16.28 224.512C16.4613 224.683 16.776 224.768 17.224 224.768H18.296V226H16.984C16.1733 226 15.5653 225.813 15.16 225.44C14.7547 225.067 14.552 224.453 14.552 223.6V218.432H13.416V217.232H14.552V215.024H16.008V217.232H18.296V218.432H16.008ZM23.8841 226.144C23.0628 226.144 22.3161 225.957 21.6441 225.584C20.9828 225.211 20.4601 224.683 20.0761 224C19.7028 223.307 19.5161 222.507 19.5161 221.6C19.5161 220.704 19.7081 219.915 20.0921 219.232C20.4868 218.539 21.0201 218.011 21.6921 217.648C22.3641 217.275 23.1161 217.088 23.9481 217.088C24.7801 217.088 25.5321 217.275 26.2041 217.648C26.8761 218.011 27.4041 218.533 27.7881 219.216C28.1828 219.899 28.3801 220.693 28.3801 221.6C28.3801 222.507 28.1775 223.307 27.7721 224C27.3775 224.683 26.8388 225.211 26.1561 225.584C25.4735 225.957 24.7161 226.144 23.8841 226.144ZM23.8841 224.864C24.4068 224.864 24.8975 224.741 25.3561 224.496C25.8148 224.251 26.1828 223.883 26.4601 223.392C26.7481 222.901 26.8921 222.304 26.8921 221.6C26.8921 220.896 26.7535 220.299 26.4761 219.808C26.1988 219.317 25.8361 218.955 25.3881 218.72C24.9401 218.475 24.4548 218.352 23.9321 218.352C23.3988 218.352 22.9081 218.475 22.4601 218.72C22.0228 218.955 21.6708 219.317 21.4041 219.808C21.1375 220.299 21.0041 220.896 21.0041 221.6C21.0041 222.315 21.1321 222.917 21.3881 223.408C21.6548 223.899 22.0068 224.267 22.4441 224.512C22.8815 224.747 23.3615 224.864 23.8841 224.864ZM38.1281 218.432H36.2881V226H34.8321V218.432H33.6961V217.232H34.8321V216.608C34.8321 215.627 35.0828 214.912 35.5841 214.464C36.0961 214.005 36.9121 213.776 38.0321 213.776V214.992C37.3921 214.992 36.9388 215.12 36.6721 215.376C36.4161 215.621 36.2881 216.032 36.2881 216.608V217.232H38.1281V218.432ZM43.6498 226.144C42.8284 226.144 42.0818 225.957 41.4098 225.584C40.7484 225.211 40.2258 224.683 39.8418 224C39.4684 223.307 39.2818 222.507 39.2818 221.6C39.2818 220.704 39.4738 219.915 39.8578 219.232C40.2524 218.539 40.7858 218.011 41.4578 217.648C42.1298 217.275 42.8818 217.088 43.7138 217.088C44.5458 217.088 45.2978 217.275 45.9698 217.648C46.6418 218.011 47.1698 218.533 47.5538 219.216C47.9484 219.899 48.1458 220.693 48.1458 221.6C48.1458 222.507 47.9431 223.307 47.5378 224C47.1431 224.683 46.6044 225.211 45.9218 225.584C45.2391 225.957 44.4818 226.144 43.6498 226.144ZM43.6498 224.864C44.1724 224.864 44.6631 224.741 45.1218 224.496C45.5804 224.251 45.9484 223.883 46.2258 223.392C46.5138 222.901 46.6578 222.304 46.6578 221.6C46.6578 220.896 46.5191 220.299 46.2418 219.808C45.9644 219.317 45.6018 218.955 45.1538 218.72C44.7058 218.475 44.2204 218.352 43.6978 218.352C43.1644 218.352 42.6738 218.475 42.2258 218.72C41.7884 218.955 41.4364 219.317 41.1698 219.808C40.9031 220.299 40.7698 220.896 40.7698 221.6C40.7698 222.315 40.8978 222.917 41.1538 223.408C41.4204 223.899 41.7724 224.267 42.2098 224.512C42.6471 224.747 43.1271 224.864 43.6498 224.864ZM49.5161 221.6C49.5161 220.693 49.6975 219.904 50.0601 219.232C50.4228 218.549 50.9241 218.021 51.5641 217.648C52.2148 217.275 52.9561 217.088 53.7881 217.088C54.8655 217.088 55.7508 217.349 56.4441 217.872C57.1481 218.395 57.6121 219.12 57.8361 220.048H56.2681C56.1188 219.515 55.8255 219.093 55.3881 218.784C54.9615 218.475 54.4281 218.32 53.7881 218.32C52.9561 218.32 52.2841 218.608 51.7721 219.184C51.2601 219.749 51.0041 220.555 51.0041 221.6C51.0041 222.656 51.2601 223.472 51.7721 224.048C52.2841 224.624 52.9561 224.912 53.7881 224.912C54.4281 224.912 54.9615 224.763 55.3881 224.464C55.8148 224.165 56.1081 223.739 56.2681 223.184H57.8361C57.6015 224.08 57.1321 224.8 56.4281 225.344C55.7241 225.877 54.8441 226.144 53.7881 226.144C52.9561 226.144 52.2148 225.957 51.5641 225.584C50.9241 225.211 50.4228 224.683 50.0601 224C49.6975 223.317 49.5161 222.517 49.5161 221.6ZM67.5549 217.232V226H66.0989V224.704C65.8215 225.152 65.4322 225.504 64.9309 225.76C64.4402 226.005 63.8962 226.128 63.2989 226.128C62.6162 226.128 62.0029 225.989 61.4589 225.712C60.9149 225.424 60.4829 224.997 60.1629 224.432C59.8535 223.867 59.6989 223.179 59.6989 222.368V217.232H61.1389V222.176C61.1389 223.04 61.3575 223.707 61.7949 224.176C62.2322 224.635 62.8295 224.864 63.5869 224.864C64.3655 224.864 64.9789 224.624 65.4269 224.144C65.8749 223.664 66.0989 222.965 66.0989 222.048V217.232H67.5549ZM73.1173 226.144C72.4453 226.144 71.8426 226.032 71.3093 225.808C70.7759 225.573 70.3546 225.253 70.0453 224.848C69.7359 224.432 69.5653 223.957 69.5333 223.424H71.0373C71.0799 223.861 71.2826 224.219 71.6453 224.496C72.0186 224.773 72.5039 224.912 73.1013 224.912C73.6559 224.912 74.0933 224.789 74.4133 224.544C74.7333 224.299 74.8933 223.989 74.8933 223.616C74.8933 223.232 74.7226 222.949 74.3813 222.768C74.0399 222.576 73.5119 222.389 72.7973 222.208C72.1466 222.037 71.6133 221.867 71.1973 221.696C70.7919 221.515 70.4399 221.253 70.1413 220.912C69.8533 220.56 69.7093 220.101 69.7093 219.536C69.7093 219.088 69.8426 218.677 70.1093 218.304C70.3759 217.931 70.7546 217.637 71.2453 217.424C71.7359 217.2 72.2959 217.088 72.9253 217.088C73.8959 217.088 74.6799 217.333 75.2773 217.824C75.8746 218.315 76.1946 218.987 76.2373 219.84H74.7813C74.7493 219.381 74.5626 219.013 74.2213 218.736C73.8906 218.459 73.4426 218.32 72.8773 218.32C72.3546 218.32 71.9386 218.432 71.6293 218.656C71.3199 218.88 71.1653 219.173 71.1653 219.536C71.1653 219.824 71.2559 220.064 71.4373 220.256C71.6293 220.437 71.8639 220.587 72.1413 220.704C72.4293 220.811 72.8239 220.933 73.3253 221.072C73.9546 221.243 74.4666 221.413 74.8613 221.584C75.2559 221.744 75.5919 221.989 75.8693 222.32C76.1573 222.651 76.3066 223.083 76.3173 223.616C76.3173 224.096 76.1839 224.528 75.9173 224.912C75.6506 225.296 75.2719 225.6 74.7813 225.824C74.3013 226.037 73.7466 226.144 73.1173 226.144ZM86.4623 226.144C85.6409 226.144 84.8943 225.957 84.2223 225.584C83.5609 225.211 83.0383 224.683 82.6543 224C82.2809 223.307 82.0943 222.507 82.0943 221.6C82.0943 220.704 82.2863 219.915 82.6703 219.232C83.0649 218.539 83.5983 218.011 84.2703 217.648C84.9423 217.275 85.6943 217.088 86.5263 217.088C87.3583 217.088 88.1103 217.275 88.7823 217.648C89.4543 218.011 89.9823 218.533 90.3663 219.216C90.7609 219.899 90.9583 220.693 90.9583 221.6C90.9583 222.507 90.7556 223.307 90.3503 224C89.9556 224.683 89.4169 225.211 88.7343 225.584C88.0516 225.957 87.2943 226.144 86.4623 226.144ZM86.4623 224.864C86.9849 224.864 87.4756 224.741 87.9343 224.496C88.3929 224.251 88.7609 223.883 89.0383 223.392C89.3263 222.901 89.4703 222.304 89.4703 221.6C89.4703 220.896 89.3316 220.299 89.0543 219.808C88.7769 219.317 88.4143 218.955 87.9663 218.72C87.5183 218.475 87.0329 218.352 86.5103 218.352C85.9769 218.352 85.4863 218.475 85.0383 218.72C84.6009 218.955 84.2489 219.317 83.9823 219.808C83.7156 220.299 83.5823 220.896 83.5823 221.6C83.5823 222.315 83.7103 222.917 83.9663 223.408C84.2329 223.899 84.5849 224.267 85.0223 224.512C85.4596 224.747 85.9396 224.864 86.4623 224.864ZM97.1446 217.072C98.2113 217.072 99.0753 217.397 99.7366 218.048C100.398 218.688 100.729 219.616 100.729 220.832V226H99.2886V221.04C99.2886 220.165 99.07 219.499 98.6326 219.04C98.1953 218.571 97.598 218.336 96.8406 218.336C96.0726 218.336 95.4593 218.576 95.0006 219.056C94.5526 219.536 94.3286 220.235 94.3286 221.152V226H92.8726V217.232H94.3286V218.48C94.6166 218.032 95.006 217.685 95.4966 217.44C95.998 217.195 96.5473 217.072 97.1446 217.072ZM110.989 217.088C111.746 217.088 112.407 217.253 112.973 217.584C113.549 217.915 113.975 218.331 114.253 218.832V217.232H115.725V226.192C115.725 226.992 115.554 227.701 115.213 228.32C114.871 228.949 114.381 229.44 113.741 229.792C113.111 230.144 112.375 230.32 111.533 230.32C110.381 230.32 109.421 230.048 108.653 229.504C107.885 228.96 107.431 228.219 107.293 227.28H108.733C108.893 227.813 109.223 228.24 109.725 228.56C110.226 228.891 110.829 229.056 111.533 229.056C112.333 229.056 112.983 228.805 113.485 228.304C113.997 227.803 114.253 227.099 114.253 226.192V224.352C113.965 224.864 113.538 225.291 112.973 225.632C112.407 225.973 111.746 226.144 110.989 226.144C110.21 226.144 109.501 225.952 108.861 225.568C108.231 225.184 107.735 224.645 107.373 223.952C107.01 223.259 106.829 222.469 106.829 221.584C106.829 220.688 107.01 219.904 107.373 219.232C107.735 218.549 108.231 218.021 108.861 217.648C109.501 217.275 110.21 217.088 110.989 217.088ZM114.253 221.6C114.253 220.939 114.119 220.363 113.853 219.872C113.586 219.381 113.223 219.008 112.765 218.752C112.317 218.485 111.821 218.352 111.277 218.352C110.733 218.352 110.237 218.48 109.789 218.736C109.341 218.992 108.983 219.365 108.717 219.856C108.45 220.347 108.317 220.923 108.317 221.584C108.317 222.256 108.45 222.843 108.717 223.344C108.983 223.835 109.341 224.213 109.789 224.48C110.237 224.736 110.733 224.864 111.277 224.864C111.821 224.864 112.317 224.736 112.765 224.48C113.223 224.213 113.586 223.835 113.853 223.344C114.119 222.843 114.253 222.261 114.253 221.6ZM119.641 218.656C119.897 218.155 120.26 217.765 120.729 217.488C121.209 217.211 121.79 217.072 122.473 217.072V218.576H122.089C120.457 218.576 119.641 219.461 119.641 221.232V226H118.185V217.232H119.641V218.656ZM127.978 226.144C127.157 226.144 126.41 225.957 125.738 225.584C125.077 225.211 124.554 224.683 124.17 224C123.797 223.307 123.61 222.507 123.61 221.6C123.61 220.704 123.802 219.915 124.186 219.232C124.581 218.539 125.114 218.011 125.786 217.648C126.458 217.275 127.21 217.088 128.042 217.088C128.874 217.088 129.626 217.275 130.298 217.648C130.97 218.011 131.498 218.533 131.882 219.216C132.277 219.899 132.474 220.693 132.474 221.6C132.474 222.507 132.271 223.307 131.866 224C131.471 224.683 130.933 225.211 130.25 225.584C129.567 225.957 128.81 226.144 127.978 226.144ZM127.978 224.864C128.501 224.864 128.991 224.741 129.45 224.496C129.909 224.251 130.277 223.883 130.554 223.392C130.842 222.901 130.986 222.304 130.986 221.6C130.986 220.896 130.847 220.299 130.57 219.808C130.293 219.317 129.93 218.955 129.482 218.72C129.034 218.475 128.549 218.352 128.026 218.352C127.493 218.352 127.002 218.475 126.554 218.72C126.117 218.955 125.765 219.317 125.498 219.808C125.231 220.299 125.098 220.896 125.098 221.6C125.098 222.315 125.226 222.917 125.482 223.408C125.749 223.899 126.101 224.267 126.538 224.512C126.975 224.747 127.455 224.864 127.978 224.864ZM146.068 217.232L143.332 226H141.828L139.716 219.04L137.604 226H136.1L133.348 217.232H134.836L136.852 224.592L139.028 217.232H140.516L142.644 224.608L144.628 217.232H146.068ZM148.265 215.808C147.988 215.808 147.753 215.712 147.561 215.52C147.369 215.328 147.273 215.093 147.273 214.816C147.273 214.539 147.369 214.304 147.561 214.112C147.753 213.92 147.988 213.824 148.265 213.824C148.532 213.824 148.756 213.92 148.937 214.112C149.129 214.304 149.225 214.539 149.225 214.816C149.225 215.093 149.129 215.328 148.937 215.52C148.756 215.712 148.532 215.808 148.265 215.808ZM148.969 217.232V226H147.513V217.232H148.969ZM155.723 217.072C156.789 217.072 157.653 217.397 158.315 218.048C158.976 218.688 159.307 219.616 159.307 220.832V226H157.867V221.04C157.867 220.165 157.648 219.499 157.211 219.04C156.773 218.571 156.176 218.336 155.419 218.336C154.651 218.336 154.037 218.576 153.579 219.056C153.131 219.536 152.907 220.235 152.907 221.152V226H151.451V217.232H152.907V218.48C153.195 218.032 153.584 217.685 154.075 217.44C154.576 217.195 155.125 217.072 155.723 217.072ZM165.301 217.088C166.058 217.088 166.72 217.253 167.285 217.584C167.861 217.915 168.288 218.331 168.565 218.832V217.232H170.037V226.192C170.037 226.992 169.866 227.701 169.525 228.32C169.184 228.949 168.693 229.44 168.053 229.792C167.424 230.144 166.688 230.32 165.845 230.32C164.693 230.32 163.733 230.048 162.965 229.504C162.197 228.96 161.744 228.219 161.605 227.28H163.045C163.205 227.813 163.536 228.24 164.037 228.56C164.538 228.891 165.141 229.056 165.845 229.056C166.645 229.056 167.296 228.805 167.797 228.304C168.309 227.803 168.565 227.099 168.565 226.192V224.352C168.277 224.864 167.85 225.291 167.285 225.632C166.72 225.973 166.058 226.144 165.301 226.144C164.522 226.144 163.813 225.952 163.173 225.568C162.544 225.184 162.048 224.645 161.685 223.952C161.322 223.259 161.141 222.469 161.141 221.584C161.141 220.688 161.322 219.904 161.685 219.232C162.048 218.549 162.544 218.021 163.173 217.648C163.813 217.275 164.522 217.088 165.301 217.088ZM168.565 221.6C168.565 220.939 168.432 220.363 168.165 219.872C167.898 219.381 167.536 219.008 167.077 218.752C166.629 218.485 166.133 218.352 165.589 218.352C165.045 218.352 164.549 218.48 164.101 218.736C163.653 218.992 163.296 219.365 163.029 219.856C162.762 220.347 162.629 220.923 162.629 221.584C162.629 222.256 162.762 222.843 163.029 223.344C163.296 223.835 163.653 224.213 164.101 224.48C164.549 224.736 165.045 224.864 165.589 224.864C166.133 224.864 166.629 224.736 167.077 224.48C167.536 224.213 167.898 223.835 168.165 223.344C168.432 222.843 168.565 222.261 168.565 221.6ZM184.315 217.232L179.035 230.128H177.531L179.259 225.904L175.723 217.232H177.339L180.091 224.336L182.811 217.232H184.315ZM189.603 226.144C188.782 226.144 188.035 225.957 187.363 225.584C186.702 225.211 186.179 224.683 185.795 224C185.422 223.307 185.235 222.507 185.235 221.6C185.235 220.704 185.427 219.915 185.811 219.232C186.206 218.539 186.739 218.011 187.411 217.648C188.083 217.275 188.835 217.088 189.667 217.088C190.499 217.088 191.251 217.275 191.923 217.648C192.595 218.011 193.123 218.533 193.507 219.216C193.902 219.899 194.099 220.693 194.099 221.6C194.099 222.507 193.896 223.307 193.491 224C193.096 224.683 192.558 225.211 191.875 225.584C191.192 225.957 190.435 226.144 189.603 226.144ZM189.603 224.864C190.126 224.864 190.616 224.741 191.075 224.496C191.534 224.251 191.902 223.883 192.179 223.392C192.467 222.901 192.611 222.304 192.611 221.6C192.611 220.896 192.472 220.299 192.195 219.808C191.918 219.317 191.555 218.955 191.107 218.72C190.659 218.475 190.174 218.352 189.651 218.352C189.118 218.352 188.627 218.475 188.179 218.72C187.742 218.955 187.39 219.317 187.123 219.808C186.856 220.299 186.723 220.896 186.723 221.6C186.723 222.315 186.851 222.917 187.107 223.408C187.374 223.899 187.726 224.267 188.163 224.512C188.6 224.747 189.08 224.864 189.603 224.864ZM203.789 217.232V226H202.333V224.704C202.056 225.152 201.667 225.504 201.165 225.76C200.675 226.005 200.131 226.128 199.533 226.128C198.851 226.128 198.237 225.989 197.693 225.712C197.149 225.424 196.717 224.997 196.397 224.432C196.088 223.867 195.933 223.179 195.933 222.368V217.232H197.373V222.176C197.373 223.04 197.592 223.707 198.029 224.176C198.467 224.635 199.064 224.864 199.821 224.864C200.6 224.864 201.213 224.624 201.661 224.144C202.109 223.664 202.333 222.965 202.333 222.048V217.232H203.789ZM207.704 218.656C207.96 218.155 208.322 217.765 208.792 217.488C209.272 217.211 209.853 217.072 210.536 217.072V218.576H210.152C208.52 218.576 207.704 219.461 207.704 221.232V226H206.248V217.232H207.704V218.656ZM217.938 218.864C218.237 218.341 218.674 217.915 219.25 217.584C219.826 217.253 220.482 217.088 221.218 217.088C222.007 217.088 222.717 217.275 223.346 217.648C223.975 218.021 224.471 218.549 224.834 219.232C225.197 219.904 225.378 220.688 225.378 221.584C225.378 222.469 225.197 223.259 224.834 223.952C224.471 224.645 223.97 225.184 223.33 225.568C222.701 225.952 221.997 226.144 221.218 226.144C220.461 226.144 219.794 225.979 219.218 225.648C218.653 225.317 218.226 224.896 217.938 224.384V226H216.482V214.16H217.938V218.864ZM223.89 221.584C223.89 220.923 223.757 220.347 223.49 219.856C223.223 219.365 222.861 218.992 222.402 218.736C221.954 218.48 221.458 218.352 220.914 218.352C220.381 218.352 219.885 218.485 219.426 218.752C218.978 219.008 218.615 219.387 218.338 219.888C218.071 220.379 217.938 220.949 217.938 221.6C217.938 222.261 218.071 222.843 218.338 223.344C218.615 223.835 218.978 224.213 219.426 224.48C219.885 224.736 220.381 224.864 220.914 224.864C221.458 224.864 221.954 224.736 222.402 224.48C222.861 224.213 223.223 223.835 223.49 223.344C223.757 222.843 223.89 222.256 223.89 221.584ZM235.071 217.232V226H233.615V224.704C233.337 225.152 232.948 225.504 232.447 225.76C231.956 226.005 231.412 226.128 230.815 226.128C230.132 226.128 229.519 225.989 228.975 225.712C228.431 225.424 227.999 224.997 227.679 224.432C227.369 223.867 227.215 223.179 227.215 222.368V217.232H228.655V222.176C228.655 223.04 228.873 223.707 229.311 224.176C229.748 224.635 230.345 224.864 231.103 224.864C231.881 224.864 232.495 224.624 232.943 224.144C233.391 223.664 233.615 222.965 233.615 222.048V217.232H235.071ZM240.633 226.144C239.961 226.144 239.358 226.032 238.825 225.808C238.292 225.573 237.87 225.253 237.561 224.848C237.252 224.432 237.081 223.957 237.049 223.424H238.553C238.596 223.861 238.798 224.219 239.161 224.496C239.534 224.773 240.02 224.912 240.617 224.912C241.172 224.912 241.609 224.789 241.929 224.544C242.249 224.299 242.409 223.989 242.409 223.616C242.409 223.232 242.238 222.949 241.897 222.768C241.556 222.576 241.028 222.389 240.313 222.208C239.662 222.037 239.129 221.867 238.713 221.696C238.308 221.515 237.956 221.253 237.657 220.912C237.369 220.56 237.225 220.101 237.225 219.536C237.225 219.088 237.358 218.677 237.625 218.304C237.892 217.931 238.27 217.637 238.761 217.424C239.252 217.2 239.812 217.088 240.441 217.088C241.412 217.088 242.196 217.333 242.793 217.824C243.39 218.315 243.71 218.987 243.753 219.84H242.297C242.265 219.381 242.078 219.013 241.737 218.736C241.406 218.459 240.958 218.32 240.393 218.32C239.87 218.32 239.454 218.432 239.145 218.656C238.836 218.88 238.681 219.173 238.681 219.536C238.681 219.824 238.772 220.064 238.953 220.256C239.145 220.437 239.38 220.587 239.657 220.704C239.945 220.811 240.34 220.933 240.841 221.072C241.47 221.243 241.982 221.413 242.377 221.584C242.772 221.744 243.108 221.989 243.385 222.32C243.673 222.651 243.822 223.083 243.833 223.616C243.833 224.096 243.7 224.528 243.433 224.912C243.166 225.296 242.788 225.6 242.297 225.824C241.817 226.037 241.262 226.144 240.633 226.144ZM246.64 215.808C246.363 215.808 246.128 215.712 245.936 215.52C245.744 215.328 245.648 215.093 245.648 214.816C245.648 214.539 245.744 214.304 245.936 214.112C246.128 213.92 246.363 213.824 246.64 213.824C246.907 213.824 247.131 213.92 247.312 214.112C247.504 214.304 247.6 214.539 247.6 214.816C247.6 215.093 247.504 215.328 247.312 215.52C247.131 215.712 246.907 215.808 246.64 215.808ZM247.344 217.232V226H245.888V217.232H247.344ZM254.098 217.072C255.164 217.072 256.028 217.397 256.69 218.048C257.351 218.688 257.682 219.616 257.682 220.832V226H256.242V221.04C256.242 220.165 256.023 219.499 255.586 219.04C255.148 218.571 254.551 218.336 253.794 218.336C253.026 218.336 252.412 218.576 251.954 219.056C251.506 219.536 251.282 220.235 251.282 221.152V226H249.826V217.232H251.282V218.48C251.57 218.032 251.959 217.685 252.45 217.44C252.951 217.195 253.5 217.072 254.098 217.072ZM268.06 221.28C268.06 221.557 268.044 221.851 268.012 222.16H261.004C261.057 223.024 261.351 223.701 261.884 224.192C262.428 224.672 263.084 224.912 263.852 224.912C264.481 224.912 265.004 224.768 265.42 224.48C265.847 224.181 266.145 223.787 266.316 223.296H267.884C267.649 224.139 267.18 224.827 266.476 225.36C265.772 225.883 264.897 226.144 263.852 226.144C263.02 226.144 262.273 225.957 261.612 225.584C260.961 225.211 260.449 224.683 260.076 224C259.703 223.307 259.516 222.507 259.516 221.6C259.516 220.693 259.697 219.899 260.06 219.216C260.423 218.533 260.929 218.011 261.58 217.648C262.241 217.275 262.999 217.088 263.852 217.088C264.684 217.088 265.42 217.269 266.06 217.632C266.7 217.995 267.191 218.496 267.532 219.136C267.884 219.765 268.06 220.48 268.06 221.28ZM266.556 220.976C266.556 220.421 266.433 219.947 266.188 219.552C265.943 219.147 265.607 218.843 265.18 218.64C264.764 218.427 264.3 218.32 263.788 218.32C263.052 218.32 262.423 218.555 261.9 219.024C261.388 219.493 261.095 220.144 261.02 220.976H266.556ZM273.086 226.144C272.414 226.144 271.811 226.032 271.278 225.808C270.745 225.573 270.323 225.253 270.014 224.848C269.705 224.432 269.534 223.957 269.502 223.424H271.006C271.049 223.861 271.251 224.219 271.614 224.496C271.987 224.773 272.473 224.912 273.07 224.912C273.625 224.912 274.062 224.789 274.382 224.544C274.702 224.299 274.862 223.989 274.862 223.616C274.862 223.232 274.691 222.949 274.35 222.768C274.009 222.576 273.481 222.389 272.766 222.208C272.115 222.037 271.582 221.867 271.166 221.696C270.761 221.515 270.409 221.253 270.11 220.912C269.822 220.56 269.678 220.101 269.678 219.536C269.678 219.088 269.811 218.677 270.078 218.304C270.345 217.931 270.723 217.637 271.214 217.424C271.705 217.2 272.265 217.088 272.894 217.088C273.865 217.088 274.649 217.333 275.246 217.824C275.843 218.315 276.163 218.987 276.206 219.84H274.75C274.718 219.381 274.531 219.013 274.19 218.736C273.859 218.459 273.411 218.32 272.846 218.32C272.323 218.32 271.907 218.432 271.598 218.656C271.289 218.88 271.134 219.173 271.134 219.536C271.134 219.824 271.225 220.064 271.406 220.256C271.598 220.437 271.833 220.587 272.11 220.704C272.398 220.811 272.793 220.933 273.294 221.072C273.923 221.243 274.435 221.413 274.83 221.584C275.225 221.744 275.561 221.989 275.838 222.32C276.126 222.651 276.275 223.083 276.286 223.616C276.286 224.096 276.153 224.528 275.886 224.912C275.619 225.296 275.241 225.6 274.75 225.824C274.27 226.037 273.715 226.144 273.086 226.144ZM281.445 226.144C280.773 226.144 280.171 226.032 279.637 225.808C279.104 225.573 278.683 225.253 278.373 224.848C278.064 224.432 277.893 223.957 277.861 223.424H279.365C279.408 223.861 279.611 224.219 279.973 224.496C280.347 224.773 280.832 224.912 281.429 224.912C281.984 224.912 282.421 224.789 282.741 224.544C283.061 224.299 283.221 223.989 283.221 223.616C283.221 223.232 283.051 222.949 282.709 222.768C282.368 222.576 281.84 222.389 281.125 222.208C280.475 222.037 279.941 221.867 279.525 221.696C279.12 221.515 278.768 221.253 278.469 220.912C278.181 220.56 278.037 220.101 278.037 219.536C278.037 219.088 278.171 218.677 278.437 218.304C278.704 217.931 279.083 217.637 279.573 217.424C280.064 217.2 280.624 217.088 281.253 217.088C282.224 217.088 283.008 217.333 283.605 217.824C284.203 218.315 284.523 218.987 284.565 219.84H283.109C283.077 219.381 282.891 219.013 282.549 218.736C282.219 218.459 281.771 218.32 281.205 218.32C280.683 218.32 280.267 218.432 279.957 218.656C279.648 218.88 279.493 219.173 279.493 219.536C279.493 219.824 279.584 220.064 279.765 220.256C279.957 220.437 280.192 220.587 280.469 220.704C280.757 220.811 281.152 220.933 281.653 221.072C282.283 221.243 282.795 221.413 283.189 221.584C283.584 221.744 283.92 221.989 284.197 222.32C284.485 222.651 284.635 223.083 284.645 223.616C284.645 224.096 284.512 224.528 284.245 224.912C283.979 225.296 283.6 225.6 283.109 225.824C282.629 226.037 282.075 226.144 281.445 226.144Z" fill="white"/>
</g>
<defs>
<linearGradient id="paint0_linear_37_378" x1="344.776" y1="159.79" x2="537.768" y2="480.982" gradientUnits="userSpaceOnUse">
<stop stop-color="#58D764"/>
<stop offset="1" stop-color="#58D764" stop-opacity="0.2"/>
</linearGradient>
<clipPath id="clip0_37_378">
<rect width="345" height="520" rx="33" fill="white"/>
</clipPath>
</defs>
</svg>
