<svg width="777" height="307" viewBox="0 0 777 307" fill="none" xmlns="http://www.w3.org/2000/svg">
<g clip-path="url(#clip0_16_575)">
<rect width="777" height="307" rx="33" fill="#333333"/>
<path d="M35.67 60.35H26.55L24.87 65H21.99L29.55 44.21H32.7L40.23 65H37.35L35.67 60.35ZM34.89 58.13L31.11 47.57L27.33 58.13H34.89ZM58.1048 48.56V65H55.3748V62.57C54.8548 63.41 54.1248 64.07 53.1848 64.55C52.2648 65.01 51.2448 65.24 50.1248 65.24C48.8448 65.24 47.6948 64.98 46.6748 64.46C45.6548 63.92 44.8448 63.12 44.2448 62.06C43.6648 61 43.3748 59.71 43.3748 58.19V48.56H46.0748V57.83C46.0748 59.45 46.4848 60.7 47.3048 61.58C48.1248 62.44 49.2448 62.87 50.6648 62.87C52.1248 62.87 53.2748 62.42 54.1148 61.52C54.9548 60.62 55.3748 59.31 55.3748 57.59V48.56H58.1048ZM66.0443 50.81V60.5C66.0443 61.3 66.2143 61.87 66.5543 62.21C66.8943 62.53 67.4843 62.69 68.3243 62.69H70.3343V65H67.8743C66.3543 65 65.2143 64.65 64.4543 63.95C63.6943 63.25 63.3143 62.1 63.3143 60.5V50.81H61.1843V48.56H63.3143V44.42H66.0443V48.56H70.3343V50.81H66.0443ZM80.812 65.27C79.272 65.27 77.872 64.92 76.612 64.22C75.372 63.52 74.392 62.53 73.672 61.25C72.972 59.95 72.622 58.45 72.622 56.75C72.622 55.07 72.982 53.59 73.702 52.31C74.442 51.01 75.442 50.02 76.702 49.34C77.962 48.64 79.372 48.29 80.932 48.29C82.492 48.29 83.902 48.64 85.162 49.34C86.422 50.02 87.412 51 88.132 52.28C88.872 53.56 89.242 55.05 89.242 56.75C89.242 58.45 88.862 59.95 88.102 61.25C87.362 62.53 86.352 63.52 85.072 64.22C83.792 64.92 82.372 65.27 80.812 65.27ZM80.812 62.87C81.792 62.87 82.712 62.64 83.572 62.18C84.432 61.72 85.122 61.03 85.642 60.11C86.182 59.19 86.452 58.07 86.452 56.75C86.452 55.43 86.192 54.31 85.672 53.39C85.152 52.47 84.472 51.79 83.632 51.35C82.792 50.89 81.882 50.66 80.902 50.66C79.902 50.66 78.982 50.89 78.142 51.35C77.322 51.79 76.662 52.47 76.162 53.39C75.662 54.31 75.412 55.43 75.412 56.75C75.412 58.09 75.652 59.22 76.132 60.14C76.632 61.06 77.292 61.75 78.112 62.21C78.932 62.65 79.832 62.87 80.812 62.87ZM112.601 48.26C113.881 48.26 115.021 48.53 116.021 49.07C117.021 49.59 117.811 50.38 118.391 51.44C118.971 52.5 119.261 53.79 119.261 55.31V65H116.561V55.7C116.561 54.06 116.151 52.81 115.331 51.95C114.531 51.07 113.441 50.63 112.061 50.63C110.641 50.63 109.511 51.09 108.671 52.01C107.831 52.91 107.411 54.22 107.411 55.94V65H104.711V55.7C104.711 54.06 104.301 52.81 103.481 51.95C102.681 51.07 101.591 50.63 100.211 50.63C98.7915 50.63 97.6615 51.09 96.8215 52.01C95.9815 52.91 95.5615 54.22 95.5615 55.94V65H92.8315V48.56H95.5615V50.93C96.1015 50.07 96.8215 49.41 97.7215 48.95C98.6415 48.49 99.6515 48.26 100.751 48.26C102.131 48.26 103.351 48.57 104.411 49.19C105.471 49.81 106.261 50.72 106.781 51.92C107.241 50.76 108.001 49.86 109.061 49.22C110.121 48.58 111.301 48.26 112.601 48.26ZM122.72 56.72C122.72 55.04 123.06 53.57 123.74 52.31C124.42 51.03 125.35 50.04 126.53 49.34C127.73 48.64 129.06 48.29 130.52 48.29C131.96 48.29 133.21 48.6 134.27 49.22C135.33 49.84 136.12 50.62 136.64 51.56V48.56H139.4V65H136.64V61.94C136.1 62.9 135.29 63.7 134.21 64.34C133.15 64.96 131.91 65.27 130.49 65.27C129.03 65.27 127.71 64.91 126.53 64.19C125.35 63.47 124.42 62.46 123.74 61.16C123.06 59.86 122.72 58.38 122.72 56.72ZM136.64 56.75C136.64 55.51 136.39 54.43 135.89 53.51C135.39 52.59 134.71 51.89 133.85 51.41C133.01 50.91 132.08 50.66 131.06 50.66C130.04 50.66 129.11 50.9 128.27 51.38C127.43 51.86 126.76 52.56 126.26 53.48C125.76 54.4 125.51 55.48 125.51 56.72C125.51 57.98 125.76 59.08 126.26 60.02C126.76 60.94 127.43 61.65 128.27 62.15C129.11 62.63 130.04 62.87 131.06 62.87C132.08 62.87 133.01 62.63 133.85 62.15C134.71 61.65 135.39 60.94 135.89 60.02C136.39 59.08 136.64 57.99 136.64 56.75ZM147.343 50.81V60.5C147.343 61.3 147.513 61.87 147.853 62.21C148.193 62.53 148.783 62.69 149.623 62.69H151.633V65H149.173C147.653 65 146.513 64.65 145.753 63.95C144.993 63.25 144.613 62.1 144.613 60.5V50.81H142.483V48.56H144.613V44.42H147.343V48.56H151.633V50.81H147.343ZM169.941 56.15C169.941 56.67 169.911 57.22 169.851 57.8H156.711C156.811 59.42 157.361 60.69 158.361 61.61C159.381 62.51 160.611 62.96 162.051 62.96C163.231 62.96 164.211 62.69 164.991 62.15C165.791 61.59 166.351 60.85 166.671 59.93H169.611C169.171 61.51 168.291 62.8 166.971 63.8C165.651 64.78 164.011 65.27 162.051 65.27C160.491 65.27 159.091 64.92 157.851 64.22C156.631 63.52 155.671 62.53 154.971 61.25C154.271 59.95 153.921 58.45 153.921 56.75C153.921 55.05 154.261 53.56 154.941 52.28C155.621 51 156.571 50.02 157.791 49.34C159.031 48.64 160.451 48.29 162.051 48.29C163.611 48.29 164.991 48.63 166.191 49.31C167.391 49.99 168.311 50.93 168.951 52.13C169.611 53.31 169.941 54.65 169.941 56.15ZM167.121 55.58C167.121 54.54 166.891 53.65 166.431 52.91C165.971 52.15 165.341 51.58 164.541 51.2C163.761 50.8 162.891 50.6 161.931 50.6C160.551 50.6 159.371 51.04 158.391 51.92C157.431 52.8 156.881 54.02 156.741 55.58H167.121ZM195.702 48.56L185.802 72.74H182.982L186.222 64.82L179.592 48.56H182.622L187.782 61.88L192.882 48.56H195.702ZM205.617 65.27C204.077 65.27 202.677 64.92 201.417 64.22C200.177 63.52 199.197 62.53 198.477 61.25C197.777 59.95 197.427 58.45 197.427 56.75C197.427 55.07 197.787 53.59 198.507 52.31C199.247 51.01 200.247 50.02 201.507 49.34C202.767 48.64 204.177 48.29 205.737 48.29C207.297 48.29 208.707 48.64 209.967 49.34C211.227 50.02 212.217 51 212.937 52.28C213.677 53.56 214.047 55.05 214.047 56.75C214.047 58.45 213.667 59.95 212.907 61.25C212.167 62.53 211.157 63.52 209.877 64.22C208.597 64.92 207.177 65.27 205.617 65.27ZM205.617 62.87C206.597 62.87 207.517 62.64 208.377 62.18C209.237 61.72 209.927 61.03 210.447 60.11C210.987 59.19 211.257 58.07 211.257 56.75C211.257 55.43 210.997 54.31 210.477 53.39C209.957 52.47 209.277 51.79 208.437 51.35C207.597 50.89 206.687 50.66 205.707 50.66C204.707 50.66 203.787 50.89 202.947 51.35C202.127 51.79 201.467 52.47 200.967 53.39C200.467 54.31 200.217 55.43 200.217 56.75C200.217 58.09 200.457 59.22 200.937 60.14C201.437 61.06 202.097 61.75 202.917 62.21C203.737 62.65 204.637 62.87 205.617 62.87ZM232.216 48.56V65H229.486V62.57C228.966 63.41 228.236 64.07 227.296 64.55C226.376 65.01 225.356 65.24 224.236 65.24C222.956 65.24 221.806 64.98 220.786 64.46C219.766 63.92 218.956 63.12 218.356 62.06C217.776 61 217.486 59.71 217.486 58.19V48.56H220.186V57.83C220.186 59.45 220.596 60.7 221.416 61.58C222.236 62.44 223.356 62.87 224.776 62.87C226.236 62.87 227.386 62.42 228.226 61.52C229.066 60.62 229.486 59.31 229.486 57.59V48.56H232.216ZM239.556 51.23C240.036 50.29 240.716 49.56 241.596 49.04C242.496 48.52 243.586 48.26 244.866 48.26V51.08H244.146C241.086 51.08 239.556 52.74 239.556 56.06V65H236.826V48.56H239.556V51.23ZM275.785 48.26C277.065 48.26 278.205 48.53 279.205 49.07C280.205 49.59 280.995 50.38 281.575 51.44C282.155 52.5 282.445 53.79 282.445 55.31V65H279.745V55.7C279.745 54.06 279.335 52.81 278.515 51.95C277.715 51.07 276.625 50.63 275.245 50.63C273.825 50.63 272.695 51.09 271.855 52.01C271.015 52.91 270.595 54.22 270.595 55.94V65H267.895V55.7C267.895 54.06 267.485 52.81 266.665 51.95C265.865 51.07 264.775 50.63 263.395 50.63C261.975 50.63 260.845 51.09 260.005 52.01C259.165 52.91 258.745 54.22 258.745 55.94V65H256.015V48.56H258.745V50.93C259.285 50.07 260.005 49.41 260.905 48.95C261.825 48.49 262.835 48.26 263.935 48.26C265.315 48.26 266.535 48.57 267.595 49.19C268.655 49.81 269.445 50.72 269.965 51.92C270.425 50.76 271.185 49.86 272.245 49.22C273.305 48.58 274.485 48.26 275.785 48.26ZM285.903 56.72C285.903 55.04 286.243 53.57 286.923 52.31C287.603 51.03 288.533 50.04 289.713 49.34C290.913 48.64 292.243 48.29 293.703 48.29C295.143 48.29 296.393 48.6 297.453 49.22C298.513 49.84 299.303 50.62 299.823 51.56V48.56H302.583V65H299.823V61.94C299.283 62.9 298.473 63.7 297.393 64.34C296.333 64.96 295.093 65.27 293.673 65.27C292.213 65.27 290.893 64.91 289.713 64.19C288.533 63.47 287.603 62.46 286.923 61.16C286.243 59.86 285.903 58.38 285.903 56.72ZM299.823 56.75C299.823 55.51 299.573 54.43 299.073 53.51C298.573 52.59 297.893 51.89 297.033 51.41C296.193 50.91 295.263 50.66 294.243 50.66C293.223 50.66 292.293 50.9 291.453 51.38C290.613 51.86 289.943 52.56 289.443 53.48C288.943 54.4 288.693 55.48 288.693 56.72C288.693 57.98 288.943 59.08 289.443 60.02C289.943 60.94 290.613 61.65 291.453 62.15C292.293 62.63 293.223 62.87 294.243 62.87C295.263 62.87 296.193 62.63 297.033 62.15C297.893 61.65 298.573 60.94 299.073 60.02C299.573 59.08 299.823 57.99 299.823 56.75ZM309.927 51.23C310.407 50.29 311.087 49.56 311.967 49.04C312.867 48.52 313.957 48.26 315.237 48.26V51.08H314.517C311.457 51.08 309.927 52.74 309.927 56.06V65H307.197V48.56H309.927V51.23ZM327.568 65L321.118 57.74V65H318.388V42.8H321.118V55.85L327.448 48.56H331.258L323.518 56.75L331.288 65H327.568ZM348.828 56.15C348.828 56.67 348.798 57.22 348.738 57.8H335.598C335.698 59.42 336.248 60.69 337.248 61.61C338.268 62.51 339.498 62.96 340.938 62.96C342.118 62.96 343.098 62.69 343.878 62.15C344.678 61.59 345.238 60.85 345.558 59.93H348.498C348.058 61.51 347.178 62.8 345.858 63.8C344.538 64.78 342.898 65.27 340.938 65.27C339.378 65.27 337.978 64.92 336.738 64.22C335.518 63.52 334.558 62.53 333.858 61.25C333.158 59.95 332.808 58.45 332.808 56.75C332.808 55.05 333.148 53.56 333.828 52.28C334.508 51 335.458 50.02 336.678 49.34C337.918 48.64 339.338 48.29 340.938 48.29C342.498 48.29 343.878 48.63 345.078 49.31C346.278 49.99 347.198 50.93 347.838 52.13C348.498 53.31 348.828 54.65 348.828 56.15ZM346.008 55.58C346.008 54.54 345.778 53.65 345.318 52.91C344.858 52.15 344.228 51.58 343.428 51.2C342.648 50.8 341.778 50.6 340.818 50.6C339.438 50.6 338.258 51.04 337.278 51.92C336.318 52.8 335.768 54.02 335.628 55.58H346.008ZM355.761 50.81V60.5C355.761 61.3 355.931 61.87 356.271 62.21C356.611 62.53 357.201 62.69 358.041 62.69H360.051V65H357.591C356.071 65 354.931 64.65 354.171 63.95C353.411 63.25 353.031 62.1 353.031 60.5V50.81H350.901V48.56H353.031V44.42H355.761V48.56H360.051V50.81H355.761ZM364.769 45.89C364.249 45.89 363.809 45.71 363.449 45.35C363.089 44.99 362.909 44.55 362.909 44.03C362.909 43.51 363.089 43.07 363.449 42.71C363.809 42.35 364.249 42.17 364.769 42.17C365.269 42.17 365.689 42.35 366.029 42.71C366.389 43.07 366.569 43.51 366.569 44.03C366.569 44.55 366.389 44.99 366.029 45.35C365.689 45.71 365.269 45.89 364.769 45.89ZM366.089 48.56V65H363.359V48.56H366.089ZM378.752 48.26C380.752 48.26 382.372 48.87 383.612 50.09C384.852 51.29 385.472 53.03 385.472 55.31V65H382.772V55.7C382.772 54.06 382.362 52.81 381.542 51.95C380.722 51.07 379.602 50.63 378.182 50.63C376.742 50.63 375.592 51.08 374.732 51.98C373.892 52.88 373.472 54.19 373.472 55.91V65H370.742V48.56H373.472V50.9C374.012 50.06 374.742 49.41 375.662 48.95C376.602 48.49 377.632 48.26 378.752 48.26ZM396.711 48.29C398.131 48.29 399.371 48.6 400.431 49.22C401.511 49.84 402.311 50.62 402.831 51.56V48.56H405.591V65.36C405.591 66.86 405.271 68.19 404.631 69.35C403.991 70.53 403.071 71.45 401.871 72.11C400.691 72.77 399.311 73.1 397.731 73.1C395.571 73.1 393.771 72.59 392.331 71.57C390.891 70.55 390.041 69.16 389.781 67.4H392.481C392.781 68.4 393.401 69.2 394.341 69.8C395.281 70.42 396.411 70.73 397.731 70.73C399.231 70.73 400.451 70.26 401.391 69.32C402.351 68.38 402.831 67.06 402.831 65.36V61.91C402.291 62.87 401.491 63.67 400.431 64.31C399.371 64.95 398.131 65.27 396.711 65.27C395.251 65.27 393.921 64.91 392.721 64.19C391.541 63.47 390.611 62.46 389.931 61.16C389.251 59.86 388.911 58.38 388.911 56.72C388.911 55.04 389.251 53.57 389.931 52.31C390.611 51.03 391.541 50.04 392.721 49.34C393.921 48.64 395.251 48.29 396.711 48.29ZM402.831 56.75C402.831 55.51 402.581 54.43 402.081 53.51C401.581 52.59 400.901 51.89 400.041 51.41C399.201 50.91 398.271 50.66 397.251 50.66C396.231 50.66 395.301 50.9 394.461 51.38C393.621 51.86 392.951 52.56 392.451 53.48C391.951 54.4 391.701 55.48 391.701 56.72C391.701 57.98 391.951 59.08 392.451 60.02C392.951 60.94 393.621 61.65 394.461 62.15C395.301 62.63 396.231 62.87 397.251 62.87C398.271 62.87 399.201 62.63 400.041 62.15C400.901 61.65 401.581 60.94 402.081 60.02C402.581 59.08 402.831 57.99 402.831 56.75Z" fill="white"/>
<path d="M36.248 93.848L33.016 105H31.384L28.792 96.024L26.104 105L24.488 105.016L21.368 93.848H22.92L25.352 103.304L28.04 93.848H29.672L32.232 103.272L34.68 93.848H36.248ZM45.8414 100.28C45.8414 100.557 45.8254 100.851 45.7934 101.16H38.7854C38.8387 102.024 39.132 102.701 39.6654 103.192C40.2094 103.672 40.8654 103.912 41.6334 103.912C42.2627 103.912 42.7854 103.768 43.2014 103.48C43.628 103.181 43.9267 102.787 44.0974 102.296H45.6654C45.4307 103.139 44.9614 103.827 44.2574 104.36C43.5534 104.883 42.6787 105.144 41.6334 105.144C40.8014 105.144 40.0547 104.957 39.3934 104.584C38.7427 104.211 38.2307 103.683 37.8574 103C37.484 102.307 37.2974 101.507 37.2974 100.6C37.2974 99.6933 37.4787 98.8987 37.8414 98.216C38.204 97.5333 38.7107 97.0107 39.3614 96.648C40.0227 96.2747 40.78 96.088 41.6334 96.088C42.4654 96.088 43.2014 96.2693 43.8414 96.632C44.4814 96.9947 44.972 97.496 45.3134 98.136C45.6654 98.7653 45.8414 99.48 45.8414 100.28ZM44.3374 99.976C44.3374 99.4213 44.2147 98.9467 43.9694 98.552C43.724 98.1467 43.388 97.8427 42.9614 97.64C42.5454 97.4267 42.0814 97.32 41.5694 97.32C40.8334 97.32 40.204 97.5547 39.6814 98.024C39.1694 98.4933 38.876 99.144 38.8014 99.976H44.3374ZM63.7089 96.232L60.9729 105H59.4689L57.3569 98.04L55.2449 105H53.7409L50.9889 96.232H52.4769L54.4929 103.592L56.6689 96.232H58.1569L60.2849 103.608L62.2689 96.232H63.7089ZM65.9059 94.808C65.6285 94.808 65.3939 94.712 65.2019 94.52C65.0099 94.328 64.9139 94.0933 64.9139 93.816C64.9139 93.5387 65.0099 93.304 65.2019 93.112C65.3939 92.92 65.6285 92.824 65.9059 92.824C66.1725 92.824 66.3965 92.92 66.5779 93.112C66.7699 93.304 66.8659 93.5387 66.8659 93.816C66.8659 94.0933 66.7699 94.328 66.5779 94.52C66.3965 94.712 66.1725 94.808 65.9059 94.808ZM66.6099 96.232V105H65.1539V96.232H66.6099ZM70.5474 93.16V105H69.0914V93.16H70.5474ZM74.4849 93.16V105H73.0289V93.16H74.4849ZM81.984 94.808C81.7067 94.808 81.472 94.712 81.28 94.52C81.088 94.328 80.992 94.0933 80.992 93.816C80.992 93.5387 81.088 93.304 81.28 93.112C81.472 92.92 81.7067 92.824 81.984 92.824C82.2507 92.824 82.4747 92.92 82.656 93.112C82.848 93.304 82.944 93.5387 82.944 93.816C82.944 94.0933 82.848 94.328 82.656 94.52C82.4747 94.712 82.2507 94.808 81.984 94.808ZM82.688 96.232V105H81.232V96.232H82.688ZM89.4415 96.072C90.5082 96.072 91.3722 96.3973 92.0335 97.048C92.6948 97.688 93.0255 98.616 93.0255 99.832V105H91.5855V100.04C91.5855 99.1653 91.3668 98.4987 90.9295 98.04C90.4922 97.5707 89.8948 97.336 89.1375 97.336C88.3695 97.336 87.7562 97.576 87.2975 98.056C86.8495 98.536 86.6255 99.2347 86.6255 100.152V105H85.1695V96.232H86.6255V97.48C86.9135 97.032 87.3028 96.6853 87.7935 96.44C88.2948 96.1947 88.8442 96.072 89.4415 96.072ZM97.1799 97.432V102.6C97.1799 103.027 97.2705 103.331 97.4519 103.512C97.6332 103.683 97.9479 103.768 98.3959 103.768H99.4679V105H98.1559C97.3452 105 96.7372 104.813 96.3319 104.44C95.9265 104.067 95.7239 103.453 95.7239 102.6V97.432H94.5879V96.232H95.7239V94.024H97.1799V96.232H99.4679V97.432H97.1799ZM109.232 100.28C109.232 100.557 109.216 100.851 109.184 101.16H102.176C102.229 102.024 102.523 102.701 103.056 103.192C103.6 103.672 104.256 103.912 105.024 103.912C105.653 103.912 106.176 103.768 106.592 103.48C107.019 103.181 107.317 102.787 107.488 102.296H109.056C108.821 103.139 108.352 103.827 107.648 104.36C106.944 104.883 106.069 105.144 105.024 105.144C104.192 105.144 103.445 104.957 102.784 104.584C102.133 104.211 101.621 103.683 101.248 103C100.875 102.307 100.688 101.507 100.688 100.6C100.688 99.6933 100.869 98.8987 101.232 98.216C101.595 97.5333 102.101 97.0107 102.752 96.648C103.413 96.2747 104.171 96.088 105.024 96.088C105.856 96.088 106.592 96.2693 107.232 96.632C107.872 96.9947 108.363 97.496 108.704 98.136C109.056 98.7653 109.232 99.48 109.232 100.28ZM107.728 99.976C107.728 99.4213 107.605 98.9467 107.36 98.552C107.115 98.1467 106.779 97.8427 106.352 97.64C105.936 97.4267 105.472 97.32 104.96 97.32C104.224 97.32 103.595 97.5547 103.072 98.024C102.56 98.4933 102.267 99.144 102.192 99.976H107.728ZM114.77 96.088C115.527 96.088 116.189 96.2533 116.754 96.584C117.33 96.9147 117.757 97.3307 118.034 97.832V96.232H119.506V105.192C119.506 105.992 119.335 106.701 118.994 107.32C118.653 107.949 118.162 108.44 117.522 108.792C116.893 109.144 116.157 109.32 115.314 109.32C114.162 109.32 113.202 109.048 112.434 108.504C111.666 107.96 111.213 107.219 111.074 106.28H112.514C112.674 106.813 113.005 107.24 113.506 107.56C114.007 107.891 114.61 108.056 115.314 108.056C116.114 108.056 116.765 107.805 117.266 107.304C117.778 106.803 118.034 106.099 118.034 105.192V103.352C117.746 103.864 117.319 104.291 116.754 104.632C116.189 104.973 115.527 105.144 114.77 105.144C113.991 105.144 113.282 104.952 112.642 104.568C112.013 104.184 111.517 103.645 111.154 102.952C110.791 102.259 110.61 101.469 110.61 100.584C110.61 99.688 110.791 98.904 111.154 98.232C111.517 97.5493 112.013 97.0213 112.642 96.648C113.282 96.2747 113.991 96.088 114.77 96.088ZM118.034 100.6C118.034 99.9387 117.901 99.3627 117.634 98.872C117.367 98.3813 117.005 98.008 116.546 97.752C116.098 97.4853 115.602 97.352 115.058 97.352C114.514 97.352 114.018 97.48 113.57 97.736C113.122 97.992 112.765 98.3653 112.498 98.856C112.231 99.3467 112.098 99.9227 112.098 100.584C112.098 101.256 112.231 101.843 112.498 102.344C112.765 102.835 113.122 103.213 113.57 103.48C114.018 103.736 114.514 103.864 115.058 103.864C115.602 103.864 116.098 103.736 116.546 103.48C117.005 103.213 117.367 102.835 117.634 102.344C117.901 101.843 118.034 101.261 118.034 100.6ZM123.422 97.656C123.678 97.1547 124.041 96.7653 124.51 96.488C124.99 96.2107 125.572 96.072 126.254 96.072V97.576H125.87C124.238 97.576 123.422 98.4613 123.422 100.232V105H121.966V96.232H123.422V97.656ZM127.391 100.584C127.391 99.688 127.572 98.904 127.935 98.232C128.298 97.5493 128.794 97.0213 129.423 96.648C130.063 96.2747 130.772 96.088 131.551 96.088C132.319 96.088 132.986 96.2533 133.551 96.584C134.116 96.9147 134.538 97.3307 134.815 97.832V96.232H136.287V105H134.815V103.368C134.527 103.88 134.095 104.307 133.519 104.648C132.954 104.979 132.292 105.144 131.535 105.144C130.756 105.144 130.052 104.952 129.423 104.568C128.794 104.184 128.298 103.645 127.935 102.952C127.572 102.259 127.391 101.469 127.391 100.584ZM134.815 100.6C134.815 99.9387 134.682 99.3627 134.415 98.872C134.148 98.3813 133.786 98.008 133.327 97.752C132.879 97.4853 132.383 97.352 131.839 97.352C131.295 97.352 130.799 97.48 130.351 97.736C129.903 97.992 129.546 98.3653 129.279 98.856C129.012 99.3467 128.879 99.9227 128.879 100.584C128.879 101.256 129.012 101.843 129.279 102.344C129.546 102.835 129.903 103.213 130.351 103.48C130.799 103.736 131.295 103.864 131.839 103.864C132.383 103.864 132.879 103.736 133.327 103.48C133.786 103.213 134.148 102.835 134.415 102.344C134.682 101.843 134.815 101.261 134.815 100.6ZM140.524 97.432V102.6C140.524 103.027 140.614 103.331 140.796 103.512C140.977 103.683 141.292 103.768 141.74 103.768H142.812V105H141.5C140.689 105 140.081 104.813 139.676 104.44C139.27 104.067 139.068 103.453 139.068 102.6V97.432H137.932V96.232H139.068V94.024H140.524V96.232H142.812V97.432H140.524ZM152.576 100.28C152.576 100.557 152.56 100.851 152.528 101.16H145.52C145.573 102.024 145.866 102.701 146.4 103.192C146.944 103.672 147.6 103.912 148.368 103.912C148.997 103.912 149.52 103.768 149.936 103.48C150.362 103.181 150.661 102.787 150.832 102.296H152.4C152.165 103.139 151.696 103.827 150.992 104.36C150.288 104.883 149.413 105.144 148.368 105.144C147.536 105.144 146.789 104.957 146.128 104.584C145.477 104.211 144.965 103.683 144.592 103C144.218 102.307 144.032 101.507 144.032 100.6C144.032 99.6933 144.213 98.8987 144.576 98.216C144.938 97.5333 145.445 97.0107 146.096 96.648C146.757 96.2747 147.514 96.088 148.368 96.088C149.2 96.088 149.936 96.2693 150.576 96.632C151.216 96.9947 151.706 97.496 152.048 98.136C152.4 98.7653 152.576 99.48 152.576 100.28ZM151.072 99.976C151.072 99.4213 150.949 98.9467 150.704 98.552C150.458 98.1467 150.122 97.8427 149.696 97.64C149.28 97.4267 148.816 97.32 148.304 97.32C147.568 97.32 146.938 97.5547 146.416 98.024C145.904 98.4933 145.61 99.144 145.536 99.976H151.072ZM166.315 96.232L161.035 109.128H159.531L161.259 104.904L157.723 96.232H159.339L162.091 103.336L164.811 96.232H166.315ZM171.603 105.144C170.782 105.144 170.035 104.957 169.363 104.584C168.702 104.211 168.179 103.683 167.795 103C167.422 102.307 167.235 101.507 167.235 100.6C167.235 99.704 167.427 98.9147 167.811 98.232C168.206 97.5387 168.739 97.0107 169.411 96.648C170.083 96.2747 170.835 96.088 171.667 96.088C172.499 96.088 173.251 96.2747 173.923 96.648C174.595 97.0107 175.123 97.5333 175.507 98.216C175.902 98.8987 176.099 99.6933 176.099 100.6C176.099 101.507 175.896 102.307 175.491 103C175.096 103.683 174.558 104.211 173.875 104.584C173.192 104.957 172.435 105.144 171.603 105.144ZM171.603 103.864C172.126 103.864 172.616 103.741 173.075 103.496C173.534 103.251 173.902 102.883 174.179 102.392C174.467 101.901 174.611 101.304 174.611 100.6C174.611 99.896 174.472 99.2987 174.195 98.808C173.918 98.3173 173.555 97.9547 173.107 97.72C172.659 97.4747 172.174 97.352 171.651 97.352C171.118 97.352 170.627 97.4747 170.179 97.72C169.742 97.9547 169.39 98.3173 169.123 98.808C168.856 99.2987 168.723 99.896 168.723 100.6C168.723 101.315 168.851 101.917 169.107 102.408C169.374 102.899 169.726 103.267 170.163 103.512C170.6 103.747 171.08 103.864 171.603 103.864ZM185.789 96.232V105H184.333V103.704C184.056 104.152 183.667 104.504 183.165 104.76C182.675 105.005 182.131 105.128 181.533 105.128C180.851 105.128 180.237 104.989 179.693 104.712C179.149 104.424 178.717 103.997 178.397 103.432C178.088 102.867 177.933 102.179 177.933 101.368V96.232H179.373V101.176C179.373 102.04 179.592 102.707 180.029 103.176C180.467 103.635 181.064 103.864 181.821 103.864C182.6 103.864 183.213 103.624 183.661 103.144C184.109 102.664 184.333 101.965 184.333 101.048V96.232H185.789ZM189.704 97.656C189.96 97.1547 190.322 96.7653 190.792 96.488C191.272 96.2107 191.853 96.072 192.536 96.072V97.576H192.152C190.52 97.576 189.704 98.4613 189.704 100.232V105H188.248V96.232H189.704V97.656ZM197.938 100.584C197.938 99.688 198.119 98.904 198.482 98.232C198.845 97.5493 199.341 97.0213 199.97 96.648C200.61 96.2747 201.325 96.088 202.114 96.088C202.797 96.088 203.431 96.248 204.018 96.568C204.605 96.8773 205.053 97.288 205.362 97.8V93.16H206.834V105H205.362V103.352C205.074 103.875 204.647 104.307 204.082 104.648C203.517 104.979 202.855 105.144 202.098 105.144C201.319 105.144 200.61 104.952 199.97 104.568C199.341 104.184 198.845 103.645 198.482 102.952C198.119 102.259 197.938 101.469 197.938 100.584ZM205.362 100.6C205.362 99.9387 205.229 99.3627 204.962 98.872C204.695 98.3813 204.333 98.008 203.874 97.752C203.426 97.4853 202.93 97.352 202.386 97.352C201.842 97.352 201.346 97.48 200.898 97.736C200.45 97.992 200.093 98.3653 199.826 98.856C199.559 99.3467 199.426 99.9227 199.426 100.584C199.426 101.256 199.559 101.843 199.826 102.344C200.093 102.835 200.45 103.213 200.898 103.48C201.346 103.736 201.842 103.864 202.386 103.864C202.93 103.864 203.426 103.736 203.874 103.48C204.333 103.213 204.695 102.835 204.962 102.344C205.229 101.843 205.362 101.261 205.362 100.6ZM208.751 100.584C208.751 99.688 208.932 98.904 209.295 98.232C209.657 97.5493 210.153 97.0213 210.783 96.648C211.423 96.2747 212.132 96.088 212.911 96.088C213.679 96.088 214.345 96.2533 214.911 96.584C215.476 96.9147 215.897 97.3307 216.175 97.832V96.232H217.647V105H216.175V103.368C215.887 103.88 215.455 104.307 214.879 104.648C214.313 104.979 213.652 105.144 212.895 105.144C212.116 105.144 211.412 104.952 210.783 104.568C210.153 104.184 209.657 103.645 209.295 102.952C208.932 102.259 208.751 101.469 208.751 100.584ZM216.175 100.6C216.175 99.9387 216.041 99.3627 215.775 98.872C215.508 98.3813 215.145 98.008 214.687 97.752C214.239 97.4853 213.743 97.352 213.199 97.352C212.655 97.352 212.159 97.48 211.711 97.736C211.263 97.992 210.905 98.3653 210.639 98.856C210.372 99.3467 210.239 99.9227 210.239 100.584C210.239 101.256 210.372 101.843 210.639 102.344C210.905 102.835 211.263 103.213 211.711 103.48C212.159 103.736 212.655 103.864 213.199 103.864C213.743 103.864 214.239 103.736 214.687 103.48C215.145 103.213 215.508 102.835 215.775 102.344C216.041 101.843 216.175 101.261 216.175 100.6ZM221.883 97.432V102.6C221.883 103.027 221.974 103.331 222.155 103.512C222.336 103.683 222.651 103.768 223.099 103.768H224.171V105H222.859C222.048 105 221.44 104.813 221.035 104.44C220.63 104.067 220.427 103.453 220.427 102.6V97.432H219.291V96.232H220.427V94.024H221.883V96.232H224.171V97.432H221.883ZM225.391 100.584C225.391 99.688 225.572 98.904 225.935 98.232C226.298 97.5493 226.794 97.0213 227.423 96.648C228.063 96.2747 228.772 96.088 229.551 96.088C230.319 96.088 230.986 96.2533 231.551 96.584C232.116 96.9147 232.538 97.3307 232.815 97.832V96.232H234.287V105H232.815V103.368C232.527 103.88 232.095 104.307 231.519 104.648C230.954 104.979 230.292 105.144 229.535 105.144C228.756 105.144 228.052 104.952 227.423 104.568C226.794 104.184 226.298 103.645 225.935 102.952C225.572 102.259 225.391 101.469 225.391 100.584ZM232.815 100.6C232.815 99.9387 232.682 99.3627 232.415 98.872C232.148 98.3813 231.786 98.008 231.327 97.752C230.879 97.4853 230.383 97.352 229.839 97.352C229.295 97.352 228.799 97.48 228.351 97.736C227.903 97.992 227.546 98.3653 227.279 98.856C227.012 99.3467 226.879 99.9227 226.879 100.584C226.879 101.256 227.012 101.843 227.279 102.344C227.546 102.835 227.903 103.213 228.351 103.48C228.799 103.736 229.295 103.864 229.839 103.864C230.383 103.864 230.879 103.736 231.327 103.48C231.786 103.213 232.148 102.835 232.415 102.344C232.682 101.843 232.815 101.261 232.815 100.6ZM238.204 97.864C238.502 97.3413 238.94 96.9147 239.516 96.584C240.092 96.2533 240.748 96.088 241.484 96.088C242.273 96.088 242.982 96.2747 243.612 96.648C244.241 97.0213 244.737 97.5493 245.1 98.232C245.462 98.904 245.644 99.688 245.644 100.584C245.644 101.469 245.462 102.259 245.1 102.952C244.737 103.645 244.236 104.184 243.596 104.568C242.966 104.952 242.262 105.144 241.484 105.144C240.726 105.144 240.06 104.979 239.484 104.648C238.918 104.317 238.492 103.896 238.204 103.384V105H236.748V93.16H238.204V97.864ZM244.156 100.584C244.156 99.9227 244.022 99.3467 243.756 98.856C243.489 98.3653 243.126 97.992 242.668 97.736C242.22 97.48 241.724 97.352 241.18 97.352C240.646 97.352 240.15 97.4853 239.692 97.752C239.244 98.008 238.881 98.3867 238.604 98.888C238.337 99.3787 238.204 99.9493 238.204 100.6C238.204 101.261 238.337 101.843 238.604 102.344C238.881 102.835 239.244 103.213 239.692 103.48C240.15 103.736 240.646 103.864 241.18 103.864C241.724 103.864 242.22 103.736 242.668 103.48C243.126 103.213 243.489 102.835 243.756 102.344C244.022 101.843 244.156 101.256 244.156 100.584ZM247.016 100.584C247.016 99.688 247.197 98.904 247.56 98.232C247.923 97.5493 248.419 97.0213 249.048 96.648C249.688 96.2747 250.397 96.088 251.176 96.088C251.944 96.088 252.611 96.2533 253.176 96.584C253.741 96.9147 254.163 97.3307 254.44 97.832V96.232H255.912V105H254.44V103.368C254.152 103.88 253.72 104.307 253.144 104.648C252.579 104.979 251.917 105.144 251.16 105.144C250.381 105.144 249.677 104.952 249.048 104.568C248.419 104.184 247.923 103.645 247.56 102.952C247.197 102.259 247.016 101.469 247.016 100.584ZM254.44 100.6C254.44 99.9387 254.307 99.3627 254.04 98.872C253.773 98.3813 253.411 98.008 252.952 97.752C252.504 97.4853 252.008 97.352 251.464 97.352C250.92 97.352 250.424 97.48 249.976 97.736C249.528 97.992 249.171 98.3653 248.904 98.856C248.637 99.3467 248.504 99.9227 248.504 100.584C248.504 101.256 248.637 101.843 248.904 102.344C249.171 102.835 249.528 103.213 249.976 103.48C250.424 103.736 250.92 103.864 251.464 103.864C252.008 103.864 252.504 103.736 252.952 103.48C253.411 103.213 253.773 102.835 254.04 102.344C254.307 101.843 254.44 101.261 254.44 100.6ZM261.477 105.144C260.805 105.144 260.202 105.032 259.669 104.808C259.135 104.573 258.714 104.253 258.405 103.848C258.095 103.432 257.925 102.957 257.893 102.424H259.397C259.439 102.861 259.642 103.219 260.005 103.496C260.378 103.773 260.863 103.912 261.461 103.912C262.015 103.912 262.453 103.789 262.773 103.544C263.093 103.299 263.253 102.989 263.253 102.616C263.253 102.232 263.082 101.949 262.741 101.768C262.399 101.576 261.871 101.389 261.157 101.208C260.506 101.037 259.973 100.867 259.557 100.696C259.151 100.515 258.799 100.253 258.501 99.912C258.213 99.56 258.069 99.1013 258.069 98.536C258.069 98.088 258.202 97.6773 258.469 97.304C258.735 96.9307 259.114 96.6373 259.605 96.424C260.095 96.2 260.655 96.088 261.285 96.088C262.255 96.088 263.039 96.3333 263.637 96.824C264.234 97.3147 264.554 97.9867 264.597 98.84H263.141C263.109 98.3813 262.922 98.0133 262.581 97.736C262.25 97.4587 261.802 97.32 261.237 97.32C260.714 97.32 260.298 97.432 259.989 97.656C259.679 97.88 259.525 98.1733 259.525 98.536C259.525 98.824 259.615 99.064 259.797 99.256C259.989 99.4373 260.223 99.5867 260.501 99.704C260.789 99.8107 261.183 99.9333 261.685 100.072C262.314 100.243 262.826 100.413 263.221 100.584C263.615 100.744 263.951 100.989 264.229 101.32C264.517 101.651 264.666 102.083 264.677 102.616C264.677 103.096 264.543 103.528 264.277 103.912C264.01 104.296 263.631 104.6 263.141 104.824C262.661 105.037 262.106 105.144 261.477 105.144ZM274.732 100.28C274.732 100.557 274.716 100.851 274.684 101.16H267.676C267.729 102.024 268.023 102.701 268.556 103.192C269.1 103.672 269.756 103.912 270.524 103.912C271.153 103.912 271.676 103.768 272.092 103.48C272.519 103.181 272.817 102.787 272.988 102.296H274.556C274.321 103.139 273.852 103.827 273.148 104.36C272.444 104.883 271.569 105.144 270.524 105.144C269.692 105.144 268.945 104.957 268.284 104.584C267.633 104.211 267.121 103.683 266.748 103C266.375 102.307 266.188 101.507 266.188 100.6C266.188 99.6933 266.369 98.8987 266.732 98.216C267.095 97.5333 267.601 97.0107 268.252 96.648C268.913 96.2747 269.671 96.088 270.524 96.088C271.356 96.088 272.092 96.2693 272.732 96.632C273.372 96.9947 273.863 97.496 274.204 98.136C274.556 98.7653 274.732 99.48 274.732 100.28ZM273.228 99.976C273.228 99.4213 273.105 98.9467 272.86 98.552C272.615 98.1467 272.279 97.8427 271.852 97.64C271.436 97.4267 270.972 97.32 270.46 97.32C269.724 97.32 269.095 97.5547 268.572 98.024C268.06 98.4933 267.767 99.144 267.692 99.976H273.228ZM278.158 102.984L276.366 107.288H275.39L276.558 102.984H278.158ZM287.195 105.144C286.523 105.144 285.921 105.032 285.387 104.808C284.854 104.573 284.433 104.253 284.123 103.848C283.814 103.432 283.643 102.957 283.611 102.424H285.115C285.158 102.861 285.361 103.219 285.723 103.496C286.097 103.773 286.582 103.912 287.179 103.912C287.734 103.912 288.171 103.789 288.491 103.544C288.811 103.299 288.971 102.989 288.971 102.616C288.971 102.232 288.801 101.949 288.459 101.768C288.118 101.576 287.59 101.389 286.875 101.208C286.225 101.037 285.691 100.867 285.275 100.696C284.87 100.515 284.518 100.253 284.219 99.912C283.931 99.56 283.787 99.1013 283.787 98.536C283.787 98.088 283.921 97.6773 284.187 97.304C284.454 96.9307 284.833 96.6373 285.323 96.424C285.814 96.2 286.374 96.088 287.003 96.088C287.974 96.088 288.758 96.3333 289.355 96.824C289.953 97.3147 290.273 97.9867 290.315 98.84H288.859C288.827 98.3813 288.641 98.0133 288.299 97.736C287.969 97.4587 287.521 97.32 286.955 97.32C286.433 97.32 286.017 97.432 285.707 97.656C285.398 97.88 285.243 98.1733 285.243 98.536C285.243 98.824 285.334 99.064 285.515 99.256C285.707 99.4373 285.942 99.5867 286.219 99.704C286.507 99.8107 286.902 99.9333 287.403 100.072C288.033 100.243 288.545 100.413 288.939 100.584C289.334 100.744 289.67 100.989 289.947 101.32C290.235 101.651 290.385 102.083 290.395 102.616C290.395 103.096 290.262 103.528 289.995 103.912C289.729 104.296 289.35 104.6 288.859 104.824C288.379 105.037 287.825 105.144 287.195 105.144ZM302.995 96.072C303.677 96.072 304.285 96.216 304.819 96.504C305.352 96.7813 305.773 97.2027 306.083 97.768C306.392 98.3333 306.547 99.0213 306.547 99.832V105H305.107V100.04C305.107 99.1653 304.888 98.4987 304.451 98.04C304.024 97.5707 303.443 97.336 302.707 97.336C301.949 97.336 301.347 97.5813 300.899 98.072C300.451 98.552 300.227 99.2507 300.227 100.168V105H298.787V100.04C298.787 99.1653 298.568 98.4987 298.131 98.04C297.704 97.5707 297.123 97.336 296.387 97.336C295.629 97.336 295.027 97.5813 294.579 98.072C294.131 98.552 293.907 99.2507 293.907 100.168V105H292.451V96.232H293.907V97.496C294.195 97.0373 294.579 96.6853 295.059 96.44C295.549 96.1947 296.088 96.072 296.675 96.072C297.411 96.072 298.061 96.2373 298.627 96.568C299.192 96.8987 299.613 97.384 299.891 98.024C300.136 97.4053 300.541 96.9253 301.107 96.584C301.672 96.2427 302.301 96.072 302.995 96.072ZM312.039 105.144C311.367 105.144 310.764 105.032 310.231 104.808C309.698 104.573 309.276 104.253 308.967 103.848C308.658 103.432 308.487 102.957 308.455 102.424H309.959C310.002 102.861 310.204 103.219 310.567 103.496C310.94 103.773 311.426 103.912 312.023 103.912C312.578 103.912 313.015 103.789 313.335 103.544C313.655 103.299 313.815 102.989 313.815 102.616C313.815 102.232 313.644 101.949 313.303 101.768C312.962 101.576 312.434 101.389 311.719 101.208C311.068 101.037 310.535 100.867 310.119 100.696C309.714 100.515 309.362 100.253 309.063 99.912C308.775 99.56 308.631 99.1013 308.631 98.536C308.631 98.088 308.764 97.6773 309.031 97.304C309.298 96.9307 309.676 96.6373 310.167 96.424C310.658 96.2 311.218 96.088 311.847 96.088C312.818 96.088 313.602 96.3333 314.199 96.824C314.796 97.3147 315.116 97.9867 315.159 98.84H313.703C313.671 98.3813 313.484 98.0133 313.143 97.736C312.812 97.4587 312.364 97.32 311.799 97.32C311.276 97.32 310.86 97.432 310.551 97.656C310.242 97.88 310.087 98.1733 310.087 98.536C310.087 98.824 310.178 99.064 310.359 99.256C310.551 99.4373 310.786 99.5867 311.063 99.704C311.351 99.8107 311.746 99.9333 312.247 100.072C312.876 100.243 313.388 100.413 313.783 100.584C314.178 100.744 314.514 100.989 314.791 101.32C315.079 101.651 315.228 102.083 315.239 102.616C315.239 103.096 315.106 103.528 314.839 103.912C314.572 104.296 314.194 104.6 313.703 104.824C313.223 105.037 312.668 105.144 312.039 105.144ZM21.688 124.584C21.688 123.688 21.8693 122.904 22.232 122.232C22.5947 121.549 23.0907 121.021 23.72 120.648C24.36 120.275 25.0693 120.088 25.848 120.088C26.616 120.088 27.2827 120.253 27.848 120.584C28.4133 120.915 28.8347 121.331 29.112 121.832V120.232H30.584V129H29.112V127.368C28.824 127.88 28.392 128.307 27.816 128.648C27.2507 128.979 26.5893 129.144 25.832 129.144C25.0533 129.144 24.3493 128.952 23.72 128.568C23.0907 128.184 22.5947 127.645 22.232 126.952C21.8693 126.259 21.688 125.469 21.688 124.584ZM29.112 124.6C29.112 123.939 28.9787 123.363 28.712 122.872C28.4453 122.381 28.0827 122.008 27.624 121.752C27.176 121.485 26.68 121.352 26.136 121.352C25.592 121.352 25.096 121.48 24.648 121.736C24.2 121.992 23.8427 122.365 23.576 122.856C23.3093 123.347 23.176 123.923 23.176 124.584C23.176 125.256 23.3093 125.843 23.576 126.344C23.8427 126.835 24.2 127.213 24.648 127.48C25.096 127.736 25.592 127.864 26.136 127.864C26.68 127.864 27.176 127.736 27.624 127.48C28.0827 127.213 28.4453 126.835 28.712 126.344C28.9787 125.843 29.112 125.261 29.112 124.6ZM37.3165 120.072C38.3832 120.072 39.2472 120.397 39.9085 121.048C40.5698 121.688 40.9005 122.616 40.9005 123.832V129H39.4605V124.04C39.4605 123.165 39.2418 122.499 38.8045 122.04C38.3672 121.571 37.7698 121.336 37.0125 121.336C36.2445 121.336 35.6312 121.576 35.1725 122.056C34.7245 122.536 34.5005 123.235 34.5005 124.152V129H33.0445V120.232H34.5005V121.48C34.7885 121.032 35.1778 120.685 35.6685 120.44C36.1698 120.195 36.7192 120.072 37.3165 120.072ZM42.7349 124.584C42.7349 123.688 42.9162 122.904 43.2789 122.232C43.6415 121.549 44.1375 121.021 44.7669 120.648C45.4069 120.275 46.1215 120.088 46.9109 120.088C47.5935 120.088 48.2282 120.248 48.8149 120.568C49.4015 120.877 49.8495 121.288 50.1589 121.8V117.16H51.6309V129H50.1589V127.352C49.8709 127.875 49.4442 128.307 48.8789 128.648C48.3135 128.979 47.6522 129.144 46.8949 129.144C46.1162 129.144 45.4069 128.952 44.7669 128.568C44.1375 128.184 43.6415 127.645 43.2789 126.952C42.9162 126.259 42.7349 125.469 42.7349 124.584ZM50.1589 124.6C50.1589 123.939 50.0255 123.363 49.7589 122.872C49.4922 122.381 49.1295 122.008 48.6709 121.752C48.2229 121.485 47.7269 121.352 47.1829 121.352C46.6389 121.352 46.1429 121.48 45.6949 121.736C45.2469 121.992 44.8895 122.365 44.6229 122.856C44.3562 123.347 44.2229 123.923 44.2229 124.584C44.2229 125.256 44.3562 125.843 44.6229 126.344C44.8895 126.835 45.2469 127.213 45.6949 127.48C46.1429 127.736 46.6389 127.864 47.1829 127.864C47.7269 127.864 48.2229 127.736 48.6709 127.48C49.1295 127.213 49.4922 126.835 49.7589 126.344C50.0255 125.843 50.1589 125.261 50.1589 124.6ZM62.629 120.072C63.6957 120.072 64.5597 120.397 65.221 121.048C65.8823 121.688 66.213 122.616 66.213 123.832V129H64.773V124.04C64.773 123.165 64.5543 122.499 64.117 122.04C63.6797 121.571 63.0823 121.336 62.325 121.336C61.557 121.336 60.9437 121.576 60.485 122.056C60.037 122.536 59.813 123.235 59.813 124.152V129H58.357V120.232H59.813V121.48C60.101 121.032 60.4903 120.685 60.981 120.44C61.4823 120.195 62.0317 120.072 62.629 120.072ZM72.4154 129.144C71.594 129.144 70.8474 128.957 70.1754 128.584C69.514 128.211 68.9914 127.683 68.6074 127C68.234 126.307 68.0474 125.507 68.0474 124.6C68.0474 123.704 68.2394 122.915 68.6234 122.232C69.018 121.539 69.5514 121.011 70.2234 120.648C70.8954 120.275 71.6474 120.088 72.4794 120.088C73.3114 120.088 74.0634 120.275 74.7354 120.648C75.4074 121.011 75.9354 121.533 76.3194 122.216C76.714 122.899 76.9114 123.693 76.9114 124.6C76.9114 125.507 76.7087 126.307 76.3034 127C75.9087 127.683 75.37 128.211 74.6874 128.584C74.0047 128.957 73.2474 129.144 72.4154 129.144ZM72.4154 127.864C72.938 127.864 73.4287 127.741 73.8874 127.496C74.346 127.251 74.714 126.883 74.9914 126.392C75.2794 125.901 75.4234 125.304 75.4234 124.6C75.4234 123.896 75.2847 123.299 75.0074 122.808C74.73 122.317 74.3674 121.955 73.9194 121.72C73.4714 121.475 72.986 121.352 72.4634 121.352C71.93 121.352 71.4394 121.475 70.9914 121.72C70.554 121.955 70.202 122.317 69.9354 122.808C69.6687 123.299 69.5354 123.896 69.5354 124.6C69.5354 125.315 69.6634 125.917 69.9194 126.408C70.186 126.899 70.538 127.267 70.9754 127.512C71.4127 127.747 71.8927 127.864 72.4154 127.864ZM80.6018 121.432V126.6C80.6018 127.027 80.6924 127.331 80.8738 127.512C81.0551 127.683 81.3698 127.768 81.8177 127.768H82.8898V129H81.5778C80.7671 129 80.1591 128.813 79.7538 128.44C79.3484 128.067 79.1458 127.453 79.1458 126.6V121.432H78.0098V120.232H79.1458V118.024H80.6018V120.232H82.8898V121.432H80.6018ZM85.4059 118.808C85.1285 118.808 84.8939 118.712 84.7019 118.52C84.5099 118.328 84.4139 118.093 84.4139 117.816C84.4139 117.539 84.5099 117.304 84.7019 117.112C84.8939 116.92 85.1285 116.824 85.4059 116.824C85.6725 116.824 85.8965 116.92 86.0779 117.112C86.2699 117.304 86.3659 117.539 86.3659 117.816C86.3659 118.093 86.2699 118.328 86.0779 118.52C85.8965 118.712 85.6725 118.808 85.4059 118.808ZM86.1099 120.232V129H84.6539V120.232H86.1099ZM92.1594 121.432H90.3194V129H88.8634V121.432H87.7274V120.232H88.8634V119.608C88.8634 118.627 89.114 117.912 89.6154 117.464C90.1274 117.005 90.9434 116.776 92.0634 116.776V117.992C91.4234 117.992 90.97 118.12 90.7034 118.376C90.4474 118.621 90.3194 119.032 90.3194 119.608V120.232H92.1594V121.432ZM94.609 118.808C94.3317 118.808 94.097 118.712 93.905 118.52C93.713 118.328 93.617 118.093 93.617 117.816C93.617 117.539 93.713 117.304 93.905 117.112C94.097 116.92 94.3317 116.824 94.609 116.824C94.8757 116.824 95.0997 116.92 95.281 117.112C95.473 117.304 95.569 117.539 95.569 117.816C95.569 118.093 95.473 118.328 95.281 118.52C95.0997 118.712 94.8757 118.808 94.609 118.808ZM95.313 120.232V129H93.857V120.232H95.313ZM97.2505 124.6C97.2505 123.693 97.4318 122.904 97.7945 122.232C98.1572 121.549 98.6585 121.021 99.2985 120.648C99.9492 120.275 100.691 120.088 101.523 120.088C102.6 120.088 103.485 120.349 104.179 120.872C104.883 121.395 105.347 122.12 105.571 123.048H104.003C103.853 122.515 103.56 122.093 103.123 121.784C102.696 121.475 102.163 121.32 101.523 121.32C100.691 121.32 100.019 121.608 99.5065 122.184C98.9945 122.749 98.7385 123.555 98.7385 124.6C98.7385 125.656 98.9945 126.472 99.5065 127.048C100.019 127.624 100.691 127.912 101.523 127.912C102.163 127.912 102.696 127.763 103.123 127.464C103.549 127.165 103.843 126.739 104.003 126.184H105.571C105.336 127.08 104.867 127.8 104.163 128.344C103.459 128.877 102.579 129.144 101.523 129.144C100.691 129.144 99.9492 128.957 99.2985 128.584C98.6585 128.211 98.1572 127.683 97.7945 127C97.4318 126.317 97.2505 125.517 97.2505 124.6ZM106.969 124.584C106.969 123.688 107.151 122.904 107.513 122.232C107.876 121.549 108.372 121.021 109.001 120.648C109.641 120.275 110.351 120.088 111.129 120.088C111.897 120.088 112.564 120.253 113.129 120.584C113.695 120.915 114.116 121.331 114.393 121.832V120.232H115.865V129H114.393V127.368C114.105 127.88 113.673 128.307 113.097 128.648C112.532 128.979 111.871 129.144 111.113 129.144C110.335 129.144 109.631 128.952 109.001 128.568C108.372 128.184 107.876 127.645 107.513 126.952C107.151 126.259 106.969 125.469 106.969 124.584ZM114.393 124.6C114.393 123.939 114.26 123.363 113.993 122.872C113.727 122.381 113.364 122.008 112.905 121.752C112.457 121.485 111.961 121.352 111.417 121.352C110.873 121.352 110.377 121.48 109.929 121.736C109.481 121.992 109.124 122.365 108.857 122.856C108.591 123.347 108.457 123.923 108.457 124.584C108.457 125.256 108.591 125.843 108.857 126.344C109.124 126.835 109.481 127.213 109.929 127.48C110.377 127.736 110.873 127.864 111.417 127.864C111.961 127.864 112.457 127.736 112.905 127.48C113.364 127.213 113.727 126.835 113.993 126.344C114.26 125.843 114.393 125.261 114.393 124.6ZM120.102 121.432V126.6C120.102 127.027 120.192 127.331 120.374 127.512C120.555 127.683 120.87 127.768 121.318 127.768H122.39V129H121.078C120.267 129 119.659 128.813 119.254 128.44C118.848 128.067 118.646 127.453 118.646 126.6V121.432H117.51V120.232H118.646V118.024H120.102V120.232H122.39V121.432H120.102ZM124.906 118.808C124.629 118.808 124.394 118.712 124.202 118.52C124.01 118.328 123.914 118.093 123.914 117.816C123.914 117.539 124.01 117.304 124.202 117.112C124.394 116.92 124.629 116.824 124.906 116.824C125.173 116.824 125.397 116.92 125.578 117.112C125.77 117.304 125.866 117.539 125.866 117.816C125.866 118.093 125.77 118.328 125.578 118.52C125.397 118.712 125.173 118.808 124.906 118.808ZM125.61 120.232V129H124.154V120.232H125.61ZM131.915 129.144C131.094 129.144 130.347 128.957 129.675 128.584C129.014 128.211 128.491 127.683 128.107 127C127.734 126.307 127.547 125.507 127.547 124.6C127.547 123.704 127.739 122.915 128.123 122.232C128.518 121.539 129.051 121.011 129.723 120.648C130.395 120.275 131.147 120.088 131.979 120.088C132.811 120.088 133.563 120.275 134.235 120.648C134.907 121.011 135.435 121.533 135.819 122.216C136.214 122.899 136.411 123.693 136.411 124.6C136.411 125.507 136.209 126.307 135.803 127C135.409 127.683 134.87 128.211 134.187 128.584C133.505 128.957 132.747 129.144 131.915 129.144ZM131.915 127.864C132.438 127.864 132.929 127.741 133.387 127.496C133.846 127.251 134.214 126.883 134.491 126.392C134.779 125.901 134.923 125.304 134.923 124.6C134.923 123.896 134.785 123.299 134.507 122.808C134.23 122.317 133.867 121.955 133.419 121.72C132.971 121.475 132.486 121.352 131.963 121.352C131.43 121.352 130.939 121.475 130.491 121.72C130.054 121.955 129.702 122.317 129.435 122.808C129.169 123.299 129.035 123.896 129.035 124.6C129.035 125.315 129.163 125.917 129.419 126.408C129.686 126.899 130.038 127.267 130.475 127.512C130.913 127.747 131.393 127.864 131.915 127.864ZM142.598 120.072C143.664 120.072 144.528 120.397 145.19 121.048C145.851 121.688 146.182 122.616 146.182 123.832V129H144.742V124.04C144.742 123.165 144.523 122.499 144.086 122.04C143.648 121.571 143.051 121.336 142.294 121.336C141.526 121.336 140.912 121.576 140.454 122.056C140.006 122.536 139.782 123.235 139.782 124.152V129H138.326V120.232H139.782V121.48C140.07 121.032 140.459 120.685 140.95 120.44C141.451 120.195 142 120.072 142.598 120.072ZM155.93 129.144C155.258 129.144 154.655 129.032 154.122 128.808C153.588 128.573 153.167 128.253 152.858 127.848C152.548 127.432 152.378 126.957 152.346 126.424H153.85C153.892 126.861 154.095 127.219 154.458 127.496C154.831 127.773 155.316 127.912 155.914 127.912C156.468 127.912 156.906 127.789 157.226 127.544C157.546 127.299 157.706 126.989 157.706 126.616C157.706 126.232 157.535 125.949 157.194 125.768C156.852 125.576 156.324 125.389 155.61 125.208C154.959 125.037 154.426 124.867 154.01 124.696C153.604 124.515 153.252 124.253 152.954 123.912C152.666 123.56 152.522 123.101 152.522 122.536C152.522 122.088 152.655 121.677 152.922 121.304C153.188 120.931 153.567 120.637 154.058 120.424C154.548 120.2 155.108 120.088 155.738 120.088C156.708 120.088 157.492 120.333 158.09 120.824C158.687 121.315 159.007 121.987 159.05 122.84H157.594C157.562 122.381 157.375 122.013 157.034 121.736C156.703 121.459 156.255 121.32 155.69 121.32C155.167 121.32 154.751 121.432 154.442 121.656C154.132 121.88 153.978 122.173 153.978 122.536C153.978 122.824 154.068 123.064 154.25 123.256C154.442 123.437 154.676 123.587 154.954 123.704C155.242 123.811 155.636 123.933 156.138 124.072C156.767 124.243 157.279 124.413 157.674 124.584C158.068 124.744 158.404 124.989 158.682 125.32C158.97 125.651 159.119 126.083 159.13 126.616C159.13 127.096 158.996 127.528 158.73 127.912C158.463 128.296 158.084 128.6 157.594 128.824C157.114 129.037 156.559 129.144 155.93 129.144ZM168.737 120.232L163.457 133.128H161.953L163.681 128.904L160.145 120.232H161.761L164.513 127.336L167.233 120.232H168.737ZM173.305 129.144C172.633 129.144 172.03 129.032 171.497 128.808C170.963 128.573 170.542 128.253 170.233 127.848C169.923 127.432 169.753 126.957 169.721 126.424H171.225C171.267 126.861 171.47 127.219 171.833 127.496C172.206 127.773 172.691 127.912 173.289 127.912C173.843 127.912 174.281 127.789 174.601 127.544C174.921 127.299 175.081 126.989 175.081 126.616C175.081 126.232 174.91 125.949 174.569 125.768C174.227 125.576 173.699 125.389 172.985 125.208C172.334 125.037 171.801 124.867 171.385 124.696C170.979 124.515 170.627 124.253 170.329 123.912C170.041 123.56 169.897 123.101 169.897 122.536C169.897 122.088 170.03 121.677 170.297 121.304C170.563 120.931 170.942 120.637 171.433 120.424C171.923 120.2 172.483 120.088 173.113 120.088C174.083 120.088 174.867 120.333 175.465 120.824C176.062 121.315 176.382 121.987 176.425 122.84H174.969C174.937 122.381 174.75 122.013 174.409 121.736C174.078 121.459 173.63 121.32 173.065 121.32C172.542 121.32 172.126 121.432 171.817 121.656C171.507 121.88 171.353 122.173 171.353 122.536C171.353 122.824 171.443 123.064 171.625 123.256C171.817 123.437 172.051 123.587 172.329 123.704C172.617 123.811 173.011 123.933 173.513 124.072C174.142 124.243 174.654 124.413 175.049 124.584C175.443 124.744 175.779 124.989 176.057 125.32C176.345 125.651 176.494 126.083 176.505 126.616C176.505 127.096 176.371 127.528 176.105 127.912C175.838 128.296 175.459 128.6 174.969 128.824C174.489 129.037 173.934 129.144 173.305 129.144ZM180.336 121.432V126.6C180.336 127.027 180.427 127.331 180.608 127.512C180.789 127.683 181.104 127.768 181.552 127.768H182.624V129H181.312C180.501 129 179.893 128.813 179.488 128.44C179.083 128.067 178.88 127.453 178.88 126.6V121.432H177.744V120.232H178.88V118.024H180.336V120.232H182.624V121.432H180.336ZM192.388 124.28C192.388 124.557 192.372 124.851 192.34 125.16H185.332C185.386 126.024 185.679 126.701 186.212 127.192C186.756 127.672 187.412 127.912 188.18 127.912C188.81 127.912 189.332 127.768 189.748 127.48C190.175 127.181 190.474 126.787 190.644 126.296H192.212C191.978 127.139 191.508 127.827 190.804 128.36C190.1 128.883 189.226 129.144 188.18 129.144C187.348 129.144 186.602 128.957 185.94 128.584C185.29 128.211 184.778 127.683 184.404 127C184.031 126.307 183.844 125.507 183.844 124.6C183.844 123.693 184.026 122.899 184.388 122.216C184.751 121.533 185.258 121.011 185.908 120.648C186.57 120.275 187.327 120.088 188.18 120.088C189.012 120.088 189.748 120.269 190.388 120.632C191.028 120.995 191.519 121.496 191.86 122.136C192.212 122.765 192.388 123.48 192.388 124.28ZM190.884 123.976C190.884 123.421 190.762 122.947 190.516 122.552C190.271 122.147 189.935 121.843 189.508 121.64C189.092 121.427 188.628 121.32 188.116 121.32C187.38 121.32 186.751 121.555 186.228 122.024C185.716 122.493 185.423 123.144 185.348 123.976H190.884ZM204.854 120.072C205.537 120.072 206.145 120.216 206.678 120.504C207.211 120.781 207.633 121.203 207.942 121.768C208.251 122.333 208.406 123.021 208.406 123.832V129H206.966V124.04C206.966 123.165 206.747 122.499 206.31 122.04C205.883 121.571 205.302 121.336 204.566 121.336C203.809 121.336 203.206 121.581 202.758 122.072C202.31 122.552 202.086 123.251 202.086 124.168V129H200.646V124.04C200.646 123.165 200.427 122.499 199.99 122.04C199.563 121.571 198.982 121.336 198.246 121.336C197.489 121.336 196.886 121.581 196.438 122.072C195.99 122.552 195.766 123.251 195.766 124.168V129H194.31V120.232H195.766V121.496C196.054 121.037 196.438 120.685 196.918 120.44C197.409 120.195 197.947 120.072 198.534 120.072C199.27 120.072 199.921 120.237 200.486 120.568C201.051 120.899 201.473 121.384 201.75 122.024C201.995 121.405 202.401 120.925 202.966 120.584C203.531 120.243 204.161 120.072 204.854 120.072ZM213.899 129.144C213.227 129.144 212.624 129.032 212.091 128.808C211.557 128.573 211.136 128.253 210.827 127.848C210.517 127.432 210.347 126.957 210.315 126.424H211.819C211.861 126.861 212.064 127.219 212.427 127.496C212.8 127.773 213.285 127.912 213.883 127.912C214.437 127.912 214.875 127.789 215.195 127.544C215.515 127.299 215.675 126.989 215.675 126.616C215.675 126.232 215.504 125.949 215.163 125.768C214.821 125.576 214.293 125.389 213.579 125.208C212.928 125.037 212.395 124.867 211.979 124.696C211.573 124.515 211.221 124.253 210.923 123.912C210.635 123.56 210.491 123.101 210.491 122.536C210.491 122.088 210.624 121.677 210.891 121.304C211.157 120.931 211.536 120.637 212.027 120.424C212.517 120.2 213.077 120.088 213.707 120.088C214.677 120.088 215.461 120.333 216.059 120.824C216.656 121.315 216.976 121.987 217.019 122.84H215.563C215.531 122.381 215.344 122.013 215.003 121.736C214.672 121.459 214.224 121.32 213.659 121.32C213.136 121.32 212.72 121.432 212.411 121.656C212.101 121.88 211.947 122.173 211.947 122.536C211.947 122.824 212.037 123.064 212.219 123.256C212.411 123.437 212.645 123.587 212.923 123.704C213.211 123.811 213.605 123.933 214.107 124.072C214.736 124.243 215.248 124.413 215.643 124.584C216.037 124.744 216.373 124.989 216.651 125.32C216.939 125.651 217.088 126.083 217.099 126.616C217.099 127.096 216.965 127.528 216.699 127.912C216.432 128.296 216.053 128.6 215.563 128.824C215.083 129.037 214.528 129.144 213.899 129.144ZM225.196 121.432V126.6C225.196 127.027 225.286 127.331 225.468 127.512C225.649 127.683 225.964 127.768 226.411 127.768H227.484V129H226.172C225.361 129 224.753 128.813 224.348 128.44C223.942 128.067 223.74 127.453 223.74 126.6V121.432H222.604V120.232H223.74V118.024H225.196V120.232H227.484V121.432H225.196ZM233.072 129.144C232.25 129.144 231.504 128.957 230.832 128.584C230.17 128.211 229.648 127.683 229.264 127C228.89 126.307 228.704 125.507 228.704 124.6C228.704 123.704 228.896 122.915 229.28 122.232C229.674 121.539 230.208 121.011 230.88 120.648C231.552 120.275 232.304 120.088 233.136 120.088C233.968 120.088 234.72 120.275 235.392 120.648C236.064 121.011 236.592 121.533 236.976 122.216C237.37 122.899 237.568 123.693 237.568 124.6C237.568 125.507 237.365 126.307 236.96 127C236.565 127.683 236.026 128.211 235.344 128.584C234.661 128.957 233.904 129.144 233.072 129.144ZM233.072 127.864C233.594 127.864 234.085 127.741 234.544 127.496C235.002 127.251 235.37 126.883 235.648 126.392C235.936 125.901 236.08 125.304 236.08 124.6C236.08 123.896 235.941 123.299 235.664 122.808C235.386 122.317 235.024 121.955 234.576 121.72C234.128 121.475 233.642 121.352 233.12 121.352C232.586 121.352 232.096 121.475 231.648 121.72C231.21 121.955 230.858 122.317 230.592 122.808C230.325 123.299 230.192 123.896 230.192 124.6C230.192 125.315 230.32 125.917 230.576 126.408C230.842 126.899 231.194 127.267 231.632 127.512C232.069 127.747 232.549 127.864 233.072 127.864ZM243.204 124.584C243.204 123.688 243.385 122.904 243.748 122.232C244.11 121.549 244.606 121.021 245.236 120.648C245.876 120.275 246.585 120.088 247.364 120.088C248.132 120.088 248.798 120.253 249.364 120.584C249.929 120.915 250.35 121.331 250.628 121.832V120.232H252.1V129H250.628V127.368C250.34 127.88 249.908 128.307 249.332 128.648C248.766 128.979 248.105 129.144 247.348 129.144C246.569 129.144 245.865 128.952 245.236 128.568C244.606 128.184 244.11 127.645 243.748 126.952C243.385 126.259 243.204 125.469 243.204 124.584ZM250.628 124.6C250.628 123.939 250.494 123.363 250.228 122.872C249.961 122.381 249.598 122.008 249.14 121.752C248.692 121.485 248.196 121.352 247.652 121.352C247.108 121.352 246.612 121.48 246.164 121.736C245.716 121.992 245.358 122.365 245.092 122.856C244.825 123.347 244.692 123.923 244.692 124.584C244.692 125.256 244.825 125.843 245.092 126.344C245.358 126.835 245.716 127.213 246.164 127.48C246.612 127.736 247.108 127.864 247.652 127.864C248.196 127.864 248.692 127.736 249.14 127.48C249.598 127.213 249.961 126.835 250.228 126.344C250.494 125.843 250.628 125.261 250.628 124.6ZM256.016 117.16V129H254.56V117.16H256.016ZM259.954 117.16V129H258.498V117.16H259.954ZM266.259 129.144C265.438 129.144 264.691 128.957 264.019 128.584C263.358 128.211 262.835 127.683 262.451 127C262.078 126.307 261.891 125.507 261.891 124.6C261.891 123.704 262.083 122.915 262.467 122.232C262.862 121.539 263.395 121.011 264.067 120.648C264.739 120.275 265.491 120.088 266.323 120.088C267.155 120.088 267.907 120.275 268.579 120.648C269.251 121.011 269.779 121.533 270.163 122.216C270.558 122.899 270.755 123.693 270.755 124.6C270.755 125.507 270.552 126.307 270.147 127C269.752 127.683 269.214 128.211 268.531 128.584C267.848 128.957 267.091 129.144 266.259 129.144ZM266.259 127.864C266.782 127.864 267.272 127.741 267.731 127.496C268.19 127.251 268.558 126.883 268.835 126.392C269.123 125.901 269.267 125.304 269.267 124.6C269.267 123.896 269.128 123.299 268.851 122.808C268.574 122.317 268.211 121.955 267.763 121.72C267.315 121.475 266.83 121.352 266.307 121.352C265.774 121.352 265.283 121.475 264.835 121.72C264.398 121.955 264.046 122.317 263.779 122.808C263.512 123.299 263.379 123.896 263.379 124.6C263.379 125.315 263.507 125.917 263.763 126.408C264.03 126.899 264.382 127.267 264.819 127.512C265.256 127.747 265.736 127.864 266.259 127.864ZM284.35 120.232L281.614 129H280.11L277.998 122.04L275.886 129H274.382L271.63 120.232H273.118L275.134 127.592L277.31 120.232H278.798L280.926 127.608L282.91 120.232H284.35ZM297.612 120.232L292.332 133.128H290.828L292.556 128.904L289.02 120.232H290.636L293.388 127.336L296.108 120.232H297.612ZM302.9 129.144C302.078 129.144 301.332 128.957 300.66 128.584C299.998 128.211 299.476 127.683 299.092 127C298.718 126.307 298.532 125.507 298.532 124.6C298.532 123.704 298.724 122.915 299.108 122.232C299.502 121.539 300.036 121.011 300.708 120.648C301.38 120.275 302.132 120.088 302.964 120.088C303.796 120.088 304.548 120.275 305.22 120.648C305.892 121.011 306.42 121.533 306.804 122.216C307.198 122.899 307.396 123.693 307.396 124.6C307.396 125.507 307.193 126.307 306.788 127C306.393 127.683 305.854 128.211 305.172 128.584C304.489 128.957 303.732 129.144 302.9 129.144ZM302.9 127.864C303.422 127.864 303.913 127.741 304.372 127.496C304.83 127.251 305.198 126.883 305.476 126.392C305.764 125.901 305.908 125.304 305.908 124.6C305.908 123.896 305.769 123.299 305.492 122.808C305.214 122.317 304.852 121.955 304.404 121.72C303.956 121.475 303.47 121.352 302.948 121.352C302.414 121.352 301.924 121.475 301.476 121.72C301.038 121.955 300.686 122.317 300.42 122.808C300.153 123.299 300.02 123.896 300.02 124.6C300.02 125.315 300.148 125.917 300.404 126.408C300.67 126.899 301.022 127.267 301.46 127.512C301.897 127.747 302.377 127.864 302.9 127.864ZM317.086 120.232V129H315.63V127.704C315.353 128.152 314.963 128.504 314.462 128.76C313.971 129.005 313.427 129.128 312.83 129.128C312.147 129.128 311.534 128.989 310.99 128.712C310.446 128.424 310.014 127.997 309.694 127.432C309.385 126.867 309.23 126.179 309.23 125.368V120.232H310.67V125.176C310.67 126.04 310.889 126.707 311.326 127.176C311.763 127.635 312.361 127.864 313.118 127.864C313.897 127.864 314.51 127.624 314.958 127.144C315.406 126.664 315.63 125.965 315.63 125.048V120.232H317.086ZM24.008 145.432V150.6C24.008 151.027 24.0987 151.331 24.28 151.512C24.4613 151.683 24.776 151.768 25.224 151.768H26.296V153H24.984C24.1733 153 23.5653 152.813 23.16 152.44C22.7547 152.067 22.552 151.453 22.552 150.6V145.432H21.416V144.232H22.552V142.024H24.008V144.232H26.296V145.432H24.008ZM31.8841 153.144C31.0628 153.144 30.3161 152.957 29.6441 152.584C28.9828 152.211 28.4601 151.683 28.0761 151C27.7028 150.307 27.5161 149.507 27.5161 148.6C27.5161 147.704 27.7081 146.915 28.0921 146.232C28.4868 145.539 29.0201 145.011 29.6921 144.648C30.3641 144.275 31.1161 144.088 31.9481 144.088C32.7801 144.088 33.5321 144.275 34.2041 144.648C34.8761 145.011 35.4041 145.533 35.7881 146.216C36.1828 146.899 36.3801 147.693 36.3801 148.6C36.3801 149.507 36.1775 150.307 35.7721 151C35.3775 151.683 34.8388 152.211 34.1561 152.584C33.4735 152.957 32.7161 153.144 31.8841 153.144ZM31.8841 151.864C32.4068 151.864 32.8975 151.741 33.3561 151.496C33.8148 151.251 34.1828 150.883 34.4601 150.392C34.7481 149.901 34.8921 149.304 34.8921 148.6C34.8921 147.896 34.7535 147.299 34.4761 146.808C34.1988 146.317 33.8361 145.955 33.3881 145.72C32.9401 145.475 32.4548 145.352 31.9321 145.352C31.3988 145.352 30.9081 145.475 30.4601 145.72C30.0228 145.955 29.6708 146.317 29.4041 146.808C29.1375 147.299 29.0041 147.896 29.0041 148.6C29.0041 149.315 29.1321 149.917 29.3881 150.408C29.6548 150.899 30.0068 151.267 30.4441 151.512C30.8815 151.747 31.3615 151.864 31.8841 151.864ZM46.1281 145.432H44.2881V153H42.8321V145.432H41.6961V144.232H42.8321V143.608C42.8321 142.627 43.0828 141.912 43.5841 141.464C44.0961 141.005 44.9121 140.776 46.0321 140.776V141.992C45.3921 141.992 44.9388 142.12 44.6721 142.376C44.4161 142.621 44.2881 143.032 44.2881 143.608V144.232H46.1281V145.432ZM51.6498 153.144C50.8284 153.144 50.0818 152.957 49.4098 152.584C48.7484 152.211 48.2258 151.683 47.8418 151C47.4684 150.307 47.2818 149.507 47.2818 148.6C47.2818 147.704 47.4738 146.915 47.8578 146.232C48.2524 145.539 48.7858 145.011 49.4578 144.648C50.1298 144.275 50.8818 144.088 51.7138 144.088C52.5458 144.088 53.2978 144.275 53.9698 144.648C54.6418 145.011 55.1698 145.533 55.5538 146.216C55.9484 146.899 56.1458 147.693 56.1458 148.6C56.1458 149.507 55.9431 150.307 55.5378 151C55.1431 151.683 54.6044 152.211 53.9218 152.584C53.2391 152.957 52.4818 153.144 51.6498 153.144ZM51.6498 151.864C52.1724 151.864 52.6631 151.741 53.1218 151.496C53.5804 151.251 53.9484 150.883 54.2258 150.392C54.5138 149.901 54.6578 149.304 54.6578 148.6C54.6578 147.896 54.5191 147.299 54.2418 146.808C53.9644 146.317 53.6018 145.955 53.1538 145.72C52.7058 145.475 52.2204 145.352 51.6978 145.352C51.1644 145.352 50.6738 145.475 50.2258 145.72C49.7884 145.955 49.4364 146.317 49.1698 146.808C48.9031 147.299 48.7698 147.896 48.7698 148.6C48.7698 149.315 48.8978 149.917 49.1538 150.408C49.4204 150.899 49.7724 151.267 50.2098 151.512C50.6471 151.747 51.1271 151.864 51.6498 151.864ZM57.5161 148.6C57.5161 147.693 57.6975 146.904 58.0601 146.232C58.4228 145.549 58.9241 145.021 59.5641 144.648C60.2148 144.275 60.9561 144.088 61.7881 144.088C62.8655 144.088 63.7508 144.349 64.4441 144.872C65.1481 145.395 65.6121 146.12 65.8361 147.048H64.2681C64.1188 146.515 63.8255 146.093 63.3881 145.784C62.9615 145.475 62.4281 145.32 61.7881 145.32C60.9561 145.32 60.2841 145.608 59.7721 146.184C59.2601 146.749 59.0041 147.555 59.0041 148.6C59.0041 149.656 59.2601 150.472 59.7721 151.048C60.2841 151.624 60.9561 151.912 61.7881 151.912C62.4281 151.912 62.9615 151.763 63.3881 151.464C63.8148 151.165 64.1081 150.739 64.2681 150.184H65.8361C65.6015 151.08 65.1321 151.8 64.4281 152.344C63.7241 152.877 62.8441 153.144 61.7881 153.144C60.9561 153.144 60.2148 152.957 59.5641 152.584C58.9241 152.211 58.4228 151.683 58.0601 151C57.6975 150.317 57.5161 149.517 57.5161 148.6ZM75.5549 144.232V153H74.0989V151.704C73.8215 152.152 73.4322 152.504 72.9309 152.76C72.4402 153.005 71.8962 153.128 71.2989 153.128C70.6162 153.128 70.0029 152.989 69.4589 152.712C68.9149 152.424 68.4829 151.997 68.1629 151.432C67.8535 150.867 67.6989 150.179 67.6989 149.368V144.232H69.1389V149.176C69.1389 150.04 69.3575 150.707 69.7949 151.176C70.2322 151.635 70.8295 151.864 71.5869 151.864C72.3655 151.864 72.9789 151.624 73.4269 151.144C73.8749 150.664 74.0989 149.965 74.0989 149.048V144.232H75.5549ZM81.1173 153.144C80.4453 153.144 79.8426 153.032 79.3093 152.808C78.7759 152.573 78.3546 152.253 78.0453 151.848C77.7359 151.432 77.5653 150.957 77.5333 150.424H79.0373C79.0799 150.861 79.2826 151.219 79.6453 151.496C80.0186 151.773 80.5039 151.912 81.1013 151.912C81.6559 151.912 82.0933 151.789 82.4133 151.544C82.7333 151.299 82.8933 150.989 82.8933 150.616C82.8933 150.232 82.7226 149.949 82.3813 149.768C82.0399 149.576 81.5119 149.389 80.7973 149.208C80.1466 149.037 79.6133 148.867 79.1973 148.696C78.7919 148.515 78.4399 148.253 78.1413 147.912C77.8533 147.56 77.7093 147.101 77.7093 146.536C77.7093 146.088 77.8426 145.677 78.1093 145.304C78.3759 144.931 78.7546 144.637 79.2453 144.424C79.7359 144.2 80.2959 144.088 80.9253 144.088C81.8959 144.088 82.6799 144.333 83.2773 144.824C83.8746 145.315 84.1946 145.987 84.2373 146.84H82.7813C82.7493 146.381 82.5626 146.013 82.2213 145.736C81.8906 145.459 81.4426 145.32 80.8773 145.32C80.3546 145.32 79.9386 145.432 79.6293 145.656C79.3199 145.88 79.1653 146.173 79.1653 146.536C79.1653 146.824 79.2559 147.064 79.4373 147.256C79.6293 147.437 79.8639 147.587 80.1413 147.704C80.4293 147.811 80.8239 147.933 81.3253 148.072C81.9546 148.243 82.4666 148.413 82.8613 148.584C83.2559 148.744 83.5919 148.989 83.8693 149.32C84.1573 149.651 84.3066 150.083 84.3173 150.616C84.3173 151.096 84.1839 151.528 83.9173 151.912C83.6506 152.296 83.2719 152.6 82.7813 152.824C82.3013 153.037 81.7466 153.144 81.1173 153.144ZM94.4623 153.144C93.6409 153.144 92.8943 152.957 92.2223 152.584C91.5609 152.211 91.0383 151.683 90.6543 151C90.2809 150.307 90.0943 149.507 90.0943 148.6C90.0943 147.704 90.2863 146.915 90.6703 146.232C91.0649 145.539 91.5983 145.011 92.2703 144.648C92.9423 144.275 93.6943 144.088 94.5263 144.088C95.3583 144.088 96.1103 144.275 96.7823 144.648C97.4543 145.011 97.9823 145.533 98.3663 146.216C98.7609 146.899 98.9583 147.693 98.9583 148.6C98.9583 149.507 98.7556 150.307 98.3503 151C97.9556 151.683 97.4169 152.211 96.7343 152.584C96.0516 152.957 95.2943 153.144 94.4623 153.144ZM94.4623 151.864C94.9849 151.864 95.4756 151.741 95.9343 151.496C96.3929 151.251 96.7609 150.883 97.0383 150.392C97.3263 149.901 97.4703 149.304 97.4703 148.6C97.4703 147.896 97.3316 147.299 97.0543 146.808C96.7769 146.317 96.4143 145.955 95.9663 145.72C95.5183 145.475 95.0329 145.352 94.5103 145.352C93.9769 145.352 93.4863 145.475 93.0383 145.72C92.6009 145.955 92.2489 146.317 91.9823 146.808C91.7156 147.299 91.5823 147.896 91.5823 148.6C91.5823 149.315 91.7103 149.917 91.9663 150.408C92.2329 150.899 92.5849 151.267 93.0223 151.512C93.4596 151.747 93.9396 151.864 94.4623 151.864ZM105.145 144.072C106.211 144.072 107.075 144.397 107.737 145.048C108.398 145.688 108.729 146.616 108.729 147.832V153H107.289V148.04C107.289 147.165 107.07 146.499 106.633 146.04C106.195 145.571 105.598 145.336 104.841 145.336C104.073 145.336 103.459 145.576 103.001 146.056C102.553 146.536 102.329 147.235 102.329 148.152V153H100.873V144.232H102.329V145.48C102.617 145.032 103.006 144.685 103.497 144.44C103.998 144.195 104.547 144.072 105.145 144.072ZM118.989 144.088C119.746 144.088 120.407 144.253 120.973 144.584C121.549 144.915 121.975 145.331 122.253 145.832V144.232H123.725V153.192C123.725 153.992 123.554 154.701 123.213 155.32C122.871 155.949 122.381 156.44 121.741 156.792C121.111 157.144 120.375 157.32 119.533 157.32C118.381 157.32 117.421 157.048 116.653 156.504C115.885 155.96 115.431 155.219 115.293 154.28H116.733C116.893 154.813 117.223 155.24 117.725 155.56C118.226 155.891 118.829 156.056 119.533 156.056C120.333 156.056 120.983 155.805 121.485 155.304C121.997 154.803 122.253 154.099 122.253 153.192V151.352C121.965 151.864 121.538 152.291 120.973 152.632C120.407 152.973 119.746 153.144 118.989 153.144C118.21 153.144 117.501 152.952 116.861 152.568C116.231 152.184 115.735 151.645 115.373 150.952C115.01 150.259 114.829 149.469 114.829 148.584C114.829 147.688 115.01 146.904 115.373 146.232C115.735 145.549 116.231 145.021 116.861 144.648C117.501 144.275 118.21 144.088 118.989 144.088ZM122.253 148.6C122.253 147.939 122.119 147.363 121.853 146.872C121.586 146.381 121.223 146.008 120.765 145.752C120.317 145.485 119.821 145.352 119.277 145.352C118.733 145.352 118.237 145.48 117.789 145.736C117.341 145.992 116.983 146.365 116.717 146.856C116.45 147.347 116.317 147.923 116.317 148.584C116.317 149.256 116.45 149.843 116.717 150.344C116.983 150.835 117.341 151.213 117.789 151.48C118.237 151.736 118.733 151.864 119.277 151.864C119.821 151.864 120.317 151.736 120.765 151.48C121.223 151.213 121.586 150.835 121.853 150.344C122.119 149.843 122.253 149.261 122.253 148.6ZM127.641 145.656C127.897 145.155 128.26 144.765 128.729 144.488C129.209 144.211 129.79 144.072 130.473 144.072V145.576H130.089C128.457 145.576 127.641 146.461 127.641 148.232V153H126.185V144.232H127.641V145.656ZM135.978 153.144C135.157 153.144 134.41 152.957 133.738 152.584C133.077 152.211 132.554 151.683 132.17 151C131.797 150.307 131.61 149.507 131.61 148.6C131.61 147.704 131.802 146.915 132.186 146.232C132.581 145.539 133.114 145.011 133.786 144.648C134.458 144.275 135.21 144.088 136.042 144.088C136.874 144.088 137.626 144.275 138.298 144.648C138.97 145.011 139.498 145.533 139.882 146.216C140.277 146.899 140.474 147.693 140.474 148.6C140.474 149.507 140.271 150.307 139.866 151C139.471 151.683 138.933 152.211 138.25 152.584C137.567 152.957 136.81 153.144 135.978 153.144ZM135.978 151.864C136.501 151.864 136.991 151.741 137.45 151.496C137.909 151.251 138.277 150.883 138.554 150.392C138.842 149.901 138.986 149.304 138.986 148.6C138.986 147.896 138.847 147.299 138.57 146.808C138.293 146.317 137.93 145.955 137.482 145.72C137.034 145.475 136.549 145.352 136.026 145.352C135.493 145.352 135.002 145.475 134.554 145.72C134.117 145.955 133.765 146.317 133.498 146.808C133.231 147.299 133.098 147.896 133.098 148.6C133.098 149.315 133.226 149.917 133.482 150.408C133.749 150.899 134.101 151.267 134.538 151.512C134.975 151.747 135.455 151.864 135.978 151.864ZM154.068 144.232L151.332 153H149.828L147.716 146.04L145.604 153H144.1L141.348 144.232H142.836L144.852 151.592L147.028 144.232H148.516L150.644 151.608L152.628 144.232H154.068ZM156.265 142.808C155.988 142.808 155.753 142.712 155.561 142.52C155.369 142.328 155.273 142.093 155.273 141.816C155.273 141.539 155.369 141.304 155.561 141.112C155.753 140.92 155.988 140.824 156.265 140.824C156.532 140.824 156.756 140.92 156.937 141.112C157.129 141.304 157.225 141.539 157.225 141.816C157.225 142.093 157.129 142.328 156.937 142.52C156.756 142.712 156.532 142.808 156.265 142.808ZM156.969 144.232V153H155.513V144.232H156.969ZM163.723 144.072C164.789 144.072 165.653 144.397 166.315 145.048C166.976 145.688 167.307 146.616 167.307 147.832V153H165.867V148.04C165.867 147.165 165.648 146.499 165.211 146.04C164.773 145.571 164.176 145.336 163.419 145.336C162.651 145.336 162.037 145.576 161.579 146.056C161.131 146.536 160.907 147.235 160.907 148.152V153H159.451V144.232H160.907V145.48C161.195 145.032 161.584 144.685 162.075 144.44C162.576 144.195 163.125 144.072 163.723 144.072ZM173.301 144.088C174.058 144.088 174.72 144.253 175.285 144.584C175.861 144.915 176.288 145.331 176.565 145.832V144.232H178.037V153.192C178.037 153.992 177.866 154.701 177.525 155.32C177.184 155.949 176.693 156.44 176.053 156.792C175.424 157.144 174.688 157.32 173.845 157.32C172.693 157.32 171.733 157.048 170.965 156.504C170.197 155.96 169.744 155.219 169.605 154.28H171.045C171.205 154.813 171.536 155.24 172.037 155.56C172.538 155.891 173.141 156.056 173.845 156.056C174.645 156.056 175.296 155.805 175.797 155.304C176.309 154.803 176.565 154.099 176.565 153.192V151.352C176.277 151.864 175.85 152.291 175.285 152.632C174.72 152.973 174.058 153.144 173.301 153.144C172.522 153.144 171.813 152.952 171.173 152.568C170.544 152.184 170.048 151.645 169.685 150.952C169.322 150.259 169.141 149.469 169.141 148.584C169.141 147.688 169.322 146.904 169.685 146.232C170.048 145.549 170.544 145.021 171.173 144.648C171.813 144.275 172.522 144.088 173.301 144.088ZM176.565 148.6C176.565 147.939 176.432 147.363 176.165 146.872C175.898 146.381 175.536 146.008 175.077 145.752C174.629 145.485 174.133 145.352 173.589 145.352C173.045 145.352 172.549 145.48 172.101 145.736C171.653 145.992 171.296 146.365 171.029 146.856C170.762 147.347 170.629 147.923 170.629 148.584C170.629 149.256 170.762 149.843 171.029 150.344C171.296 150.835 171.653 151.213 172.101 151.48C172.549 151.736 173.045 151.864 173.589 151.864C174.133 151.864 174.629 151.736 175.077 151.48C175.536 151.213 175.898 150.835 176.165 150.344C176.432 149.843 176.565 149.261 176.565 148.6ZM192.315 144.232L187.035 157.128H185.531L187.259 152.904L183.723 144.232H185.339L188.091 151.336L190.811 144.232H192.315ZM197.603 153.144C196.782 153.144 196.035 152.957 195.363 152.584C194.702 152.211 194.179 151.683 193.795 151C193.422 150.307 193.235 149.507 193.235 148.6C193.235 147.704 193.427 146.915 193.811 146.232C194.206 145.539 194.739 145.011 195.411 144.648C196.083 144.275 196.835 144.088 197.667 144.088C198.499 144.088 199.251 144.275 199.923 144.648C200.595 145.011 201.123 145.533 201.507 146.216C201.902 146.899 202.099 147.693 202.099 148.6C202.099 149.507 201.896 150.307 201.491 151C201.096 151.683 200.558 152.211 199.875 152.584C199.192 152.957 198.435 153.144 197.603 153.144ZM197.603 151.864C198.126 151.864 198.616 151.741 199.075 151.496C199.534 151.251 199.902 150.883 200.179 150.392C200.467 149.901 200.611 149.304 200.611 148.6C200.611 147.896 200.472 147.299 200.195 146.808C199.918 146.317 199.555 145.955 199.107 145.72C198.659 145.475 198.174 145.352 197.651 145.352C197.118 145.352 196.627 145.475 196.179 145.72C195.742 145.955 195.39 146.317 195.123 146.808C194.856 147.299 194.723 147.896 194.723 148.6C194.723 149.315 194.851 149.917 195.107 150.408C195.374 150.899 195.726 151.267 196.163 151.512C196.6 151.747 197.08 151.864 197.603 151.864ZM211.789 144.232V153H210.333V151.704C210.056 152.152 209.667 152.504 209.165 152.76C208.675 153.005 208.131 153.128 207.533 153.128C206.851 153.128 206.237 152.989 205.693 152.712C205.149 152.424 204.717 151.997 204.397 151.432C204.088 150.867 203.933 150.179 203.933 149.368V144.232H205.373V149.176C205.373 150.04 205.592 150.707 206.029 151.176C206.467 151.635 207.064 151.864 207.821 151.864C208.6 151.864 209.213 151.624 209.661 151.144C210.109 150.664 210.333 149.965 210.333 149.048V144.232H211.789ZM215.704 145.656C215.96 145.155 216.322 144.765 216.792 144.488C217.272 144.211 217.853 144.072 218.536 144.072V145.576H218.152C216.52 145.576 215.704 146.461 215.704 148.232V153H214.248V144.232H215.704V145.656ZM225.938 145.864C226.237 145.341 226.674 144.915 227.25 144.584C227.826 144.253 228.482 144.088 229.218 144.088C230.007 144.088 230.717 144.275 231.346 144.648C231.975 145.021 232.471 145.549 232.834 146.232C233.197 146.904 233.378 147.688 233.378 148.584C233.378 149.469 233.197 150.259 232.834 150.952C232.471 151.645 231.97 152.184 231.33 152.568C230.701 152.952 229.997 153.144 229.218 153.144C228.461 153.144 227.794 152.979 227.218 152.648C226.653 152.317 226.226 151.896 225.938 151.384V153H224.482V141.16H225.938V145.864ZM231.89 148.584C231.89 147.923 231.757 147.347 231.49 146.856C231.223 146.365 230.861 145.992 230.402 145.736C229.954 145.48 229.458 145.352 228.914 145.352C228.381 145.352 227.885 145.485 227.426 145.752C226.978 146.008 226.615 146.387 226.338 146.888C226.071 147.379 225.938 147.949 225.938 148.6C225.938 149.261 226.071 149.843 226.338 150.344C226.615 150.835 226.978 151.213 227.426 151.48C227.885 151.736 228.381 151.864 228.914 151.864C229.458 151.864 229.954 151.736 230.402 151.48C230.861 151.213 231.223 150.835 231.49 150.344C231.757 149.843 231.89 149.256 231.89 148.584ZM243.071 144.232V153H241.615V151.704C241.337 152.152 240.948 152.504 240.447 152.76C239.956 153.005 239.412 153.128 238.815 153.128C238.132 153.128 237.519 152.989 236.975 152.712C236.431 152.424 235.999 151.997 235.679 151.432C235.369 150.867 235.215 150.179 235.215 149.368V144.232H236.655V149.176C236.655 150.04 236.873 150.707 237.311 151.176C237.748 151.635 238.345 151.864 239.103 151.864C239.881 151.864 240.495 151.624 240.943 151.144C241.391 150.664 241.615 149.965 241.615 149.048V144.232H243.071ZM248.633 153.144C247.961 153.144 247.358 153.032 246.825 152.808C246.292 152.573 245.87 152.253 245.561 151.848C245.252 151.432 245.081 150.957 245.049 150.424H246.553C246.596 150.861 246.798 151.219 247.161 151.496C247.534 151.773 248.02 151.912 248.617 151.912C249.172 151.912 249.609 151.789 249.929 151.544C250.249 151.299 250.409 150.989 250.409 150.616C250.409 150.232 250.238 149.949 249.897 149.768C249.556 149.576 249.028 149.389 248.313 149.208C247.662 149.037 247.129 148.867 246.713 148.696C246.308 148.515 245.956 148.253 245.657 147.912C245.369 147.56 245.225 147.101 245.225 146.536C245.225 146.088 245.358 145.677 245.625 145.304C245.892 144.931 246.27 144.637 246.761 144.424C247.252 144.2 247.812 144.088 248.441 144.088C249.412 144.088 250.196 144.333 250.793 144.824C251.39 145.315 251.71 145.987 251.753 146.84H250.297C250.265 146.381 250.078 146.013 249.737 145.736C249.406 145.459 248.958 145.32 248.393 145.32C247.87 145.32 247.454 145.432 247.145 145.656C246.836 145.88 246.681 146.173 246.681 146.536C246.681 146.824 246.772 147.064 246.953 147.256C247.145 147.437 247.38 147.587 247.657 147.704C247.945 147.811 248.34 147.933 248.841 148.072C249.47 148.243 249.982 148.413 250.377 148.584C250.772 148.744 251.108 148.989 251.385 149.32C251.673 149.651 251.822 150.083 251.833 150.616C251.833 151.096 251.7 151.528 251.433 151.912C251.166 152.296 250.788 152.6 250.297 152.824C249.817 153.037 249.262 153.144 248.633 153.144ZM254.64 142.808C254.363 142.808 254.128 142.712 253.936 142.52C253.744 142.328 253.648 142.093 253.648 141.816C253.648 141.539 253.744 141.304 253.936 141.112C254.128 140.92 254.363 140.824 254.64 140.824C254.907 140.824 255.131 140.92 255.312 141.112C255.504 141.304 255.6 141.539 255.6 141.816C255.6 142.093 255.504 142.328 255.312 142.52C255.131 142.712 254.907 142.808 254.64 142.808ZM255.344 144.232V153H253.888V144.232H255.344ZM262.098 144.072C263.164 144.072 264.028 144.397 264.69 145.048C265.351 145.688 265.682 146.616 265.682 147.832V153H264.242V148.04C264.242 147.165 264.023 146.499 263.586 146.04C263.148 145.571 262.551 145.336 261.794 145.336C261.026 145.336 260.412 145.576 259.954 146.056C259.506 146.536 259.282 147.235 259.282 148.152V153H257.826V144.232H259.282V145.48C259.57 145.032 259.959 144.685 260.45 144.44C260.951 144.195 261.5 144.072 262.098 144.072ZM276.06 148.28C276.06 148.557 276.044 148.851 276.012 149.16H269.004C269.057 150.024 269.351 150.701 269.884 151.192C270.428 151.672 271.084 151.912 271.852 151.912C272.481 151.912 273.004 151.768 273.42 151.48C273.847 151.181 274.145 150.787 274.316 150.296H275.884C275.649 151.139 275.18 151.827 274.476 152.36C273.772 152.883 272.897 153.144 271.852 153.144C271.02 153.144 270.273 152.957 269.612 152.584C268.961 152.211 268.449 151.683 268.076 151C267.703 150.307 267.516 149.507 267.516 148.6C267.516 147.693 267.697 146.899 268.06 146.216C268.423 145.533 268.929 145.011 269.58 144.648C270.241 144.275 270.999 144.088 271.852 144.088C272.684 144.088 273.42 144.269 274.06 144.632C274.7 144.995 275.191 145.496 275.532 146.136C275.884 146.765 276.06 147.48 276.06 148.28ZM274.556 147.976C274.556 147.421 274.433 146.947 274.188 146.552C273.943 146.147 273.607 145.843 273.18 145.64C272.764 145.427 272.3 145.32 271.788 145.32C271.052 145.32 270.423 145.555 269.9 146.024C269.388 146.493 269.095 147.144 269.02 147.976H274.556ZM281.086 153.144C280.414 153.144 279.811 153.032 279.278 152.808C278.745 152.573 278.323 152.253 278.014 151.848C277.705 151.432 277.534 150.957 277.502 150.424H279.006C279.049 150.861 279.251 151.219 279.614 151.496C279.987 151.773 280.473 151.912 281.07 151.912C281.625 151.912 282.062 151.789 282.382 151.544C282.702 151.299 282.862 150.989 282.862 150.616C282.862 150.232 282.691 149.949 282.35 149.768C282.009 149.576 281.481 149.389 280.766 149.208C280.115 149.037 279.582 148.867 279.166 148.696C278.761 148.515 278.409 148.253 278.11 147.912C277.822 147.56 277.678 147.101 277.678 146.536C277.678 146.088 277.811 145.677 278.078 145.304C278.345 144.931 278.723 144.637 279.214 144.424C279.705 144.2 280.265 144.088 280.894 144.088C281.865 144.088 282.649 144.333 283.246 144.824C283.843 145.315 284.163 145.987 284.206 146.84H282.75C282.718 146.381 282.531 146.013 282.19 145.736C281.859 145.459 281.411 145.32 280.846 145.32C280.323 145.32 279.907 145.432 279.598 145.656C279.289 145.88 279.134 146.173 279.134 146.536C279.134 146.824 279.225 147.064 279.406 147.256C279.598 147.437 279.833 147.587 280.11 147.704C280.398 147.811 280.793 147.933 281.294 148.072C281.923 148.243 282.435 148.413 282.83 148.584C283.225 148.744 283.561 148.989 283.838 149.32C284.126 149.651 284.275 150.083 284.286 150.616C284.286 151.096 284.153 151.528 283.886 151.912C283.619 152.296 283.241 152.6 282.75 152.824C282.27 153.037 281.715 153.144 281.086 153.144ZM289.445 153.144C288.773 153.144 288.171 153.032 287.637 152.808C287.104 152.573 286.683 152.253 286.373 151.848C286.064 151.432 285.893 150.957 285.861 150.424H287.365C287.408 150.861 287.611 151.219 287.973 151.496C288.347 151.773 288.832 151.912 289.429 151.912C289.984 151.912 290.421 151.789 290.741 151.544C291.061 151.299 291.221 150.989 291.221 150.616C291.221 150.232 291.051 149.949 290.709 149.768C290.368 149.576 289.84 149.389 289.125 149.208C288.475 149.037 287.941 148.867 287.525 148.696C287.12 148.515 286.768 148.253 286.469 147.912C286.181 147.56 286.037 147.101 286.037 146.536C286.037 146.088 286.171 145.677 286.437 145.304C286.704 144.931 287.083 144.637 287.573 144.424C288.064 144.2 288.624 144.088 289.253 144.088C290.224 144.088 291.008 144.333 291.605 144.824C292.203 145.315 292.523 145.987 292.565 146.84H291.109C291.077 146.381 290.891 146.013 290.549 145.736C290.219 145.459 289.771 145.32 289.205 145.32C288.683 145.32 288.267 145.432 287.957 145.656C287.648 145.88 287.493 146.173 287.493 146.536C287.493 146.824 287.584 147.064 287.765 147.256C287.957 147.437 288.192 147.587 288.469 147.704C288.757 147.811 289.152 147.933 289.653 148.072C290.283 148.243 290.795 148.413 291.189 148.584C291.584 148.744 291.92 148.989 292.197 149.32C292.485 149.651 292.635 150.083 292.645 150.616C292.645 151.096 292.512 151.528 292.245 151.912C291.979 152.296 291.6 152.6 291.109 152.824C290.629 153.037 290.075 153.144 289.445 153.144Z" fill="white"/>
<path d="M2.87158 69.64L830.895 -427.887" stroke="white" stroke-opacity="0.2" stroke-dasharray="2 2"/>
<path d="M39.3585 191.511C40.634 190.745 41.2647 189.092 40.2697 187.436C39.2746 185.78 37.8113 185.651 36.5564 186.405C36.1038 186.677 35.8324 186.994 35.6145 187.377L34.4894 185.085L37.3386 183.373L36.8565 182.571L33.1844 184.777L35.0677 188.447L35.7571 188.453C36.0161 187.906 36.2423 187.56 36.7463 187.257C37.6926 186.688 38.6929 186.955 39.3419 188.035C40.0032 189.136 39.6911 190.247 38.8065 190.779C37.9322 191.304 37.146 191.231 36.4544 191.058L36.3623 191.953C37.1692 192.155 38.1859 192.216 39.3585 191.511ZM45.2389 187.978C46.6686 187.119 46.7992 185.262 45.2231 182.639C43.6533 180.027 41.9715 179.301 40.5417 180.16C39.1017 181.026 38.9464 182.841 40.5224 185.464C42.0985 188.087 43.7988 188.843 45.2389 187.978ZM44.7877 187.227C43.9237 187.746 42.7729 187.136 41.4379 184.914C40.1153 182.713 40.1351 181.441 40.9991 180.922C41.8528 180.409 42.9851 180.988 44.3077 183.189C45.6427 185.411 45.6414 186.714 44.7877 187.227ZM50.9444 184.55C52.3741 183.69 52.5047 181.834 50.9287 179.211C49.3588 176.599 47.677 175.873 46.2472 176.732C44.8072 177.597 44.6519 179.413 46.228 182.036C47.804 184.659 49.5043 185.415 50.9444 184.55ZM50.4932 183.799C49.6292 184.318 48.4784 183.707 47.1434 181.486C45.8208 179.284 45.8406 178.013 46.7046 177.493C47.5583 176.98 48.6906 177.56 50.0132 179.761C51.3482 181.983 51.347 183.286 50.4932 183.799ZM56.6499 181.121C58.0797 180.262 58.2102 178.406 56.6342 175.783C55.0644 173.17 53.3825 172.445 51.9528 173.304C50.5127 174.169 50.3575 175.984 51.9335 178.607C53.5095 181.23 55.2099 181.987 56.6499 181.121ZM56.1987 180.37C55.3347 180.89 54.1839 180.279 52.8489 178.057C51.5263 175.856 51.5461 174.584 52.4101 174.065C53.2639 173.552 54.3961 174.132 55.7187 176.333C57.0537 178.555 57.0525 179.857 56.1987 180.37Z" fill="white" fill-opacity="0.6"/>
<path d="M63.9551 171.3L891.979 -326.227" stroke="white" stroke-opacity="0.2" stroke-dasharray="2 2"/>
<path d="M100.473 293.153C101.81 292.349 102.408 290.898 101.598 289.55C100.98 288.522 99.8626 288.269 98.8442 288.601L98.8194 288.56C99.4425 287.78 99.623 286.845 99.073 285.93C98.3437 284.716 97.01 284.594 95.7448 285.354C94.8705 285.879 94.4306 286.661 94.1801 287.526L95.0426 287.82C95.2109 287.145 95.5604 286.515 96.1549 286.129C96.949 285.68 97.7208 285.846 98.1596 286.577C98.6479 287.389 98.49 288.338 96.9368 289.271L97.3695 289.991C99.1078 288.947 100.079 289.189 100.623 290.094C101.142 290.958 100.826 291.876 99.9311 292.414C99.0774 292.927 98.2603 292.872 97.5399 292.675L97.4376 293.576C98.2527 293.815 99.29 293.863 100.473 293.153ZM106.322 289.638C107.752 288.779 107.883 286.922 106.307 284.299C104.737 281.687 103.055 280.961 101.625 281.82C100.185 282.686 100.03 284.501 101.606 287.124C103.182 289.747 104.882 290.503 106.322 289.638ZM105.871 288.887C105.007 289.406 103.856 288.796 102.521 286.574C101.199 284.373 101.219 283.101 102.083 282.582C102.936 282.069 104.069 282.648 105.391 284.85C106.726 287.071 106.725 288.374 105.871 288.887ZM112.028 286.21C113.458 285.351 113.588 283.494 112.012 280.871C110.442 278.259 108.76 277.533 107.331 278.392C105.891 279.258 105.735 281.073 107.311 283.696C108.887 286.319 110.588 287.075 112.028 286.21ZM111.577 285.459C110.713 285.978 109.562 285.367 108.227 283.146C106.904 280.944 106.924 279.673 107.788 279.153C108.642 278.64 109.774 279.22 111.097 281.421C112.432 283.643 112.43 284.946 111.577 285.459ZM117.733 282.781C119.163 281.922 119.294 280.066 117.718 277.443C116.148 274.83 114.466 274.105 113.036 274.964C111.596 275.829 111.441 277.645 113.017 280.267C114.593 282.89 116.293 283.647 117.733 282.781ZM117.282 282.031C116.418 282.55 115.267 281.939 113.932 279.717C112.61 277.516 112.63 276.244 113.494 275.725C114.347 275.212 115.48 275.792 116.802 277.993C118.137 280.215 118.136 281.518 117.282 282.031Z" fill="white" fill-opacity="0.6"/>
<path d="M125.039 272.96L953.062 -224.567" stroke="white" stroke-opacity="0.2" stroke-dasharray="2 2"/>
<path d="M186.122 374.62L1014.15 -122.907" stroke="white" stroke-opacity="0.2" stroke-dasharray="2 2"/>
<path d="M247.206 476.28L1075.23 -21.2466" stroke="white" stroke-opacity="0.2" stroke-dasharray="2 2"/>
<rect x="308.032" y="577.512" width="966" height="1" transform="rotate(-31 308.032 577.512)" fill="white" fill-opacity="0.4"/>
<path opacity="0.2" d="M121.669 259.536L119.174 263.199L307.389 576.442L1135.38 78.9376L1071.36 -27.5966L1069.82 -22.3436L1068.28 -17.0905L1057.19 -27.7381L1060.43 -14.5347L1051.25 -22.0022L1070.73 18.2323L1059.63 7.58471L1057.14 11.2477L1035.54 -16.8906L1035.91 -8.45737L1024.81 -19.105L1024.23 -12.2618L1020.78 -10.1889L1006.82 -25.6067L1013.88 -6.04301L1005.65 -11.9204L990.74 -28.9282L1001.62 -3.00437L998.171 -0.931422L1008.1 23.4024L928.214 -101.73L917.121 -112.377L912.716 -111.894L922.641 -87.5606L916.325 -90.2579L924.34 -69.1042L898.916 -103.603L898.332 -96.7596L904.436 -78.786L901.942 -75.123L897.536 -74.6402L888.354 -82.1076L889.681 -72.0844L880.499 -79.5518L876.093 -79.0689L880.287 -64.2755L875.881 -63.7926L866.699 -71.2601L862.293 -70.7772L855.977 -73.4745L855.394 -66.6314L852.899 -62.9683L845.627 -67.2557L844.088 -62.0026L840.638 -59.9297L842.921 -48.3164L838.516 -47.8335L836.021 -44.1705L834.482 -38.9174L831.987 -35.2544L842.869 -9.33054L840.374 -5.66754L835.969 -5.18465L833.474 -1.52168L814.738 -24.8898L812.243 -21.2268L807.838 -20.7439L795.789 -32.9815L791.384 -32.4987L789.845 -27.2456L797.86 -6.09191L797.276 0.751229L782.361 -16.2566L779.867 -12.5936L770.684 -20.0611L776.788 -2.0875L772.383 -1.60461L760.334 -13.8422L763.572 -0.63888L762.033 4.6142L756.672 3.50698L747.49 -3.96045L743.085 -3.47758L743.456 4.9556L739.051 5.43848L715.537 -25.8799L706.355 -33.3474L694.306 -45.585L711.876 -8.53069L709.381 -4.86768L704.976 -4.38483L713.946 18.3589L709.541 18.8418L707.046 22.5048L717.927 48.4287L710.656 44.1414L742.556 105.047L729.552 91.219L725.146 91.7018L731.251 109.675L721.113 100.618L715.752 99.5107L711.347 99.9936L708.852 103.657L673.874 53.2574L671.379 56.9204L666.974 57.4033L674.033 76.9669L669.628 77.4498L667.134 81.1128L662.728 81.5956L648.769 66.1779L647.23 71.431L641.869 70.3237L637.464 70.8066L634.014 72.8795L628.653 71.7724L639.534 97.6963L635.129 98.1791L632.634 101.842L628.229 102.325L625.734 105.988L621.329 106.471L618.834 110.134L614.429 110.617L597.603 90.4288L593.198 90.9116L590.703 94.5746L586.298 95.0575L582.848 97.1304L578.443 97.6133L575.948 101.276L591.606 135.151L590.067 140.404L577.063 126.576L574.569 130.239L577.807 143.442L563.847 128.024L559.442 128.507L548.349 117.86L543.943 118.343L541.449 122.006L537.999 124.079L542.192 138.872L537.787 139.355L530.515 135.068L526.11 135.55L526.482 143.984L479.083 72.9136L485.187 90.8872L497.979 119.991L512.682 152.275L508.277 152.758L505.782 156.421L501.377 156.904L487.417 141.486L467.725 116.528L466.186 121.781L461.781 122.264L474.573 151.368L488.32 182.062L470.539 160.284L477.599 179.848L480.837 193.051L476.431 193.534L473.937 197.197L469.531 197.68L467.037 201.343L452.122 184.335L449.628 187.998L445.222 188.481L460.88 222.355L439.278 194.217L440.605 204.24L436.199 204.723L429.883 202.026L426.433 204.099L423.939 207.762L428.132 222.555L425.638 226.218L421.232 226.701L413.961 222.414L409.555 222.897L407.061 226.56L393.101 211.142L385.83 206.854L395.756 231.188L393.261 234.851L388.856 235.334L379.673 227.867L375.268 228.35L367.041 222.472L346.394 195.924L343.899 199.587L333.761 190.529L334.133 198.963L330.683 201.036L325.322 199.928L331.426 217.902L325.11 215.205L326.437 225.228L334.452 246.382L337.69 259.585L335.196 263.248L332.701 266.911L340.716 288.065L336.311 288.548L319.485 268.36L301.704 246.582L313.541 274.096L304.358 266.628L301.864 270.291L289.815 258.054L287.321 261.717L282.915 262.199L276.599 259.502L251.175 225.004L234.349 204.816L229.944 205.298L218.851 194.651L214.445 195.134L220.549 213.107L207.545 199.28L220.337 228.384L205.423 211.376L206.75 221.399L202.344 221.882L210.359 243.036L227.928 280.09L230.211 291.703L215.296 274.695L217.578 286.309L237.058 326.543L222.143 309.535L206.273 290.938L203.779 294.601L198.418 293.493L184.458 278.076L183.875 284.919L179.469 285.402L175.064 285.884L172.57 289.547L168.164 290.03L161.848 287.333L131.647 244.884L129.152 248.547L134.301 264.931L131.806 268.594L121.669 259.536Z" fill="url(#paint0_linear_16_575)"/>
<path d="M119.174 263.199L121.669 259.536L131.806 268.594L134.301 264.931L129.152 248.547L131.647 244.884L161.848 287.333L168.164 290.03L172.57 289.547L175.064 285.884L179.469 285.402L183.875 284.919L184.458 278.076L198.418 293.493L203.779 294.601L206.273 290.938L222.143 309.535L237.058 326.543L217.578 286.309L215.296 274.695L230.211 291.703L227.928 280.09L210.359 243.036L202.344 221.882L206.75 221.399L205.423 211.376L220.337 228.384L207.545 199.28L220.549 213.107L214.445 195.134L218.851 194.651L229.944 205.298L234.349 204.816L251.175 225.004L276.599 259.502L282.915 262.199L287.321 261.717L289.815 258.054L301.864 270.291L304.358 266.628L313.541 274.096L301.704 246.582L319.485 268.36L336.311 288.548L340.716 288.065L332.701 266.911L335.196 263.248L337.69 259.585L334.452 246.382L326.437 225.228L325.11 215.205L331.426 217.902L325.322 199.928L330.683 201.036L334.133 198.963L333.761 190.529L343.899 199.587L346.394 195.924L367.041 222.472L375.268 228.35L379.673 227.867L388.856 235.334L393.261 234.851L395.756 231.188L385.83 206.854L393.101 211.142L407.061 226.56L409.555 222.897L413.961 222.414L421.232 226.701L425.638 226.218L428.132 222.555L423.939 207.762L426.433 204.099L429.883 202.026L436.199 204.723L440.605 204.24L439.278 194.217L460.88 222.355L445.222 188.481L449.628 187.998L452.122 184.335L467.037 201.343L469.531 197.68L473.937 197.197L476.431 193.534L480.837 193.051L477.599 179.848L470.539 160.284L488.32 182.062L474.573 151.368L461.781 122.264L466.186 121.781L467.725 116.528L487.417 141.486L501.377 156.904L505.782 156.421L508.277 152.758L512.682 152.275L497.979 119.991L485.187 90.8872L479.083 72.9136L526.482 143.984L526.11 135.55L530.515 135.068L537.787 139.355L542.192 138.872L537.999 124.079L541.449 122.006L543.943 118.343L548.349 117.86L559.442 128.507L563.847 128.024L577.807 143.442L574.569 130.239L577.063 126.576L590.067 140.404L591.606 135.151L575.948 101.276L578.443 97.6133L582.848 97.1304L586.298 95.0575L590.703 94.5746L593.198 90.9116L597.603 90.4288L614.429 110.617L618.834 110.134L621.329 106.471L625.734 105.988L628.229 102.325L632.634 101.842L635.129 98.1791L639.534 97.6963L628.653 71.7724L634.014 72.8796L637.464 70.8066L641.869 70.3238L647.23 71.4309L648.769 66.1779L662.728 81.5957L667.134 81.1128L669.628 77.4498L674.033 76.9669L666.974 57.4033L671.379 56.9204L673.874 53.2574L708.852 103.657L711.347 99.9936L715.752 99.5107L721.113 100.618L731.251 109.675L725.146 91.7019L729.552 91.219L742.556 105.047L710.656 44.1414L717.927 48.4287L707.046 22.5048L709.541 18.8418L713.946 18.3589L704.976 -4.38482L709.381 -4.86769L711.875 -8.53069L694.306 -45.585L706.355 -33.3474L715.537 -25.8799L739.051 5.43847L743.456 4.9556L743.085 -3.47759L747.49 -3.96046L756.672 3.50699L762.033 4.61419L763.572 -0.638875L760.334 -13.8423L772.383 -1.60461L776.788 -2.08748L770.684 -20.0611L779.867 -12.5936L782.361 -16.2566L797.276 0.751227L797.86 -6.0919L789.845 -27.2456L791.384 -32.4987L795.789 -32.9815L807.838 -20.7439L812.243 -21.2268L814.738 -24.8898L833.474 -1.52167L835.969 -5.18467L840.374 -5.66754L842.869 -9.33054L831.987 -35.2544L834.482 -38.9174L836.021 -44.1705L838.516 -47.8335L842.921 -48.3164L840.638 -59.9297L844.088 -62.0026L845.627 -67.2557L852.899 -62.9683L855.394 -66.6313L855.977 -73.4745L862.293 -70.7772L866.699 -71.2601L875.881 -63.7926L880.287 -64.2755L876.093 -79.069L880.499 -79.5518L889.681 -72.0844L888.354 -82.1076L897.536 -74.6402L901.942 -75.123L904.436 -78.786L898.332 -96.7596L898.916 -103.603L924.34 -69.1042L916.325 -90.2579L922.641 -87.5606L912.715 -111.894L917.121 -112.377L928.214 -101.73L1008.1 23.4024L998.171 -0.931416L1001.62 -3.00435L990.74 -28.9282L1005.65 -11.9204L1013.88 -6.04302L1006.82 -25.6067L1020.78 -10.1889L1024.23 -12.2618L1024.81 -19.105L1035.91 -8.45737L1035.54 -16.8906L1057.14 11.2477L1059.63 7.58472L1070.73 18.2323L1051.25 -22.0022L1060.43 -14.5347L1057.19 -27.7381L1068.28 -17.0905L1069.82 -22.3436L1071.36 -27.5967" stroke="#58D764" stroke-linejoin="round"/>
</g>
<defs>
<linearGradient id="paint0_linear_16_575" x1="528.39" y1="6.4968" x2="721.382" y2="327.69" gradientUnits="userSpaceOnUse">
<stop stop-color="#58D764"/>
<stop offset="1" stop-color="#58D764" stop-opacity="0.2"/>
</linearGradient>
<clipPath id="clip0_16_575">
<rect width="777" height="307" rx="33" fill="white"/>
</clipPath>
</defs>
</svg>
