<svg width="345" height="255" viewBox="0 0 345 255" fill="none" xmlns="http://www.w3.org/2000/svg">
<g clip-path="url(#clip0_16_603)">
<rect width="345" height="255" rx="33" fill="#333333"/>
<path d="M16.964 66.974C17.3187 67.03 17.6407 67.1747 17.93 67.408C18.2287 67.6413 18.462 67.9307 18.63 68.276C18.8073 68.6213 18.896 68.99 18.896 69.382C18.896 69.8767 18.77 70.3247 18.518 70.726C18.266 71.118 17.8973 71.4307 17.412 71.664C16.936 71.888 16.3713 72 15.718 72H12.078V62.242H15.578C16.2407 62.242 16.8053 62.354 17.272 62.578C17.7387 62.7927 18.0887 63.0867 18.322 63.46C18.5553 63.8333 18.672 64.2533 18.672 64.72C18.672 65.2987 18.5133 65.7793 18.196 66.162C17.888 66.5353 17.4773 66.806 16.964 66.974ZM13.352 66.456H15.494C16.0913 66.456 16.5533 66.316 16.88 66.036C17.2067 65.756 17.37 65.3687 17.37 64.874C17.37 64.3793 17.2067 63.992 16.88 63.712C16.5533 63.432 16.082 63.292 15.466 63.292H13.352V66.456ZM15.606 70.95C16.2407 70.95 16.7353 70.8007 17.09 70.502C17.4447 70.2033 17.622 69.788 17.622 69.256C17.622 68.7147 17.4353 68.29 17.062 67.982C16.6887 67.6647 16.1893 67.506 15.564 67.506H13.352V70.95H15.606ZM21.9379 65.574C22.1619 65.1353 22.4793 64.7947 22.8899 64.552C23.3099 64.3093 23.8186 64.188 24.4159 64.188V65.504H24.0799C22.6519 65.504 21.9379 66.2787 21.9379 67.828V72H20.6639V64.328H21.9379V65.574ZM29.2326 72.126C28.5139 72.126 27.8606 71.9627 27.2726 71.636C26.6939 71.3093 26.2366 70.8473 25.9006 70.25C25.5739 69.6433 25.4106 68.9433 25.4106 68.15C25.4106 67.366 25.5786 66.6753 25.9146 66.078C26.2599 65.4713 26.7266 65.0093 27.3146 64.692C27.9026 64.3653 28.5606 64.202 29.2886 64.202C30.0166 64.202 30.6746 64.3653 31.2626 64.692C31.8506 65.0093 32.3126 65.4667 32.6486 66.064C32.9939 66.6613 33.1666 67.3567 33.1666 68.15C33.1666 68.9433 32.9893 69.6433 32.6346 70.25C32.2893 70.8473 31.8179 71.3093 31.2206 71.636C30.6233 71.9627 29.9606 72.126 29.2326 72.126ZM29.2326 71.006C29.6899 71.006 30.1193 70.8987 30.5206 70.684C30.9219 70.4693 31.2439 70.1473 31.4866 69.718C31.7386 69.2887 31.8646 68.766 31.8646 68.15C31.8646 67.534 31.7433 67.0113 31.5006 66.582C31.2579 66.1527 30.9406 65.8353 30.5486 65.63C30.1566 65.4153 29.7319 65.308 29.2746 65.308C28.8079 65.308 28.3786 65.4153 27.9866 65.63C27.6039 65.8353 27.2959 66.1527 27.0626 66.582C26.8293 67.0113 26.7126 67.534 26.7126 68.15C26.7126 68.7753 26.8246 69.3027 27.0486 69.732C27.2819 70.1613 27.5899 70.4833 27.9726 70.698C28.3553 70.9033 28.7753 71.006 29.2326 71.006ZM34.3657 68.136C34.3657 67.352 34.5243 66.666 34.8417 66.078C35.159 65.4807 35.593 65.0187 36.1437 64.692C36.7037 64.3653 37.3243 64.202 38.0057 64.202C38.6777 64.202 39.261 64.3467 39.7557 64.636C40.2503 64.9253 40.619 65.2893 40.8617 65.728V64.328H42.1497V72H40.8617V70.572C40.6097 71.02 40.2317 71.3933 39.7277 71.692C39.233 71.9813 38.6543 72.126 37.9917 72.126C37.3103 72.126 36.6943 71.958 36.1437 71.622C35.593 71.286 35.159 70.8147 34.8417 70.208C34.5243 69.6013 34.3657 68.9107 34.3657 68.136ZM40.8617 68.15C40.8617 67.5713 40.745 67.0673 40.5117 66.638C40.2783 66.2087 39.961 65.882 39.5597 65.658C39.1677 65.4247 38.7337 65.308 38.2577 65.308C37.7817 65.308 37.3477 65.42 36.9557 65.644C36.5637 65.868 36.251 66.1947 36.0177 66.624C35.7843 67.0533 35.6677 67.5573 35.6677 68.136C35.6677 68.724 35.7843 69.2373 36.0177 69.676C36.251 70.1053 36.5637 70.4367 36.9557 70.67C37.3477 70.894 37.7817 71.006 38.2577 71.006C38.7337 71.006 39.1677 70.894 39.5597 70.67C39.961 70.4367 40.2783 70.1053 40.5117 69.676C40.745 69.2373 40.8617 68.7287 40.8617 68.15ZM43.8266 68.136C43.8266 67.352 43.9853 66.666 44.3026 66.078C44.6199 65.4807 45.0539 65.0187 45.6046 64.692C46.1646 64.3653 46.7899 64.202 47.4806 64.202C48.0779 64.202 48.6333 64.342 49.1466 64.622C49.6599 64.8927 50.0519 65.252 50.3226 65.7V61.64H51.6106V72H50.3226V70.558C50.0706 71.0153 49.6973 71.3933 49.2026 71.692C48.7079 71.9813 48.1293 72.126 47.4666 72.126C46.7853 72.126 46.1646 71.958 45.6046 71.622C45.0539 71.286 44.6199 70.8147 44.3026 70.208C43.9853 69.6013 43.8266 68.9107 43.8266 68.136ZM50.3226 68.15C50.3226 67.5713 50.2059 67.0673 49.9726 66.638C49.7393 66.2087 49.4219 65.882 49.0206 65.658C48.6286 65.4247 48.1946 65.308 47.7186 65.308C47.2426 65.308 46.8086 65.42 46.4166 65.644C46.0246 65.868 45.7119 66.1947 45.4786 66.624C45.2453 67.0533 45.1286 67.5573 45.1286 68.136C45.1286 68.724 45.2453 69.2373 45.4786 69.676C45.7119 70.1053 46.0246 70.4367 46.4166 70.67C46.8086 70.894 47.2426 71.006 47.7186 71.006C48.1946 71.006 48.6286 70.894 49.0206 70.67C49.4219 70.4367 49.7393 70.1053 49.9726 69.676C50.2059 69.2373 50.3226 68.7287 50.3226 68.15ZM53.2875 68.15C53.2875 67.3567 53.4462 66.666 53.7635 66.078C54.0809 65.4807 54.5195 65.0187 55.0795 64.692C55.6489 64.3653 56.2975 64.202 57.0255 64.202C57.9682 64.202 58.7429 64.4307 59.3495 64.888C59.9655 65.3453 60.3715 65.98 60.5675 66.792H59.1955C59.0649 66.3253 58.8082 65.9567 58.4255 65.686C58.0522 65.4153 57.5855 65.28 57.0255 65.28C56.2975 65.28 55.7095 65.532 55.2615 66.036C54.8135 66.5307 54.5895 67.2353 54.5895 68.15C54.5895 69.074 54.8135 69.788 55.2615 70.292C55.7095 70.796 56.2975 71.048 57.0255 71.048C57.5855 71.048 58.0522 70.9173 58.4255 70.656C58.7989 70.3947 59.0555 70.0213 59.1955 69.536H60.5675C60.3622 70.32 59.9515 70.95 59.3355 71.426C58.7195 71.8927 57.9495 72.126 57.0255 72.126C56.2975 72.126 55.6489 71.9627 55.0795 71.636C54.5195 71.3093 54.0809 70.8473 53.7635 70.25C53.4462 69.6527 53.2875 68.9527 53.2875 68.15ZM61.7915 68.136C61.7915 67.352 61.9501 66.666 62.2675 66.078C62.5848 65.4807 63.0188 65.0187 63.5695 64.692C64.1295 64.3653 64.7501 64.202 65.4315 64.202C66.1035 64.202 66.6868 64.3467 67.1815 64.636C67.6761 64.9253 68.0448 65.2893 68.2875 65.728V64.328H69.5755V72H68.2875V70.572C68.0355 71.02 67.6575 71.3933 67.1535 71.692C66.6588 71.9813 66.0801 72.126 65.4175 72.126C64.7361 72.126 64.1201 71.958 63.5695 71.622C63.0188 71.286 62.5848 70.8147 62.2675 70.208C61.9501 69.6013 61.7915 68.9107 61.7915 68.136ZM68.2875 68.15C68.2875 67.5713 68.1708 67.0673 67.9375 66.638C67.7041 66.2087 67.3868 65.882 66.9855 65.658C66.5935 65.4247 66.1595 65.308 65.6835 65.308C65.2075 65.308 64.7735 65.42 64.3815 65.644C63.9895 65.868 63.6768 66.1947 63.4435 66.624C63.2101 67.0533 63.0935 67.5573 63.0935 68.136C63.0935 68.724 63.2101 69.2373 63.4435 69.676C63.6768 70.1053 63.9895 70.4367 64.3815 70.67C64.7735 70.894 65.2075 71.006 65.6835 71.006C66.1595 71.006 66.5935 70.894 66.9855 70.67C67.3868 70.4367 67.7041 70.1053 67.9375 69.676C68.1708 69.2373 68.2875 68.7287 68.2875 68.15ZM74.4444 72.126C73.8564 72.126 73.3291 72.028 72.8624 71.832C72.3957 71.6267 72.0271 71.3467 71.7564 70.992C71.4857 70.628 71.3364 70.2127 71.3084 69.746H72.6244C72.6617 70.1287 72.8391 70.4413 73.1564 70.684C73.4831 70.9267 73.9077 71.048 74.4304 71.048C74.9157 71.048 75.2984 70.9407 75.5784 70.726C75.8584 70.5113 75.9984 70.2407 75.9984 69.914C75.9984 69.578 75.8491 69.3307 75.5504 69.172C75.2517 69.004 74.7897 68.8407 74.1644 68.682C73.5951 68.5327 73.1284 68.3833 72.7644 68.234C72.4097 68.0753 72.1017 67.8467 71.8404 67.548C71.5884 67.24 71.4624 66.8387 71.4624 66.344C71.4624 65.952 71.5791 65.5927 71.8124 65.266C72.0457 64.9393 72.3771 64.6827 72.8064 64.496C73.2357 64.3 73.7257 64.202 74.2764 64.202C75.1257 64.202 75.8117 64.4167 76.3344 64.846C76.8571 65.2753 77.1371 65.8633 77.1744 66.61H75.9004C75.8724 66.2087 75.7091 65.8867 75.4104 65.644C75.1211 65.4013 74.7291 65.28 74.2344 65.28C73.7771 65.28 73.4131 65.378 73.1424 65.574C72.8717 65.77 72.7364 66.0267 72.7364 66.344C72.7364 66.596 72.8157 66.806 72.9744 66.974C73.1424 67.1327 73.3477 67.2633 73.5904 67.366C73.8424 67.4593 74.1877 67.5667 74.6264 67.688C75.1771 67.8373 75.6251 67.9867 75.9704 68.136C76.3157 68.276 76.6097 68.4907 76.8524 68.78C77.1044 69.0693 77.2351 69.4473 77.2444 69.914C77.2444 70.334 77.1277 70.712 76.8944 71.048C76.6611 71.384 76.3297 71.65 75.9004 71.846C75.4804 72.0327 74.9951 72.126 74.4444 72.126ZM80.5968 65.378V69.9C80.5968 70.2733 80.6762 70.5393 80.8348 70.698C80.9935 70.8473 81.2688 70.922 81.6608 70.922H82.5988V72H81.4508C80.7415 72 80.2095 71.8367 79.8548 71.51C79.5002 71.1833 79.3228 70.6467 79.3228 69.9V65.378H78.3288V64.328H79.3228V62.396H80.5968V64.328H82.5988V65.378H80.5968ZM87.3989 68.136C87.3989 67.352 87.5575 66.666 87.8749 66.078C88.1922 65.4807 88.6262 65.0187 89.1769 64.692C89.7369 64.3653 90.3575 64.202 91.0389 64.202C91.7109 64.202 92.2942 64.3467 92.7889 64.636C93.2835 64.9253 93.6522 65.2893 93.8949 65.728V64.328H95.1829V72H93.8949V70.572C93.6429 71.02 93.2649 71.3933 92.7609 71.692C92.2662 71.9813 91.6875 72.126 91.0249 72.126C90.3435 72.126 89.7275 71.958 89.1769 71.622C88.6262 71.286 88.1922 70.8147 87.8749 70.208C87.5575 69.6013 87.3989 68.9107 87.3989 68.136ZM93.8949 68.15C93.8949 67.5713 93.7782 67.0673 93.5449 66.638C93.3115 66.2087 92.9942 65.882 92.5929 65.658C92.2009 65.4247 91.7669 65.308 91.2909 65.308C90.8149 65.308 90.3809 65.42 89.9889 65.644C89.5969 65.868 89.2842 66.1947 89.0509 66.624C88.8175 67.0533 88.7009 67.5573 88.7009 68.136C88.7009 68.724 88.8175 69.2373 89.0509 69.676C89.2842 70.1053 89.5969 70.4367 89.9889 70.67C90.3809 70.894 90.8149 71.006 91.2909 71.006C91.7669 71.006 92.2009 70.894 92.5929 70.67C92.9942 70.4367 93.3115 70.1053 93.5449 69.676C93.7782 69.2373 93.8949 68.7287 93.8949 68.15ZM110.294 64.188C110.892 64.188 111.424 64.314 111.89 64.566C112.357 64.8087 112.726 65.1773 112.996 65.672C113.267 66.1667 113.402 66.7687 113.402 67.478V72H112.142V67.66C112.142 66.8947 111.951 66.3113 111.568 65.91C111.195 65.4993 110.686 65.294 110.042 65.294C109.38 65.294 108.852 65.5087 108.46 65.938C108.068 66.358 107.872 66.9693 107.872 67.772V72H106.612V67.66C106.612 66.8947 106.421 66.3113 106.038 65.91C105.665 65.4993 105.156 65.294 104.512 65.294C103.85 65.294 103.322 65.5087 102.93 65.938C102.538 66.358 102.342 66.9693 102.342 67.772V72H101.068V64.328H102.342V65.434C102.594 65.0327 102.93 64.7247 103.35 64.51C103.78 64.2953 104.251 64.188 104.764 64.188C105.408 64.188 105.978 64.3327 106.472 64.622C106.967 64.9113 107.336 65.336 107.578 65.896C107.793 65.3547 108.148 64.9347 108.642 64.636C109.137 64.3373 109.688 64.188 110.294 64.188ZM122.492 67.87C122.492 68.1127 122.478 68.3693 122.45 68.64H116.318C116.365 69.396 116.621 69.9887 117.088 70.418C117.564 70.838 118.138 71.048 118.81 71.048C119.361 71.048 119.818 70.922 120.182 70.67C120.555 70.4087 120.817 70.0633 120.966 69.634H122.338C122.133 70.3713 121.722 70.9733 121.106 71.44C120.49 71.8973 119.725 72.126 118.81 72.126C118.082 72.126 117.429 71.9627 116.85 71.636C116.281 71.3093 115.833 70.8473 115.506 70.25C115.179 69.6433 115.016 68.9433 115.016 68.15C115.016 67.3567 115.175 66.6613 115.492 66.064C115.809 65.4667 116.253 65.0093 116.822 64.692C117.401 64.3653 118.063 64.202 118.81 64.202C119.538 64.202 120.182 64.3607 120.742 64.678C121.302 64.9953 121.731 65.434 122.03 65.994C122.338 66.5447 122.492 67.17 122.492 67.87ZM121.176 67.604C121.176 67.1187 121.069 66.7033 120.854 66.358C120.639 66.0033 120.345 65.7373 119.972 65.56C119.608 65.3733 119.202 65.28 118.754 65.28C118.11 65.28 117.559 65.4853 117.102 65.896C116.654 66.3067 116.397 66.876 116.332 67.604H121.176ZM126.89 72.126C126.302 72.126 125.774 72.028 125.308 71.832C124.841 71.6267 124.472 71.3467 124.202 70.992C123.931 70.628 123.782 70.2127 123.754 69.746H125.07C125.107 70.1287 125.284 70.4413 125.602 70.684C125.928 70.9267 126.353 71.048 126.876 71.048C127.361 71.048 127.744 70.9407 128.024 70.726C128.304 70.5113 128.444 70.2407 128.444 69.914C128.444 69.578 128.294 69.3307 127.996 69.172C127.697 69.004 127.235 68.8407 126.61 68.682C126.04 68.5327 125.574 68.3833 125.21 68.234C124.855 68.0753 124.547 67.8467 124.286 67.548C124.034 67.24 123.908 66.8387 123.908 66.344C123.908 65.952 124.024 65.5927 124.258 65.266C124.491 64.9393 124.822 64.6827 125.252 64.496C125.681 64.3 126.171 64.202 126.722 64.202C127.571 64.202 128.257 64.4167 128.78 64.846C129.302 65.2753 129.582 65.8633 129.62 66.61H128.346C128.318 66.2087 128.154 65.8867 127.856 65.644C127.566 65.4013 127.174 65.28 126.68 65.28C126.222 65.28 125.858 65.378 125.588 65.574C125.317 65.77 125.182 66.0267 125.182 66.344C125.182 66.596 125.261 66.806 125.42 66.974C125.588 67.1327 125.793 67.2633 126.036 67.366C126.288 67.4593 126.633 67.5667 127.072 67.688C127.622 67.8373 128.07 67.9867 128.416 68.136C128.761 68.276 129.055 68.4907 129.298 68.78C129.55 69.0693 129.68 69.4473 129.69 69.914C129.69 70.334 129.573 70.712 129.34 71.048C129.106 71.384 128.775 71.65 128.346 71.846C127.926 72.0327 127.44 72.126 126.89 72.126ZM134.204 72.126C133.616 72.126 133.089 72.028 132.622 71.832C132.155 71.6267 131.787 71.3467 131.516 70.992C131.245 70.628 131.096 70.2127 131.068 69.746H132.384C132.421 70.1287 132.599 70.4413 132.916 70.684C133.243 70.9267 133.667 71.048 134.19 71.048C134.675 71.048 135.058 70.9407 135.338 70.726C135.618 70.5113 135.758 70.2407 135.758 69.914C135.758 69.578 135.609 69.3307 135.31 69.172C135.011 69.004 134.549 68.8407 133.924 68.682C133.355 68.5327 132.888 68.3833 132.524 68.234C132.169 68.0753 131.861 67.8467 131.6 67.548C131.348 67.24 131.222 66.8387 131.222 66.344C131.222 65.952 131.339 65.5927 131.572 65.266C131.805 64.9393 132.137 64.6827 132.566 64.496C132.995 64.3 133.485 64.202 134.036 64.202C134.885 64.202 135.571 64.4167 136.094 64.846C136.617 65.2753 136.897 65.8633 136.934 66.61H135.66C135.632 66.2087 135.469 65.8867 135.17 65.644C134.881 65.4013 134.489 65.28 133.994 65.28C133.537 65.28 133.173 65.378 132.902 65.574C132.631 65.77 132.496 66.0267 132.496 66.344C132.496 66.596 132.575 66.806 132.734 66.974C132.902 67.1327 133.107 67.2633 133.35 67.366C133.602 67.4593 133.947 67.5667 134.386 67.688C134.937 67.8373 135.385 67.9867 135.73 68.136C136.075 68.276 136.369 68.4907 136.612 68.78C136.864 69.0693 136.995 69.4473 137.004 69.914C137.004 70.334 136.887 70.712 136.654 71.048C136.421 71.384 136.089 71.65 135.66 71.846C135.24 72.0327 134.755 72.126 134.204 72.126ZM138.327 68.136C138.327 67.352 138.485 66.666 138.803 66.078C139.12 65.4807 139.554 65.0187 140.105 64.692C140.665 64.3653 141.285 64.202 141.967 64.202C142.639 64.202 143.222 64.3467 143.717 64.636C144.211 64.9253 144.58 65.2893 144.823 65.728V64.328H146.111V72H144.823V70.572C144.571 71.02 144.193 71.3933 143.689 71.692C143.194 71.9813 142.615 72.126 141.953 72.126C141.271 72.126 140.655 71.958 140.105 71.622C139.554 71.286 139.12 70.8147 138.803 70.208C138.485 69.6013 138.327 68.9107 138.327 68.136ZM144.823 68.15C144.823 67.5713 144.706 67.0673 144.473 66.638C144.239 66.2087 143.922 65.882 143.521 65.658C143.129 65.4247 142.695 65.308 142.219 65.308C141.743 65.308 141.309 65.42 140.917 65.644C140.525 65.868 140.212 66.1947 139.979 66.624C139.745 67.0533 139.629 67.5573 139.629 68.136C139.629 68.724 139.745 69.2373 139.979 69.676C140.212 70.1053 140.525 70.4367 140.917 70.67C141.309 70.894 141.743 71.006 142.219 71.006C142.695 71.006 143.129 70.894 143.521 70.67C143.922 70.4367 144.239 70.1053 144.473 69.676C144.706 69.2373 144.823 68.7287 144.823 68.15ZM151.428 64.202C152.09 64.202 152.669 64.3467 153.164 64.636C153.668 64.9253 154.041 65.2893 154.284 65.728V64.328H155.572V72.168C155.572 72.868 155.422 73.4887 155.124 74.03C154.825 74.5807 154.396 75.01 153.836 75.318C153.285 75.626 152.641 75.78 151.904 75.78C150.896 75.78 150.056 75.542 149.384 75.066C148.712 74.59 148.315 73.9413 148.194 73.12H149.454C149.594 73.5867 149.883 73.96 150.322 74.24C150.76 74.5293 151.288 74.674 151.904 74.674C152.604 74.674 153.173 74.4547 153.612 74.016C154.06 73.5773 154.284 72.9613 154.284 72.168V70.558C154.032 71.006 153.658 71.3793 153.164 71.678C152.669 71.9767 152.09 72.126 151.428 72.126C150.746 72.126 150.126 71.958 149.566 71.622C149.015 71.286 148.581 70.8147 148.264 70.208C147.946 69.6013 147.788 68.9107 147.788 68.136C147.788 67.352 147.946 66.666 148.264 66.078C148.581 65.4807 149.015 65.0187 149.566 64.692C150.126 64.3653 150.746 64.202 151.428 64.202ZM154.284 68.15C154.284 67.5713 154.167 67.0673 153.934 66.638C153.7 66.2087 153.383 65.882 152.982 65.658C152.59 65.4247 152.156 65.308 151.68 65.308C151.204 65.308 150.77 65.42 150.378 65.644C149.986 65.868 149.673 66.1947 149.44 66.624C149.206 67.0533 149.09 67.5573 149.09 68.136C149.09 68.724 149.206 69.2373 149.44 69.676C149.673 70.1053 149.986 70.4367 150.378 70.67C150.77 70.894 151.204 71.006 151.68 71.006C152.156 71.006 152.59 70.894 152.982 70.67C153.383 70.4367 153.7 70.1053 153.934 69.676C154.167 69.2373 154.284 68.7287 154.284 68.15ZM164.724 67.87C164.724 68.1127 164.71 68.3693 164.682 68.64H158.55C158.597 69.396 158.854 69.9887 159.32 70.418C159.796 70.838 160.37 71.048 161.042 71.048C161.593 71.048 162.05 70.922 162.414 70.67C162.788 70.4087 163.049 70.0633 163.198 69.634H164.57C164.365 70.3713 163.954 70.9733 163.338 71.44C162.722 71.8973 161.957 72.126 161.042 72.126C160.314 72.126 159.661 71.9627 159.082 71.636C158.513 71.3093 158.065 70.8473 157.738 70.25C157.412 69.6433 157.248 68.9433 157.248 68.15C157.248 67.3567 157.407 66.6613 157.724 66.064C158.042 65.4667 158.485 65.0093 159.054 64.692C159.633 64.3653 160.296 64.202 161.042 64.202C161.77 64.202 162.414 64.3607 162.974 64.678C163.534 64.9953 163.964 65.434 164.262 65.994C164.57 66.5447 164.724 67.17 164.724 67.87ZM163.408 67.604C163.408 67.1187 163.301 66.7033 163.086 66.358C162.872 66.0033 162.578 65.7373 162.204 65.56C161.84 65.3733 161.434 65.28 160.986 65.28C160.342 65.28 159.792 65.4853 159.334 65.896C158.886 66.3067 158.63 66.876 158.564 67.604H163.408ZM171.693 65.378V69.9C171.693 70.2733 171.772 70.5393 171.931 70.698C172.089 70.8473 172.365 70.922 172.757 70.922H173.695V72H172.547C171.837 72 171.305 71.8367 170.951 71.51C170.596 71.1833 170.419 70.6467 170.419 69.9V65.378H169.425V64.328H170.419V62.396H171.693V64.328H173.695V65.378H171.693ZM178.584 72.126C177.865 72.126 177.212 71.9627 176.624 71.636C176.045 71.3093 175.588 70.8473 175.252 70.25C174.925 69.6433 174.762 68.9433 174.762 68.15C174.762 67.366 174.93 66.6753 175.266 66.078C175.611 65.4713 176.078 65.0093 176.666 64.692C177.254 64.3653 177.912 64.202 178.64 64.202C179.368 64.202 180.026 64.3653 180.614 64.692C181.202 65.0093 181.664 65.4667 182 66.064C182.345 66.6613 182.518 67.3567 182.518 68.15C182.518 68.9433 182.341 69.6433 181.986 70.25C181.641 70.8473 181.169 71.3093 180.572 71.636C179.975 71.9627 179.312 72.126 178.584 72.126ZM178.584 71.006C179.041 71.006 179.471 70.8987 179.872 70.684C180.273 70.4693 180.595 70.1473 180.838 69.718C181.09 69.2887 181.216 68.766 181.216 68.15C181.216 67.534 181.095 67.0113 180.852 66.582C180.609 66.1527 180.292 65.8353 179.9 65.63C179.508 65.4153 179.083 65.308 178.626 65.308C178.159 65.308 177.73 65.4153 177.338 65.63C176.955 65.8353 176.647 66.1527 176.414 66.582C176.181 67.0113 176.064 67.534 176.064 68.15C176.064 68.7753 176.176 69.3027 176.4 69.732C176.633 70.1613 176.941 70.4833 177.324 70.698C177.707 70.9033 178.127 71.006 178.584 71.006ZM187.45 68.136C187.45 67.352 187.608 66.666 187.926 66.078C188.243 65.4807 188.677 65.0187 189.228 64.692C189.788 64.3653 190.413 64.202 191.104 64.202C191.701 64.202 192.256 64.342 192.77 64.622C193.283 64.8927 193.675 65.252 193.946 65.7V61.64H195.234V72H193.946V70.558C193.694 71.0153 193.32 71.3933 192.826 71.692C192.331 71.9813 191.752 72.126 191.09 72.126C190.408 72.126 189.788 71.958 189.228 71.622C188.677 71.286 188.243 70.8147 187.926 70.208C187.608 69.6013 187.45 68.9107 187.45 68.136ZM193.946 68.15C193.946 67.5713 193.829 67.0673 193.596 66.638C193.362 66.2087 193.045 65.882 192.644 65.658C192.252 65.4247 191.818 65.308 191.342 65.308C190.866 65.308 190.432 65.42 190.04 65.644C189.648 65.868 189.335 66.1947 189.102 66.624C188.868 67.0533 188.752 67.5573 188.752 68.136C188.752 68.724 188.868 69.2373 189.102 69.676C189.335 70.1053 189.648 70.4367 190.04 70.67C190.432 70.894 190.866 71.006 191.342 71.006C191.818 71.006 192.252 70.894 192.644 70.67C193.045 70.4367 193.362 70.1053 193.596 69.676C193.829 69.2373 193.946 68.7287 193.946 68.15ZM203.995 64.328L199.375 75.612H198.059L199.571 71.916L196.477 64.328H197.891L200.299 70.544L202.679 64.328H203.995ZM209.013 64.188C209.947 64.188 210.703 64.4727 211.281 65.042C211.86 65.602 212.149 66.414 212.149 67.478V72H210.889V67.66C210.889 66.8947 210.698 66.3113 210.315 65.91C209.933 65.4993 209.41 65.294 208.747 65.294C208.075 65.294 207.539 65.504 207.137 65.924C206.745 66.344 206.549 66.9553 206.549 67.758V72H205.275V64.328H206.549V65.42C206.801 65.028 207.142 64.7247 207.571 64.51C208.01 64.2953 208.491 64.188 209.013 64.188ZM213.754 68.136C213.754 67.352 213.913 66.666 214.23 66.078C214.548 65.4807 214.982 65.0187 215.532 64.692C216.092 64.3653 216.713 64.202 217.394 64.202C218.066 64.202 218.65 64.3467 219.144 64.636C219.639 64.9253 220.008 65.2893 220.25 65.728V64.328H221.538V72H220.25V70.572C219.998 71.02 219.62 71.3933 219.116 71.692C218.622 71.9813 218.043 72.126 217.38 72.126C216.699 72.126 216.083 71.958 215.532 71.622C214.982 71.286 214.548 70.8147 214.23 70.208C213.913 69.6013 213.754 68.9107 213.754 68.136ZM220.25 68.15C220.25 67.5713 220.134 67.0673 219.9 66.638C219.667 66.2087 219.35 65.882 218.948 65.658C218.556 65.4247 218.122 65.308 217.646 65.308C217.17 65.308 216.736 65.42 216.344 65.644C215.952 65.868 215.64 66.1947 215.406 66.624C215.173 67.0533 215.056 67.5573 215.056 68.136C215.056 68.724 215.173 69.2373 215.406 69.676C215.64 70.1053 215.952 70.4367 216.344 70.67C216.736 70.894 217.17 71.006 217.646 71.006C218.122 71.006 218.556 70.894 218.948 70.67C219.35 70.4367 219.667 70.1053 219.9 69.676C220.134 69.2373 220.25 68.7287 220.25 68.15ZM232.917 64.188C233.515 64.188 234.047 64.314 234.513 64.566C234.98 64.8087 235.349 65.1773 235.619 65.672C235.89 66.1667 236.025 66.7687 236.025 67.478V72H234.765V67.66C234.765 66.8947 234.574 66.3113 234.191 65.91C233.818 65.4993 233.309 65.294 232.665 65.294C232.003 65.294 231.475 65.5087 231.083 65.938C230.691 66.358 230.495 66.9693 230.495 67.772V72H229.235V67.66C229.235 66.8947 229.044 66.3113 228.661 65.91C228.288 65.4993 227.779 65.294 227.135 65.294C226.473 65.294 225.945 65.5087 225.553 65.938C225.161 66.358 224.965 66.9693 224.965 67.772V72H223.691V64.328H224.965V65.434C225.217 65.0327 225.553 64.7247 225.973 64.51C226.403 64.2953 226.874 64.188 227.387 64.188C228.031 64.188 228.601 64.3327 229.095 64.622C229.59 64.9113 229.959 65.336 230.201 65.896C230.416 65.3547 230.771 64.9347 231.265 64.636C231.76 64.3373 232.311 64.188 232.917 64.188ZM238.773 63.082C238.53 63.082 238.325 62.998 238.157 62.83C237.989 62.662 237.905 62.4567 237.905 62.214C237.905 61.9713 237.989 61.766 238.157 61.598C238.325 61.43 238.53 61.346 238.773 61.346C239.006 61.346 239.202 61.43 239.361 61.598C239.529 61.766 239.613 61.9713 239.613 62.214C239.613 62.4567 239.529 62.662 239.361 62.83C239.202 62.998 239.006 63.082 238.773 63.082ZM239.389 64.328V72H238.115V64.328H239.389ZM241.084 68.15C241.084 67.3567 241.243 66.666 241.56 66.078C241.878 65.4807 242.316 65.0187 242.876 64.692C243.446 64.3653 244.094 64.202 244.822 64.202C245.765 64.202 246.54 64.4307 247.146 64.888C247.762 65.3453 248.168 65.98 248.364 66.792H246.992C246.862 66.3253 246.605 65.9567 246.222 65.686C245.849 65.4153 245.382 65.28 244.822 65.28C244.094 65.28 243.506 65.532 243.058 66.036C242.61 66.5307 242.386 67.2353 242.386 68.15C242.386 69.074 242.61 69.788 243.058 70.292C243.506 70.796 244.094 71.048 244.822 71.048C245.382 71.048 245.849 70.9173 246.222 70.656C246.596 70.3947 246.852 70.0213 246.992 69.536H248.364C248.159 70.32 247.748 70.95 247.132 71.426C246.516 71.8927 245.746 72.126 244.822 72.126C244.094 72.126 243.446 71.9627 242.876 71.636C242.316 71.3093 241.878 70.8473 241.56 70.25C241.243 69.6527 241.084 68.9527 241.084 68.15ZM256.513 72.126C255.925 72.126 255.397 72.028 254.931 71.832C254.464 71.6267 254.095 71.3467 253.825 70.992C253.554 70.628 253.405 70.2127 253.377 69.746H254.693C254.73 70.1287 254.907 70.4413 255.225 70.684C255.551 70.9267 255.976 71.048 256.499 71.048C256.984 71.048 257.367 70.9407 257.647 70.726C257.927 70.5113 258.067 70.2407 258.067 69.914C258.067 69.578 257.917 69.3307 257.619 69.172C257.32 69.004 256.858 68.8407 256.233 68.682C255.663 68.5327 255.197 68.3833 254.833 68.234C254.478 68.0753 254.17 67.8467 253.909 67.548C253.657 67.24 253.531 66.8387 253.531 66.344C253.531 65.952 253.647 65.5927 253.881 65.266C254.114 64.9393 254.445 64.6827 254.875 64.496C255.304 64.3 255.794 64.202 256.345 64.202C257.194 64.202 257.88 64.4167 258.403 64.846C258.925 65.2753 259.205 65.8633 259.243 66.61H257.969C257.941 66.2087 257.777 65.8867 257.479 65.644C257.189 65.4013 256.797 65.28 256.303 65.28C255.845 65.28 255.481 65.378 255.211 65.574C254.94 65.77 254.805 66.0267 254.805 66.344C254.805 66.596 254.884 66.806 255.043 66.974C255.211 67.1327 255.416 67.2633 255.659 67.366C255.911 67.4593 256.256 67.5667 256.695 67.688C257.245 67.8373 257.693 67.9867 258.039 68.136C258.384 68.276 258.678 68.4907 258.921 68.78C259.173 69.0693 259.303 69.4473 259.313 69.914C259.313 70.334 259.196 70.712 258.963 71.048C258.729 71.384 258.398 71.65 257.969 71.846C257.549 72.0327 257.063 72.126 256.513 72.126ZM268.111 67.87C268.111 68.1127 268.097 68.3693 268.069 68.64H261.937C261.984 69.396 262.241 69.9887 262.707 70.418C263.183 70.838 263.757 71.048 264.429 71.048C264.98 71.048 265.437 70.922 265.801 70.67C266.175 70.4087 266.436 70.0633 266.585 69.634H267.957C267.752 70.3713 267.341 70.9733 266.725 71.44C266.109 71.8973 265.344 72.126 264.429 72.126C263.701 72.126 263.048 71.9627 262.469 71.636C261.9 71.3093 261.452 70.8473 261.125 70.25C260.799 69.6433 260.635 68.9433 260.635 68.15C260.635 67.3567 260.794 66.6613 261.111 66.064C261.429 65.4667 261.872 65.0093 262.441 64.692C263.02 64.3653 263.683 64.202 264.429 64.202C265.157 64.202 265.801 64.3607 266.361 64.678C266.921 64.9953 267.351 65.434 267.649 65.994C267.957 66.5447 268.111 67.17 268.111 67.87ZM266.795 67.604C266.795 67.1187 266.688 66.7033 266.473 66.358C266.259 66.0033 265.965 65.7373 265.591 65.56C265.227 65.3733 264.821 65.28 264.373 65.28C263.729 65.28 263.179 65.4853 262.721 65.896C262.273 66.3067 262.017 66.876 261.951 67.604H266.795ZM271.347 65.378V69.9C271.347 70.2733 271.426 70.5393 271.585 70.698C271.744 70.8473 272.019 70.922 272.411 70.922H273.349V72H272.201C271.492 72 270.96 71.8367 270.605 71.51C270.25 71.1833 270.073 70.6467 270.073 69.9V65.378H269.079V64.328H270.073V62.396H271.347V64.328H273.349V65.378H271.347ZM281.971 72.126C281.252 72.126 280.599 71.9627 280.011 71.636C279.432 71.3093 278.975 70.8473 278.639 70.25C278.312 69.6433 278.149 68.9433 278.149 68.15C278.149 67.366 278.317 66.6753 278.653 66.078C278.998 65.4713 279.465 65.0093 280.053 64.692C280.641 64.3653 281.299 64.202 282.027 64.202C282.755 64.202 283.413 64.3653 284.001 64.692C284.589 65.0093 285.051 65.4667 285.387 66.064C285.732 66.6613 285.905 67.3567 285.905 68.15C285.905 68.9433 285.728 69.6433 285.373 70.25C285.028 70.8473 284.556 71.3093 283.959 71.636C283.362 71.9627 282.699 72.126 281.971 72.126ZM281.971 71.006C282.428 71.006 282.858 70.8987 283.259 70.684C283.66 70.4693 283.982 70.1473 284.225 69.718C284.477 69.2887 284.603 68.766 284.603 68.15C284.603 67.534 284.482 67.0113 284.239 66.582C283.996 66.1527 283.679 65.8353 283.287 65.63C282.895 65.4153 282.47 65.308 282.013 65.308C281.546 65.308 281.117 65.4153 280.725 65.63C280.342 65.8353 280.034 66.1527 279.801 66.582C279.568 67.0113 279.451 67.534 279.451 68.15C279.451 68.7753 279.563 69.3027 279.787 69.732C280.02 70.1613 280.328 70.4833 280.711 70.698C281.094 70.9033 281.514 71.006 281.971 71.006ZM290.702 65.378H289.092V72H287.818V65.378H286.824V64.328H287.818V63.782C287.818 62.9233 288.037 62.298 288.476 61.906C288.924 61.5047 289.638 61.304 290.618 61.304V62.368C290.058 62.368 289.661 62.48 289.428 62.704C289.204 62.9187 289.092 63.278 289.092 63.782V64.328H290.702V65.378ZM22.6144 85.328V93H21.3404V91.866C21.0978 92.258 20.7571 92.566 20.3184 92.79C19.8891 93.0047 19.4131 93.112 18.8904 93.112C18.2931 93.112 17.7564 92.9907 17.2804 92.748C16.8044 92.496 16.4264 92.1227 16.1464 91.628C15.8758 91.1333 15.7404 90.5313 15.7404 89.822V85.328H17.0004V89.654C17.0004 90.41 17.1918 90.9933 17.5744 91.404C17.9571 91.8053 18.4798 92.006 19.1424 92.006C19.8238 92.006 20.3604 91.796 20.7524 91.376C21.1444 90.956 21.3404 90.3447 21.3404 89.542V85.328H22.6144ZM27.4815 93.126C26.8935 93.126 26.3662 93.028 25.8995 92.832C25.4328 92.6267 25.0642 92.3467 24.7935 91.992C24.5228 91.628 24.3735 91.2127 24.3455 90.746H25.6615C25.6988 91.1287 25.8762 91.4413 26.1935 91.684C26.5202 91.9267 26.9448 92.048 27.4675 92.048C27.9528 92.048 28.3355 91.9407 28.6155 91.726C28.8955 91.5113 29.0355 91.2407 29.0355 90.914C29.0355 90.578 28.8862 90.3307 28.5875 90.172C28.2888 90.004 27.8268 89.8407 27.2015 89.682C26.6322 89.5327 26.1655 89.3833 25.8015 89.234C25.4468 89.0753 25.1388 88.8467 24.8775 88.548C24.6255 88.24 24.4995 87.8387 24.4995 87.344C24.4995 86.952 24.6162 86.5927 24.8495 86.266C25.0828 85.9393 25.4142 85.6827 25.8435 85.496C26.2728 85.3 26.7628 85.202 27.3135 85.202C28.1628 85.202 28.8488 85.4167 29.3715 85.846C29.8942 86.2753 30.1742 86.8633 30.2115 87.61H28.9375C28.9095 87.2087 28.7462 86.8867 28.4475 86.644C28.1582 86.4013 27.7662 86.28 27.2715 86.28C26.8142 86.28 26.4502 86.378 26.1795 86.574C25.9088 86.77 25.7735 87.0267 25.7735 87.344C25.7735 87.596 25.8528 87.806 26.0115 87.974C26.1795 88.1327 26.3848 88.2633 26.6275 88.366C26.8795 88.4593 27.2248 88.5667 27.6635 88.688C28.2142 88.8373 28.6622 88.9867 29.0075 89.136C29.3528 89.276 29.6468 89.4907 29.8895 89.78C30.1415 90.0693 30.2722 90.4473 30.2815 90.914C30.2815 91.334 30.1648 91.712 29.9315 92.048C29.6982 92.384 29.3668 92.65 28.9375 92.846C28.5175 93.0327 28.0322 93.126 27.4815 93.126ZM39.08 88.87C39.08 89.1127 39.066 89.3693 39.038 89.64H32.906C32.9526 90.396 33.2093 90.9887 33.676 91.418C34.152 91.838 34.726 92.048 35.398 92.048C35.9486 92.048 36.406 91.922 36.77 91.67C37.1433 91.4087 37.4046 91.0633 37.554 90.634H38.926C38.7206 91.3713 38.31 91.9733 37.694 92.44C37.078 92.8973 36.3126 93.126 35.398 93.126C34.67 93.126 34.0166 92.9627 33.438 92.636C32.8686 92.3093 32.4206 91.8473 32.094 91.25C31.7673 90.6433 31.604 89.9433 31.604 89.15C31.604 88.3567 31.7626 87.6613 32.08 87.064C32.3973 86.4667 32.8406 86.0093 33.41 85.692C33.9886 85.3653 34.6513 85.202 35.398 85.202C36.126 85.202 36.77 85.3607 37.33 85.678C37.89 85.9953 38.3193 86.434 38.618 86.994C38.926 87.5447 39.08 88.17 39.08 88.87ZM37.764 88.604C37.764 88.1187 37.6566 87.7033 37.442 87.358C37.2273 87.0033 36.9333 86.7373 36.56 86.56C36.196 86.3733 35.79 86.28 35.342 86.28C34.698 86.28 34.1473 86.4853 33.69 86.896C33.242 87.3067 32.9853 87.876 32.92 88.604H37.764ZM42.0356 86.574C42.2596 86.1353 42.5769 85.7947 42.9876 85.552C43.4076 85.3093 43.9163 85.188 44.5136 85.188V86.504H44.1776C42.7496 86.504 42.0356 87.2787 42.0356 88.828V93H40.7616V85.328H42.0356V86.574ZM48.7003 93.126C48.1123 93.126 47.5849 93.028 47.1183 92.832C46.6516 92.6267 46.2829 92.3467 46.0123 91.992C45.7416 91.628 45.5923 91.2127 45.5643 90.746H46.8803C46.9176 91.1287 47.0949 91.4413 47.4123 91.684C47.7389 91.9267 48.1636 92.048 48.6863 92.048C49.1716 92.048 49.5543 91.9407 49.8343 91.726C50.1143 91.5113 50.2543 91.2407 50.2543 90.914C50.2543 90.578 50.1049 90.3307 49.8063 90.172C49.5076 90.004 49.0456 89.8407 48.4203 89.682C47.8509 89.5327 47.3843 89.3833 47.0203 89.234C46.6656 89.0753 46.3576 88.8467 46.0963 88.548C45.8443 88.24 45.7183 87.8387 45.7183 87.344C45.7183 86.952 45.8349 86.5927 46.0683 86.266C46.3016 85.9393 46.6329 85.6827 47.0623 85.496C47.4916 85.3 47.9816 85.202 48.5323 85.202C49.3816 85.202 50.0676 85.4167 50.5903 85.846C51.1129 86.2753 51.3929 86.8633 51.4303 87.61H50.1563C50.1283 87.2087 49.9649 86.8867 49.6663 86.644C49.3769 86.4013 48.9849 86.28 48.4903 86.28C48.0329 86.28 47.6689 86.378 47.3983 86.574C47.1276 86.77 46.9923 87.0267 46.9923 87.344C46.9923 87.596 47.0716 87.806 47.2303 87.974C47.3983 88.1327 47.6036 88.2633 47.8463 88.366C48.0983 88.4593 48.4436 88.5667 48.8823 88.688C49.4329 88.8373 49.8809 88.9867 50.2263 89.136C50.5716 89.276 50.8656 89.4907 51.1083 89.78C51.3603 90.0693 51.4909 90.4473 51.5003 90.914C51.5003 91.334 51.3836 91.712 51.1503 92.048C50.9169 92.384 50.5856 92.65 50.1563 92.846C49.7363 93.0327 49.2509 93.126 48.7003 93.126ZM58.3051 86.756C58.5665 86.2987 58.9491 85.9253 59.4531 85.636C59.9571 85.3467 60.5311 85.202 61.1751 85.202C61.8658 85.202 62.4865 85.3653 63.0371 85.692C63.5878 86.0187 64.0218 86.4807 64.3391 87.078C64.6565 87.666 64.8151 88.352 64.8151 89.136C64.8151 89.9107 64.6565 90.6013 64.3391 91.208C64.0218 91.8147 63.5831 92.286 63.0231 92.622C62.4725 92.958 61.8565 93.126 61.1751 93.126C60.5125 93.126 59.9291 92.9813 59.4251 92.692C58.9305 92.4027 58.5571 92.034 58.3051 91.586V93H57.0311V82.64H58.3051V86.756ZM63.5131 89.136C63.5131 88.5573 63.3965 88.0533 63.1631 87.624C62.9298 87.1947 62.6125 86.868 62.2111 86.644C61.8191 86.42 61.3851 86.308 60.9091 86.308C60.4425 86.308 60.0085 86.4247 59.6071 86.658C59.2151 86.882 58.8978 87.2133 58.6551 87.652C58.4218 88.0813 58.3051 88.5807 58.3051 89.15C58.3051 89.7287 58.4218 90.2373 58.6551 90.676C58.8978 91.1053 59.2151 91.4367 59.6071 91.67C60.0085 91.894 60.4425 92.006 60.9091 92.006C61.3851 92.006 61.8191 91.894 62.2111 91.67C62.6125 91.4367 62.9298 91.1053 63.1631 90.676C63.3965 90.2373 63.5131 89.724 63.5131 89.136ZM66.0161 89.136C66.0161 88.352 66.1747 87.666 66.4921 87.078C66.8094 86.4807 67.2434 86.0187 67.7941 85.692C68.3541 85.3653 68.9747 85.202 69.6561 85.202C70.3281 85.202 70.9114 85.3467 71.4061 85.636C71.9007 85.9253 72.2694 86.2893 72.5121 86.728V85.328H73.8001V93H72.5121V91.572C72.2601 92.02 71.8821 92.3933 71.3781 92.692C70.8834 92.9813 70.3047 93.126 69.6421 93.126C68.9607 93.126 68.3447 92.958 67.7941 92.622C67.2434 92.286 66.8094 91.8147 66.4921 91.208C66.1747 90.6013 66.0161 89.9107 66.0161 89.136ZM72.5121 89.15C72.5121 88.5713 72.3954 88.0673 72.1621 87.638C71.9287 87.2087 71.6114 86.882 71.2101 86.658C70.8181 86.4247 70.3841 86.308 69.9081 86.308C69.4321 86.308 68.9981 86.42 68.6061 86.644C68.2141 86.868 67.9014 87.1947 67.6681 87.624C67.4347 88.0533 67.3181 88.5573 67.3181 89.136C67.3181 89.724 67.4347 90.2373 67.6681 90.676C67.9014 91.1053 68.2141 91.4367 68.6061 91.67C68.9981 91.894 69.4321 92.006 69.9081 92.006C70.3841 92.006 70.8181 91.894 71.2101 91.67C71.6114 91.4367 71.9287 91.1053 72.1621 90.676C72.3954 90.2373 72.5121 89.7287 72.5121 89.15ZM78.669 93.126C78.081 93.126 77.5537 93.028 77.087 92.832C76.6203 92.6267 76.2517 92.3467 75.981 91.992C75.7103 91.628 75.561 91.2127 75.533 90.746H76.849C76.8863 91.1287 77.0637 91.4413 77.381 91.684C77.7077 91.9267 78.1323 92.048 78.655 92.048C79.1403 92.048 79.523 91.9407 79.803 91.726C80.083 91.5113 80.223 91.2407 80.223 90.914C80.223 90.578 80.0737 90.3307 79.775 90.172C79.4763 90.004 79.0143 89.8407 78.389 89.682C77.8197 89.5327 77.353 89.3833 76.989 89.234C76.6343 89.0753 76.3263 88.8467 76.065 88.548C75.813 88.24 75.687 87.8387 75.687 87.344C75.687 86.952 75.8037 86.5927 76.037 86.266C76.2703 85.9393 76.6017 85.6827 77.031 85.496C77.4603 85.3 77.9503 85.202 78.501 85.202C79.3503 85.202 80.0363 85.4167 80.559 85.846C81.0817 86.2753 81.3617 86.8633 81.399 87.61H80.125C80.097 87.2087 79.9337 86.8867 79.635 86.644C79.3457 86.4013 78.9537 86.28 78.459 86.28C78.0017 86.28 77.6377 86.378 77.367 86.574C77.0963 86.77 76.961 87.0267 76.961 87.344C76.961 87.596 77.0403 87.806 77.199 87.974C77.367 88.1327 77.5723 88.2633 77.815 88.366C78.067 88.4593 78.4123 88.5667 78.851 88.688C79.4017 88.8373 79.8497 88.9867 80.195 89.136C80.5403 89.276 80.8343 89.4907 81.077 89.78C81.329 90.0693 81.4597 90.4473 81.469 90.914C81.469 91.334 81.3523 91.712 81.119 92.048C80.8857 92.384 80.5543 92.65 80.125 92.846C79.705 93.0327 79.2197 93.126 78.669 93.126ZM90.2675 88.87C90.2675 89.1127 90.2535 89.3693 90.2255 89.64H84.0935C84.1401 90.396 84.3968 90.9887 84.8635 91.418C85.3395 91.838 85.9135 92.048 86.5855 92.048C87.1361 92.048 87.5935 91.922 87.9575 91.67C88.3308 91.4087 88.5921 91.0633 88.7415 90.634H90.1135C89.9081 91.3713 89.4975 91.9733 88.8815 92.44C88.2655 92.8973 87.5001 93.126 86.5855 93.126C85.8575 93.126 85.2041 92.9627 84.6255 92.636C84.0561 92.3093 83.6081 91.8473 83.2815 91.25C82.9548 90.6433 82.7915 89.9433 82.7915 89.15C82.7915 88.3567 82.9501 87.6613 83.2675 87.064C83.5848 86.4667 84.0281 86.0093 84.5975 85.692C85.1761 85.3653 85.8388 85.202 86.5855 85.202C87.3135 85.202 87.9575 85.3607 88.5175 85.678C89.0775 85.9953 89.5068 86.434 89.8055 86.994C90.1135 87.5447 90.2675 88.17 90.2675 88.87ZM88.9515 88.604C88.9515 88.1187 88.8441 87.7033 88.6295 87.358C88.4148 87.0033 88.1208 86.7373 87.7475 86.56C87.3835 86.3733 86.9775 86.28 86.5295 86.28C85.8855 86.28 85.3348 86.4853 84.8775 86.896C84.4295 87.3067 84.1728 87.876 84.1075 88.604H88.9515ZM91.4731 89.136C91.4731 88.352 91.6318 87.666 91.9491 87.078C92.2664 86.4807 92.7004 86.0187 93.2511 85.692C93.8111 85.3653 94.4364 85.202 95.1271 85.202C95.7244 85.202 96.2798 85.342 96.7931 85.622C97.3064 85.8927 97.6984 86.252 97.9691 86.7V82.64H99.2571V93H97.9691V91.558C97.7171 92.0153 97.3438 92.3933 96.8491 92.692C96.3544 92.9813 95.7758 93.126 95.1131 93.126C94.4318 93.126 93.8111 92.958 93.2511 92.622C92.7004 92.286 92.2664 91.8147 91.9491 91.208C91.6318 90.6013 91.4731 89.9107 91.4731 89.136ZM97.9691 89.15C97.9691 88.5713 97.8524 88.0673 97.6191 87.638C97.3858 87.2087 97.0684 86.882 96.6671 86.658C96.2751 86.4247 95.8411 86.308 95.3651 86.308C94.8891 86.308 94.4551 86.42 94.0631 86.644C93.6711 86.868 93.3584 87.1947 93.1251 87.624C92.8918 88.0533 92.7751 88.5573 92.7751 89.136C92.7751 89.724 92.8918 90.2373 93.1251 90.676C93.3584 91.1053 93.6711 91.4367 94.0631 91.67C94.4551 91.894 94.8891 92.006 95.3651 92.006C95.8411 92.006 96.2751 91.894 96.6671 91.67C97.0684 91.4367 97.3858 91.1053 97.6191 90.676C97.8524 90.2373 97.9691 89.7287 97.9691 89.15ZM108.488 93.126C107.77 93.126 107.116 92.9627 106.528 92.636C105.95 92.3093 105.492 91.8473 105.156 91.25C104.83 90.6433 104.666 89.9433 104.666 89.15C104.666 88.366 104.834 87.6753 105.17 87.078C105.516 86.4713 105.982 86.0093 106.57 85.692C107.158 85.3653 107.816 85.202 108.544 85.202C109.272 85.202 109.93 85.3653 110.518 85.692C111.106 86.0093 111.568 86.4667 111.904 87.064C112.25 87.6613 112.422 88.3567 112.422 89.15C112.422 89.9433 112.245 90.6433 111.89 91.25C111.545 91.8473 111.074 92.3093 110.476 92.636C109.879 92.9627 109.216 93.126 108.488 93.126ZM108.488 92.006C108.946 92.006 109.375 91.8987 109.776 91.684C110.178 91.4693 110.5 91.1473 110.742 90.718C110.994 90.2887 111.12 89.766 111.12 89.15C111.12 88.534 110.999 88.0113 110.756 87.582C110.514 87.1527 110.196 86.8353 109.804 86.63C109.412 86.4153 108.988 86.308 108.53 86.308C108.064 86.308 107.634 86.4153 107.242 86.63C106.86 86.8353 106.552 87.1527 106.318 87.582C106.085 88.0113 105.968 88.534 105.968 89.15C105.968 89.7753 106.08 90.3027 106.304 90.732C106.538 91.1613 106.846 91.4833 107.228 91.698C107.611 91.9033 108.031 92.006 108.488 92.006ZM117.836 85.188C118.769 85.188 119.525 85.4727 120.104 86.042C120.682 86.602 120.972 87.414 120.972 88.478V93H119.712V88.66C119.712 87.8947 119.52 87.3113 119.138 86.91C118.755 86.4993 118.232 86.294 117.57 86.294C116.898 86.294 116.361 86.504 115.96 86.924C115.568 87.344 115.372 87.9553 115.372 88.758V93H114.098V85.328H115.372V86.42C115.624 86.028 115.964 85.7247 116.394 85.51C116.832 85.2953 117.313 85.188 117.836 85.188ZM128.339 86.378V90.9C128.339 91.2733 128.418 91.5393 128.577 91.698C128.736 91.8473 129.011 91.922 129.403 91.922H130.341V93H129.193C128.484 93 127.952 92.8367 127.597 92.51C127.242 92.1833 127.065 91.6467 127.065 90.9V86.378H126.071V85.328H127.065V83.396H128.339V85.328H130.341V86.378H128.339ZM135.693 85.188C136.271 85.188 136.794 85.314 137.261 85.566C137.727 85.8087 138.091 86.1773 138.353 86.672C138.623 87.1667 138.759 87.7687 138.759 88.478V93H137.499V88.66C137.499 87.8947 137.307 87.3113 136.925 86.91C136.542 86.4993 136.019 86.294 135.357 86.294C134.685 86.294 134.148 86.504 133.747 86.924C133.355 87.344 133.159 87.9553 133.159 88.758V93H131.885V82.64H133.159V86.42C133.411 86.028 133.756 85.7247 134.195 85.51C134.643 85.2953 135.142 85.188 135.693 85.188ZM147.84 88.87C147.84 89.1127 147.826 89.3693 147.798 89.64H141.666C141.712 90.396 141.969 90.9887 142.436 91.418C142.912 91.838 143.486 92.048 144.158 92.048C144.708 92.048 145.166 91.922 145.53 91.67C145.903 91.4087 146.164 91.0633 146.314 90.634H147.686C147.48 91.3713 147.07 91.9733 146.454 92.44C145.838 92.8973 145.072 93.126 144.158 93.126C143.43 93.126 142.776 92.9627 142.198 92.636C141.628 92.3093 141.18 91.8473 140.854 91.25C140.527 90.6433 140.364 89.9433 140.364 89.15C140.364 88.3567 140.522 87.6613 140.84 87.064C141.157 86.4667 141.6 86.0093 142.17 85.692C142.748 85.3653 143.411 85.202 144.158 85.202C144.886 85.202 145.53 85.3607 146.09 85.678C146.65 85.9953 147.079 86.434 147.378 86.994C147.686 87.5447 147.84 88.17 147.84 88.87ZM146.524 88.604C146.524 88.1187 146.416 87.7033 146.202 87.358C145.987 87.0033 145.693 86.7373 145.32 86.56C144.956 86.3733 144.55 86.28 144.102 86.28C143.458 86.28 142.907 86.4853 142.45 86.896C142.002 87.3067 141.745 87.876 141.68 88.604H146.524ZM150.179 84.082C149.937 84.082 149.731 83.998 149.563 83.83C149.395 83.662 149.311 83.4567 149.311 83.214C149.311 82.9713 149.395 82.766 149.563 82.598C149.731 82.43 149.937 82.346 150.179 82.346C150.413 82.346 150.609 82.43 150.767 82.598C150.935 82.766 151.019 82.9713 151.019 83.214C151.019 83.4567 150.935 83.662 150.767 83.83C150.609 83.998 150.413 84.082 150.179 84.082ZM150.795 85.328V93H149.521V85.328H150.795ZM154.241 86.574C154.465 86.1353 154.782 85.7947 155.193 85.552C155.613 85.3093 156.121 85.188 156.719 85.188V86.504H156.383C154.955 86.504 154.241 87.2787 154.241 88.828V93H152.967V85.328H154.241V86.574ZM163.196 86.756C163.457 86.2987 163.84 85.9253 164.344 85.636C164.848 85.3467 165.422 85.202 166.066 85.202C166.756 85.202 167.377 85.3653 167.928 85.692C168.478 86.0187 168.912 86.4807 169.23 87.078C169.547 87.666 169.706 88.352 169.706 89.136C169.706 89.9107 169.547 90.6013 169.23 91.208C168.912 91.8147 168.474 92.286 167.914 92.622C167.363 92.958 166.747 93.126 166.066 93.126C165.403 93.126 164.82 92.9813 164.316 92.692C163.821 92.4027 163.448 92.034 163.196 91.586V93H161.922V82.64H163.196V86.756ZM168.404 89.136C168.404 88.5573 168.287 88.0533 168.054 87.624C167.82 87.1947 167.503 86.868 167.102 86.644C166.71 86.42 166.276 86.308 165.8 86.308C165.333 86.308 164.899 86.4247 164.498 86.658C164.106 86.882 163.788 87.2133 163.546 87.652C163.312 88.0813 163.196 88.5807 163.196 89.15C163.196 89.7287 163.312 90.2373 163.546 90.676C163.788 91.1053 164.106 91.4367 164.498 91.67C164.899 91.894 165.333 92.006 165.8 92.006C166.276 92.006 166.71 91.894 167.102 91.67C167.503 91.4367 167.82 91.1053 168.054 90.676C168.287 90.2373 168.404 89.724 168.404 89.136ZM178.383 88.87C178.383 89.1127 178.369 89.3693 178.341 89.64H172.209C172.255 90.396 172.512 90.9887 172.979 91.418C173.455 91.838 174.029 92.048 174.701 92.048C175.251 92.048 175.709 91.922 176.073 91.67C176.446 91.4087 176.707 91.0633 176.857 90.634H178.229C178.023 91.3713 177.613 91.9733 176.997 92.44C176.381 92.8973 175.615 93.126 174.701 93.126C173.973 93.126 173.319 92.9627 172.741 92.636C172.171 92.3093 171.723 91.8473 171.397 91.25C171.07 90.6433 170.907 89.9433 170.907 89.15C170.907 88.3567 171.065 87.6613 171.383 87.064C171.7 86.4667 172.143 86.0093 172.713 85.692C173.291 85.3653 173.954 85.202 174.701 85.202C175.429 85.202 176.073 85.3607 176.633 85.678C177.193 85.9953 177.622 86.434 177.921 86.994C178.229 87.5447 178.383 88.17 178.383 88.87ZM177.067 88.604C177.067 88.1187 176.959 87.7033 176.745 87.358C176.53 87.0033 176.236 86.7373 175.863 86.56C175.499 86.3733 175.093 86.28 174.645 86.28C174.001 86.28 173.45 86.4853 172.993 86.896C172.545 87.3067 172.288 87.876 172.223 88.604H177.067ZM183.872 85.188C184.451 85.188 184.974 85.314 185.44 85.566C185.907 85.8087 186.271 86.1773 186.532 86.672C186.803 87.1667 186.938 87.7687 186.938 88.478V93H185.678V88.66C185.678 87.8947 185.487 87.3113 185.104 86.91C184.722 86.4993 184.199 86.294 183.536 86.294C182.864 86.294 182.328 86.504 181.926 86.924C181.534 87.344 181.338 87.9553 181.338 88.758V93H180.064V82.64H181.338V86.42C181.59 86.028 181.936 85.7247 182.374 85.51C182.822 85.2953 183.322 85.188 183.872 85.188ZM188.543 89.136C188.543 88.352 188.702 87.666 189.019 87.078C189.337 86.4807 189.771 86.0187 190.321 85.692C190.881 85.3653 191.502 85.202 192.183 85.202C192.855 85.202 193.439 85.3467 193.933 85.636C194.428 85.9253 194.797 86.2893 195.039 86.728V85.328H196.327V93H195.039V91.572C194.787 92.02 194.409 92.3933 193.905 92.692C193.411 92.9813 192.832 93.126 192.169 93.126C191.488 93.126 190.872 92.958 190.321 92.622C189.771 92.286 189.337 91.8147 189.019 91.208C188.702 90.6013 188.543 89.9107 188.543 89.136ZM195.039 89.15C195.039 88.5713 194.923 88.0673 194.689 87.638C194.456 87.2087 194.139 86.882 193.737 86.658C193.345 86.4247 192.911 86.308 192.435 86.308C191.959 86.308 191.525 86.42 191.133 86.644C190.741 86.868 190.429 87.1947 190.195 87.624C189.962 88.0533 189.845 88.5573 189.845 89.136C189.845 89.724 189.962 90.2373 190.195 90.676C190.429 91.1053 190.741 91.4367 191.133 91.67C191.525 91.894 191.959 92.006 192.435 92.006C192.911 92.006 193.345 91.894 193.737 91.67C194.139 91.4367 194.456 91.1053 194.689 90.676C194.923 90.2373 195.039 89.7287 195.039 89.15ZM201.336 91.824L203.716 85.328H205.074L202.064 93H200.58L197.57 85.328H198.942L201.336 91.824ZM206.986 84.082C206.743 84.082 206.538 83.998 206.37 83.83C206.202 83.662 206.118 83.4567 206.118 83.214C206.118 82.9713 206.202 82.766 206.37 82.598C206.538 82.43 206.743 82.346 206.986 82.346C207.219 82.346 207.415 82.43 207.574 82.598C207.742 82.766 207.826 82.9713 207.826 83.214C207.826 83.4567 207.742 83.662 207.574 83.83C207.415 83.998 207.219 84.082 206.986 84.082ZM207.602 85.328V93H206.328V85.328H207.602ZM213.119 93.126C212.401 93.126 211.747 92.9627 211.159 92.636C210.581 92.3093 210.123 91.8473 209.787 91.25C209.461 90.6433 209.297 89.9433 209.297 89.15C209.297 88.366 209.465 87.6753 209.801 87.078C210.147 86.4713 210.613 86.0093 211.201 85.692C211.789 85.3653 212.447 85.202 213.175 85.202C213.903 85.202 214.561 85.3653 215.149 85.692C215.737 86.0093 216.199 86.4667 216.535 87.064C216.881 87.6613 217.053 88.3567 217.053 89.15C217.053 89.9433 216.876 90.6433 216.521 91.25C216.176 91.8473 215.705 92.3093 215.107 92.636C214.51 92.9627 213.847 93.126 213.119 93.126ZM213.119 92.006C213.577 92.006 214.006 91.8987 214.407 91.684C214.809 91.4693 215.131 91.1473 215.373 90.718C215.625 90.2887 215.751 89.766 215.751 89.15C215.751 88.534 215.63 88.0113 215.387 87.582C215.145 87.1527 214.827 86.8353 214.435 86.63C214.043 86.4153 213.619 86.308 213.161 86.308C212.695 86.308 212.265 86.4153 211.873 86.63C211.491 86.8353 211.183 87.1527 210.949 87.582C210.716 88.0113 210.599 88.534 210.599 89.15C210.599 89.7753 210.711 90.3027 210.935 90.732C211.169 91.1613 211.477 91.4833 211.859 91.698C212.242 91.9033 212.662 92.006 213.119 92.006ZM220.002 86.574C220.226 86.1353 220.544 85.7947 220.954 85.552C221.374 85.3093 221.883 85.188 222.48 85.188V86.504H222.144C220.716 86.504 220.002 87.2787 220.002 88.828V93H218.728V85.328H220.002V86.574ZM224.357 93.084C224.114 93.084 223.909 93 223.741 92.832C223.573 92.664 223.489 92.4587 223.489 92.216C223.489 91.9733 223.573 91.768 223.741 91.6C223.909 91.432 224.114 91.348 224.357 91.348C224.59 91.348 224.786 91.432 224.945 91.6C225.113 91.768 225.197 91.9733 225.197 92.216C225.197 92.4587 225.113 92.664 224.945 92.832C224.786 93 224.59 93.084 224.357 93.084Z" fill="white"/>
<path d="M15.98 28.09V41.32C15.98 43.18 16.43 44.56 17.33 45.46C18.25 46.36 19.52 46.81 21.14 46.81C22.74 46.81 23.99 46.36 24.89 45.46C25.81 44.56 26.27 43.18 26.27 41.32V28.09H29V41.29C29 43.03 28.65 44.5 27.95 45.7C27.25 46.88 26.3 47.76 25.1 48.34C23.92 48.92 22.59 49.21 21.11 49.21C19.63 49.21 18.29 48.92 17.09 48.34C15.91 47.76 14.97 46.88 14.27 45.7C13.59 44.5 13.25 43.03 13.25 41.29V28.09H15.98ZM39.3741 49.27C38.1141 49.27 36.9841 49.06 35.9841 48.64C34.9841 48.2 34.1941 47.6 33.6141 46.84C33.0341 46.06 32.7141 45.17 32.6541 44.17H35.4741C35.5541 44.99 35.9341 45.66 36.6141 46.18C37.3141 46.7 38.2241 46.96 39.3441 46.96C40.3841 46.96 41.2041 46.73 41.8041 46.27C42.4041 45.81 42.7041 45.23 42.7041 44.53C42.7041 43.81 42.3841 43.28 41.7441 42.94C41.1041 42.58 40.1141 42.23 38.7741 41.89C37.5541 41.57 36.5541 41.25 35.7741 40.93C35.0141 40.59 34.3541 40.1 33.7941 39.46C33.2541 38.8 32.9841 37.94 32.9841 36.88C32.9841 36.04 33.2341 35.27 33.7341 34.57C34.2341 33.87 34.9441 33.32 35.8641 32.92C36.7841 32.5 37.8341 32.29 39.0141 32.29C40.8341 32.29 42.3041 32.75 43.4241 33.67C44.5441 34.59 45.1441 35.85 45.2241 37.45H42.4941C42.4341 36.59 42.0841 35.9 41.4441 35.38C40.8241 34.86 39.9841 34.6 38.9241 34.6C37.9441 34.6 37.1641 34.81 36.5841 35.23C36.0041 35.65 35.7141 36.2 35.7141 36.88C35.7141 37.42 35.8841 37.87 36.2241 38.23C36.5841 38.57 37.0241 38.85 37.5441 39.07C38.0841 39.27 38.8241 39.5 39.7641 39.76C40.9441 40.08 41.9041 40.4 42.6441 40.72C43.3841 41.02 44.0141 41.48 44.5341 42.1C45.0741 42.72 45.3541 43.53 45.3741 44.53C45.3741 45.43 45.1241 46.24 44.6241 46.96C44.1241 47.68 43.4141 48.25 42.4941 48.67C41.5941 49.07 40.5541 49.27 39.3741 49.27ZM64.228 40.15C64.228 40.67 64.198 41.22 64.138 41.8H50.998C51.098 43.42 51.648 44.69 52.648 45.61C53.668 46.51 54.898 46.96 56.338 46.96C57.518 46.96 58.498 46.69 59.278 46.15C60.078 45.59 60.638 44.85 60.958 43.93H63.898C63.458 45.51 62.578 46.8 61.258 47.8C59.938 48.78 58.298 49.27 56.338 49.27C54.778 49.27 53.378 48.92 52.138 48.22C50.918 47.52 49.958 46.53 49.258 45.25C48.558 43.95 48.208 42.45 48.208 40.75C48.208 39.05 48.548 37.56 49.228 36.28C49.908 35 50.858 34.02 52.078 33.34C53.318 32.64 54.738 32.29 56.338 32.29C57.898 32.29 59.278 32.63 60.478 33.31C61.678 33.99 62.598 34.93 63.238 36.13C63.898 37.31 64.228 38.65 64.228 40.15ZM61.408 39.58C61.408 38.54 61.178 37.65 60.718 36.91C60.258 36.15 59.628 35.58 58.828 35.2C58.048 34.8 57.178 34.6 56.218 34.6C54.838 34.6 53.658 35.04 52.678 35.92C51.718 36.8 51.168 38.02 51.028 39.58H61.408ZM86.2995 38.23C87.0595 38.35 87.7495 38.66 88.3695 39.16C89.0095 39.66 89.5095 40.28 89.8695 41.02C90.2495 41.76 90.4395 42.55 90.4395 43.39C90.4395 44.45 90.1695 45.41 89.6295 46.27C89.0895 47.11 88.2995 47.78 87.2595 48.28C86.2395 48.76 85.0295 49 83.6295 49H75.8295V28.09H83.3295C84.7495 28.09 85.9595 28.33 86.9595 28.81C87.9595 29.27 88.7095 29.9 89.2095 30.7C89.7095 31.5 89.9595 32.4 89.9595 33.4C89.9595 34.64 89.6195 35.67 88.9395 36.49C88.2795 37.29 87.3995 37.87 86.2995 38.23ZM78.5595 37.12H83.1495C84.4295 37.12 85.4195 36.82 86.1195 36.22C86.8195 35.62 87.1695 34.79 87.1695 33.73C87.1695 32.67 86.8195 31.84 86.1195 31.24C85.4195 30.64 84.4095 30.34 83.0895 30.34H78.5595V37.12ZM83.3895 46.75C84.7495 46.75 85.8095 46.43 86.5695 45.79C87.3295 45.15 87.7095 44.26 87.7095 43.12C87.7095 41.96 87.3095 41.05 86.5095 40.39C85.7095 39.71 84.6395 39.37 83.2995 39.37H78.5595V46.75H83.3895ZM96.958 35.23C97.438 34.29 98.118 33.56 98.998 33.04C99.898 32.52 100.988 32.26 102.268 32.26V35.08H101.548C98.488 35.08 96.958 36.74 96.958 40.06V49H94.228V32.56H96.958V35.23ZM112.589 49.27C111.049 49.27 109.649 48.92 108.389 48.22C107.149 47.52 106.169 46.53 105.449 45.25C104.749 43.95 104.399 42.45 104.399 40.75C104.399 39.07 104.759 37.59 105.479 36.31C106.219 35.01 107.219 34.02 108.479 33.34C109.739 32.64 111.149 32.29 112.709 32.29C114.269 32.29 115.679 32.64 116.939 33.34C118.199 34.02 119.189 35 119.909 36.28C120.649 37.56 121.019 39.05 121.019 40.75C121.019 42.45 120.639 43.95 119.879 45.25C119.139 46.53 118.129 47.52 116.849 48.22C115.569 48.92 114.149 49.27 112.589 49.27ZM112.589 46.87C113.569 46.87 114.489 46.64 115.349 46.18C116.209 45.72 116.899 45.03 117.419 44.11C117.959 43.19 118.229 42.07 118.229 40.75C118.229 39.43 117.969 38.31 117.449 37.39C116.929 36.47 116.249 35.79 115.409 35.35C114.569 34.89 113.659 34.66 112.679 34.66C111.679 34.66 110.759 34.89 109.919 35.35C109.099 35.79 108.439 36.47 107.939 37.39C107.439 38.31 107.189 39.43 107.189 40.75C107.189 42.09 107.429 43.22 107.909 44.14C108.409 45.06 109.069 45.75 109.889 46.21C110.709 46.65 111.609 46.87 112.589 46.87ZM123.589 40.72C123.589 39.04 123.929 37.57 124.609 36.31C125.289 35.03 126.219 34.04 127.399 33.34C128.599 32.64 129.929 32.29 131.389 32.29C132.829 32.29 134.079 32.6 135.139 33.22C136.199 33.84 136.989 34.62 137.509 35.56V32.56H140.269V49H137.509V45.94C136.969 46.9 136.159 47.7 135.079 48.34C134.019 48.96 132.779 49.27 131.359 49.27C129.899 49.27 128.579 48.91 127.399 48.19C126.219 47.47 125.289 46.46 124.609 45.16C123.929 43.86 123.589 42.38 123.589 40.72ZM137.509 40.75C137.509 39.51 137.259 38.43 136.759 37.51C136.259 36.59 135.579 35.89 134.719 35.41C133.879 34.91 132.949 34.66 131.929 34.66C130.909 34.66 129.979 34.9 129.139 35.38C128.299 35.86 127.629 36.56 127.129 37.48C126.629 38.4 126.379 39.48 126.379 40.72C126.379 41.98 126.629 43.08 127.129 44.02C127.629 44.94 128.299 45.65 129.139 46.15C129.979 46.63 130.909 46.87 131.929 46.87C132.949 46.87 133.879 46.63 134.719 46.15C135.579 45.65 136.259 44.94 136.759 44.02C137.259 43.08 137.509 41.99 137.509 40.75ZM143.862 40.72C143.862 39.04 144.202 37.57 144.882 36.31C145.562 35.03 146.492 34.04 147.672 33.34C148.872 32.64 150.212 32.29 151.692 32.29C152.972 32.29 154.162 32.59 155.262 33.19C156.362 33.77 157.202 34.54 157.782 35.5V26.8H160.542V49H157.782V45.91C157.242 46.89 156.442 47.7 155.382 48.34C154.322 48.96 153.082 49.27 151.662 49.27C150.202 49.27 148.872 48.91 147.672 48.19C146.492 47.47 145.562 46.46 144.882 45.16C144.202 43.86 143.862 42.38 143.862 40.72ZM157.782 40.75C157.782 39.51 157.532 38.43 157.032 37.51C156.532 36.59 155.852 35.89 154.992 35.41C154.152 34.91 153.222 34.66 152.202 34.66C151.182 34.66 150.252 34.9 149.412 35.38C148.572 35.86 147.902 36.56 147.402 37.48C146.902 38.4 146.652 39.48 146.652 40.72C146.652 41.98 146.902 43.08 147.402 44.02C147.902 44.94 148.572 45.65 149.412 46.15C150.252 46.63 151.182 46.87 152.202 46.87C153.222 46.87 154.152 46.63 154.992 46.15C155.852 45.65 156.532 44.94 157.032 44.02C157.532 43.08 157.782 41.99 157.782 40.75ZM164.136 40.75C164.136 39.05 164.476 37.57 165.156 36.31C165.836 35.03 166.776 34.04 167.976 33.34C169.196 32.64 170.586 32.29 172.146 32.29C174.166 32.29 175.826 32.78 177.126 33.76C178.446 34.74 179.316 36.1 179.736 37.84H176.796C176.516 36.84 175.966 36.05 175.146 35.47C174.346 34.89 173.346 34.6 172.146 34.6C170.586 34.6 169.326 35.14 168.366 36.22C167.406 37.28 166.926 38.79 166.926 40.75C166.926 42.73 167.406 44.26 168.366 45.34C169.326 46.42 170.586 46.96 172.146 46.96C173.346 46.96 174.346 46.68 175.146 46.12C175.946 45.56 176.496 44.76 176.796 43.72H179.736C179.296 45.4 178.416 46.75 177.096 47.77C175.776 48.77 174.126 49.27 172.146 49.27C170.586 49.27 169.196 48.92 167.976 48.22C166.776 47.52 165.836 46.53 165.156 45.25C164.476 43.97 164.136 42.47 164.136 40.75ZM182.358 40.72C182.358 39.04 182.698 37.57 183.378 36.31C184.058 35.03 184.988 34.04 186.168 33.34C187.368 32.64 188.698 32.29 190.158 32.29C191.598 32.29 192.848 32.6 193.908 33.22C194.968 33.84 195.758 34.62 196.278 35.56V32.56H199.038V49H196.278V45.94C195.738 46.9 194.928 47.7 193.848 48.34C192.788 48.96 191.548 49.27 190.128 49.27C188.668 49.27 187.348 48.91 186.168 48.19C184.988 47.47 184.058 46.46 183.378 45.16C182.698 43.86 182.358 42.38 182.358 40.72ZM196.278 40.75C196.278 39.51 196.028 38.43 195.528 37.51C195.028 36.59 194.348 35.89 193.488 35.41C192.648 34.91 191.718 34.66 190.698 34.66C189.678 34.66 188.748 34.9 187.908 35.38C187.068 35.86 186.398 36.56 185.898 37.48C185.398 38.4 185.148 39.48 185.148 40.72C185.148 41.98 185.398 43.08 185.898 44.02C186.398 44.94 187.068 45.65 187.908 46.15C188.748 46.63 189.678 46.87 190.698 46.87C191.718 46.87 192.648 46.63 193.488 46.15C194.348 45.65 195.028 44.94 195.528 44.02C196.028 43.08 196.278 41.99 196.278 40.75ZM209.472 49.27C208.212 49.27 207.082 49.06 206.082 48.64C205.082 48.2 204.292 47.6 203.712 46.84C203.132 46.06 202.812 45.17 202.752 44.17H205.572C205.652 44.99 206.032 45.66 206.712 46.18C207.412 46.7 208.322 46.96 209.442 46.96C210.482 46.96 211.302 46.73 211.902 46.27C212.502 45.81 212.802 45.23 212.802 44.53C212.802 43.81 212.482 43.28 211.842 42.94C211.202 42.58 210.212 42.23 208.872 41.89C207.652 41.57 206.652 41.25 205.872 40.93C205.112 40.59 204.452 40.1 203.892 39.46C203.352 38.8 203.082 37.94 203.082 36.88C203.082 36.04 203.332 35.27 203.832 34.57C204.332 33.87 205.042 33.32 205.962 32.92C206.882 32.5 207.932 32.29 209.112 32.29C210.932 32.29 212.402 32.75 213.522 33.67C214.642 34.59 215.242 35.85 215.322 37.45H212.592C212.532 36.59 212.182 35.9 211.542 35.38C210.922 34.86 210.082 34.6 209.022 34.6C208.042 34.6 207.262 34.81 206.682 35.23C206.102 35.65 205.812 36.2 205.812 36.88C205.812 37.42 205.982 37.87 206.322 38.23C206.682 38.57 207.122 38.85 207.642 39.07C208.182 39.27 208.922 39.5 209.862 39.76C211.042 40.08 212.002 40.4 212.742 40.72C213.482 41.02 214.112 41.48 214.632 42.1C215.172 42.72 215.452 43.53 215.472 44.53C215.472 45.43 215.222 46.24 214.722 46.96C214.222 47.68 213.512 48.25 212.592 48.67C211.692 49.07 210.652 49.27 209.472 49.27ZM222.656 34.81V44.5C222.656 45.3 222.826 45.87 223.166 46.21C223.506 46.53 224.096 46.69 224.936 46.69H226.946V49H224.486C222.966 49 221.826 48.65 221.066 47.95C220.306 47.25 219.926 46.1 219.926 44.5V34.81H217.796V32.56H219.926V28.42H222.656V32.56H226.946V34.81H222.656ZM236.073 49.27C234.813 49.27 233.683 49.06 232.683 48.64C231.683 48.2 230.893 47.6 230.313 46.84C229.733 46.06 229.413 45.17 229.353 44.17H232.173C232.253 44.99 232.633 45.66 233.313 46.18C234.013 46.7 234.923 46.96 236.043 46.96C237.083 46.96 237.903 46.73 238.503 46.27C239.103 45.81 239.403 45.23 239.403 44.53C239.403 43.81 239.083 43.28 238.443 42.94C237.803 42.58 236.813 42.23 235.473 41.89C234.253 41.57 233.253 41.25 232.473 40.93C231.713 40.59 231.053 40.1 230.493 39.46C229.953 38.8 229.683 37.94 229.683 36.88C229.683 36.04 229.933 35.27 230.433 34.57C230.933 33.87 231.643 33.32 232.563 32.92C233.483 32.5 234.533 32.29 235.713 32.29C237.533 32.29 239.003 32.75 240.123 33.67C241.243 34.59 241.843 35.85 241.923 37.45H239.193C239.133 36.59 238.783 35.9 238.143 35.38C237.523 34.86 236.683 34.6 235.623 34.6C234.643 34.6 233.863 34.81 233.283 35.23C232.703 35.65 232.413 36.2 232.413 36.88C232.413 37.42 232.583 37.87 232.923 38.23C233.283 38.57 233.723 38.85 234.243 39.07C234.783 39.27 235.523 39.5 236.463 39.76C237.643 40.08 238.603 40.4 239.343 40.72C240.083 41.02 240.713 41.48 241.233 42.1C241.773 42.72 242.053 43.53 242.073 44.53C242.073 45.43 241.823 46.24 241.323 46.96C240.823 47.68 240.113 48.25 239.193 48.67C238.293 49.07 237.253 49.27 236.073 49.27Z" fill="white"/>
<circle cx="299" cy="268" r="89.5" stroke="#4CAF50" stroke-dasharray="8 8"/>
<circle cx="299" cy="268" r="129.5" stroke="#4CAF50" stroke-dasharray="8 8"/>
<circle cx="299" cy="275" r="179.5" stroke="#4CAF50" stroke-dasharray="8 8"/>
<g filter="url(#filter0_dddd_16_603)">
<circle cx="279" cy="139" r="14" fill="#4CAF50"/>
<circle cx="279" cy="139" r="13" stroke="white" stroke-width="2"/>
</g>
<g filter="url(#filter1_dddd_16_603)">
<circle cx="173" cy="152" r="14" fill="black"/>
<circle cx="173" cy="152" r="13" stroke="white" stroke-width="2"/>
</g>
</g>
<defs>
<filter id="filter0_dddd_16_603" x="260" y="124" width="38" height="46" filterUnits="userSpaceOnUse" color-interpolation-filters="sRGB">
<feFlood flood-opacity="0" result="BackgroundImageFix"/>
<feColorMatrix in="SourceAlpha" type="matrix" values="0 0 0 0 0 0 0 0 0 0 0 0 0 0 0 0 0 0 127 0" result="hardAlpha"/>
<feOffset dy="1"/>
<feGaussianBlur stdDeviation="1"/>
<feColorMatrix type="matrix" values="0 0 0 0 0 0 0 0 0 0 0 0 0 0 0 0 0 0 0.1 0"/>
<feBlend mode="normal" in2="BackgroundImageFix" result="effect1_dropShadow_16_603"/>
<feColorMatrix in="SourceAlpha" type="matrix" values="0 0 0 0 0 0 0 0 0 0 0 0 0 0 0 0 0 0 127 0" result="hardAlpha"/>
<feOffset dy="3"/>
<feGaussianBlur stdDeviation="1.5"/>
<feColorMatrix type="matrix" values="0 0 0 0 0 0 0 0 0 0 0 0 0 0 0 0 0 0 0.09 0"/>
<feBlend mode="normal" in2="effect1_dropShadow_16_603" result="effect2_dropShadow_16_603"/>
<feColorMatrix in="SourceAlpha" type="matrix" values="0 0 0 0 0 0 0 0 0 0 0 0 0 0 0 0 0 0 127 0" result="hardAlpha"/>
<feOffset dy="7"/>
<feGaussianBlur stdDeviation="2"/>
<feColorMatrix type="matrix" values="0 0 0 0 0 0 0 0 0 0 0 0 0 0 0 0 0 0 0.05 0"/>
<feBlend mode="normal" in2="effect2_dropShadow_16_603" result="effect3_dropShadow_16_603"/>
<feColorMatrix in="SourceAlpha" type="matrix" values="0 0 0 0 0 0 0 0 0 0 0 0 0 0 0 0 0 0 127 0" result="hardAlpha"/>
<feOffset dy="12"/>
<feGaussianBlur stdDeviation="2.5"/>
<feColorMatrix type="matrix" values="0 0 0 0 0 0 0 0 0 0 0 0 0 0 0 0 0 0 0.01 0"/>
<feBlend mode="normal" in2="effect3_dropShadow_16_603" result="effect4_dropShadow_16_603"/>
<feBlend mode="normal" in="SourceGraphic" in2="effect4_dropShadow_16_603" result="shape"/>
</filter>
<filter id="filter1_dddd_16_603" x="154" y="137" width="38" height="46" filterUnits="userSpaceOnUse" color-interpolation-filters="sRGB">
<feFlood flood-opacity="0" result="BackgroundImageFix"/>
<feColorMatrix in="SourceAlpha" type="matrix" values="0 0 0 0 0 0 0 0 0 0 0 0 0 0 0 0 0 0 127 0" result="hardAlpha"/>
<feOffset dy="1"/>
<feGaussianBlur stdDeviation="1"/>
<feColorMatrix type="matrix" values="0 0 0 0 0 0 0 0 0 0 0 0 0 0 0 0 0 0 0.1 0"/>
<feBlend mode="normal" in2="BackgroundImageFix" result="effect1_dropShadow_16_603"/>
<feColorMatrix in="SourceAlpha" type="matrix" values="0 0 0 0 0 0 0 0 0 0 0 0 0 0 0 0 0 0 127 0" result="hardAlpha"/>
<feOffset dy="3"/>
<feGaussianBlur stdDeviation="1.5"/>
<feColorMatrix type="matrix" values="0 0 0 0 0 0 0 0 0 0 0 0 0 0 0 0 0 0 0.09 0"/>
<feBlend mode="normal" in2="effect1_dropShadow_16_603" result="effect2_dropShadow_16_603"/>
<feColorMatrix in="SourceAlpha" type="matrix" values="0 0 0 0 0 0 0 0 0 0 0 0 0 0 0 0 0 0 127 0" result="hardAlpha"/>
<feOffset dy="7"/>
<feGaussianBlur stdDeviation="2"/>
<feColorMatrix type="matrix" values="0 0 0 0 0 0 0 0 0 0 0 0 0 0 0 0 0 0 0.05 0"/>
<feBlend mode="normal" in2="effect2_dropShadow_16_603" result="effect3_dropShadow_16_603"/>
<feColorMatrix in="SourceAlpha" type="matrix" values="0 0 0 0 0 0 0 0 0 0 0 0 0 0 0 0 0 0 127 0" result="hardAlpha"/>
<feOffset dy="12"/>
<feGaussianBlur stdDeviation="2.5"/>
<feColorMatrix type="matrix" values="0 0 0 0 0 0 0 0 0 0 0 0 0 0 0 0 0 0 0.01 0"/>
<feBlend mode="normal" in2="effect3_dropShadow_16_603" result="effect4_dropShadow_16_603"/>
<feBlend mode="normal" in="SourceGraphic" in2="effect4_dropShadow_16_603" result="shape"/>
</filter>
<clipPath id="clip0_16_603">
<rect width="345" height="255" rx="33" fill="white"/>
</clipPath>
</defs>
</svg>
