<?xml version="1.0" standalone="no"?>
<!DOCTYPE svg PUBLIC "-//W3C//DTD SVG 20010904//EN"
 "http://www.w3.org/TR/2001/REC-SVG-20010904/DTD/svg10.dtd">
<svg version="1.0" xmlns="http://www.w3.org/2000/svg"
 width="538.000000pt" height="445.000000pt" viewBox="0 0 538.000000 445.000000"
 preserveAspectRatio="xMidYMid meet">

<g transform="translate(0.000000,445.000000) scale(0.100000,-0.100000)"
fill="#000000" stroke="none">
<path d="M3858 4223 c-2 -311 -1 -298 -17 -316 -7 -10 -10 -17 -5 -17 5 -1 -2
-9 -15 -20 -23 -20 -41 -19 -41 2 0 5 7 8 15 4 8 -3 15 -1 15 4 0 14 -12 12
-50 -6 -31 -16 -32 -19 -26 -58 9 -52 20 -64 46 -48 18 11 19 10 13 -21 -3
-17 -12 -36 -19 -42 -15 -12 -43 -111 -44 -151 0 -16 0 -46 1 -68 0 -25 -6
-43 -17 -51 -11 -7 -14 -17 -9 -25 7 -11 10 -9 15 5 6 18 7 17 12 -3 4 -13 -3
-33 -18 -53 -33 -45 -17 -57 37 -32 52 25 64 16 66 -45 0 -24 7 -50 17 -61 14
-16 16 -44 14 -222 l-3 -204 -155 -6 c-85 -4 -270 -9 -411 -13 l-256 -6 5 26
c4 25 -20 94 -44 124 -16 20 -32 106 -28 155 4 60 -24 169 -62 241 -19 36 -34
69 -34 75 0 6 -10 25 -22 42 -13 18 -30 44 -38 59 -25 46 -127 124 -192 148
-56 20 -63 21 -97 7 -20 -9 -78 -18 -129 -21 -100 -6 -137 -18 -128 -42 3 -8
2 -12 -3 -9 -5 3 -12 1 -16 -5 -3 -6 -23 -19 -44 -30 -29 -14 -47 -36 -77 -92
l-39 -73 -1 -190 c-1 -104 -5 -210 -8 -235 -7 -41 -4 -51 30 -102 20 -32 43
-58 50 -58 19 0 18 -16 -1 -24 -17 -6 -21 -36 -5 -36 6 0 15 -12 21 -27 9 -23
7 -30 -13 -45 -13 -9 -32 -21 -43 -26 -11 -6 -77 -38 -148 -72 -142 -70 -145
-74 -132 -163 5 -29 8 -78 7 -109 -1 -33 2 -58 8 -58 5 0 38 13 72 29 61 28
99 45 308 133 52 22 100 45 105 51 10 10 2 8 -40 -9 -11 -5 -13 -2 -9 10 3 9
9 14 13 12 4 -3 13 -1 21 5 10 6 11 9 3 9 -7 0 -13 4 -13 10 0 19 30 -3 45
-33 8 -16 15 -31 15 -32 0 -2 -12 -5 -27 -8 -37 -8 -45 -15 -65 -59 -14 -31
-23 -38 -46 -38 -15 0 -32 4 -38 10 -6 6 -23 3 -49 -9 -22 -10 -55 -24 -72
-31 -18 -7 -45 -23 -60 -36 -16 -14 -38 -27 -50 -30 -13 -4 -23 -10 -23 -15 0
-5 -9 -9 -19 -9 -23 0 -36 -29 -21 -44 8 -8 17 -4 31 14 20 24 20 18 2 -26 -4
-12 -2 -15 8 -12 7 2 16 15 20 29 7 23 7 23 8 -4 1 -15 -5 -40 -13 -55 -19
-38 -57 -192 -51 -203 4 -5 21 7 39 26 39 41 42 42 56 16 8 -16 4 -25 -19 -49
-22 -22 -33 -26 -41 -18 -8 8 -16 5 -30 -12 -12 -14 -29 -22 -47 -22 -50 0
-103 -12 -102 -24 5 -40 -3 -146 -10 -146 -5 0 -11 8 -14 18 -4 16 -4 16 -12
-1 -4 -10 -2 -24 6 -33 11 -14 13 -14 22 1 6 12 16 15 33 11 21 -6 24 -3 24
21 0 19 3 24 11 16 16 -16 79 17 86 46 l6 25 10 -25 c5 -13 10 -69 11 -124 l2
-100 -35 0 c-20 0 -42 4 -49 9 -7 4 -32 7 -55 6 -80 -3 -77 -6 -77 56 0 63
-12 64 -37 3 -8 -21 -20 -39 -26 -39 -7 0 -7 -4 1 -12 7 -7 12 -15 12 -19 0
-6 -89 -39 -104 -39 -3 0 -4 64 -2 143 4 121 3 138 -8 112 -16 -37 -40 -230
-31 -244 3 -6 13 -11 21 -11 8 0 12 -4 9 -10 -3 -6 1 -7 10 -4 9 4 22 -3 33
-16 19 -23 41 -28 147 -34 33 -1 67 -6 76 -10 11 -5 21 1 34 21 24 37 51 63
59 56 3 -4 6 -1 6 5 0 6 6 9 13 6 7 -2 21 2 32 10 19 13 19 16 2 102 -9 49
-19 100 -22 114 -5 19 2 36 26 67 18 24 37 39 41 35 5 -5 1 -63 -8 -131 -14
-112 -14 -125 0 -156 21 -43 20 -52 -5 -66 -11 -6 -32 -35 -46 -65 -28 -61
-35 -68 -26 -24 8 41 -12 39 -22 -2 -5 -18 -9 -39 -9 -47 -1 -8 -8 -17 -16
-19 -15 -5 -53 -48 -48 -55 2 -2 -2 -10 -9 -18 -12 -15 -29 -129 -19 -129 3 0
16 6 27 12 17 10 23 10 26 1 3 -7 20 -13 39 -13 40 0 42 -9 11 -38 -19 -18
-28 -20 -60 -12 -32 7 -39 5 -48 -11 -5 -11 -14 -17 -20 -14 -14 9 -11 35 5
35 10 0 12 13 8 52 -3 29 -9 55 -13 56 -5 2 -9 12 -9 23 0 14 -7 19 -25 19
-14 0 -25 5 -25 11 0 7 9 9 21 6 27 -7 49 1 49 18 0 8 8 16 18 19 10 3 32 33
49 67 l32 60 -27 -3 c-21 -2 -28 -10 -33 -36 -7 -33 -44 -82 -62 -82 -5 0 -8
21 -5 48 4 46 4 47 -25 49 -16 1 -37 9 -47 18 -9 8 -25 15 -36 15 -14 -1 -10
-6 15 -19 23 -12 30 -21 22 -26 -7 -4 -10 -13 -7 -21 3 -8 -1 -14 -9 -14 -7 0
-15 10 -17 23 -2 17 -11 23 -43 27 -22 3 -46 9 -52 13 -18 11 -16 -13 2 -33
14 -16 12 -18 -26 -24 -23 -4 -102 -6 -175 -5 -129 1 -133 2 -156 27 -12 14
-18 22 -11 18 6 -3 14 -2 18 3 3 5 -3 14 -12 20 -16 9 -16 12 -3 21 11 7 16 5
18 -10 4 -22 30 -46 39 -36 4 4 3 10 -3 14 -17 11 -24 55 -12 69 8 10 6 18 -7
33 -22 24 -24 92 -5 135 l14 30 4 -27 c2 -19 9 -28 22 -28 10 0 20 -5 22 -12
3 -9 6 -9 11 -1 4 6 0 18 -8 26 -17 17 -21 52 -5 42 6 -3 10 1 10 9 0 9 4 16
9 16 14 0 19 -35 9 -56 -7 -15 -5 -14 10 4 25 28 52 29 52 2 0 -11 5 -20 11
-20 6 0 8 7 5 16 -3 9 -6 25 -6 36 0 14 -6 19 -22 18 -38 -3 -41 -1 -25 23 14
22 14 25 -6 43 l-22 19 24 3 c20 3 22 8 17 34 -4 21 -2 28 7 25 6 -2 11 -12
11 -21 -1 -9 2 -16 6 -16 5 0 10 14 12 32 2 17 9 33 16 36 9 3 10 -3 2 -23 -8
-20 -7 -35 2 -56 7 -16 15 -29 18 -29 10 0 7 -75 -4 -82 -7 -5 -6 -8 4 -8 23
0 42 37 31 59 -10 17 -7 133 5 216 5 36 10 42 52 62 30 14 50 19 56 13 19 -19
29 -10 12 9 -12 13 -14 21 -6 26 6 3 22 30 36 58 22 43 26 60 21 107 -5 63
-26 111 -65 153 -21 22 -23 27 -9 27 9 0 17 -4 17 -10 0 -19 19 -10 22 11 2
15 16 26 48 36 25 8 63 30 86 48 22 19 60 44 85 56 24 12 53 32 64 43 11 12
40 38 64 60 24 21 57 53 73 72 28 31 29 36 22 94 -6 58 -10 64 -49 93 -23 18
-89 70 -146 116 -130 106 -162 120 -260 121 -41 0 -79 4 -85 8 -5 5 -40 21
-79 37 -83 33 -170 88 -189 118 -7 12 -26 53 -42 91 -21 51 -37 74 -59 85 -16
9 -52 37 -80 62 -73 68 -111 69 -181 6 -22 -18 -23 -18 -60 5 -43 27 -75 42
-86 40 -4 -1 -26 5 -49 13 -56 20 -115 19 -181 -4 -104 -36 -167 -89 -197
-165 -51 -133 -102 -278 -122 -346 -31 -109 -27 -105 -103 -108 l-66 -3 0
-224 c0 -124 3 -225 8 -225 8 0 66 -56 88 -85 13 -17 13 -15 -1 19 -23 58 -20
69 13 61 15 -3 36 -17 47 -30 11 -12 29 -28 40 -34 19 -10 19 -10 -5 -11 -31
0 -56 -15 -42 -24 9 -5 76 5 128 20 19 5 24 0 34 -33 7 -21 20 -50 28 -66 17
-27 16 -30 -13 -100 -6 -13 -4 -16 9 -11 14 5 16 2 11 -19 -6 -20 -1 -32 20
-51 23 -21 26 -31 23 -70 -3 -29 -13 -55 -26 -71 -28 -31 -28 -125 -1 -125 15
0 39 26 39 41 0 9 5 8 17 -4 11 -10 18 -38 21 -77 4 -56 3 -60 -17 -60 -12 0
-31 -5 -41 -10 -11 -6 -70 -14 -132 -19 -125 -10 -123 -11 -168 51 -28 38 -40
40 -40 7 0 -10 -5 -21 -10 -24 -7 -4 -10 9 -8 36 2 27 -2 43 -9 46 -10 4 -13
-34 -12 -169 0 -137 3 -168 12 -148 15 35 15 34 31 21 11 -10 9 -16 -15 -42
-35 -38 -36 -58 -4 -82 21 -15 29 -16 47 -6 21 11 22 11 9 -5 -14 -17 -25 -17
-64 -1 -16 7 -17 -12 -17 -318 0 -179 3 -327 8 -329 4 -2 42 -2 85 0 70 3 76
5 60 17 -10 8 -26 15 -35 15 -22 0 -23 7 -3 26 8 9 15 29 15 46 0 26 2 29 15
18 9 -7 18 -10 22 -7 3 4 18 -2 32 -12 14 -10 44 -21 66 -25 32 -6 36 -9 22
-17 -10 -6 -26 -8 -36 -4 -14 4 -25 -3 -42 -26 -18 -26 -20 -31 -6 -26 9 3 17
2 17 -3 0 -6 9 -10 19 -10 36 0 133 -44 148 -67 32 -49 -7 -127 -102 -201 -57
-44 -255 -162 -273 -162 -9 0 -12 -42 -12 -157 0 -152 1 -157 16 -125 9 17 23
32 30 32 8 0 14 4 14 10 0 43 319 250 385 250 27 0 37 6 49 28 8 15 15 21 16
14 0 -10 5 -10 21 -2 11 7 18 14 15 17 -8 9 14 33 30 33 25 0 9 -47 -26 -76
-19 -16 -38 -33 -42 -39 -11 -15 0 -19 16 -6 8 7 21 11 29 9 8 -2 30 13 48 32
35 36 72 60 94 60 7 0 18 7 25 16 8 8 22 20 33 26 18 9 19 7 15 -16 -4 -19 -1
-26 10 -26 10 0 7 -8 -12 -25 -14 -13 -26 -29 -26 -35 0 -6 -16 -26 -35 -45
-20 -21 -40 -55 -49 -84 -24 -82 -121 -198 -190 -229 -37 -16 -27 -28 13 -14
21 8 31 7 34 -1 7 -21 128 118 169 195 32 59 48 80 71 87 20 8 27 15 23 26 -3
9 1 18 9 21 8 4 15 13 15 21 0 9 -6 13 -15 9 -26 -10 -16 13 13 28 15 8 21 15
14 16 -7 0 -10 5 -7 10 9 14 42 12 48 -2 8 -22 40 4 62 50 15 32 24 41 37 36
10 -3 18 -1 18 4 0 6 15 16 32 22 32 12 43 15 81 18 9 1 17 7 17 13 0 7 11 22
25 35 21 20 24 29 19 61 -5 34 -3 39 16 40 17 2 20 -2 14 -19 -4 -15 -2 -19 7
-16 8 3 21 2 29 -2 12 -6 15 -1 15 28 0 30 -4 37 -20 37 -11 1 -26 4 -33 9 -8
5 -21 1 -34 -11 -15 -13 -22 -15 -25 -5 -6 17 -33 15 -33 -3 0 -8 -7 -15 -16
-15 -14 0 -14 2 1 16 9 9 15 23 13 32 -4 20 -28 28 -28 9 0 -13 -6 -14 -32 -6
-35 10 -64 -5 -39 -20 9 -6 1 -11 -24 -15 -28 -6 -34 -10 -26 -20 8 -10 4 -16
-14 -26 -14 -7 -25 -21 -25 -30 0 -32 -26 -51 -93 -66 -53 -12 -78 -25 -118
-59 -41 -35 -55 -42 -76 -36 -27 7 -63 61 -63 94 0 28 17 11 24 -24 l6 -31 31
32 c29 29 30 32 14 44 -15 11 -16 16 -5 36 14 26 49 59 64 60 4 0 17 11 28 25
11 14 23 23 28 20 4 -2 19 4 33 15 14 11 29 20 35 20 5 0 20 9 34 19 14 11 38
22 53 24 16 2 30 8 32 14 3 7 -4 9 -16 6 -12 -3 -21 -1 -21 6 0 13 36 15 44 3
13 -21 96 10 96 35 0 16 2 16 18 -3 15 -20 20 -20 47 -8 l30 13 -35 1 c-53 1
-17 16 58 24 44 5 62 4 57 -3 -3 -6 -19 -11 -35 -11 -16 0 -32 -4 -35 -10 -6
-10 10 -15 30 -10 6 2 20 2 33 2 16 -1 22 4 22 18 0 23 28 27 36 5 4 -10 21
-15 54 -15 44 0 48 -2 48 -25 0 -15 -6 -25 -15 -25 -11 0 -13 -7 -9 -23 3 -13
-1 -32 -9 -45 -9 -11 -11 -23 -6 -26 5 -3 11 0 14 8 3 7 19 13 36 14 25 0 31
-3 32 -21 1 -16 3 -13 10 11 10 35 31 46 22 11 -5 -19 -4 -20 16 -8 23 15 29
59 9 59 -10 0 -9 3 1 9 21 13 81 -26 81 -52 0 -18 2 -19 10 -7 8 12 10 12 16
-3 13 -35 -23 -104 -67 -127 -15 -8 -17 -7 -13 4 8 21 -40 66 -68 65 -23 -1
-23 -1 1 -8 14 -4 26 -12 29 -19 3 -10 -11 -11 -61 -6 -43 4 -67 3 -71 -5 -13
-20 -23 -12 -18 14 2 13 1 33 -3 42 -5 10 -7 24 -6 31 1 6 -5 12 -14 12 -8 0
-15 5 -15 10 0 15 -36 12 -50 -5 -10 -12 -9 -16 4 -21 9 -3 23 -4 31 0 8 3 15
1 15 -4 0 -6 -4 -10 -10 -10 -5 0 -7 -7 -4 -15 4 -8 12 -15 20 -15 8 0 14 -4
14 -10 0 -5 -7 -10 -15 -10 -8 0 -16 -6 -16 -12 -1 -7 -3 -34 -5 -60 -2 -26
-10 -58 -19 -72 -16 -23 -15 -27 1 -56 10 -16 26 -30 36 -30 22 0 41 35 33 60
-4 14 -2 20 8 20 9 0 17 -6 20 -12 3 -10 8 -10 21 1 14 12 21 12 41 1 13 -7
35 -10 49 -6 13 3 28 2 31 -4 3 -5 15 -10 26 -10 10 0 19 -4 19 -8 0 -13 -76
-33 -96 -25 -13 5 -16 3 -11 -10 3 -9 2 -17 -3 -17 -6 0 -10 -6 -10 -12 0 -7
-11 -14 -25 -14 -14 -1 -25 3 -25 9 0 6 -3 7 -7 4 -3 -4 -12 -2 -18 3 -15 13
-45 2 -45 -15 0 -7 -22 -19 -50 -26 -55 -14 -87 -38 -54 -40 14 0 11 -4 -9
-11 -41 -15 -23 -27 23 -16 37 10 111 1 82 -9 -19 -7 -3 -23 24 -23 22 0 30
13 25 43 -1 10 17 9 23 -2 3 -5 15 -7 26 -4 21 6 29 -12 9 -19 -9 -3 -9 -10 0
-27 10 -18 18 -21 42 -16 18 4 29 3 29 -4 0 -6 -9 -11 -20 -11 -11 0 -20 -7
-20 -15 0 -13 7 -15 34 -9 19 3 43 1 53 -5 15 -8 13 -10 -12 -8 -25 2 -30 -2
-28 -18 1 -11 0 -14 -3 -7 -8 16 -24 15 -64 -4 -26 -13 -37 -14 -51 -5 -10 6
-27 11 -36 11 -14 0 -14 -3 5 -16 28 -19 19 -37 -16 -30 -35 7 -70 -22 -79
-64 -3 -17 -12 -34 -19 -37 -8 -3 -14 -14 -14 -24 0 -16 8 -19 49 -19 31 0 53
5 61 15 16 19 30 19 30 0 0 -12 14 -15 65 -15 l65 0 -20 40 c-11 21 -30 48
-42 59 l-21 21 37 15 c20 9 50 18 67 22 16 3 32 10 35 14 10 16 44 10 45 -8 0
-11 3 -13 6 -5 8 20 39 14 55 -10 14 -20 17 -21 33 -8 9 8 26 19 38 25 26 13
34 35 13 35 -20 0 -20 11 -1 36 18 24 19 44 1 44 -9 0 -12 7 -9 20 4 15 0 20
-14 20 -10 0 -25 -6 -33 -13 -7 -6 -4 1 8 17 27 35 19 50 -20 42 -29 -6 -29
-5 -23 27 10 45 26 63 37 43 5 -9 18 -16 28 -16 11 0 24 -9 30 -20 6 -11 18
-20 27 -20 10 0 14 -6 10 -20 -4 -15 0 -20 15 -20 17 0 19 -5 13 -30 -4 -20
-3 -30 5 -30 9 0 11 -14 7 -47 -7 -60 -15 -83 -30 -79 -7 1 -9 1 -4 -1 13 -8
7 -32 -22 -93 -29 -62 -25 -86 5 -27 9 17 20 34 24 37 22 16 58 119 59 169 0
13 5 29 12 35 9 8 10 -3 5 -47 -7 -64 -48 -182 -73 -209 -15 -17 -12 -18 66
-18 79 0 81 1 76 22 -3 13 1 44 9 70 8 27 10 45 5 42 -5 -3 -10 7 -10 23 -1
15 -3 41 -5 57 -2 17 4 46 12 65 34 78 39 86 48 100 6 7 16 30 23 50 l12 36
-25 -30 c-13 -16 -31 -50 -39 -75 -9 -25 -24 -61 -34 -80 l-19 -35 -18 43
c-18 40 -34 55 -34 30 0 -6 -9 -2 -20 10 -24 25 -26 36 -5 28 9 -3 15 0 15 8
0 8 3 23 6 33 5 15 4 16 -5 3 -10 -13 -16 -10 -45 21 -18 20 -50 46 -70 58
-40 25 -40 24 -25 54 10 21 9 21 -10 -1 -24 -27 -47 -21 -31 8 7 13 6 20 -1
22 -14 5 11 57 37 79 16 13 17 12 10 -16 l-8 -30 26 24 c31 30 33 24 5 -23
-26 -44 -17 -46 19 -4 22 26 62 93 62 105 0 12 -20 -1 -25 -17 -3 -11 -13 -20
-21 -20 -20 0 -17 12 11 39 14 13 25 27 25 31 0 4 11 11 25 14 30 8 33 26 4
26 -18 0 -19 3 -9 15 10 11 8 19 -7 38 -15 19 -23 22 -42 15 -35 -12 -38 -2
-4 15 15 8 39 27 52 43 l24 27 14 -39 c8 -21 15 -47 16 -57 1 -14 7 -16 29
-12 24 6 28 3 28 -15 0 -16 -4 -20 -15 -16 -27 10 -43 -4 -43 -39 0 -34 0 -34
24 -18 14 9 30 25 36 36 10 19 11 19 20 3 8 -14 5 -21 -10 -32 -12 -8 -18 -21
-15 -33 3 -11 -2 -21 -12 -25 -9 -3 -13 -10 -10 -16 4 -6 16 -3 33 8 14 9 23
11 19 4 -5 -8 -2 -12 8 -12 12 0 15 -6 10 -22 -6 -22 -6 -22 14 2 17 21 19 22
18 5 -1 -10 -10 -27 -19 -37 -10 -10 -18 -23 -18 -30 0 -6 7 -3 15 8 10 13 14
15 15 5 0 -11 5 -9 22 5 l22 19 -16 -25 c-9 -15 -25 -25 -40 -26 -13 0 -29 -3
-36 -8 -16 -10 -15 0 4 29 19 28 9 34 -13 8 -14 -17 -14 -17 -9 -1 10 32 -11
19 -28 -16 -20 -43 -20 -55 0 -30 15 19 16 19 9 -1 -4 -11 -8 -42 -10 -70 -1
-27 -9 -68 -19 -90 l-17 -40 26 29 c14 16 25 37 25 46 0 10 7 23 16 31 9 7 13
21 10 33 -3 12 2 32 10 46 9 15 13 17 9 6 -5 -16 -3 -17 10 -6 28 23 25 4 -10
-62 -19 -36 -42 -83 -51 -104 l-16 -39 21 19 c11 11 21 27 21 37 0 10 4 20 9
24 11 6 61 108 61 124 0 5 5 11 11 13 15 5 39 76 27 80 -5 2 -1 12 7 23 9 11
13 14 9 6 -4 -9 -3 -12 4 -7 6 3 27 34 47 67 46 74 59 71 16 -4 -36 -63 -39
-77 -11 -52 26 23 26 8 -1 -30 -36 -53 -128 -253 -129 -280 0 -19 17 11 35 60
17 47 91 195 122 242 11 16 11 22 1 25 -8 3 -4 18 15 51 15 26 31 46 35 46 24
-4 32 4 30 29 -1 16 8 47 20 70 24 46 21 54 -9 20 -16 -18 -14 -11 6 31 19 39
23 56 15 61 -9 6 -8 15 4 38 17 34 36 50 36 31 0 -8 4 -8 15 1 18 15 21 -1 5
-31 -6 -11 -7 -19 -3 -18 26 4 31 -3 28 -43 -3 -38 -2 -41 10 -25 7 11 11 25
9 32 -4 9 1 12 15 8 16 -4 18 -9 10 -30 -13 -34 -11 -41 6 -19 14 18 15 18 15
2 0 -9 5 -14 10 -11 6 3 10 1 10 -5 0 -7 7 -10 15 -6 9 3 15 0 15 -10 0 -13 2
-14 14 -1 8 8 17 39 19 68 l3 54 2 -50 2 -50 92 1 c55 0 96 -4 100 -10 4 -6
16 9 28 34 11 25 18 37 16 28 -3 -10 -2 -18 3 -18 5 0 12 10 15 23 6 20 8 18
21 -18 8 -22 12 -48 9 -58 -5 -16 10 -60 37 -110 5 -9 5 -17 0 -17 -5 0 -8 -8
-7 -17 1 -13 -5 -17 -21 -15 -17 2 -23 -2 -23 -17 0 -27 -10 -51 -22 -51 -13
0 1 92 18 111 16 18 19 69 4 69 -5 0 -10 -6 -11 -12 0 -7 -4 -4 -8 7 -8 19 -8
19 -15 -2 -4 -13 -11 -23 -16 -23 -6 0 -5 11 0 26 6 14 10 27 10 29 0 2 -21 2
-46 0 -29 -3 -51 -10 -60 -22 -13 -17 -13 -17 -14 2 -1 19 -2 19 -10 -1 -11
-27 -30 -40 -30 -21 0 19 -20 26 -46 16 -20 -7 -21 -11 -13 -55 11 -56 -4 -81
-40 -69 -25 8 -28 42 -6 71 8 10 14 26 15 34 0 13 -1 13 -10 0 -5 -8 -10 -10
-10 -5 0 6 -5 3 -10 -5 -8 -13 -10 -13 -10 2 0 9 4 20 10 23 6 3 10 11 10 17
0 7 -5 7 -14 -1 -11 -9 -15 -9 -19 1 -4 9 -12 5 -26 -12 l-21 -25 10 29 c9 26
9 27 -5 16 -12 -10 -15 -10 -15 0 0 9 -4 9 -12 3 -7 -6 -21 -9 -31 -8 -9 2
-22 -5 -27 -16 -7 -11 -7 -19 -1 -19 5 0 11 6 14 13 3 7 8 5 13 -8 4 -11 12
-23 18 -27 7 -5 4 -13 -8 -25 -10 -10 -16 -12 -12 -6 4 7 2 21 -3 30 -9 16
-10 16 -11 -4 0 -12 -3 -29 -7 -39 -5 -13 -3 -15 7 -9 8 5 2 -13 -13 -39 -21
-38 -25 -52 -16 -68 12 -22 2 -40 -11 -19 -6 10 -14 2 -28 -30 -11 -25 -30
-53 -41 -63 -25 -23 -30 -56 -6 -36 8 7 15 18 15 25 0 8 3 15 8 17 4 2 17 19
30 38 12 19 22 30 22 23 0 -16 -48 -111 -60 -118 -19 -12 -80 -115 -80 -135 0
-11 -4 -20 -9 -20 -5 0 -11 -8 -15 -17 -3 -10 -9 -25 -14 -33 -32 -54 -34 -63
-17 -56 11 4 15 2 12 -6 -2 -7 -11 -12 -19 -10 -9 1 -18 -6 -22 -15 -3 -10 -9
-25 -12 -33 -3 -9 1 -7 10 4 39 49 17 -35 -29 -111 -23 -37 -32 -41 -37 -16
-3 16 -4 16 -10 2 -4 -11 2 -21 18 -30 28 -15 38 -7 50 40 6 22 38 80 76 139
10 15 29 51 43 80 15 28 31 52 36 52 12 0 12 -1 -6 -44 -8 -20 -20 -36 -26
-36 -8 0 -10 -15 -6 -42 3 -24 3 -35 0 -26 -2 10 -8 18 -11 18 -9 0 -92 -161
-92 -177 0 -28 20 -10 30 27 6 21 16 42 22 46 8 5 9 1 4 -12 -15 -39 -19 -74
-7 -74 6 0 14 7 17 15 9 21 27 19 20 -3 -4 -11 1 -8 15 8 21 24 21 24 15 3
-12 -38 11 -26 38 19 27 45 36 42 11 -2 -8 -14 -14 -28 -15 -32 0 -5 40 -8 89
-8 l89 0 -14 28 c-24 50 -35 129 -23 180 22 100 112 205 223 262 36 19 63 36
61 38 -3 3 -30 15 -61 28 -42 17 -62 20 -76 13 -14 -7 -18 -6 -18 6 0 8 5 15
12 15 9 0 9 3 0 12 -14 14 -16 38 -3 38 5 0 11 -9 14 -19 6 -23 68 -57 128
-70 55 -13 146 12 126 34 -7 7 -13 9 -15 4 -2 -5 -15 -6 -29 -3 -17 5 -24 3
-20 -3 4 -7 -9 -12 -33 -15 -30 -3 -45 1 -57 14 -9 10 -21 18 -28 18 -20 0
-56 50 -50 69 5 17 47 31 105 35 33 2 129 -28 207 -65 57 -27 94 -39 126 -39
48 0 51 3 185 158 51 60 53 63 56 132 3 65 7 75 37 106 37 39 96 69 151 79 39
7 85 53 193 190 22 28 44 53 49 57 27 18 36 -31 10 -53 -9 -7 -49 -52 -88 -99
l-73 -86 60 1 60 1 64 74 c60 70 91 90 100 64 2 -6 -28 -45 -67 -87 -38 -41
-70 -78 -70 -81 0 -3 22 -17 49 -30 45 -23 197 -148 264 -217 35 -36 59 -39
26 -3 l-24 26 25 -8 c14 -4 77 -9 140 -10 63 0 129 -4 145 -7 51 -9 251 -11
265 -2 8 5 23 10 34 11 153 15 184 16 191 4 16 -27 55 -199 61 -271 l7 -77
-49 1 c-40 0 -48 -3 -46 -16 4 -22 -7 -22 -23 -1 -10 14 -20 15 -71 7 -32 -6
-158 -9 -279 -7 -246 4 -336 11 -314 25 13 8 5 13 -14 10 -46 -8 -68 -6 -79 6
-19 24 18 38 92 35 50 -2 61 0 48 8 -25 15 -113 24 -135 14 -10 -4 -22 -8 -28
-9 -5 -1 -35 -10 -65 -22 -53 -20 -61 -20 -157 -8 -95 12 -159 34 -175 59 -4
6 -5 21 -1 34 4 17 2 21 -10 16 -16 -6 -23 17 -29 86 -2 30 0 35 17 32 11 -1
36 -3 56 -3 30 0 42 -8 73 -45 54 -64 103 -86 216 -95 95 -8 140 -4 140 12 0
5 -22 7 -50 5 -27 -3 -50 -3 -50 0 0 3 9 23 21 46 19 38 20 40 2 33 -10 -4
-23 -8 -30 -8 -7 0 -10 -4 -7 -8 2 -4 -6 -13 -18 -20 -22 -12 -22 -11 -8 6 14
17 13 18 -5 10 -58 -26 -188 14 -216 66 -9 19 -9 19 10 10 11 -6 28 -11 38
-11 15 1 14 3 -5 13 -12 7 -19 16 -16 20 4 4 1 7 -6 7 -7 0 -10 3 -7 7 4 3 -3
12 -16 19 -54 32 -69 35 -121 24 -28 -6 -66 -14 -83 -17 -39 -6 -44 -30 -13
-58 11 -10 20 -29 20 -43 0 -20 2 -22 15 -12 19 16 30 -8 21 -46 -5 -19 -12
-24 -29 -22 -12 2 -21 9 -20 16 2 6 -5 12 -16 12 -10 0 -29 14 -43 30 l-25 31
-53 -58 c-76 -82 -162 -202 -155 -213 12 -19 24 -9 74 60 28 39 53 70 54 70
22 0 129 -41 190 -72 205 -107 276 -285 176 -442 l-29 -47 147 3 147 3 45 66
c25 37 58 73 73 82 21 12 28 24 28 45 0 37 25 60 86 78 47 14 134 11 134 -5 0
-8 -75 -71 -84 -71 -3 0 -22 -17 -42 -37 -23 -25 -37 -34 -41 -25 -11 27 -33
12 -33 -24 0 -27 -9 -46 -32 -73 l-32 -36 79 -3 c43 -2 81 1 85 5 4 4 15 41
25 82 15 63 48 122 60 109 2 -2 -6 -33 -19 -68 -13 -36 -27 -80 -31 -98 -6
-28 -4 -32 14 -32 12 0 21 6 21 15 0 27 62 210 76 225 23 24 18 -9 -21 -122
-19 -57 -35 -106 -35 -110 0 -5 20 -8 44 -8 l43 0 37 104 c21 57 44 113 51
123 29 39 24 0 -14 -111 l-40 -116 62 0 62 0 38 94 c41 101 61 135 72 124 4
-4 -9 -47 -28 -95 -20 -48 -39 -96 -42 -106 -6 -15 -1 -17 40 -17 34 0 52 5
61 17 13 17 13 17 14 1 0 -16 14 -18 146 -18 134 0 145 1 140 18 -3 9 -10 51
-16 92 -11 71 -53 324 -71 420 -4 25 -8 52 -8 60 0 20 67 -123 85 -181 8 -26
21 -52 28 -58 8 -7 18 -27 22 -44 3 -18 10 -37 16 -43 5 -7 10 -29 13 -50 2
-22 7 -38 12 -37 5 1 15 -8 23 -20 12 -21 12 -21 -5 -7 -17 14 -17 13 -10 -10
4 -14 11 -29 15 -35 4 -5 11 -26 15 -45 12 -57 21 -59 223 -60 l182 0 -1 84
c-1 90 -8 112 -33 103 -10 -4 -23 4 -38 23 -12 17 -26 30 -31 30 -5 0 -3 -8 4
-17 12 -16 12 -17 -2 -6 -9 7 -18 10 -22 7 -3 -3 -3 5 0 18 6 19 4 21 -8 11
-12 -10 -19 -5 -39 27 -24 39 -45 54 -34 25 4 -8 10 -15 14 -15 4 0 10 -10 14
-23 3 -12 13 -32 23 -43 29 -33 44 -64 37 -76 -4 -6 -3 -8 4 -4 6 3 13 2 17
-4 10 -16 -32 -12 -48 5 -8 8 -17 11 -21 8 -3 -3 -8 2 -12 11 -10 27 -21 18
-16 -14 4 -30 4 -30 -24 -18 -43 18 -54 28 -54 49 0 11 -5 18 -11 16 -6 -1
-20 14 -31 33 -11 19 -25 38 -32 42 -6 4 -7 8 -2 8 5 0 2 8 -6 18 -9 9 -30 45
-47 79 -18 34 -39 64 -47 67 -8 3 -12 10 -9 16 3 5 -1 10 -9 10 -10 0 -13 6
-10 15 4 8 1 15 -6 15 -7 0 -10 7 -6 15 3 8 0 15 -7 15 -11 1 -97 131 -97 149
0 4 -9 16 -20 26 -16 15 -18 21 -7 33 9 12 9 14 0 9 -15 -9 -29 15 -38 67 -9
43 8 64 32 40 10 -9 18 -11 26 -4 36 30 141 91 151 87 7 -3 17 8 23 24 11 28
10 28 -10 17 -29 -16 -964 -22 -1022 -7 -50 14 -120 84 -134 136 -6 21 -11 59
-11 84 0 26 -10 78 -22 115 -24 75 -24 91 -2 132 17 32 18 56 4 83 -10 18 -26
19 -492 19 -470 0 -483 0 -526 21 -26 13 -54 38 -70 61 -22 35 -27 38 -33 22
-4 -11 -8 -32 -9 -49 -1 -24 -5 -17 -22 35 -15 49 -17 69 -9 82 6 10 11 25 11
33 0 8 4 23 9 33 6 9 13 38 16 64 7 58 51 124 101 155 30 17 54 23 101 23 55
0 64 3 82 26 14 18 21 41 21 70 0 24 4 44 8 44 4 0 24 -12 43 -26 19 -14 64
-45 100 -70 67 -44 67 -44 157 -44 l90 0 7 31 c8 36 1 47 -19 29 -13 -10 -19
-5 -38 34 -12 25 -26 46 -30 46 -4 0 -8 7 -8 15 0 8 -4 15 -9 15 -18 0 -22 34
-6 49 15 15 18 14 35 -9 11 -14 29 -43 41 -65 11 -22 27 -45 36 -52 12 -9 14
-22 9 -53 l-6 -40 118 0 c65 0 121 2 124 5 3 3 -17 69 -44 148 -27 78 -50 164
-52 190 -2 27 -16 71 -30 99 -19 37 -25 60 -21 80 7 30 -25 105 -56 134 -17
15 -171 43 -240 44 -36 0 -115 27 -106 36 2 3 23 1 45 -4 27 -7 44 -6 51 1 7
7 11 7 11 1 0 -5 8 -10 18 -11 43 -4 88 -11 102 -16 8 -3 36 -8 62 -12 32 -4
53 -13 62 -27 13 -18 16 -19 21 -6 6 15 9 15 35 0 16 -9 31 -25 34 -36 3 -12
10 -16 20 -13 10 4 16 1 16 -8 0 -8 -6 -14 -12 -13 -17 4 -12 -43 7 -62 13
-13 15 -12 15 5 0 17 2 18 11 5 7 -11 9 -7 8 20 -1 19 -1 53 0 75 l2 40 24
-27 c13 -16 28 -28 33 -28 4 0 14 -16 22 -35 15 -39 24 -43 38 -18 9 14 10 14
16 -5 4 -12 11 -22 16 -22 4 0 11 -11 14 -25 4 -14 11 -25 16 -25 5 0 13 -18
16 -40 4 -22 11 -40 16 -40 6 0 8 9 5 20 -3 13 0 20 9 20 8 0 14 -8 14 -17 0
-22 47 -46 56 -31 4 6 12 1 20 -13 10 -19 13 -20 14 -6 0 9 4 17 9 17 15 0 22
-33 17 -74 -3 -22 -1 -34 4 -31 6 4 10 -1 10 -10 0 -9 -4 -13 -10 -10 -5 3
-10 0 -10 -8 0 -7 11 -20 25 -27 19 -10 22 -16 13 -23 -10 -7 -10 -10 0 -14 6
-2 12 -16 12 -29 0 -13 5 -24 11 -24 7 0 9 -9 5 -23 -3 -13 0 -32 8 -42 13
-18 7 -44 -14 -65 -10 -10 -10 -30 -1 -30 5 0 12 -8 15 -18 8 -26 36 -24 36 2
0 17 -2 18 -10 6 -8 -13 -10 -13 -10 2 0 9 5 18 11 20 12 4 14 183 3 268 -6
51 -7 66 -5 169 1 73 1 74 21 56 12 -10 17 -23 12 -29 -11 -15 -7 -101 6 -151
6 -22 9 -58 7 -81 -16 -158 -11 -419 10 -554 3 -19 5 -47 5 -63 0 -15 4 -27
10 -27 5 0 10 -8 10 -17 0 -15 2 -16 10 -3 8 13 13 12 32 -8 17 -17 19 -21 6
-16 -20 7 -22 -8 -8 -41 8 -18 9 -18 9 5 1 17 4 21 10 12 4 -7 14 -12 22 -10
16 3 21 -43 6 -53 -6 -4 1 -13 14 -20 19 -10 98 -13 354 -12 306 1 369 -2 419
-22 16 -7 17 -6 7 13 -19 36 -14 64 11 60 16 -2 28 -20 49 -72 15 -38 32 -72
37 -75 5 -3 12 -16 16 -28 22 -69 161 -156 236 -147 70 9 70 9 70 84 0 74 0
74 -45 84 -25 6 -28 5 -17 -6 7 -7 17 -13 23 -13 5 0 9 -4 10 -10 0 -5 -16
-13 -37 -18 -32 -6 -64 -2 -136 19 -14 4 -16 1 -11 -13 6 -15 5 -16 -9 -3 -10
9 -13 19 -8 24 11 11 -40 57 -54 49 -5 -4 -7 0 -3 9 3 9 -1 25 -9 37 -8 11
-12 21 -7 21 4 0 1 4 -7 10 -8 5 -12 11 -9 15 3 3 28 -6 54 -21 58 -30 122
-55 150 -58 11 0 25 -5 32 -9 6 -4 14 -3 18 3 3 5 19 10 36 10 19 0 29 5 29
15 0 10 -10 15 -34 15 -19 0 -38 5 -42 11 -4 8 0 9 15 4 11 -3 30 -3 41 0 17
5 20 15 20 65 l0 60 -32 -8 c-75 -16 -164 -8 -227 23 -33 16 -59 30 -57 33 3
2 35 -8 73 -23 59 -24 77 -27 138 -22 104 8 105 9 105 78 0 53 -2 59 -20 59
-37 0 -130 38 -169 69 -21 17 -59 36 -85 43 -36 9 -43 14 -29 20 22 9 -73 3
-102 -7 -15 -5 -14 -3 4 8 16 10 20 16 12 21 -7 4 -19 2 -27 -5 -10 -8 -18 -9
-22 -3 -4 6 -15 13 -24 17 -31 11 -20 36 22 53 22 9 38 20 37 26 -2 11 9 18
65 42 37 16 80 77 58 84 -6 2 -7 10 0 22 7 13 6 20 -3 24 -9 3 -7 9 5 19 10 8
15 16 12 19 -5 5 32 78 45 88 23 19 63 70 65 83 1 9 9 24 18 34 9 10 22 49 28
87 6 38 19 93 30 123 10 30 22 74 26 98 7 51 30 78 45 54 6 -10 9 -2 9 27 0
22 -6 49 -14 59 -13 18 -16 17 -60 -20 -34 -28 -45 -43 -41 -56 8 -24 -4 -24
-21 -1 -12 16 -14 15 -31 -8 -10 -14 -18 -29 -19 -35 -14 -74 -21 -132 -17
-141 6 -15 -24 -37 -42 -31 -20 8 -29 -10 -10 -21 13 -7 14 -14 6 -35 -6 -15
-15 -27 -21 -27 -15 0 -41 -26 -33 -34 4 -3 1 -6 -5 -6 -7 0 -12 -9 -12 -21 0
-14 -5 -19 -14 -16 -8 3 -20 -1 -26 -9 -7 -8 -9 -14 -4 -14 5 0 -17 -25 -49
-55 -31 -30 -57 -59 -57 -65 0 -5 -9 -10 -19 -10 -11 0 -21 -9 -25 -24 -3 -13
-18 -32 -33 -42 -16 -9 -33 -25 -40 -33 -11 -14 -12 -14 -13 1 0 12 -5 15 -16
11 -8 -3 -13 -12 -10 -19 4 -9 -2 -14 -15 -14 -11 0 -17 -4 -14 -10 6 -10 -7
-14 -31 -11 -7 1 -14 -8 -17 -19 -4 -17 -9 -19 -31 -10 -25 9 -38 -3 -13 -13
10 -4 10 -6 0 -6 -7 -1 -13 -7 -13 -13 -1 -16 -68 -49 -76 -37 -8 14 -24 10
-24 -6 0 -8 -7 -15 -15 -15 -9 0 -33 -9 -54 -20 -44 -22 -129 -20 -184 4 -10
5 -20 6 -23 4 -6 -7 -69 53 -83 79 -6 12 -11 42 -11 66 l0 44 38 0 c48 0 82
11 82 26 0 7 -23 24 -50 39 -28 16 -50 34 -50 42 0 8 25 32 55 53 56 39 67 53
40 53 -8 0 -15 -4 -15 -8 0 -10 -60 -38 -80 -38 -8 1 -16 11 -18 24 -4 26 -11
28 -27 6 -10 -15 -13 -15 -28 1 -14 14 -25 65 -13 65 2 0 23 -7 46 -15 61 -21
72 -20 166 26 83 41 84 41 62 59 -19 15 -24 15 -36 4 -16 -17 -27 -17 -53 -3
-13 7 -24 7 -32 1 -7 -6 -40 -10 -75 -11 -35 0 -66 -3 -70 -5 -4 -2 -15 2 -26
9 -17 13 -17 15 3 37 18 18 34 23 89 25 37 2 74 0 82 -3 8 -4 28 -6 43 -5 15
2 34 -3 42 -9 10 -8 19 -8 34 0 13 6 28 7 39 2 18 -9 24 -9 60 3 26 9 28 18 7
35 -11 9 -39 11 -103 6 -123 -10 -180 -7 -220 10 -40 16 -86 19 -77 4 4 -6 12
-7 18 -4 7 4 6 1 -1 -7 -11 -12 -16 -11 -30 6 -9 12 -24 24 -34 27 -11 5 -15
17 -14 37 2 33 16 56 16 26 0 -14 3 -15 15 -5 8 7 23 9 32 6 17 -6 17 -5 0 8
-10 8 -17 22 -15 32 2 13 -5 20 -22 24 -52 12 -109 43 -125 67 -24 36 -13 76
45 169 28 43 53 89 56 102 4 12 10 22 15 22 6 0 24 23 41 50 17 28 33 50 35
50 2 0 1 -4 -2 -10 -13 -21 8 -9 27 15 13 17 26 24 38 20 22 -7 61 43 66 85 5
38 32 101 33 76 1 -16 3 -17 18 -5 9 8 17 12 17 9 1 -3 20 3 41 12 22 9 57 19
78 23 20 3 37 10 37 14 0 17 -54 28 -90 19 -19 -5 -45 -12 -57 -15 -17 -4 -23
-1 -23 11 0 20 1 20 -44 1 l-36 -15 6 37 c6 43 21 64 32 47 10 -15 42 -25 42
-13 0 5 11 15 25 21 14 6 25 19 25 29 0 10 5 21 10 24 6 4 20 24 31 47 13 25
25 38 34 34 19 -7 32 12 41 59 8 46 29 73 37 50 4 -8 15 -12 29 -10 18 4 24 0
25 -16 2 -23 20 -49 35 -49 5 0 6 9 3 20 -9 27 20 27 37 0 11 -18 14 -18 30
-3 24 21 23 36 -2 28 -14 -4 -20 -2 -20 8 0 16 45 31 61 21 6 -3 8 -12 5 -20
-3 -8 0 -13 6 -11 7 1 13 -10 13 -25 1 -16 7 -34 14 -40 11 -11 12 -9 6 10 -5
16 -1 30 11 43 13 14 14 18 3 15 -22 -9 -41 9 -37 35 4 32 38 39 38 8 0 -12 3
-20 6 -16 11 10 47 -31 41 -47 -4 -9 1 -17 14 -21 16 -5 18 -10 8 -21 -16 -19
-4 -42 27 -54 17 -7 24 -15 21 -25 -4 -8 2 -16 14 -20 10 -4 19 -15 19 -26 0
-11 7 -22 16 -26 8 -3 13 -12 10 -19 -8 -22 22 -16 34 6 13 24 30 26 30 5 0
-18 39 -35 81 -35 24 0 29 -4 29 -25 0 -14 -4 -25 -10 -25 -5 0 -10 -7 -10
-16 0 -8 4 -13 9 -9 5 3 12 -4 16 -15 3 -11 11 -21 16 -21 5 -1 13 -2 18 -3
15 -2 26 -16 13 -16 -8 0 -12 -17 -12 -42 0 -71 -5 -116 -12 -112 -14 9 -14
-23 0 -53 14 -30 16 -31 38 -16 14 9 24 11 24 5 0 -6 5 -23 11 -39 l11 -28 20
53 c22 58 45 76 60 48 14 -25 78 -50 91 -37 7 7 5 12 -6 16 -9 3 -24 7 -33 10
-21 7 -12 29 13 33 14 2 23 -3 26 -15 3 -10 5 280 6 645 l1 662 -760 0 -760 0
-2 -227z m854 65 c-7 -7 -12 -8 -12 -2 0 6 3 14 7 17 3 4 9 5 12 2 2 -3 -1
-11 -7 -17z m245 -50 c-3 -8 -6 -5 -6 6 -1 11 2 17 5 13 3 -3 4 -12 1 -19z
m-367 -3 c0 -8 -4 -15 -10 -15 -5 0 -10 7 -10 15 0 8 5 15 10 15 6 0 10 -7 10
-15z m234 -3 c3 -5 -1 -9 -9 -9 -8 0 -15 4 -15 9 0 4 4 8 9 8 6 0 12 -4 15 -8z
m469 1 c-7 -2 -19 -2 -25 0 -7 3 -2 5 12 5 14 0 19 -2 13 -5z m-777 -18 c17
-16 14 -18 -10 -9 -9 3 -16 10 -16 15 0 13 9 11 26 -6z m654 -139 c0 -3 -4 -8
-10 -11 -5 -3 -10 -1 -10 4 0 6 5 11 10 11 6 0 10 -2 10 -4z m-710 -16 c0 -5
-2 -10 -4 -10 -3 0 -8 5 -11 10 -3 6 -1 10 4 10 6 0 11 -4 11 -10z m760 0 c0
-5 -5 -10 -11 -10 -5 0 -7 5 -4 10 3 6 8 10 11 10 2 0 4 -4 4 -10z m-350 -64
c0 -3 -4 -8 -10 -11 -5 -3 -10 -1 -10 4 0 6 5 11 10 11 6 0 10 -2 10 -4z
m-370 -16 c13 -8 13 -10 -2 -10 -9 0 -20 5 -23 10 -8 13 5 13 25 0z m40 -20
c0 -5 -2 -10 -4 -10 -3 0 -8 5 -11 10 -3 6 -1 10 4 10 6 0 11 -4 11 -10z
m-366 -26 c3 -8 2 -12 -4 -9 -6 3 -10 10 -10 16 0 14 7 11 14 -7z m11 -74 c-3
-5 -10 -10 -16 -10 -5 0 -9 5 -9 10 0 6 7 10 16 10 8 0 12 -4 9 -10z m-421
-15 c3 -8 1 -15 -4 -15 -6 0 -10 7 -10 15 0 8 2 15 4 15 2 0 6 -7 10 -15z
m846 -15 c0 -5 -4 -10 -10 -10 -5 0 -10 5 -10 10 0 6 5 10 10 10 6 0 10 -4 10
-10z m333 -187 c-18 -14 -33 -9 -33 12 0 17 32 25 42 10 4 -5 0 -15 -9 -22z
m54 11 c-3 -3 -12 -4 -19 -1 -8 3 -5 6 6 6 11 1 17 -2 13 -5z m-7 -34 c0 -5
-4 -10 -9 -10 -6 0 -13 5 -16 10 -3 6 1 10 9 10 9 0 16 -4 16 -10z m-805 -30
c3 -5 1 -10 -4 -10 -6 0 -11 5 -11 10 0 6 2 10 4 10 3 0 8 -4 11 -10z m-74
-53 c-13 -13 -15 1 -4 30 7 17 8 17 11 -1 2 -10 -1 -23 -7 -29z m35 -13 c-5
-14 -9 -15 -19 -5 -9 9 -9 14 3 21 18 11 24 6 16 -16z m134 -5 c0 -26 -3 -29
-14 -20 -8 7 -12 21 -9 31 8 31 23 23 23 -11z m800 -17 c0 -11 -8 -18 -20 -19
-23 -2 -25 2 -7 22 17 20 27 18 27 -3z m-952 -1 c11 -7 11 -9 -1 -14 -9 -3
-18 1 -21 9 -6 16 2 18 22 5z m-3208 -47 c0 -8 -4 -12 -10 -9 -5 3 -10 10 -10
16 0 5 5 9 10 9 6 0 10 -7 10 -16z m1554 -38 c15 3 47 1 72 -6 50 -14 134 -83
134 -110 0 -19 23 -43 33 -34 3 3 3 -3 0 -15 -3 -12 0 -27 6 -34 26 -32 5
-173 -31 -209 -18 -18 -24 -48 -10 -48 4 0 13 5 19 11 9 9 14 5 19 -15 11 -44
-91 -224 -121 -212 -7 2 -21 -5 -32 -16 -42 -47 -117 -62 -171 -34 -89 46
-227 266 -167 266 12 0 12 6 -2 43 -9 25 -16 76 -17 127 -1 116 23 191 80 249
40 39 47 43 80 38 26 -4 37 -2 41 9 5 13 8 13 23 -1 12 -11 26 -14 44 -9z
m1622 -2 c-4 -9 -9 -15 -11 -12 -3 3 -3 13 1 22 4 9 9 15 11 12 3 -3 3 -13 -1
-22z m-2931 -99 c27 -74 23 -92 -17 -73 -24 11 -25 17 -27 88 -2 89 8 86 44
-15z m-454 45 c-2 -8 -6 -34 -8 -57 -5 -41 -23 -51 -23 -13 0 11 -12 26 -26
33 l-27 14 22 22 c25 25 68 25 62 1z m287 -12 c14 -14 16 -48 4 -48 -8 0 -32
43 -32 55 0 9 16 5 28 -7z m-402 -23 c10 -8 14 -15 8 -15 -5 0 -19 7 -30 15
-10 8 -14 15 -8 15 5 0 19 -7 30 -15z m3514 -11 c0 -8 -4 -14 -10 -14 -5 0
-10 9 -10 21 0 11 5 17 10 14 6 -3 10 -13 10 -21z m-3550 -4 c0 -5 -6 -10 -14
-10 -8 0 -18 5 -21 10 -3 6 3 10 14 10 12 0 21 -4 21 -10z m250 -34 c0 -2 -9
-6 -20 -9 -11 -3 -20 -1 -20 4 0 5 9 9 20 9 11 0 20 -2 20 -4z m4356 -43 c-10
-10 -19 5 -10 18 6 11 8 11 12 0 2 -7 1 -15 -2 -18z m-4641 -53 c8 -13 -14
-42 -26 -34 -5 3 -9 14 -9 25 0 20 24 26 35 9z m334 -29 c19 -12 6 -41 -18
-41 -23 0 -35 15 -27 35 6 17 24 19 45 6z m-149 -11 c0 -5 -7 -10 -15 -10 -8
0 -15 5 -15 10 0 6 7 10 15 10 8 0 15 -4 15 -10z m2110 -57 c-1 -20 -38 -69
-46 -60 -5 5 11 38 31 64 13 16 15 16 15 -4z m-1705 -3 c-3 -5 -10 -10 -16
-10 -5 0 -9 5 -9 10 0 6 7 10 16 10 8 0 12 -4 9 -10z m435 -20 c0 -5 -5 -10
-11 -10 -5 0 -7 5 -4 10 3 6 8 10 11 10 2 0 4 -4 4 -10z m96 -32 c-33 -6 -52
-6 -60 2 -7 7 8 10 50 9 l59 -1 -49 -10z m-275 -20 c45 -25 53 -43 12 -26 -30
12 -73 48 -59 48 5 0 26 -10 47 -22z m-871 2 c0 -5 -2 -10 -4 -10 -3 0 -8 5
-11 10 -3 6 -1 10 4 10 6 0 11 -4 11 -10z m236 -6 c30 -8 54 -20 54 -25 0 -16
-80 -11 -86 6 -4 8 -10 12 -15 9 -13 -8 -11 -32 4 -31 6 0 26 -1 42 -2 26 -2
27 -3 10 -11 -36 -16 -84 -11 -105 10 -11 11 -28 20 -39 20 -10 0 -24 6 -31
14 -10 13 -4 15 37 19 26 2 54 4 61 5 8 1 38 -5 68 -14z m940 -29 c-23 -17
-36 -19 -36 -6 0 11 18 19 40 20 11 0 10 -3 -4 -14z m162 -3 c2 -7 -3 -12 -11
-12 -8 0 -27 -10 -43 -22 l-29 -23 30 37 c30 37 45 43 53 20z m947 -12 c4 -6
-2 -23 -12 -38 -10 -15 -21 -36 -25 -47 -5 -17 -6 -17 -7 6 -1 14 5 34 13 44
8 11 12 25 9 32 -6 15 13 18 22 3z m-2120 -30 c3 -5 -1 -10 -9 -10 -9 0 -16 5
-16 10 0 6 4 10 9 10 6 0 13 -4 16 -10z m661 -64 c144 -52 171 -65 155 -76
-16 -9 -4 -57 18 -69 11 -7 21 -5 33 6 17 15 18 14 18 -8 0 -13 -11 -48 -25
-78 -15 -31 -19 -49 -11 -42 8 6 20 26 27 44 7 18 21 44 31 59 17 25 20 26 50
14 43 -18 54 -41 34 -71 -9 -13 -16 -35 -16 -47 0 -13 -4 -30 -10 -38 -6 -9
-5 -17 2 -21 7 -5 4 -15 -8 -32 -22 -30 -59 -45 -50 -20 4 10 -6 6 -28 -11
-36 -27 -52 -33 -41 -16 12 20 -12 9 -35 -15 -13 -14 -32 -25 -42 -25 -18 0
-18 2 2 40 24 47 24 46 5 54 -10 4 -27 -11 -51 -44 -20 -28 -41 -50 -46 -50
-13 0 -4 174 12 244 10 45 1 97 -18 104 -8 2 -9 -16 -5 -65 3 -37 1 -84 -5
-103 -8 -29 -9 -24 -5 31 3 39 1 81 -6 102 l-13 37 -59 0 c-58 0 -69 -6 -49
-26 8 -8 6 -15 -4 -23 -13 -11 -13 -18 1 -59 31 -95 8 -265 -32 -232 -10 8
-19 8 -34 -2 -11 -7 -22 -10 -24 -8 -3 3 4 46 14 95 10 50 19 107 19 127 0 25
5 38 16 40 12 2 8 11 -16 35 -27 27 -29 34 -16 39 12 5 16 20 16 64 0 32 3 65
6 74 10 26 63 19 190 -28z m1446 -8 c-8 -8 -9 -4 -5 13 4 13 8 18 11 10 2 -7
-1 -18 -6 -23z m-934 -11 c2 -17 9 -27 20 -27 23 0 4 -14 -43 -32 -39 -14 -84
-12 -129 7 -16 7 -18 5 -11 -26 4 -19 11 -35 16 -37 5 -2 9 -34 9 -70 0 -37 4
-74 10 -82 14 -23 33 35 33 108 1 34 2 62 4 62 3 0 23 -15 45 -32 27 -22 42
-29 45 -20 3 6 10 9 15 6 7 -4 8 -2 4 4 -4 7 -15 12 -25 12 -11 0 -29 9 -42
21 l-24 21 25 -6 c14 -3 52 -6 84 -6 53 0 58 -2 42 -13 -17 -12 -17 -14 -2
-20 24 -10 19 -25 -14 -42 -23 -12 -30 -12 -30 -3 0 10 -3 9 -9 -1 -5 -8 -7
-20 -4 -27 3 -8 -15 -25 -44 -43 -26 -16 -56 -36 -65 -45 -38 -34 -50 -13 -67
110 -13 90 -28 144 -42 144 -5 0 -9 3 -9 8 0 4 17 6 38 4 26 -2 53 5 92 26 30
16 60 28 65 27 6 -1 11 -14 13 -28z m-1438 14 c0 -5 -7 -11 -15 -15 -9 -3 -15
0 -15 9 0 8 7 15 15 15 8 0 15 -4 15 -9z m280 -22 c15 -26 9 -32 -24 -23 -29
7 -32 14 -14 32 17 17 26 15 38 -9z m395 -39 c3 -5 2 -10 -3 -10 -5 0 -9 -16
-10 -36 -1 -20 -11 -51 -22 -69 -11 -18 -20 -45 -20 -61 0 -46 -30 -188 -42
-199 -7 -7 -9 -2 -4 20 3 17 9 57 12 90 5 60 27 168 44 215 4 14 11 33 14 43
6 19 21 23 31 7z m925 -40 c0 -5 -7 -10 -16 -10 -8 0 -12 5 -9 10 3 6 10 10
16 10 5 0 9 -4 9 -10z m725 -9 c6 -21 -9 -99 -22 -112 -5 -5 -29 -11 -53 -14
-25 -3 -50 -11 -55 -19 -7 -9 -13 -10 -21 -2 -8 8 7 31 60 88 39 42 74 77 78
77 4 1 9 -7 13 -18z m-2406 -102 c18 -83 16 -92 -29 -112 -22 -9 -42 -17 -44
-17 -3 0 -2 16 1 35 5 30 2 36 -20 44 -14 5 -28 15 -32 21 -4 6 -18 15 -31 20
-33 13 -30 23 13 42 25 12 42 14 54 8 30 -17 39 -11 39 23 l1 32 19 -23 c10
-12 23 -45 29 -73z m508 4 c-3 -10 -5 -4 -5 12 0 17 2 24 5 18 2 -7 2 -21 0
-30z m261 -81 c-7 -96 -28 -152 -59 -152 -19 0 -21 4 -16 38 4 20 9 64 13 97
7 61 25 95 52 95 12 0 14 -13 10 -78z m1292 63 c10 -12 10 -15 -4 -15 -9 0
-16 7 -16 15 0 8 2 15 4 15 2 0 9 -7 16 -15z m1300 -5 c0 -5 -4 -10 -10 -10
-5 0 -10 5 -10 10 0 6 5 10 10 10 6 0 10 -4 10 -10z m-2801 -74 c20 -18 29
-46 14 -46 -5 0 -22 13 -39 29 -26 23 -30 34 -26 61 l5 33 12 -29 c7 -16 22
-38 34 -48z m2771 64 c0 -5 -5 -10 -11 -10 -5 0 -7 5 -4 10 3 6 8 10 11 10 2
0 4 -4 4 -10z m-2696 -56 c15 -31 23 -60 19 -65 -13 -12 -65 2 -59 17 3 7 0
26 -6 42 -12 30 -6 62 11 62 5 0 21 -25 35 -56z m1756 32 c0 -13 -7 -27 -16
-30 -9 -4 -13 -2 -8 5 4 6 0 15 -7 20 -12 8 -12 11 1 19 23 15 30 12 30 -14z
m30 4 c0 -5 -4 -10 -10 -10 -5 0 -10 5 -10 10 0 6 5 10 10 10 6 0 10 -4 10
-10z m-270 -50 c4 0 7 8 6 17 -1 24 39 30 48 8 3 -9 3 -22 -1 -28 -4 -7 -6
-22 -4 -34 2 -19 -2 -23 -23 -23 -14 0 -26 6 -26 13 0 8 -3 7 -10 -3 -11 -17
-15 -8 -24 55 -6 39 -6 39 10 18 9 -13 20 -23 24 -23z m170 0 c0 -29 -4 -40
-15 -40 -18 0 -18 7 -4 49 15 41 19 39 19 -9z m-1379 -47 c-9 -15 -10 -13 -11
14 0 17 3 40 8 50 5 14 8 11 10 -14 2 -18 -1 -41 -7 -50z m2499 55 c0 -11 -5
-18 -12 -16 -19 7 -21 35 -3 35 8 0 15 -9 15 -19z m50 12 c0 -5 -2 -10 -4 -10
-3 0 -8 5 -11 10 -3 6 -1 10 4 10 6 0 11 -4 11 -10z m-1427 -22 c3 -12 4 -25
1 -30 -8 -13 -36 21 -30 37 8 22 23 18 29 -7z m-1077 -30 c-2 -24 -4 -51 -5
-60 -1 -10 -6 -18 -11 -18 -6 0 -8 10 -6 23 3 12 8 39 11 60 8 50 16 47 11 -5z
m-466 12 c0 -5 -2 -10 -4 -10 -3 0 -8 5 -11 10 -3 6 -1 10 4 10 6 0 11 -4 11
-10z m-27 -20 c3 -11 3 -20 1 -20 -2 0 -8 9 -14 20 -6 11 -7 20 -2 20 6 0 12
-9 15 -20z m1997 1 c0 -6 -4 -13 -10 -16 -5 -3 -10 1 -10 9 0 9 5 16 10 16 6
0 10 -4 10 -9z m-1389 -24 c-10 -9 -11 -8 -5 6 3 10 9 15 12 12 3 -3 0 -11 -7
-18z m-493 -11 c26 4 32 2 32 -13 -1 -45 -22 -49 -93 -19 -34 14 -51 36 -27
36 6 0 10 -4 10 -10 0 -5 5 -10 10 -10 6 0 10 7 10 16 0 12 3 14 13 6 7 -6 27
-9 45 -6z m-498 -40 c0 -12 -6 -31 -14 -41 -13 -18 -14 -15 -13 32 2 40 5 49
15 41 6 -6 12 -20 12 -32z m-123 28 c-3 -3 -12 -4 -19 -1 -8 3 -5 6 6 6 11 1
17 -2 13 -5z m33 -37 c0 -18 -2 -19 -10 -7 -13 20 -13 43 0 35 6 -3 10 -16 10
-28z m2613 -84 c-7 -2 -21 -2 -30 0 -10 3 -4 5 12 5 17 0 24 -2 18 -5z m42 -3
c3 -5 -1 -10 -9 -10 -9 0 -16 5 -16 10 0 6 4 10 9 10 6 0 13 -4 16 -10z
m-2555 -124 c0 -44 -18 -19 -25 34 -6 44 -6 44 9 20 8 -14 15 -38 16 -54z
m2690 64 c0 -5 -9 -14 -20 -20 -15 -8 -20 -8 -20 3 0 8 3 17 7 20 10 10 33 8
33 -3z m-820 -20 c0 -5 -5 -10 -11 -10 -5 0 -7 5 -4 10 3 6 8 10 11 10 2 0 4
-4 4 -10z m-131 -9 c8 -6 24 -6 38 0 29 11 29 10 -2 -57 -14 -30 -25 -61 -25
-68 0 -15 -27 -29 -40 -21 -16 10 -20 -13 -5 -25 13 -11 13 -14 -2 -26 -10 -7
-26 -14 -36 -14 -14 0 -17 5 -11 23 4 12 12 25 18 30 8 5 7 10 -3 16 -14 9 -6
35 9 26 5 -3 10 3 12 12 2 11 12 18 27 18 24 0 51 28 38 41 -3 4 -19 7 -35 8
-29 1 -40 24 -18 38 14 10 18 10 35 -1z m-1042 -68 c-2 -16 -4 -5 -4 22 0 28
2 40 4 28 2 -13 2 -35 0 -50z m-312 48 c3 -5 1 -12 -5 -16 -5 -3 -10 1 -10 9
0 18 6 21 15 7z m47 -35 c-6 -48 -12 -46 -12 5 0 22 4 38 8 35 4 -3 6 -21 4
-40z m1438 13 c0 -5 -4 -9 -10 -9 -5 0 -10 7 -10 16 0 8 5 12 10 9 6 -3 10
-10 10 -16z m591 11 c42 -23 6 -83 -74 -126 -28 -15 -28 -15 -17 6 13 24 6 40
-19 40 -15 0 -20 -11 -26 -55 -5 -46 -10 -55 -27 -55 -11 0 -43 -7 -72 -16
-123 -39 -143 -44 -176 -46 -19 0 -50 -10 -67 -20 -18 -11 -37 -17 -42 -14
-18 11 -33 -22 -25 -56 4 -18 6 -64 6 -102 l-2 -68 35 6 c31 6 35 4 35 -14 0
-21 -16 -28 -22 -9 -2 5 -11 7 -21 4 -12 -5 -17 -18 -17 -44 0 -20 -3 -46 -6
-59 -7 -23 -7 -23 -21 -2 -8 11 -20 20 -27 20 -10 0 -11 12 -5 48 8 55 4 66
-11 27 -6 -15 -13 -25 -16 -22 -9 9 27 117 37 111 5 -3 6 2 3 11 -4 9 -13 13
-24 10 -15 -5 -17 -1 -10 35 7 41 20 66 20 40 0 -11 3 -11 12 -2 9 9 8 17 -2
37 -18 34 0 72 37 81 15 4 53 20 83 35 30 16 63 29 72 29 9 0 21 7 25 15 5 8
30 19 56 24 26 5 56 16 66 25 10 9 25 16 35 16 9 0 38 20 64 44 62 57 99 69
143 46z m-1661 -30 c0 -10 -3 -21 -7 -23 -5 -3 -8 8 -8 23 0 15 3 26 8 23 4
-2 7 -13 7 -23z m1057 -37 c-3 -10 -5 -4 -5 12 0 17 2 24 5 18 2 -7 2 -21 0
-30z m-257 8 c0 -6 -4 -13 -10 -16 -5 -3 -10 1 -10 9 0 9 5 16 10 16 6 0 10
-4 10 -9z m3050 -15 c0 -3 -4 -8 -10 -11 -5 -3 -10 -1 -10 4 0 6 5 11 10 11 6
0 10 -2 10 -4z m-1963 -38 c-3 -8 -6 -5 -6 6 -1 11 2 17 5 13 3 -3 4 -12 1
-19z m-217 -8 c-6 -11 -13 -20 -16 -20 -2 0 0 9 6 20 6 11 13 20 16 20 2 0 0
-9 -6 -20z m-1493 -136 c-3 -3 -12 -4 -19 -1 -8 3 -5 6 6 6 11 1 17 -2 13 -5z
m688 -14 c-27 -12 -35 -12 -35 0 0 6 12 10 28 9 24 0 25 -1 7 -9z m-1552 -77
c30 -11 30 -12 7 -12 -14 -1 -36 -8 -48 -17 -13 -9 -25 -14 -26 -13 -2 2 -1
24 2 48 4 42 5 43 19 25 7 -10 28 -24 46 -31z m1715 -28 c-1 -36 -6 -65 -10
-65 -10 0 -10 22 -2 84 9 66 15 57 12 -19z m216 7 c-4 -20 -13 -42 -20 -50 -8
-7 -18 -21 -23 -30 -7 -13 -13 -14 -22 -5 -9 9 -6 17 10 34 12 13 21 36 21 54
0 37 6 46 26 38 11 -4 13 -15 8 -41z m-1767 -13 c13 -13 7 -35 -19 -61 -29
-29 -23 -45 15 -40 17 3 34 8 37 12 8 12 92 50 110 50 9 0 45 11 79 25 l63 24
-6 -24 c-8 -31 0 -32 24 -2 27 32 35 14 16 -36 -20 -53 -124 -223 -191 -313
-27 -37 -54 -75 -60 -86 -6 -10 -21 -18 -35 -18 -18 0 -21 3 -11 9 9 6 12 18
8 32 -6 23 14 72 34 85 9 5 10 -4 5 -35 -5 -32 -3 -42 6 -39 15 5 118 197 118
220 0 35 -27 6 -65 -70 -37 -75 -39 -76 -46 -47 -3 17 -7 22 -8 13 0 -10 -7
-18 -15 -18 -8 0 -23 -15 -34 -34 -17 -29 -149 -146 -165 -146 -6 0 -27 65
-27 82 0 10 75 48 95 48 28 0 67 33 82 68 14 33 15 33 34 16 10 -9 19 -13 19
-8 0 5 3 20 7 34 3 14 2 22 -2 17 -5 -4 -19 2 -31 14 l-23 22 -29 -25 c-16
-13 -59 -40 -96 -59 -65 -33 -67 -34 -82 -15 -15 21 -19 103 -6 121 4 6 26 23
49 38 26 16 49 41 57 62 8 19 20 35 26 35 6 0 16 14 21 30 11 31 27 38 46 19z
m411 -61 c-4 -33 -50 -170 -63 -186 -5 -6 -35 11 -35 19 0 13 92 209 98 209 2
0 2 -19 0 -42z m168 -28 c10 0 14 -8 12 -22 -2 -15 -9 -22 -20 -20 -10 2 -26
-2 -37 -7 -16 -9 -19 -8 -16 7 2 9 4 20 4 24 1 3 11 4 24 1 21 -4 22 -4 3 11
-11 9 -25 16 -30 17 -6 0 -1 4 12 9 13 6 23 19 24 32 1 13 3 6 5 -14 3 -26 9
-38 19 -38z m1274 -122 c0 -33 -15 -38 -16 -5 -1 12 -4 49 -8 82 l-6 60 15
-55 c8 -30 14 -67 15 -82z m-296 109 c3 3 6 1 6 -6 0 -16 -42 -10 -48 7 -3 11
0 12 16 3 10 -6 22 -7 26 -4z m191 -17 c-3 -5 -11 -10 -16 -10 -6 0 -7 5 -4
10 3 6 11 10 16 10 6 0 7 -4 4 -10z m69 -32 c10 -39 7 -69 -9 -85 -9 -8 -17
-14 -19 -12 -7 8 7 119 14 119 4 0 10 -10 14 -22z m-48 -17 c-16 -55 -27 -103
-25 -114 3 -25 -1 -44 -16 -63 -13 -17 -14 -9 -11 82 1 55 6 106 9 111 11 17
48 3 43 -16z m-259 -3 c-3 -8 -6 -5 -6 6 -1 11 2 17 5 13 3 -3 4 -12 1 -19z
m-1770 -65 c-4 -25 -1 -45 10 -64 13 -22 14 -32 5 -41 -8 -8 -15 -6 -29 9 -10
12 -43 29 -73 38 -94 30 -103 48 -32 64 26 5 58 14 72 20 46 18 53 14 47 -26z
m1833 20 c0 -5 -5 -15 -10 -23 -8 -12 -10 -11 -10 8 0 12 5 22 10 22 6 0 10
-3 10 -7z m-2130 -123 c13 -9 13 -11 0 -20 -22 -14 -50 -12 -50 4 0 12 13 23
30 25 3 0 12 -4 20 -9z m1610 1 c0 -12 -20 -25 -27 -18 -7 7 6 27 18 27 5 0 9
-4 9 -9z m-40 -11 c0 -5 -4 -10 -10 -10 -5 0 -10 5 -10 10 0 6 5 10 10 10 6 0
10 -4 10 -10z m467 -22 c-3 -8 -6 -5 -6 6 -1 11 2 17 5 13 3 -3 4 -12 1 -19z
m-1763 -3 c-6 -16 -31 -19 -59 -9 -23 9 0 24 37 24 20 0 26 -4 22 -15z m2111
-5 c22 -5 65 -12 95 -16 156 -17 309 -64 307 -96 0 -7 1 -24 2 -38 2 -23 3
-24 12 -5 l9 20 -3 -20 c-2 -11 -8 -19 -14 -18 -6 1 -17 -4 -23 -12 -7 -8 -21
-15 -32 -15 -11 0 -22 -9 -25 -20 -7 -25 -73 -46 -85 -27 -6 9 -12 8 -22 -5
-18 -25 -29 -23 -14 2 11 18 10 23 -8 38 -31 24 -17 54 32 69 21 6 32 12 23
12 -25 1 -101 -27 -121 -46 -19 -17 -24 -58 -8 -68 6 -3 9 -18 9 -33 -1 -16
-3 -20 -6 -10 -5 19 -42 35 -52 22 -3 -5 -19 -9 -36 -10 -16 0 -45 -3 -63 -7
-30 -6 -32 -5 -22 13 6 12 16 17 22 14 6 -4 8 -3 4 4 -3 6 10 23 29 39 33 26
65 71 65 90 0 4 -7 -1 -15 -11 -11 -14 -15 -16 -15 -5 -1 9 -7 6 -20 -10 -16
-18 -20 -20 -20 -7 0 13 -6 15 -27 10 -39 -9 -60 -30 -67 -67 -6 -27 -8 -30
-17 -14 -5 9 -14 17 -19 17 -6 0 -11 -8 -11 -17 -1 -16 -2 -16 -6 0 -3 11 3
24 14 32 14 11 16 16 6 26 -11 11 -13 11 -13 0 0 -7 -7 -10 -17 -7 -10 3 -40
8 -68 12 -27 3 -53 8 -57 11 -15 9 -7 -20 13 -49 12 -16 19 -31 16 -34 -2 -3
-21 18 -42 46 -41 55 -53 65 -31 23 19 -36 62 -84 72 -82 23 4 34 -3 34 -20 0
-10 7 -22 16 -25 22 -9 9 -22 -28 -30 -31 -7 -32 -8 -14 -21 31 -23 0 -18 -52
9 -47 24 -122 96 -122 117 0 19 30 68 51 82 11 8 20 23 19 34 -4 34 0 39 43
61 93 46 214 63 302 42z m-2325 -10 c0 -5 -2 -10 -4 -10 -3 0 -8 5 -11 10 -3
6 -1 10 4 10 6 0 11 -4 11 -10z m5035 0 c13 -6 15 -9 5 -9 -8 0 -22 4 -30 9
-18 12 -2 12 25 0z m-3500 -10 c3 -5 1 -10 -4 -10 -6 0 -11 5 -11 10 0 6 2 10
4 10 3 0 8 -4 11 -10z m-1320 -24 c11 -8 16 -21 13 -32 -4 -15 0 -20 18 -22
13 -1 27 6 32 14 7 13 11 14 17 4 4 -7 2 -16 -5 -20 -9 -6 -3 -13 19 -25 31
-16 39 -15 164 11 237 48 441 43 493 -13 13 -14 28 -22 35 -18 20 13 -1 -38
-29 -67 -14 -15 -62 -46 -106 -69 -45 -23 -84 -47 -87 -52 -4 -5 -12 -6 -19
-2 -8 5 -11 4 -7 -2 9 -14 -153 -62 -266 -79 -103 -16 -217 -18 -217 -5 0 4
-32 11 -71 14 -86 7 -143 34 -146 68 -3 23 -3 24 7 2 11 -26 33 -39 84 -49 37
-6 39 -5 33 15 -9 37 21 61 81 63 50 1 52 2 36 20 -28 30 -8 33 74 10 42 -12
86 -23 96 -24 11 -2 21 -9 24 -17 4 -11 -9 -12 -67 -7 -40 4 -79 10 -88 13
-10 4 -14 2 -10 -4 3 -5 32 -16 64 -23 32 -7 63 -17 70 -23 14 -10 53 0 53 14
0 5 9 9 20 9 32 0 23 14 -20 33 -22 9 -40 22 -40 28 0 6 -7 8 -16 5 -20 -8
-70 18 -112 57 -28 27 -35 30 -52 19 -26 -16 -71 -15 -94 3 -15 11 -16 15 -5
15 8 0 23 6 34 13 16 13 15 14 -11 10 -21 -3 -37 2 -57 21 -29 27 -35 41 -14
33 7 -3 21 1 32 9 16 12 16 14 3 14 -23 0 -32 18 -18 35 15 19 31 19 55 1z
m-158 -62 c-3 -3 -12 -4 -19 -1 -8 3 -5 6 6 6 11 1 17 -2 13 -5z m1671 -44
c33 -20 42 -38 20 -37 -44 1 -57 -4 -52 -20 5 -15 4 -16 -5 -3 -12 17 -15 80
-3 80 4 0 22 -9 40 -20z m-313 -19 c-3 -6 3 -14 12 -20 10 -6 14 -11 8 -11 -5
0 -27 -3 -47 -6 -23 -4 -38 -2 -38 5 0 6 7 8 15 5 8 -4 15 -1 15 6 0 6 5 8 10
5 6 -3 10 1 10 9 0 9 5 16 11 16 5 0 8 -4 4 -9z m-1285 -21 c0 -5 -9 -10 -20
-10 -11 0 -20 5 -20 10 0 6 9 10 20 10 11 0 20 -4 20 -10z m2700 -4 c0 -3 -4
-8 -10 -11 -5 -3 -10 -1 -10 4 0 6 5 11 10 11 6 0 10 -2 10 -4z m-2890 -26 c0
-11 -4 -20 -10 -20 -5 0 -10 9 -10 20 0 11 5 20 10 20 6 0 10 -9 10 -20z
m1326 12 c-7 -12 -106 -14 -106 -2 0 5 25 10 56 10 30 0 53 -4 50 -8z m1454
-28 c0 -2 -12 -4 -27 -4 -21 0 -24 3 -14 9 13 8 41 5 41 -5z m-1463 0 c-3 -3
-12 -4 -19 -1 -8 3 -5 6 6 6 11 1 17 -2 13 -5z m61 -21 c-2 -4 -18 -9 -36 -10
-29 -2 -32 0 -21 13 7 8 20 12 30 9 12 -4 19 -1 20 7 0 10 2 10 6 1 2 -7 3
-16 1 -20z m70 -2 c-1 -16 4 -36 11 -45 11 -14 10 -17 -10 -25 -21 -8 -22 -10
-7 -16 31 -13 8 -25 -45 -25 l-52 0 25 20 c14 11 19 20 13 20 -24 0 -13 16 18
27 23 9 30 17 25 28 -3 9 0 22 7 30 17 20 19 19 15 -14z m-240 -16 c21 -29 26
-32 43 -22 14 9 21 9 31 -1 7 -7 16 -8 22 -3 19 15 74 23 81 12 4 -7 -5 -11
-24 -11 -31 0 -58 -29 -43 -46 4 -5 -1 -2 -11 5 -15 12 -20 10 -42 -13 -19
-21 -33 -26 -70 -26 -48 0 -59 16 -30 40 10 9 15 9 15 1 0 -6 5 -11 11 -11 6
0 9 7 5 15 -3 9 0 15 9 15 8 0 15 5 15 10 0 13 -3 13 -37 -2 -33 -13 -61 -11
-79 7 -17 17 -22 39 -9 40 6 1 17 4 25 8 58 22 62 22 88 -18z m1882 20 c0 -8
8 -23 18 -33 34 -34 38 -82 7 -82 -8 0 -16 -9 -20 -19 -3 -11 -15 -23 -25 -26
-10 -3 -21 -14 -24 -23 -7 -22 -56 -46 -56 -28 0 7 11 27 25 46 29 39 31 53
11 73 -17 16 -9 33 19 38 14 3 21 13 23 37 3 31 22 46 22 17z m-1210 -30 c0
-23 -18 -34 -33 -19 -7 7 14 44 25 44 5 0 8 -11 8 -25z m1096 5 c8 0 14 -7 14
-15 0 -8 -4 -15 -10 -15 -5 0 -10 5 -10 11 0 5 -4 7 -10 4 -6 -3 -10 4 -9 17
0 13 3 17 6 11 2 -7 11 -13 19 -13z m-1389 -22 c-3 -8 -6 -5 -6 6 -1 11 2 17
5 13 3 -3 4 -12 1 -19z m727 -20 c-17 -26 -8 -33 46 -39 l55 -6 -67 -1 c-41
-1 -68 -7 -70 -14 -3 -7 -12 -9 -22 -5 -13 5 -15 11 -6 26 5 11 7 26 4 35 -4
11 3 15 28 18 40 4 42 3 32 -14z m902 -5 c-10 -10 -19 5 -10 18 6 11 8 11 12
0 2 -7 1 -15 -2 -18z m-2996 -3 c0 -11 -6 -20 -14 -20 -18 0 -29 16 -21 30 11
18 35 11 35 -10z m859 9 c24 -9 30 -16 26 -30 -4 -13 2 -22 23 -33 16 -8 32
-23 36 -32 5 -13 2 -15 -21 -10 -40 10 -94 39 -93 50 1 5 -4 12 -10 16 -7 4
-9 16 -5 29 8 25 4 24 44 10z m271 1 c0 -5 -2 -10 -4 -10 -3 0 -8 5 -11 10 -3
6 -1 10 4 10 6 0 11 -4 11 -10z m888 -2 c7 -7 12 -16 12 -20 0 -15 -15 -8 -28
12 -13 22 -3 27 16 8z m540 -4 c-9 -9 -21 -13 -27 -10 -20 13 -11 26 16 26 25
0 26 -1 11 -16z m-1848 -58 c0 -35 100 -96 203 -123 87 -23 319 -23 405 0 76
20 72 20 72 4 0 -8 -22 -19 -52 -26 -65 -16 -339 -32 -353 -22 -5 5 -39 14
-75 20 -127 24 -220 83 -220 141 0 18 4 29 10 25 6 -3 10 -12 10 -19z m660 -7
c0 -16 -5 -20 -27 -17 -33 4 -34 20 -1 30 13 3 24 6 26 7 1 1 2 -8 2 -20z
m-77 -19 c-3 -11 -9 -20 -14 -20 -10 0 -12 33 -3 43 12 12 22 -3 17 -23z m457
-18 c0 -13 4 -20 10 -17 6 3 10 2 10 -3 0 -5 -13 -9 -30 -10 -34 -1 -50 -8
-50 -24 0 -7 6 -6 15 2 12 10 15 10 15 0 0 -9 4 -9 17 1 15 13 15 11 -1 -19
-9 -18 -21 -30 -25 -27 -5 3 -12 -2 -15 -11 -4 -10 -2 -13 7 -7 6 4 -5 -9 -25
-29 -20 -21 -39 -47 -43 -58 -6 -20 -8 -20 -25 -5 -16 14 -17 21 -7 39 7 11
16 24 22 28 5 4 6 10 1 15 -4 4 -11 1 -16 -7 -25 -44 -36 -51 -63 -45 -23 6
-25 10 -15 22 11 13 13 13 18 -2 5 -13 12 -8 35 26 43 64 54 82 61 102 3 9 10
17 15 17 13 0 11 -24 -3 -38 -7 -7 -8 -12 -2 -12 6 0 20 17 32 39 24 42 27 56
12 46 -5 -3 -10 -2 -10 4 0 13 43 19 52 6 4 -5 8 -20 8 -33z m-524 27 c4 -8 9
-7 15 2 4 7 11 10 15 6 4 -4 -1 -16 -10 -26 -18 -20 -48 -20 -71 -1 -10 9 -19
9 -32 0 -15 -10 -15 -11 -1 -6 9 2 22 -2 29 -10 14 -17 12 -19 -24 -28 -23 -6
-28 -4 -25 11 3 16 -4 18 -60 16 -47 -2 -63 0 -60 10 3 7 41 16 99 23 52 6 99
12 106 12 6 1 15 -3 19 -9z m-1478 -79 c6 -16 7 -32 3 -35 -5 -2 -11 3 -14 13
-2 9 -8 25 -12 35 -4 9 -3 17 3 17 6 0 15 -13 20 -30z m1663 -33 c-8 -8 -11
-7 -11 4 0 20 13 34 18 19 3 -7 -1 -17 -7 -23z m1073 12 c-3 -5 -10 -7 -15 -3
-5 3 -7 10 -3 15 3 5 10 7 15 3 5 -3 7 -10 3 -15z m-984 -79 c-10 -19 -30 -28
-30 -14 0 6 30 33 38 34 1 0 -2 -9 -8 -20z m1227 -17 c-3 -10 -5 -4 -5 12 0
17 2 24 5 18 2 -7 2 -21 0 -30z m-1617 17 c12 -8 11 -10 -7 -10 -12 0 -25 5
-28 10 -8 13 15 13 35 0z m-490 -10 c0 -5 -7 -10 -15 -10 -8 0 -15 5 -15 10 0
6 7 10 15 10 8 0 15 -4 15 -10z m2071 -38 c-15 -29 1 -36 21 -10 12 16 18 18
18 8 0 -8 -4 -19 -8 -25 -7 -10 -48 -35 -57 -35 -8 0 6 71 18 95 10 18 12 18
15 3 2 -9 -1 -26 -7 -36z m-1397 24 c-7 -18 -73 -70 -80 -63 -7 7 59 76 73 77
7 0 10 -7 7 -14z m476 -31 c-7 -9 -15 -13 -18 -10 -3 2 1 11 8 20 7 9 15 13
18 10 3 -2 -1 -11 -8 -20z m748 -4 c2 -15 0 -21 -7 -17 -6 4 -11 2 -11 -3 0
-6 -4 -11 -9 -11 -11 0 -19 30 -13 48 7 21 37 9 40 -17z m-269 -35 c-6 -25
-16 -43 -21 -40 -5 4 -5 10 0 17 5 7 13 27 17 45 4 18 9 31 11 29 3 -3 0 -25
-7 -51z m-1279 30 c0 -3 -4 -8 -10 -11 -5 -3 -10 -1 -10 4 0 6 5 11 10 11 6 0
10 -2 10 -4z m386 -20 c20 -21 18 -26 -13 -26 -14 0 -23 -3 -19 -7 3 -4 -8
-22 -26 -40 -31 -32 -34 -58 -3 -33 12 10 15 10 15 -4 0 -16 -27 -22 -45 -8
-5 4 -11 20 -12 37 -3 31 26 71 62 85 27 12 25 12 41 -4z m579 -16 c-9 -16
-18 -30 -21 -30 -2 0 2 14 11 30 9 17 18 30 21 30 2 0 -2 -13 -11 -30z m-287
-10 c-5 -17 -15 -33 -21 -37 -5 -3 -7 -2 -4 4 4 6 11 22 16 37 14 36 22 33 9
-4z m531 4 c4 3 13 0 21 -5 11 -7 3 -8 -25 -5 -22 3 -43 5 -47 6 -5 0 -8 4 -8
9 0 5 9 7 20 4 13 -3 20 0 21 8 1 8 3 6 6 -4 2 -9 8 -15 12 -13z m-571 -15
c-17 -26 -98 -75 -98 -60 0 6 12 17 28 23 15 7 37 23 49 35 28 29 40 30 21 2z
m892 -34 c0 -8 -4 -15 -9 -15 -5 0 -11 7 -15 15 -3 9 0 15 9 15 8 0 15 -7 15
-15z m-1160 1 c0 -3 -4 -8 -10 -11 -5 -3 -10 -1 -10 4 0 6 5 11 10 11 6 0 10
-2 10 -4z m810 -15 c0 -21 -50 -39 -71 -25 -8 4 -9 -1 -4 -17 7 -22 7 -22 -9
-6 -10 9 -24 17 -33 17 -13 0 -13 3 -2 16 9 11 22 14 46 9 25 -4 35 -2 39 10
9 22 34 19 34 -4z m-1990 -45 c0 -2 -8 -10 -17 -17 -16 -13 -17 -12 -4 4 13
16 21 21 21 13z m467 -17 c-5 -18 -2 -20 19 -16 30 5 39 -10 25 -44 -5 -13
-10 -18 -10 -10 -1 9 -5 10 -13 4 -25 -20 -58 -22 -67 -5 -10 17 0 43 27 75
20 23 26 22 19 -4z m-86 -2 c-6 -8 -8 -17 -4 -20 3 -4 1 -7 -5 -7 -14 0 -14 2
-6 24 3 9 11 16 16 16 7 0 6 -5 -1 -13z m479 -23 c0 -10 13 -14 40 -14 38 0
40 -2 30 -20 -8 -15 -21 -20 -54 -20 -37 0 -48 5 -70 31 -33 39 -33 47 2 51
30 4 52 -8 52 -28z m-296 20 c9 -3 16 -11 16 -16 0 -6 -6 -8 -14 -5 -8 3 -17
1 -20 -6 -3 -9 -8 -8 -15 3 -20 28 -6 39 33 24z m3666 -15 c0 -5 -4 -9 -8 -9
-5 0 -9 7 -9 15 0 8 4 12 9 9 4 -3 8 -9 8 -15z m-4207 -14 c-3 -9 -8 -14 -10
-11 -3 3 -2 9 2 15 9 16 15 13 8 -4z m1733 -20 c-3 -9 -11 -13 -16 -10 -8 5
-7 11 1 21 14 18 24 11 15 -11z m-778 -23 c6 -18 -15 -14 -22 4 -4 10 -1 14 6
12 6 -2 14 -10 16 -16z m772 -42 c12 -7 12 -12 2 -22 -9 -9 -12 -9 -12 0 0 25
-17 10 -39 -33 -12 -24 -26 -47 -32 -50 -5 -4 -9 -15 -9 -26 0 -10 -4 -19 -9
-19 -5 0 -13 -9 -16 -20 -3 -11 -11 -20 -16 -20 -6 0 -2 15 9 33 11 17 33 57
48 87 41 83 46 88 74 70z m-89 -43 c-20 -20 -22 -21 -15 -2 8 21 25 37 33 29
3 -2 -5 -15 -18 -27z m-1331 3 c0 -5 -4 -10 -10 -10 -5 0 -10 5 -10 10 0 6 5
10 10 10 6 0 10 -4 10 -10z m1443 -5 c-3 -9 -8 -14 -10 -11 -3 3 -2 9 2 15 9
16 15 13 8 -4z m-773 -11 c0 -8 -4 -12 -10 -9 -5 3 -10 10 -10 16 0 5 5 9 10
9 6 0 10 -7 10 -16z m734 -6 c-9 -29 -35 -70 -41 -64 -5 5 35 86 43 86 3 0 2
-10 -2 -22z m-94 -16 c0 -5 -7 -17 -16 -28 -8 -10 -14 -14 -11 -9 2 6 7 18 10
28 7 17 17 23 17 9z m-698 -20 c4 -13 -1 -18 -18 -20 -18 -1 -24 3 -24 18 0
26 36 27 42 2z m2028 8 c0 -5 -2 -10 -4 -10 -3 0 -8 5 -11 10 -3 6 -1 10 4 10
6 0 11 -4 11 -10z m-2090 -10 c0 -5 -5 -10 -11 -10 -5 0 -7 5 -4 10 3 6 8 10
11 10 2 0 4 -4 4 -10z m890 -20 c0 -5 -5 -10 -11 -10 -5 0 -7 5 -4 10 3 6 8
10 11 10 2 0 4 -4 4 -10z m2237 4 c-3 -3 -12 -4 -19 -1 -8 3 -5 6 6 6 11 1 17
-2 13 -5z m-3139 -22 c9 9 12 8 12 -4 0 -22 -22 -28 -43 -13 -23 16 -22 28 1
16 13 -7 23 -6 30 1z m725 -9 c-3 -10 -14 -30 -24 -44 -10 -14 -21 -38 -25
-53 -3 -15 -9 -25 -12 -22 -3 3 -11 -2 -19 -12 -27 -35 -1 21 40 86 41 64 51
75 40 45z m-603 -18 c0 -8 -2 -15 -4 -15 -2 0 -6 7 -10 15 -3 8 -1 15 4 15 6
0 10 -7 10 -15z m-75 -4 c3 -5 1 -12 -5 -16 -5 -3 -10 1 -10 9 0 18 6 21 15 7z
m738 -36 c-3 -9 -8 -14 -10 -11 -3 3 -2 9 2 15 9 16 15 13 8 -4z m-19 -40 c-4
-8 -8 -15 -10 -15 -2 0 -4 7 -4 15 0 8 4 15 10 15 5 0 7 -7 4 -15z m-564 0 c0
-2 -10 -9 -22 -15 -22 -11 -22 -10 -4 4 21 17 26 19 26 11z m-104 -15 c19 -7
30 -7 40 1 11 9 14 7 14 -10 0 -26 -25 -38 -44 -22 -7 6 -21 9 -29 5 -15 -5
-47 16 -47 30 0 9 36 7 66 -4z m21 -66 c-9 -9 -28 6 -21 18 4 6 10 6 17 -1 6
-6 8 -13 4 -17z m604 3 c-10 -9 -11 -8 -5 6 3 10 9 15 12 12 3 -3 0 -11 -7
-18z m2586 -17 c-6 -22 -15 -40 -19 -40 -4 0 -8 -7 -8 -15 0 -8 -4 -15 -10
-15 -5 0 -10 -7 -10 -15 0 -8 -4 -15 -10 -15 -5 0 -7 -6 -4 -13 3 -8 -2 -19
-9 -26 -12 -9 -16 -7 -21 14 -4 14 -11 25 -16 25 -16 0 -11 19 10 37 11 10 20
24 20 31 0 17 57 72 75 72 9 0 10 -9 2 -40z m588 0 c3 -5 1 -10 -4 -10 -6 0
-11 5 -11 10 0 6 2 10 4 10 3 0 8 -4 11 -10z m-3900 -22 c-11 -6 -37 -24 -58
-41 -39 -30 -56 -33 -34 -5 13 18 85 58 102 58 5 0 1 -6 -10 -12z m804 -30
c-7 -13 -14 -18 -16 -11 -3 7 1 22 8 35 7 13 14 18 16 11 3 -7 -1 -22 -8 -35z
m3148 26 c-3 -3 -12 -4 -19 -1 -8 3 -5 6 6 6 11 1 17 -2 13 -5z m-3275 -61
c-3 -16 -7 -22 -10 -15 -4 13 4 42 11 42 2 0 2 -12 -1 -27z m71 12 c-3 -9 -8
-14 -10 -11 -3 3 -2 9 2 15 9 16 15 13 8 -4z m-42 -27 c-4 -17 -12 -33 -20
-36 -9 -3 -10 0 -2 14 5 11 12 27 15 37 9 29 14 19 7 -15z m-861 -43 c-13 -14
-28 -25 -34 -25 -11 1 40 50 51 50 4 0 -4 -11 -17 -25z"/>
<path d="M2241 3264 c-21 -27 -28 -54 -13 -54 4 0 12 10 17 23 9 20 16 22 78
20 37 -1 67 0 67 4 0 16 -40 32 -82 33 -39 0 -50 -4 -67 -26z"/>
<path d="M2500 3275 c-11 -13 -3 -15 64 -13 74 3 77 2 101 -27 13 -16 24 -25
25 -18 0 6 -12 25 -26 42 -24 29 -31 31 -89 31 -44 0 -66 -5 -75 -15z"/>
<path d="M2247 3205 c-16 -11 -16 -15 -2 -48 10 -24 24 -38 46 -46 28 -10 37
-8 66 11 42 30 37 44 -15 40 -37 -3 -43 -1 -51 21 -13 33 -23 38 -44 22z"/>
<path d="M2620 3184 c-12 -22 -20 -25 -57 -23 -53 4 -62 -5 -32 -30 41 -34
104 -23 135 25 17 25 17 27 -1 40 -26 19 -30 18 -45 -12z"/>
<path d="M2370 3011 c0 -16 50 -50 65 -45 7 3 16 12 19 20 3 8 14 14 25 14 11
0 23 5 26 10 4 6 -8 10 -28 10 -25 0 -36 -6 -43 -21 l-9 -20 -28 21 c-15 12
-27 17 -27 11z"/>
<path d="M2368 2927 c-43 -10 -46 -19 -18 -64 29 -48 113 -67 169 -38 24 12
51 57 51 85 0 20 -145 32 -202 17z m140 -26 c12 -7 11 -14 -2 -40 -13 -24 -23
-31 -45 -31 -37 0 -62 10 -56 20 3 5 -5 16 -17 25 -16 11 -19 18 -11 23 17 11
115 13 131 3z"/>
<path d="M1368 2775 c-4 -4 -2 -18 3 -32 5 -14 7 -42 4 -62 -6 -34 -5 -35 9
-17 15 18 16 18 16 2 0 -33 24 -10 39 36 14 45 11 78 -8 78 -5 0 -13 -21 -19
-47 -8 -39 -10 -42 -11 -17 -1 32 -22 69 -33 59z"/>
<path d="M2321 1433 c-30 -8 -64 -21 -75 -29 -20 -13 -19 -14 11 -14 18 0 35
5 38 10 10 16 35 12 29 -5 -5 -11 -2 -14 12 -9 14 5 12 0 -8 -22 -22 -23 -25
-33 -16 -42 15 -15 58 -16 58 -2 0 6 9 10 20 10 11 0 20 6 20 14 0 21 28 39
47 31 16 -6 16 -8 -4 -16 -30 -11 -29 -19 2 -17 14 1 25 6 25 11 0 4 14 13 31
19 21 7 28 15 24 26 -8 21 14 33 38 20 10 -5 22 -7 25 -3 11 11 -22 25 -45 20
-12 -3 -25 -1 -28 5 -9 15 -141 10 -204 -7z m121 -25 c-15 -15 -26 -4 -18 18
5 13 9 15 18 6 9 -9 9 -15 0 -24z"/>
<path d="M2838 1333 c6 -2 18 -2 25 0 6 3 1 5 -13 5 -14 0 -19 -2 -12 -5z"/>
<path d="M859 1221 c-19 -16 -20 -20 -8 -21 17 0 45 27 37 35 -3 3 -16 -3 -29
-14z"/>
<path d="M1020 1180 c-13 -8 -13 -10 2 -10 9 0 20 5 23 10 8 13 -5 13 -25 0z"/>
<path d="M882 1158 c-7 -7 -12 -18 -12 -25 0 -15 51 -10 100 10 l25 10 -25 7
c-39 12 -75 11 -88 -2z"/>
<path d="M444 1122 c-6 -4 -13 -17 -16 -29 -5 -17 -2 -23 10 -23 12 0 17 9 17
30 0 17 0 30 0 30 0 0 -5 -4 -11 -8z"/>
<path d="M1385 1120 c-3 -5 -4 -10 -1 -10 2 0 11 -3 20 -6 11 -4 16 -1 16 10
0 18 -25 22 -35 6z"/>
<path d="M3260 1140 c0 -5 5 -10 10 -10 6 0 10 5 10 10 0 6 -4 10 -10 10 -5 0
-10 -4 -10 -10z"/>
<path d="M2045 940 c-3 -5 -2 -10 4 -10 5 0 13 5 16 10 3 6 2 10 -4 10 -5 0
-13 -4 -16 -10z"/>
<path d="M0 4110 l0 -112 56 4 c77 7 89 21 62 76 -12 23 -44 65 -70 93 l-48
51 0 -112z"/>
<path d="M3706 3781 c-4 -6 -3 -19 3 -28 9 -17 10 -17 17 0 8 21 -10 45 -20
28z"/>
<path d="M4510 3681 c0 -6 5 -13 10 -16 6 -3 10 1 10 9 0 9 -4 16 -10 16 -5 0
-10 -4 -10 -9z"/>
<path d="M4761 3613 c-18 -20 -6 -29 14 -10 8 9 12 18 8 20 -5 3 -14 -2 -22
-10z"/>
<path d="M4811 3564 c0 -11 3 -14 6 -6 3 7 2 16 -1 19 -3 4 -6 -2 -5 -13z"/>
<path d="M4315 3247 c-29 -11 -46 -37 -25 -37 6 0 10 -4 10 -10 0 -5 -7 -7
-15 -4 -23 9 -18 -10 9 -35 15 -14 30 -20 37 -16 7 5 10 4 6 -2 -4 -6 6 -16
23 -22 25 -8 39 -7 73 8 23 11 65 26 92 34 54 15 129 12 118 -6 -4 -7 0 -8 11
-4 10 4 22 7 27 7 5 0 9 5 9 10 0 6 -11 10 -24 10 -14 0 -28 4 -31 10 -7 11
-89 35 -160 46 l-50 8 50 7 c41 5 34 6 -40 7 -49 0 -103 -5 -120 -11z m229
-56 c3 -5 -1 -12 -10 -15 -25 -10 -34 -7 -34 9 0 16 35 21 44 6z"/>
<path d="M4550 3242 c14 -5 40 -17 58 -26 18 -10 39 -15 45 -13 15 6 -54 36
-96 42 -28 4 -29 4 -7 -3z"/>
<path d="M5101 3194 c0 -11 3 -14 6 -6 3 7 2 16 -1 19 -3 4 -6 -2 -5 -13z"/>
<path d="M4355 3090 c-22 -35 68 -55 138 -30 l52 19 -55 1 c-55 2 -65 3 -106
15 -13 4 -25 2 -29 -5z"/>
<path d="M4016 2751 c-11 -12 -16 -24 -12 -29 14 -14 183 -4 215 13 39 20 42
40 4 30 -31 -9 -32 -9 -123 1 -58 6 -67 4 -84 -15z"/>
<path d="M4420 2745 c-1 -5 -2 -13 -1 -17 0 -4 -6 -5 -14 -2 -20 8 -19 3 10
-35 25 -35 97 -76 126 -72 9 1 26 -10 37 -24 16 -20 21 -22 26 -10 3 8 1 15
-5 15 -6 0 -7 5 -4 11 9 14 -50 69 -73 69 -11 0 -30 10 -44 23 -14 13 -30 21
-36 19 -5 -1 -12 5 -15 15 -3 10 -6 14 -7 8z"/>
<path d="M4646 2674 c-3 -9 -3 -20 0 -25 3 -6 -5 -7 -20 -3 -16 4 -26 2 -26
-5 0 -6 9 -11 19 -11 11 0 22 -4 26 -10 3 -5 12 -7 20 -4 9 4 25 -7 41 -25 28
-34 44 -39 44 -16 0 8 3 15 8 15 7 0 33 72 27 78 -1 2 -19 4 -38 5 -20 2 -39
6 -43 10 -4 4 -14 -2 -21 -13 -16 -22 -35 -18 -26 5 3 8 3 15 0 15 -3 0 -8 -7
-11 -16z"/>
<path d="M3627 2515 c3 -8 9 -12 14 -9 12 7 11 11 -5 17 -10 4 -13 1 -9 -8z"/>
<path d="M3690 2500 c0 -5 5 -10 10 -10 6 0 10 5 10 10 0 6 -4 10 -10 10 -5 0
-10 -4 -10 -10z"/>
<path d="M3713 2482 c-8 -5 -9 -13 -3 -22 11 -17 23 -8 18 14 -2 9 -8 12 -15
8z"/>
<path d="M3802 2385 c0 -16 2 -22 5 -12 2 9 2 23 0 30 -3 6 -5 -1 -5 -18z"/>
<path d="M3836 2385 c-3 -8 -1 -15 4 -15 6 0 10 7 10 15 0 8 -2 15 -4 15 -2 0
-6 -7 -10 -15z"/>
<path d="M160 2351 c0 -6 5 -13 10 -16 6 -3 10 1 10 9 0 9 -4 16 -10 16 -5 0
-10 -4 -10 -9z"/>
<path d="M4950 2309 c0 -5 5 -7 10 -4 6 3 10 8 10 11 0 2 -4 4 -10 4 -5 0 -10
-5 -10 -11z"/>
<path d="M1801 2198 c-10 -27 -6 -38 14 -38 21 0 37 34 23 48 -18 18 -28 15
-37 -10z"/>
<path d="M1700 2185 c-10 -11 -10 -19 -2 -27 15 -15 44 -2 40 19 -4 23 -22 27
-38 8z"/>
<path d="M1839 2143 c-33 -54 -80 -154 -77 -165 2 -5 27 37 57 92 52 100 65
147 20 73z"/>
<path d="M1718 2120 c-21 -20 -38 -41 -38 -47 0 -6 -7 -14 -15 -17 -9 -3 -23
-22 -31 -41 -14 -34 -45 -48 -59 -25 -3 6 -11 10 -16 10 -16 0 0 -61 23 -90
l20 -25 -7 27 c-5 21 -3 27 15 33 15 5 26 0 41 -19 26 -33 73 -35 89 -5 7 11
9 23 6 26 -3 3 -8 -2 -12 -11 -8 -20 -48 -21 -68 0 -9 8 -16 19 -16 22 0 12
40 85 78 140 19 28 33 54 31 56 -2 2 -21 -13 -41 -34z"/>
<path d="M1856 1976 c-15 -35 -36 -72 -47 -82 -25 -22 -24 -38 1 -24 20 11 63
92 75 143 12 46 -1 30 -29 -37z"/>
<path d="M1 1943 c-1 -17 4 -35 10 -38 19 -13 23 5 6 38 l-16 32 0 -32z"/>
<path d="M3964 1934 c3 -8 6 -22 6 -30 0 -8 5 -14 10 -14 17 0 11 47 -6 54
-12 5 -15 2 -10 -10z"/>
<path d="M4005 1938 c-2 -7 -3 -24 -2 -38 0 -14 -2 -37 -6 -51 -5 -19 -3 -29
8 -33 12 -4 15 6 14 64 -1 68 -5 84 -14 58z"/>
<path d="M5220 1941 c0 -5 9 -7 20 -4 11 3 20 7 20 9 0 2 -9 4 -20 4 -11 0
-20 -4 -20 -9z"/>
<path d="M1650 1820 c0 -5 15 -10 33 -10 24 0 28 3 17 10 -20 13 -50 13 -50 0z"/>
<path d="M1391 1740 c-2 -22 -3 -23 -10 -6 -5 12 -10 15 -14 9 -7 -12 20 -40
29 -30 3 3 4 16 1 29 -4 23 -4 23 -6 -2z"/>
<path d="M1423 1558 c2 -7 0 -21 -5 -31 -13 -25 18 -35 40 -13 14 14 14 17 2
14 -9 -2 -16 6 -18 20 -2 12 -8 22 -14 22 -5 0 -8 -6 -5 -12z"/>
<path d="M1297 1534 c-9 -9 4 -35 14 -28 5 3 9 12 9 20 0 14 -12 19 -23 8z"/>
<path d="M4074 1525 c11 -8 22 -12 25 -9 6 6 -19 24 -34 24 -5 -1 -1 -7 9 -15z"/>
<path d="M1260 1490 c0 -5 5 -10 10 -10 6 0 10 5 10 10 0 6 -4 10 -10 10 -5 0
-10 -4 -10 -10z"/>
<path d="M1260 1460 c-13 -8 -12 -10 3 -10 9 0 17 5 17 10 0 12 -1 12 -20 0z"/>
<path d="M4001 1208 c2 -55 3 -58 8 -23 l6 40 14 -33 c19 -45 30 -49 42 -13
14 40 27 39 32 -1 2 -20 4 -11 5 25 1 31 -2 57 -6 57 -4 0 -17 -19 -29 -42
l-20 -43 -21 48 c-11 26 -23 47 -26 47 -3 0 -5 -28 -5 -62z"/>
<path d="M4452 1213 c-2 -61 -1 -63 23 -63 14 0 25 5 25 10 0 6 -9 10 -19 10
-17 0 -21 8 -24 53 l-3 52 -2 -62z"/>
<path d="M4348 1248 c-2 -6 -1 -29 2 -52 4 -31 10 -41 25 -44 19 -3 19 -2 3
11 -22 17 -23 53 -3 64 12 7 12 10 -5 20 -13 9 -20 9 -22 1z"/>
<path d="M5070 1227 c0 -15 23 -75 50 -132 28 -57 50 -111 50 -120 0 -8 5 -15
11 -15 6 0 9 -7 5 -15 -3 -8 -1 -15 4 -15 5 0 14 -16 21 -35 7 -19 17 -35 21
-35 5 0 8 -8 6 -17 -2 -11 3 -18 14 -18 10 0 23 -6 30 -13 8 -8 8 -12 1 -12
-6 0 -14 6 -16 13 -3 7 -6 6 -6 -5 -1 -9 4 -20 10 -23 6 -4 8 -13 5 -20 -2 -7
3 -21 12 -32 9 -10 24 -27 32 -38 14 -19 14 -19 -5 -4 -17 14 -65 32 -65 25 0
-10 40 -46 50 -46 7 0 10 -8 7 -20 -3 -11 -1 -18 4 -15 4 3 18 -5 30 -19 12
-14 26 -23 31 -20 4 3 8 59 8 125 0 94 -3 119 -12 113 -10 -6 -9 -3 0 9 20 24
11 61 -15 65 -13 2 -23 10 -23 18 0 8 -4 14 -9 14 -13 0 -61 45 -61 57 0 5
-16 26 -35 46 -19 20 -35 42 -35 47 0 6 -7 10 -15 10 -8 0 -15 6 -15 13 0 6
-14 28 -30 47 -16 19 -30 40 -30 45 0 6 -7 19 -15 29 -14 19 -15 19 -15 -7z"/>
<path d="M4142 1228 c-16 -16 -15 -53 2 -68 18 -15 58 -10 64 8 3 11 0 12 -14
4 -21 -10 -44 -6 -44 9 0 5 16 9 35 9 22 0 35 5 35 13 0 19 -21 37 -45 37 -12
0 -26 -5 -33 -12z m56 -15 c2 -8 -6 -13 -22 -13 -25 0 -33 10 -19 24 10 10 36
3 41 -11z"/>
<path d="M4242 1228 c-16 -16 -15 -53 1 -67 7 -6 28 -9 45 -8 31 2 32 4 32 45
0 41 -1 42 -33 42 -18 0 -38 -5 -45 -12z m56 -31 c3 -23 0 -27 -22 -27 -21 0
-26 5 -26 23 0 13 3 27 7 31 15 14 38 0 41 -27z"/>
<path d="M4520 1220 c-15 -29 -3 -59 26 -66 30 -8 54 11 54 40 0 46 -59 64
-80 26z m59 -4 c15 -18 3 -46 -20 -46 -22 0 -34 22 -25 45 7 19 30 19 45 1z"/>
<path d="M4628 1195 c9 -25 21 -44 26 -42 12 4 48 87 37 87 -4 0 -15 -15 -23
-32 l-16 -33 -12 33 c-7 17 -16 32 -20 32 -5 0 -2 -20 8 -45z"/>
<path d="M4717 1234 c-11 -12 -8 -59 5 -72 16 -16 43 -15 58 3 11 13 8 14 -18
9 -17 -4 -32 -1 -36 5 -5 7 5 11 29 11 32 0 36 3 33 23 -2 16 -11 23 -33 25
-17 2 -34 0 -38 -4z m51 -22 c2 -7 -6 -12 -17 -12 -21 0 -27 11 -14 24 9 9 26
2 31 -12z"/>
<path d="M4810 1195 c0 -25 5 -45 10 -45 6 0 10 16 10 35 0 22 6 38 18 44 14
9 13 10 -10 11 -26 0 -28 -3 -28 -45z"/>
<path d="M2236 961 c-14 -27 -14 -27 14 -23 20 3 28 9 27 23 -2 30 -26 31 -41
0z"/>
<path d="M3330 955 c-7 -9 -8 -15 -2 -15 5 0 12 7 16 15 3 8 4 15 2 15 -2 0
-9 -7 -16 -15z"/>
<path d="M3390 955 c-7 -9 -8 -15 -2 -15 5 0 12 7 16 15 3 8 4 15 2 15 -2 0
-9 -7 -16 -15z"/>
<path d="M3480 939 c0 -5 5 -7 10 -4 6 3 10 8 10 11 0 2 -4 4 -10 4 -5 0 -10
-5 -10 -11z"/>
<path d="M3657 919 c7 -7 15 -10 18 -7 3 3 -2 9 -12 12 -14 6 -15 5 -6 -5z"/>
<path d="M1770 860 c0 -5 5 -10 11 -10 5 0 7 5 4 10 -3 6 -8 10 -11 10 -2 0
-4 -4 -4 -10z"/>
<path d="M1167 854 c-12 -13 -8 -22 14 -27 15 -4 19 -1 17 10 -3 18 -21 27
-31 17z"/>
<path d="M2208 835 c-3 -14 -2 -25 2 -25 4 0 10 11 12 25 3 14 2 25 -2 25 -4
0 -10 -11 -12 -25z"/>
<path d="M1074 829 c-3 -6 -1 -16 5 -22 9 -9 14 -8 21 3 9 15 4 30 -10 30 -5
0 -12 -5 -16 -11z"/>
<path d="M987 824 c-9 -10 2 -24 19 -24 8 0 14 7 14 15 0 15 -21 21 -33 9z"/>
<path d="M1261 794 c0 -11 3 -14 6 -6 3 7 2 16 -1 19 -3 4 -6 -2 -5 -13z"/>
<path d="M2227 803 c-4 -3 -7 -11 -7 -17 0 -6 5 -5 12 2 6 6 9 14 7 17 -3 3
-9 2 -12 -2z"/>
<path d="M910 785 c0 -8 7 -15 15 -15 8 0 15 7 15 15 0 8 -7 15 -15 15 -8 0
-15 -7 -15 -15z"/>
<path d="M3166 765 c-11 -17 -44 -58 -74 -91 -33 -37 -56 -73 -58 -89 -2 -15
-9 -35 -17 -44 -19 -22 -28 -49 -17 -56 9 -5 50 41 50 57 0 5 39 47 88 93 77
76 85 86 70 98 -9 7 -18 24 -20 37 l-3 24 -19 -29z"/>
<path d="M840 770 c0 -5 5 -10 10 -10 6 0 10 5 10 10 0 6 -4 10 -10 10 -5 0
-10 -4 -10 -10z"/>
<path d="M1020 769 c0 -5 5 -7 10 -4 6 3 10 8 10 11 0 2 -4 4 -10 4 -5 0 -10
-5 -10 -11z"/>
<path d="M1500 765 c0 -8 5 -15 10 -15 6 0 10 7 10 15 0 8 -4 15 -10 15 -5 0
-10 -7 -10 -15z"/>
<path d="M30 759 c-26 -5 -15 -7 40 -8 134 -3 239 -41 255 -91 4 -11 4 -35 0
-53 l-6 -32 17 29 c17 30 14 77 -8 103 -33 40 -201 70 -298 52z"/>
<path d="M780 740 c0 -5 5 -10 10 -10 6 0 10 5 10 10 0 6 -4 10 -10 10 -5 0
-10 -4 -10 -10z"/>
<path d="M2153 733 c-3 -7 -3 -17 1 -20 3 -4 0 -13 -8 -22 -8 -9 -15 -20 -16
-26 -2 -5 -6 -20 -11 -33 -12 -30 -12 -31 7 -28 21 3 32 23 27 50 -3 13 2 28
11 36 14 11 16 10 10 -6 -3 -10 3 -4 15 14 26 40 26 39 -5 45 -16 3 -28 0 -31
-10z"/>
<path d="M1442 728 c3 -7 12 -14 21 -16 12 -2 15 1 11 12 -7 19 -38 22 -32 4z"/>
<path d="M2127 733 c-4 -3 -7 -11 -7 -17 0 -6 5 -5 12 2 6 6 9 14 7 17 -3 3
-9 2 -12 -2z"/>
<path d="M5228 733 c7 -3 16 -2 19 1 4 3 -2 6 -13 5 -11 0 -14 -3 -6 -6z"/>
<path d="M820 720 c0 -5 5 -10 10 -10 6 0 10 5 10 10 0 6 -4 10 -10 10 -5 0
-10 -4 -10 -10z"/>
<path d="M130 699 c0 -4 23 -16 51 -26 59 -21 94 -66 87 -113 -3 -17 -3 -30
-2 -30 8 0 34 61 34 79 0 24 -51 76 -76 78 -11 1 -36 6 -56 11 -21 5 -38 6
-38 1z"/>
<path d="M710 694 c0 -9 5 -14 12 -12 18 6 21 28 4 28 -9 0 -16 -7 -16 -16z"/>
<path d="M3476 673 c-6 -14 -5 -15 5 -6 7 7 10 15 7 18 -3 3 -9 -2 -12 -12z"/>
<path d="M1490 670 c0 -5 5 -10 10 -10 6 0 10 5 10 10 0 6 -4 10 -10 10 -5 0
-10 -4 -10 -10z"/>
<path d="M670 650 c0 -5 5 -10 11 -10 5 0 7 5 4 10 -3 6 -8 10 -11 10 -2 0 -4
-4 -4 -10z"/>
<path d="M1760 647 c0 -18 -27 -73 -58 -117 l-24 -35 31 35 c31 35 71 102 71
120 0 6 -4 10 -10 10 -5 0 -10 -6 -10 -13z"/>
<path d="M625 627 c-4 -10 -5 -21 -1 -24 10 -10 18 4 13 24 -4 17 -4 17 -12 0z"/>
<path d="M755 630 c-3 -5 -1 -10 4 -10 6 0 11 5 11 10 0 6 -2 10 -4 10 -3 0
-8 -4 -11 -10z"/>
<path d="M2551 624 c-1 -11 40 -44 54 -44 3 0 0 9 -7 20 -7 11 -18 18 -25 16
-6 -3 -14 0 -17 7 -3 8 -5 8 -5 1z"/>
<path d="M2090 568 c-12 -22 -12 -22 6 -6 10 10 15 20 12 24 -4 3 -12 -5 -18
-18z"/>
<path d="M203 548 c3 -12 2 -30 -4 -40 -6 -11 -6 -18 0 -18 5 0 12 7 15 16 10
26 7 64 -5 64 -7 0 -9 -9 -6 -22z"/>
<path d="M2003 558 c-8 -15 -15 -48 -9 -48 2 0 9 14 15 30 10 31 8 39 -6 18z"/>
<path d="M2954 519 c-19 -22 -19 -22 4 -10 12 6 22 16 22 21 0 15 -5 12 -26
-11z"/>
<path d="M2940 483 c-14 -3 -38 -17 -53 -31 -27 -25 -29 -26 -41 -9 -12 16
-14 15 -20 -14 -3 -17 -10 -28 -16 -24 -6 4 -7 11 -4 17 15 23 -33 -13 -77
-59 -36 -37 -48 -59 -54 -93 -16 -98 -16 -117 0 -130 17 -14 21 -35 4 -24 -24
14 11 -34 50 -69 21 -19 37 -37 35 -40 -3 -2 43 -5 101 -5 76 -1 105 2 105 11
0 9 2 9 8 -1 6 -9 14 -4 30 17 12 16 35 32 51 36 17 3 31 14 34 25 3 11 17 25
32 32 22 10 31 9 58 -7 l32 -18 -19 21 c-10 12 -27 24 -37 27 -25 8 -24 27 1
50 11 10 19 23 18 29 0 6 4 24 10 39 7 16 12 34 12 41 0 7 7 21 15 32 17 22
20 48 5 39 -14 -9 -54 -85 -60 -115 -3 -14 -15 -29 -28 -35 -12 -5 -22 -18
-22 -27 0 -10 -5 -18 -11 -18 -7 0 -9 10 -7 25 4 17 0 29 -11 35 -14 8 -13 11
7 16 12 3 22 12 22 18 0 7 11 23 25 36 14 13 25 31 25 39 0 10 -14 2 -38 -24
-20 -22 -34 -36 -29 -31 11 15 9 48 -3 41 -6 -4 -8 -11 -5 -16 4 -5 0 -9 -8
-9 -8 0 -17 -6 -20 -14 -4 -9 -14 -12 -29 -9 -18 4 -20 3 -12 -6 9 -10 -3 -28
-50 -75 -33 -34 -68 -72 -76 -85 -11 -16 -22 -22 -40 -19 l-25 4 28 12 c15 6
27 18 27 27 0 8 5 15 10 15 6 0 10 5 10 10 0 7 -6 7 -17 2 -19 -10 -57 0 -68
18 -4 7 6 8 36 4 31 -5 40 -4 35 4 -4 7 -17 12 -30 12 -31 0 -55 29 -58 70 -1
19 -8 44 -15 55 -16 23 -17 35 -3 35 6 0 10 -5 10 -11 0 -6 7 -18 17 -27 13
-13 15 -13 11 -2 -9 25 21 69 57 84 19 8 35 22 35 30 0 9 9 16 19 16 26 0 51
10 51 21 0 5 -3 8 -7 8 -5 -1 -19 -4 -33 -6z m-202 -197 c3 -12 -1 -17 -10
-14 -7 3 -15 13 -16 22 -3 12 1 17 10 14 7 -3 15 -13 16 -22z m-21 -46 c0 -16
-4 -30 -9 -30 -12 0 -21 27 -14 45 9 25 23 17 23 -15z m63 7 c0 -16 -27 -54
-33 -47 -2 3 -8 16 -11 30 l-7 25 14 -24 c12 -20 15 -21 21 -6 3 9 4 21 0 26
-3 5 0 9 5 9 6 0 11 -6 11 -13z m290 -27 c0 -5 -5 -10 -11 -10 -5 0 -7 5 -4
10 3 6 8 10 11 10 2 0 4 -4 4 -10z m-36 -39 c-21 -21 -29 -19 -21 4 4 8 14 15
23 15 16 0 16 -2 -2 -19z m-194 -41 c0 -5 -2 -10 -4 -10 -3 0 -8 5 -11 10 -3
6 -1 10 4 10 6 0 11 -4 11 -10z m92 -12 c-7 -7 -12 -8 -12 -2 0 14 12 26 19
19 2 -3 -1 -11 -7 -17z m-82 -98 c0 -5 -5 -10 -11 -10 -5 0 -7 5 -4 10 3 6 8
10 11 10 2 0 4 -4 4 -10z"/>
<path d="M1295 470 c-3 -6 1 -7 9 -4 18 7 21 14 7 14 -6 0 -13 -4 -16 -10z"/>
<path d="M1348 456 c4 -15 7 -17 10 -6 3 8 10 18 16 22 6 4 1 6 -10 6 -16 -2
-20 -7 -16 -22z"/>
<path d="M2102 459 c-7 -11 -11 -23 -9 -25 7 -7 29 24 25 36 -2 6 -9 1 -16
-11z"/>
<path d="M1991 413 c-15 -33 -13 -42 4 -19 8 11 15 16 15 10 0 -9 20 17 20 27
0 16 -30 2 -39 -18z"/>
<path d="M2071 397 c-13 -21 -12 -21 5 -5 10 10 16 20 13 22 -3 3 -11 -5 -18
-17z"/>
<path d="M2016 374 c-4 -9 -4 -19 -1 -22 2 -3 7 3 11 12 4 9 4 19 1 22 -2 3
-7 -3 -11 -12z"/>
<path d="M864 304 c0 -41 3 -74 7 -74 16 0 31 43 27 75 -3 24 0 31 9 28 8 -3
13 3 13 16 0 14 -5 19 -15 15 -8 -4 -21 -2 -28 4 -10 9 -13 -5 -13 -64z"/>
<path d="M670 355 c-11 -13 -10 -14 4 -9 9 3 16 10 16 15 0 13 -6 11 -20 -6z"/>
<path d="M609 344 c-7 -9 -23 -20 -36 -25 -15 -5 -23 -17 -23 -31 0 -33 -14
-50 -33 -42 -13 5 -17 0 -17 -17 -1 -13 -7 -35 -15 -49 -17 -29 -20 -80 -5
-80 6 0 10 5 10 10 0 20 3 25 21 38 11 7 19 19 19 27 0 8 14 34 30 58 17 25
30 49 30 54 0 5 13 23 29 41 17 18 24 32 17 32 -8 0 -20 -7 -27 -16z"/>
<path d="M2947 343 c-4 -3 -7 -11 -7 -17 0 -6 5 -5 12 2 6 6 9 14 7 17 -3 3
-9 2 -12 -2z"/>
<path d="M510 309 c0 -5 5 -7 10 -4 6 3 10 8 10 11 0 2 -4 4 -10 4 -5 0 -10
-5 -10 -11z"/>
<path d="M640 300 c-19 -14 -22 -22 -13 -31 8 -8 15 -5 28 15 22 34 17 40 -15
16z"/>
<path d="M1976 293 c-6 -14 -5 -15 5 -6 7 7 10 15 7 18 -3 3 -9 -2 -12 -12z"/>
<path d="M284 286 c-10 -8 -15 -18 -11 -22 4 -4 15 0 24 9 22 21 12 31 -13 13z"/>
<path d="M1907 293 c-4 -3 -7 -11 -7 -17 0 -6 5 -5 12 2 6 6 9 14 7 17 -3 3
-9 2 -12 -2z"/>
<path d="M770 255 c-7 -9 -11 -17 -9 -20 3 -2 10 5 17 15 14 24 10 26 -8 5z"/>
<path d="M340 250 c0 -12 35 -31 44 -23 15 15 4 33 -19 33 -14 0 -25 -4 -25
-10z"/>
<path d="M420 240 c-8 -5 -11 -12 -7 -16 4 -4 15 0 24 9 18 18 8 23 -17 7z"/>
<path d="M1060 230 c0 -5 6 -10 14 -10 8 0 18 5 21 10 3 6 -3 10 -14 10 -12 0
-21 -4 -21 -10z"/>
<path d="M720 219 c0 -5 5 -7 10 -4 6 3 10 8 10 11 0 2 -4 4 -10 4 -5 0 -10
-5 -10 -11z"/>
<path d="M1322 218 c-16 -16 -15 -28 3 -28 8 0 15 2 15 4 0 2 3 11 6 20 7 19
-7 21 -24 4z"/>
<path d="M5326 215 c7 -17 20 -20 28 -6 3 5 -1 12 -10 15 -22 9 -24 8 -18 -9z"/>
<path d="M160 200 c-30 -26 -22 -32 13 -10 16 10 24 20 19 24 -5 3 -20 -3 -32
-14z"/>
<path d="M575 185 c-9 -20 -14 -39 -11 -42 3 -3 12 12 21 32 8 21 13 40 10 43
-2 3 -12 -12 -20 -33z"/>
<path d="M270 195 c0 -9 5 -15 11 -13 6 2 11 8 11 13 0 5 -5 11 -11 13 -6 2
-11 -4 -11 -13z"/>
<path d="M425 197 c-10 -12 -9 -57 1 -57 14 0 36 32 27 38 -5 4 -12 12 -14 19
-3 8 -6 8 -14 0z"/>
<path d="M3201 189 c-13 -5 -22 -11 -20 -13 7 -7 59 6 59 15 0 11 -8 11 -39
-2z"/>
<path d="M5220 186 c0 -10 4 -15 9 -11 5 3 12 -3 14 -12 4 -15 5 -15 6 -2 0 9
-6 22 -14 29 -12 10 -15 9 -15 -4z"/>
<path d="M356 171 c-4 -7 -5 -15 -2 -18 9 -9 19 4 14 18 -4 11 -6 11 -12 0z"/>
<path d="M375 150 c-4 -7 -1 -16 6 -21 17 -10 26 8 11 23 -6 6 -12 6 -17 -2z"/>
<path d="M285 140 c-3 -5 1 -10 9 -10 9 0 16 5 16 10 0 6 -4 10 -9 10 -6 0
-13 -4 -16 -10z"/>
<path d="M890 139 c0 -14 81 -32 92 -21 6 6 7 15 4 20 -7 12 -96 13 -96 1z"/>
<path d="M1050 131 c0 -12 6 -21 15 -21 8 0 15 4 15 9 0 5 -7 14 -15 21 -13
10 -15 9 -15 -9z"/>
<path d="M804 108 c4 -28 1 -38 -10 -38 -8 0 -14 -7 -14 -16 0 -8 4 -13 9 -10
5 3 12 -5 15 -19 5 -20 13 -25 37 -25 28 0 31 2 25 24 -3 14 -2 28 4 31 17 10
11 32 -10 38 -14 4 -20 0 -20 -12 0 -39 -16 -30 -27 16 -11 40 -12 42 -9 11z"/>
<path d="M1664 118 c-12 -13 -18 -33 -16 -46 4 -27 27 -24 28 4 0 10 6 29 12
42 7 12 9 22 4 22 -5 0 -17 -10 -28 -22z"/>
<path d="M190 116 c0 -10 9 -16 21 -16 24 0 21 23 -4 28 -10 2 -17 -3 -17 -12z"/>
<path d="M123 113 c-18 -6 -16 -33 1 -33 19 0 31 19 20 30 -5 4 -15 5 -21 3z"/>
<path d="M521 98 c-14 -23 -14 -23 8 -4 22 20 25 26 13 26 -4 0 -13 -10 -21
-22z"/>
<path d="M1537 90 l-28 -18 29 -21 c32 -22 47 -27 37 -12 -3 5 -1 12 5 16 14
9 12 55 -2 54 -7 0 -26 -9 -41 -19z"/>
<path d="M298 86 c-22 -16 -23 -36 -3 -36 12 0 35 28 35 44 0 10 -14 6 -32 -8z"/>
<path d="M3165 91 c-3 -5 -1 -12 5 -16 5 -3 10 1 10 9 0 18 -6 21 -15 7z"/>
<path d="M376 76 c10 -8 15 -18 11 -22 -4 -5 -12 -3 -16 4 -6 9 -15 6 -34 -14
-15 -14 -25 -30 -22 -34 9 -14 88 -9 109 7 21 15 21 15 -6 11 -25 -5 -26 -3
-21 29 5 29 3 33 -18 33 -22 0 -22 0 -3 -14z"/>
<path d="M420 81 c0 -15 12 -41 19 -41 3 0 7 11 7 25 1 15 -3 25 -12 25 -8 0
-14 -4 -14 -9z"/>
<path d="M60 60 c0 -5 5 -10 10 -10 6 0 10 5 10 10 0 6 -4 10 -10 10 -5 0 -10
-4 -10 -10z"/>
<path d="M3156 45 c-3 -8 -1 -15 4 -15 6 0 10 7 10 15 0 8 -2 15 -4 15 -2 0
-6 -7 -10 -15z"/>
<path d="M1090 40 c0 -5 5 -10 11 -10 5 0 7 5 4 10 -3 6 -8 10 -11 10 -2 0 -4
-4 -4 -10z"/>
<path d="M1583 25 c-10 -22 -9 -25 7 -25 11 0 19 9 22 25 7 33 -13 33 -29 0z"/>
<path d="M115 29 c-4 -6 -4 -13 -1 -16 8 -8 36 5 36 17 0 13 -27 13 -35 -1z"/>
<path d="M214 29 c-11 -18 13 -34 31 -19 8 7 15 16 15 21 0 13 -38 11 -46 -2z"/>
<path d="M1032 20 c0 -14 2 -19 5 -12 2 6 2 18 0 25 -3 6 -5 1 -5 -13z"/>
<path d="M1650 20 c-6 -11 -8 -20 -6 -20 3 0 10 9 16 20 6 11 8 20 6 20 -3 0
-10 -9 -16 -20z"/>
<path d="M3206 24 c-8 -22 -8 -24 8 -24 15 0 28 24 19 34 -11 10 -21 7 -27
-10z"/>
<path d="M3285 20 c-19 -8 -19 -9 2 -9 12 -1 25 4 28 9 7 12 -2 12 -30 0z"/>
<path d="M55 10 c-3 -5 -2 -10 4 -10 5 0 13 5 16 10 3 6 2 10 -4 10 -5 0 -13
-4 -16 -10z"/>
<path d="M1470 10 c0 -5 5 -10 10 -10 6 0 10 5 10 10 0 6 -4 10 -10 10 -5 0
-10 -4 -10 -10z"/>
</g>
</svg>
