<svg width="345" height="255" viewBox="0 0 345 255" fill="none" xmlns="http://www.w3.org/2000/svg">
<g clip-path="url(#clip0_46_469)">
<rect width="345" height="255" rx="33" fill="#333333"/>
<path d="M38.32 77L33.34 68.45H30.04V77H27.31V56.09H34.06C35.64 56.09 36.97 56.36 38.05 56.9C39.15 57.44 39.97 58.17 40.51 59.09C41.05 60.01 41.32 61.06 41.32 62.24C41.32 63.68 40.9 64.95 40.06 66.05C39.24 67.15 38 67.88 36.34 68.24L41.59 77H38.32ZM30.04 66.26H34.06C35.54 66.26 36.65 65.9 37.39 65.18C38.13 64.44 38.5 63.46 38.5 62.24C38.5 61 38.13 60.04 37.39 59.36C36.67 58.68 35.56 58.34 34.06 58.34H30.04V66.26ZM60.562 68.15C60.562 68.67 60.532 69.22 60.472 69.8H47.332C47.432 71.42 47.982 72.69 48.982 73.61C50.002 74.51 51.232 74.96 52.672 74.96C53.852 74.96 54.832 74.69 55.612 74.15C56.412 73.59 56.972 72.85 57.292 71.93H60.232C59.792 73.51 58.912 74.8 57.592 75.8C56.272 76.78 54.632 77.27 52.672 77.27C51.112 77.27 49.712 76.92 48.472 76.22C47.252 75.52 46.292 74.53 45.592 73.25C44.892 71.95 44.542 70.45 44.542 68.75C44.542 67.05 44.882 65.56 45.562 64.28C46.242 63 47.192 62.02 48.412 61.34C49.652 60.64 51.072 60.29 52.672 60.29C54.232 60.29 55.612 60.63 56.812 61.31C58.012 61.99 58.932 62.93 59.572 64.13C60.232 65.31 60.562 66.65 60.562 68.15ZM57.742 67.58C57.742 66.54 57.512 65.65 57.052 64.91C56.592 64.15 55.962 63.58 55.162 63.2C54.382 62.8 53.512 62.6 52.552 62.6C51.172 62.6 49.992 63.04 49.012 63.92C48.052 64.8 47.502 66.02 47.362 67.58H57.742ZM67.4955 62.81V72.5C67.4955 73.3 67.6655 73.87 68.0055 74.21C68.3455 74.53 68.9355 74.69 69.7755 74.69H71.7855V77H69.3255C67.8055 77 66.6655 76.65 65.9055 75.95C65.1455 75.25 64.7655 74.1 64.7655 72.5V62.81H62.6355V60.56H64.7655V56.42H67.4955V60.56H71.7855V62.81H67.4955ZM74.0732 68.72C74.0732 67.04 74.4132 65.57 75.0932 64.31C75.7732 63.03 76.7032 62.04 77.8832 61.34C79.0832 60.64 80.4132 60.29 81.8732 60.29C83.3132 60.29 84.5632 60.6 85.6232 61.22C86.6832 61.84 87.4732 62.62 87.9932 63.56V60.56H90.7532V77H87.9932V73.94C87.4532 74.9 86.6432 75.7 85.5632 76.34C84.5032 76.96 83.2632 77.27 81.8432 77.27C80.3832 77.27 79.0632 76.91 77.8832 76.19C76.7032 75.47 75.7732 74.46 75.0932 73.16C74.4132 71.86 74.0732 70.38 74.0732 68.72ZM87.9932 68.75C87.9932 67.51 87.7432 66.43 87.2432 65.51C86.7432 64.59 86.0632 63.89 85.2032 63.41C84.3632 62.91 83.4332 62.66 82.4132 62.66C81.3932 62.66 80.4632 62.9 79.6232 63.38C78.7832 63.86 78.1132 64.56 77.6132 65.48C77.1132 66.4 76.8632 67.48 76.8632 68.72C76.8632 69.98 77.1132 71.08 77.6132 72.02C78.1132 72.94 78.7832 73.65 79.6232 74.15C80.4632 74.63 81.3932 74.87 82.4132 74.87C83.4332 74.87 84.3632 74.63 85.2032 74.15C86.0632 73.65 86.7432 72.94 87.2432 72.02C87.7432 71.08 87.9932 69.99 87.9932 68.75ZM98.0966 63.23C98.5766 62.29 99.2566 61.56 100.137 61.04C101.037 60.52 102.127 60.26 103.407 60.26V63.08H102.687C99.6266 63.08 98.0966 64.74 98.0966 68.06V77H95.3666V60.56H98.0966V63.23ZM113.338 60.29C114.758 60.29 115.998 60.6 117.058 61.22C118.138 61.84 118.938 62.62 119.458 63.56V60.56H122.218V77.36C122.218 78.86 121.898 80.19 121.258 81.35C120.618 82.53 119.698 83.45 118.498 84.11C117.318 84.77 115.938 85.1 114.358 85.1C112.198 85.1 110.398 84.59 108.958 83.57C107.518 82.55 106.668 81.16 106.408 79.4H109.108C109.408 80.4 110.028 81.2 110.968 81.8C111.908 82.42 113.038 82.73 114.358 82.73C115.858 82.73 117.078 82.26 118.018 81.32C118.978 80.38 119.458 79.06 119.458 77.36V73.91C118.918 74.87 118.118 75.67 117.058 76.31C115.998 76.95 114.758 77.27 113.338 77.27C111.878 77.27 110.548 76.91 109.348 76.19C108.168 75.47 107.238 74.46 106.558 73.16C105.878 71.86 105.538 70.38 105.538 68.72C105.538 67.04 105.878 65.57 106.558 64.31C107.238 63.03 108.168 62.04 109.348 61.34C110.548 60.64 111.878 60.29 113.338 60.29ZM119.458 68.75C119.458 67.51 119.208 66.43 118.708 65.51C118.208 64.59 117.528 63.89 116.668 63.41C115.828 62.91 114.898 62.66 113.878 62.66C112.858 62.66 111.928 62.9 111.088 63.38C110.248 63.86 109.578 64.56 109.078 65.48C108.578 66.4 108.328 67.48 108.328 68.72C108.328 69.98 108.578 71.08 109.078 72.02C109.578 72.94 110.248 73.65 111.088 74.15C111.928 74.63 112.858 74.87 113.878 74.87C114.898 74.87 115.828 74.63 116.668 74.15C117.528 73.65 118.208 72.94 118.708 72.02C119.208 71.08 119.458 69.99 119.458 68.75ZM141.831 68.15C141.831 68.67 141.801 69.22 141.741 69.8H128.601C128.701 71.42 129.251 72.69 130.251 73.61C131.271 74.51 132.501 74.96 133.941 74.96C135.121 74.96 136.101 74.69 136.881 74.15C137.681 73.59 138.241 72.85 138.561 71.93H141.501C141.061 73.51 140.181 74.8 138.861 75.8C137.541 76.78 135.901 77.27 133.941 77.27C132.381 77.27 130.981 76.92 129.741 76.22C128.521 75.52 127.561 74.53 126.861 73.25C126.161 71.95 125.811 70.45 125.811 68.75C125.811 67.05 126.151 65.56 126.831 64.28C127.511 63 128.461 62.02 129.681 61.34C130.921 60.64 132.341 60.29 133.941 60.29C135.501 60.29 136.881 60.63 138.081 61.31C139.281 61.99 140.201 62.93 140.841 64.13C141.501 65.31 141.831 66.65 141.831 68.15ZM139.011 67.58C139.011 66.54 138.781 65.65 138.321 64.91C137.861 64.15 137.231 63.58 136.431 63.2C135.651 62.8 134.781 62.6 133.821 62.6C132.441 62.6 131.261 63.04 130.281 63.92C129.321 64.8 128.771 66.02 128.631 67.58H139.011ZM148.765 62.81V72.5C148.765 73.3 148.935 73.87 149.275 74.21C149.615 74.53 150.205 74.69 151.045 74.69H153.055V77H150.595C149.075 77 147.935 76.65 147.175 75.95C146.415 75.25 146.035 74.1 146.035 72.5V62.81H143.905V60.56H146.035V56.42H148.765V60.56H153.055V62.81H148.765Z" fill="white"/>
<path fill-rule="evenodd" clip-rule="evenodd" d="M584.333 195.667C584.333 401.667 399.483 607.667 172.333 607.667C-54.816 607.667 -239.667 422.816 -239.667 195.667C-239.667 -31.4827 -54.816 -216.333 172.333 -216.333V-79L515.667 -285L172.333 -491V-353.667C-131.036 -353.667 -377 -107.703 -377 195.667C-377 499.036 -131.036 745 172.333 745C475.703 745 721.667 539 721.667 195.667H584.333Z" fill="#4CAF50"/>
<path fill-rule="evenodd" clip-rule="evenodd" d="M298.26 144.563C308.267 172.059 293.602 208.535 263.283 219.57C232.965 230.605 199.312 214.912 188.277 184.594C177.242 154.275 192.935 120.622 223.253 109.587L229.925 127.918L265.743 83.7428L209.91 72.9265L216.581 91.2569C176.089 105.995 155.209 150.774 169.947 191.266C184.684 231.757 229.463 252.638 269.955 237.9C310.447 223.162 333.269 183.718 316.59 137.892L298.26 144.563Z" fill="#4CAF50"/>
</g>
<defs>
<clipPath id="clip0_46_469">
<rect width="345" height="255" rx="33" fill="white"/>
</clipPath>
</defs>
</svg>
