<svg width="345" height="255" viewBox="0 0 345 255" fill="none" xmlns="http://www.w3.org/2000/svg">
<g clip-path="url(#clip0_40_459)">
<rect width="345" height="255" rx="33" fill="#333333"/>
<path d="M38.32 77L33.34 68.45H30.04V77H27.31V56.09H34.06C35.64 56.09 36.97 56.36 38.05 56.9C39.15 57.44 39.97 58.17 40.51 59.09C41.05 60.01 41.32 61.06 41.32 62.24C41.32 63.68 40.9 64.95 40.06 66.05C39.24 67.15 38 67.88 36.34 68.24L41.59 77H38.32ZM30.04 66.26H34.06C35.54 66.26 36.65 65.9 37.39 65.18C38.13 64.44 38.5 63.46 38.5 62.24C38.5 61 38.13 60.04 37.39 59.36C36.67 58.68 35.56 58.34 34.06 58.34H30.04V66.26ZM60.562 68.15C60.562 68.67 60.532 69.22 60.472 69.8H47.332C47.432 71.42 47.982 72.69 48.982 73.61C50.002 74.51 51.232 74.96 52.672 74.96C53.852 74.96 54.832 74.69 55.612 74.15C56.412 73.59 56.972 72.85 57.292 71.93H60.232C59.792 73.51 58.912 74.8 57.592 75.8C56.272 76.78 54.632 77.27 52.672 77.27C51.112 77.27 49.712 76.92 48.472 76.22C47.252 75.52 46.292 74.53 45.592 73.25C44.892 71.95 44.542 70.45 44.542 68.75C44.542 67.05 44.882 65.56 45.562 64.28C46.242 63 47.192 62.02 48.412 61.34C49.652 60.64 51.072 60.29 52.672 60.29C54.232 60.29 55.612 60.63 56.812 61.31C58.012 61.99 58.932 62.93 59.572 64.13C60.232 65.31 60.562 66.65 60.562 68.15ZM57.742 67.58C57.742 66.54 57.512 65.65 57.052 64.91C56.592 64.15 55.962 63.58 55.162 63.2C54.382 62.8 53.512 62.6 52.552 62.6C51.172 62.6 49.992 63.04 49.012 63.92C48.052 64.8 47.502 66.02 47.362 67.58H57.742ZM67.4955 62.81V72.5C67.4955 73.3 67.6655 73.87 68.0055 74.21C68.3455 74.53 68.9355 74.69 69.7755 74.69H71.7855V77H69.3255C67.8055 77 66.6655 76.65 65.9055 75.95C65.1455 75.25 64.7655 74.1 64.7655 72.5V62.81H62.6355V60.56H64.7655V56.42H67.4955V60.56H71.7855V62.81H67.4955ZM74.0732 68.72C74.0732 67.04 74.4132 65.57 75.0932 64.31C75.7732 63.03 76.7032 62.04 77.8832 61.34C79.0832 60.64 80.4132 60.29 81.8732 60.29C83.3132 60.29 84.5632 60.6 85.6232 61.22C86.6832 61.84 87.4732 62.62 87.9932 63.56V60.56H90.7532V77H87.9932V73.94C87.4532 74.9 86.6432 75.7 85.5632 76.34C84.5032 76.96 83.2632 77.27 81.8432 77.27C80.3832 77.27 79.0632 76.91 77.8832 76.19C76.7032 75.47 75.7732 74.46 75.0932 73.16C74.4132 71.86 74.0732 70.38 74.0732 68.72ZM87.9932 68.75C87.9932 67.51 87.7432 66.43 87.2432 65.51C86.7432 64.59 86.0632 63.89 85.2032 63.41C84.3632 62.91 83.4332 62.66 82.4132 62.66C81.3932 62.66 80.4632 62.9 79.6232 63.38C78.7832 63.86 78.1132 64.56 77.6132 65.48C77.1132 66.4 76.8632 67.48 76.8632 68.72C76.8632 69.98 77.1132 71.08 77.6132 72.02C78.1132 72.94 78.7832 73.65 79.6232 74.15C80.4632 74.63 81.3932 74.87 82.4132 74.87C83.4332 74.87 84.3632 74.63 85.2032 74.15C86.0632 73.65 86.7432 72.94 87.2432 72.02C87.7432 71.08 87.9932 69.99 87.9932 68.75ZM98.0966 63.23C98.5766 62.29 99.2566 61.56 100.137 61.04C101.037 60.52 102.127 60.26 103.407 60.26V63.08H102.687C99.6266 63.08 98.0966 64.74 98.0966 68.06V77H95.3666V60.56H98.0966V63.23ZM113.338 60.29C114.758 60.29 115.998 60.6 117.058 61.22C118.138 61.84 118.938 62.62 119.458 63.56V60.56H122.218V77.36C122.218 78.86 121.898 80.19 121.258 81.35C120.618 82.53 119.698 83.45 118.498 84.11C117.318 84.77 115.938 85.1 114.358 85.1C112.198 85.1 110.398 84.59 108.958 83.57C107.518 82.55 106.668 81.16 106.408 79.4H109.108C109.408 80.4 110.028 81.2 110.968 81.8C111.908 82.42 113.038 82.73 114.358 82.73C115.858 82.73 117.078 82.26 118.018 81.32C118.978 80.38 119.458 79.06 119.458 77.36V73.91C118.918 74.87 118.118 75.67 117.058 76.31C115.998 76.95 114.758 77.27 113.338 77.27C111.878 77.27 110.548 76.91 109.348 76.19C108.168 75.47 107.238 74.46 106.558 73.16C105.878 71.86 105.538 70.38 105.538 68.72C105.538 67.04 105.878 65.57 106.558 64.31C107.238 63.03 108.168 62.04 109.348 61.34C110.548 60.64 111.878 60.29 113.338 60.29ZM119.458 68.75C119.458 67.51 119.208 66.43 118.708 65.51C118.208 64.59 117.528 63.89 116.668 63.41C115.828 62.91 114.898 62.66 113.878 62.66C112.858 62.66 111.928 62.9 111.088 63.38C110.248 63.86 109.578 64.56 109.078 65.48C108.578 66.4 108.328 67.48 108.328 68.72C108.328 69.98 108.578 71.08 109.078 72.02C109.578 72.94 110.248 73.65 111.088 74.15C111.928 74.63 112.858 74.87 113.878 74.87C114.898 74.87 115.828 74.63 116.668 74.15C117.528 73.65 118.208 72.94 118.708 72.02C119.208 71.08 119.458 69.99 119.458 68.75ZM141.831 68.15C141.831 68.67 141.801 69.22 141.741 69.8H128.601C128.701 71.42 129.251 72.69 130.251 73.61C131.271 74.51 132.501 74.96 133.941 74.96C135.121 74.96 136.101 74.69 136.881 74.15C137.681 73.59 138.241 72.85 138.561 71.93H141.501C141.061 73.51 140.181 74.8 138.861 75.8C137.541 76.78 135.901 77.27 133.941 77.27C132.381 77.27 130.981 76.92 129.741 76.22C128.521 75.52 127.561 74.53 126.861 73.25C126.161 71.95 125.811 70.45 125.811 68.75C125.811 67.05 126.151 65.56 126.831 64.28C127.511 63 128.461 62.02 129.681 61.34C130.921 60.64 132.341 60.29 133.941 60.29C135.501 60.29 136.881 60.63 138.081 61.31C139.281 61.99 140.201 62.93 140.841 64.13C141.501 65.31 141.831 66.65 141.831 68.15ZM139.011 67.58C139.011 66.54 138.781 65.65 138.321 64.91C137.861 64.15 137.231 63.58 136.431 63.2C135.651 62.8 134.781 62.6 133.821 62.6C132.441 62.6 131.261 63.04 130.281 63.92C129.321 64.8 128.771 66.02 128.631 67.58H139.011ZM148.765 62.81V72.5C148.765 73.3 148.935 73.87 149.275 74.21C149.615 74.53 150.205 74.69 151.045 74.69H153.055V77H150.595C149.075 77 147.935 76.65 147.175 75.95C146.415 75.25 146.035 74.1 146.035 72.5V62.81H143.905V60.56H146.035V56.42H148.765V60.56H153.055V62.81H148.765Z" fill="white"/>
<g clip-path="url(#clip1_40_459)">
<path d="M259.076 86.466C258.412 85.6677 258.338 85.5438 258.856 86.0942C258.439 85.7069 257.998 85.3465 257.535 85.0153C258.176 85.3509 258.059 85.2956 257.182 84.8492C255.168 83.8409 258.226 84.9118 256.041 84.4275C254.24 84.028 254.999 84.1967 253.183 84.4716C253.894 84.3231 253.773 84.392 252.82 84.6777C250.65 85.4424 253.661 83.9739 251.707 85.2992C250.909 85.9635 250.785 86.0369 251.335 85.5193C250.948 85.936 250.588 86.3771 250.257 86.8398C250.592 86.1987 250.537 86.3165 250.091 87.1931C249.082 89.207 250.153 86.1493 249.669 88.3338C249.27 90.1344 249.439 89.3759 249.713 91.1921C249.565 90.4806 249.633 90.6019 249.919 91.555C250.684 93.7251 249.215 90.714 250.54 92.6676C251.205 93.466 251.278 93.5898 250.761 93.0396C251.178 93.4267 251.619 93.787 252.081 94.1183C251.44 93.7827 251.558 93.8379 252.435 94.2843C254.449 95.2926 251.391 94.2218 253.575 94.7059C255.376 95.1058 254.618 94.9368 256.434 94.662C255.723 94.8105 255.843 94.7419 256.797 94.4563C258.966 93.6913 255.956 95.1598 257.909 93.8348C258.707 93.1701 258.831 93.0969 258.281 93.6144C258.668 93.1977 259.029 92.7567 259.36 92.2939C259.025 92.9348 259.08 92.8171 259.526 91.9402C260.534 89.9267 259.464 92.9841 259.948 90.7999C260.347 88.999 260.178 89.7575 259.903 87.9412C260.052 88.6527 259.983 88.5317 259.697 87.5787C258.933 85.4087 260.401 88.4199 259.076 86.466C253.153 77.7322 266.401 68.065 272.344 76.8265C279.12 86.8171 277.08 99.6952 267.548 107.102C258.023 114.505 244.318 111.372 237.273 102.307C229.87 92.7815 233.003 79.0766 242.068 72.0315C251.594 64.6283 265.299 67.7615 272.344 76.8265C278.84 85.1858 265.552 94.7987 259.076 86.466Z" fill="black"/>
<path d="M202.154 188.996C201.32 187.848 200.722 186.546 200.393 185.164C200.065 183.782 200.013 182.348 200.24 180.942C200.467 179.537 200.97 178.188 201.718 176.973C202.466 175.758 203.446 174.701 204.602 173.861C205.757 173.022 207.066 172.417 208.452 172.08C209.839 171.744 211.277 171.683 212.684 171.901C214.091 172.12 215.439 172.612 216.652 173.352C217.865 174.091 218.918 175.063 219.752 176.211C220.586 177.359 221.185 178.661 221.513 180.043C221.841 181.425 221.894 182.859 221.666 184.265C221.439 185.67 220.937 187.019 220.189 188.234C219.44 189.449 218.46 190.506 217.305 191.346C216.149 192.185 214.841 192.79 213.454 193.127C212.067 193.463 210.63 193.524 209.223 193.306C207.816 193.087 206.467 192.595 205.255 191.855C204.042 191.116 202.988 190.144 202.154 188.996Z" fill="black"/>
<path d="M228.812 169.628C227.128 167.309 226.439 164.412 226.898 161.574C227.357 158.736 228.926 156.189 231.26 154.493C233.593 152.798 236.501 152.093 239.342 152.533C242.183 152.974 244.726 154.524 246.41 156.843C248.095 159.161 248.783 162.058 248.324 164.897C247.865 167.735 246.297 170.282 243.963 171.978C241.629 173.673 238.722 174.378 235.881 173.937C233.04 173.497 230.497 171.947 228.812 169.628Z" fill="black"/>
<path d="M255.471 150.26C253.786 147.941 253.098 145.044 253.557 142.206C254.015 139.368 255.584 136.821 257.918 135.125C260.252 133.43 263.159 132.725 266 133.165C268.841 133.606 271.384 135.156 273.068 137.475C274.753 139.793 275.441 142.69 274.983 145.529C274.524 148.367 272.955 150.914 270.621 152.61C268.288 154.305 265.38 155.01 262.539 154.569C259.698 154.129 257.155 152.579 255.471 150.26Z" fill="black"/>
<path d="M277.315 132.296C269.372 121.542 257.951 114.535 244.761 112.347C231.644 110.17 218.396 113.57 207.636 121.26C196.824 128.987 189.852 140.771 187.688 153.813C185.511 166.93 188.911 180.178 196.601 190.938C202.748 199.538 189.485 209.184 183.333 200.577C164.71 174.52 167.042 137.435 190.124 114.78C213.688 91.6521 250.67 89.136 277.15 108.89C282.276 112.714 286.791 117.524 290.582 122.657C296.867 131.167 283.595 140.8 277.315 132.296Z" fill="black"/>
<path d="M198.463 193.5C206.405 204.254 217.826 211.261 231.017 213.45C244.134 215.626 257.382 212.227 268.141 204.537C278.954 196.809 285.926 185.026 288.09 171.983C290.266 158.866 286.866 145.618 279.177 134.858C273.03 126.258 286.293 116.612 292.444 125.219C311.067 151.276 308.735 188.362 285.653 211.017C262.089 234.146 225.107 236.66 198.627 216.905C193.502 213.082 188.986 208.272 185.196 203.14C178.911 194.629 192.183 184.997 198.463 193.5Z" fill="#4CAF40"/>
</g>
</g>
<defs>
<clipPath id="clip0_40_459">
<rect width="345" height="255" rx="33" fill="white"/>
</clipPath>
<clipPath id="clip1_40_459">
<rect width="149" height="149" fill="white" transform="matrix(0.809017 -0.587785 -0.587785 -0.809017 224.58 262.124)"/>
</clipPath>
</defs>
</svg>
