<svg width="345" height="255" viewBox="0 0 345 255" fill="none" xmlns="http://www.w3.org/2000/svg">
<g clip-path="url(#clip0_53_459)">
<rect width="345" height="255" rx="33" fill="#333333"/>
<path d="M33.94 77.21C32.56 77.21 31.32 76.97 30.22 76.49C29.14 75.99 28.29 75.31 27.67 74.45C27.05 73.57 26.73 72.56 26.71 71.42H29.62C29.72 72.4 30.12 73.23 30.82 73.91C31.54 74.57 32.58 74.9 33.94 74.9C35.24 74.9 36.26 74.58 37 73.94C37.76 73.28 38.14 72.44 38.14 71.42C38.14 70.62 37.92 69.97 37.48 69.47C37.04 68.97 36.49 68.59 35.83 68.33C35.17 68.07 34.28 67.79 33.16 67.49C31.78 67.13 30.67 66.77 29.83 66.41C29.01 66.05 28.3 65.49 27.7 64.73C27.12 63.95 26.83 62.91 26.83 61.61C26.83 60.47 27.12 59.46 27.7 58.58C28.28 57.7 29.09 57.02 30.13 56.54C31.19 56.06 32.4 55.82 33.76 55.82C35.72 55.82 37.32 56.31 38.56 57.29C39.82 58.27 40.53 59.57 40.69 61.19H37.69C37.59 60.39 37.17 59.69 36.43 59.09C35.69 58.47 34.71 58.16 33.49 58.16C32.35 58.16 31.42 58.46 30.7 59.06C29.98 59.64 29.62 60.46 29.62 61.52C29.62 62.28 29.83 62.9 30.25 63.38C30.69 63.86 31.22 64.23 31.84 64.49C32.48 64.73 33.37 65.01 34.51 65.33C35.89 65.71 37 66.09 37.84 66.47C38.68 66.83 39.4 67.4 40 68.18C40.6 68.94 40.9 69.98 40.9 71.3C40.9 72.32 40.63 73.28 40.09 74.18C39.55 75.08 38.75 75.81 37.69 76.37C36.63 76.93 35.38 77.21 33.94 77.21ZM59.9174 68.15C59.9174 68.67 59.8874 69.22 59.8274 69.8H46.6874C46.7874 71.42 47.3374 72.69 48.3374 73.61C49.3574 74.51 50.5874 74.96 52.0274 74.96C53.2074 74.96 54.1874 74.69 54.9674 74.15C55.7674 73.59 56.3274 72.85 56.6474 71.93H59.5874C59.1474 73.51 58.2674 74.8 56.9474 75.8C55.6274 76.78 53.9874 77.27 52.0274 77.27C50.4674 77.27 49.0674 76.92 47.8274 76.22C46.6074 75.52 45.6474 74.53 44.9474 73.25C44.2474 71.95 43.8974 70.45 43.8974 68.75C43.8974 67.05 44.2374 65.56 44.9174 64.28C45.5974 63 46.5474 62.02 47.7674 61.34C49.0074 60.64 50.4274 60.29 52.0274 60.29C53.5874 60.29 54.9674 60.63 56.1674 61.31C57.3674 61.99 58.2874 62.93 58.9274 64.13C59.5874 65.31 59.9174 66.65 59.9174 68.15ZM57.0974 67.58C57.0974 66.54 56.8674 65.65 56.4074 64.91C55.9474 64.15 55.3174 63.58 54.5174 63.2C53.7374 62.8 52.8674 62.6 51.9074 62.6C50.5274 62.6 49.3474 63.04 48.3674 63.92C47.4074 64.8 46.8574 66.02 46.7174 67.58H57.0974ZM70.3009 60.29C71.7209 60.29 72.9609 60.6 74.0209 61.22C75.1009 61.84 75.9009 62.62 76.4209 63.56V60.56H79.1809V77.36C79.1809 78.86 78.8609 80.19 78.2209 81.35C77.5809 82.53 76.6609 83.45 75.4609 84.11C74.2809 84.77 72.9009 85.1 71.3209 85.1C69.1609 85.1 67.3609 84.59 65.9209 83.57C64.4809 82.55 63.6309 81.16 63.3709 79.4H66.0709C66.3709 80.4 66.9909 81.2 67.9309 81.8C68.8709 82.42 70.0009 82.73 71.3209 82.73C72.8209 82.73 74.0409 82.26 74.9809 81.32C75.9409 80.38 76.4209 79.06 76.4209 77.36V73.91C75.8809 74.87 75.0809 75.67 74.0209 76.31C72.9609 76.95 71.7209 77.27 70.3009 77.27C68.8409 77.27 67.5109 76.91 66.3109 76.19C65.1309 75.47 64.2009 74.46 63.5209 73.16C62.8409 71.86 62.5009 70.38 62.5009 68.72C62.5009 67.04 62.8409 65.57 63.5209 64.31C64.2009 63.03 65.1309 62.04 66.3109 61.34C67.5109 60.64 68.8409 60.29 70.3009 60.29ZM76.4209 68.75C76.4209 67.51 76.1709 66.43 75.6709 65.51C75.1709 64.59 74.4909 63.89 73.6309 63.41C72.7909 62.91 71.8609 62.66 70.8409 62.66C69.8209 62.66 68.8909 62.9 68.0509 63.38C67.2109 63.86 66.5409 64.56 66.0409 65.48C65.5409 66.4 65.2909 67.48 65.2909 68.72C65.2909 69.98 65.5409 71.08 66.0409 72.02C66.5409 72.94 67.2109 73.65 68.0509 74.15C68.8909 74.63 69.8209 74.87 70.8409 74.87C71.8609 74.87 72.7909 74.63 73.6309 74.15C74.4909 73.65 75.1709 72.94 75.6709 72.02C76.1709 71.08 76.4209 69.99 76.4209 68.75ZM103.564 60.26C104.844 60.26 105.984 60.53 106.984 61.07C107.984 61.59 108.774 62.38 109.354 63.44C109.934 64.5 110.224 65.79 110.224 67.31V77H107.524V67.7C107.524 66.06 107.114 64.81 106.294 63.95C105.494 63.07 104.404 62.63 103.024 62.63C101.604 62.63 100.474 63.09 99.6344 64.01C98.7944 64.91 98.3744 66.22 98.3744 67.94V77H95.6744V67.7C95.6744 66.06 95.2644 64.81 94.4444 63.95C93.6444 63.07 92.5544 62.63 91.1744 62.63C89.7544 62.63 88.6244 63.09 87.7844 64.01C86.9444 64.91 86.5244 66.22 86.5244 67.94V77H83.7944V60.56H86.5244V62.93C87.0644 62.07 87.7844 61.41 88.6844 60.95C89.6044 60.49 90.6144 60.26 91.7144 60.26C93.0944 60.26 94.3144 60.57 95.3744 61.19C96.4344 61.81 97.2244 62.72 97.7444 63.92C98.2044 62.76 98.9644 61.86 100.024 61.22C101.084 60.58 102.264 60.26 103.564 60.26ZM129.703 68.15C129.703 68.67 129.673 69.22 129.613 69.8H116.473C116.573 71.42 117.123 72.69 118.123 73.61C119.143 74.51 120.373 74.96 121.813 74.96C122.993 74.96 123.973 74.69 124.753 74.15C125.553 73.59 126.113 72.85 126.433 71.93H129.373C128.933 73.51 128.053 74.8 126.733 75.8C125.413 76.78 123.773 77.27 121.813 77.27C120.253 77.27 118.853 76.92 117.613 76.22C116.393 75.52 115.433 74.53 114.733 73.25C114.033 71.95 113.683 70.45 113.683 68.75C113.683 67.05 114.023 65.56 114.703 64.28C115.383 63 116.333 62.02 117.553 61.34C118.793 60.64 120.213 60.29 121.813 60.29C123.373 60.29 124.753 60.63 125.953 61.31C127.153 61.99 128.073 62.93 128.713 64.13C129.373 65.31 129.703 66.65 129.703 68.15ZM126.883 67.58C126.883 66.54 126.653 65.65 126.193 64.91C125.733 64.15 125.103 63.58 124.303 63.2C123.523 62.8 122.653 62.6 121.693 62.6C120.313 62.6 119.133 63.04 118.153 63.92C117.193 64.8 116.643 66.02 116.503 67.58H126.883ZM141.316 60.26C143.316 60.26 144.936 60.87 146.176 62.09C147.416 63.29 148.036 65.03 148.036 67.31V77H145.336V67.7C145.336 66.06 144.926 64.81 144.106 63.95C143.286 63.07 142.166 62.63 140.746 62.63C139.306 62.63 138.156 63.08 137.296 63.98C136.456 64.88 136.036 66.19 136.036 67.91V77H133.306V60.56H136.036V62.9C136.576 62.06 137.306 61.41 138.226 60.95C139.166 60.49 140.196 60.26 141.316 60.26ZM155.826 62.81V72.5C155.826 73.3 155.996 73.87 156.336 74.21C156.676 74.53 157.266 74.69 158.106 74.69H160.116V77H157.656C156.136 77 154.996 76.65 154.236 75.95C153.476 75.25 153.096 74.1 153.096 72.5V62.81H150.966V60.56H153.096V56.42H155.826V60.56H160.116V62.81H155.826ZM169.243 77.27C167.983 77.27 166.853 77.06 165.853 76.64C164.853 76.2 164.063 75.6 163.483 74.84C162.903 74.06 162.583 73.17 162.523 72.17H165.343C165.423 72.99 165.803 73.66 166.483 74.18C167.183 74.7 168.093 74.96 169.213 74.96C170.253 74.96 171.073 74.73 171.673 74.27C172.273 73.81 172.573 73.23 172.573 72.53C172.573 71.81 172.253 71.28 171.613 70.94C170.973 70.58 169.983 70.23 168.643 69.89C167.423 69.57 166.423 69.25 165.643 68.93C164.883 68.59 164.223 68.1 163.663 67.46C163.123 66.8 162.853 65.94 162.853 64.88C162.853 64.04 163.103 63.27 163.603 62.57C164.103 61.87 164.813 61.32 165.733 60.92C166.653 60.5 167.703 60.29 168.883 60.29C170.703 60.29 172.173 60.75 173.293 61.67C174.413 62.59 175.013 63.85 175.093 65.45H172.363C172.303 64.59 171.953 63.9 171.313 63.38C170.693 62.86 169.853 62.6 168.793 62.6C167.813 62.6 167.033 62.81 166.453 63.23C165.873 63.65 165.583 64.2 165.583 64.88C165.583 65.42 165.753 65.87 166.093 66.23C166.453 66.57 166.893 66.85 167.413 67.07C167.953 67.27 168.693 67.5 169.633 67.76C170.813 68.08 171.773 68.4 172.513 68.72C173.253 69.02 173.883 69.48 174.403 70.1C174.943 70.72 175.223 71.53 175.243 72.53C175.243 73.43 174.993 74.24 174.493 74.96C173.993 75.68 173.283 76.25 172.363 76.67C171.463 77.07 170.423 77.27 169.243 77.27Z" fill="white"/>
<path d="M312.686 138.826L312.795 138.791L324.245 135.47C325.049 135.24 325.902 135.312 326.626 135.667L326.746 135.729L326.661 135.82C327.421 136.227 327.962 136.92 328.158 137.741C332.97 156.749 330.57 177.046 321.378 195.07C311.841 213.772 295.423 228.611 275.413 236.616C265.7 240.518 255.39 242.686 245.005 243.009L244.439 243.024C243.593 243.063 242.785 242.769 242.197 242.215L242.106 242.126C241.526 241.572 241.204 240.817 241.204 240.021L241.55 228.277C241.573 226.627 242.958 225.246 244.667 225.145L244.781 225.14C270.243 224.342 293.59 209.714 304.943 187.446C312.206 173.365 314.168 157.482 310.485 142.577C310.11 141.036 311.027 139.439 312.579 138.863L312.686 138.826ZM210.596 222.985L210.751 222.922L210.908 222.861C215.928 220.915 221.479 223.117 223.412 227.793L223.471 227.94C223.491 227.988 223.51 228.038 223.529 228.087C225.366 232.932 222.695 238.447 217.562 240.406C212.429 242.364 206.779 240.024 204.94 235.18C203.141 230.434 205.667 225.044 210.596 222.985ZM173.121 198.131L263.205 162.093C264.866 161.444 266.703 162.159 267.364 163.692L267.405 163.791L271.66 174.426C272.298 175.982 271.508 177.786 269.893 178.508L269.789 178.552L179.706 214.59C178.044 215.239 176.207 214.523 175.545 212.992L175.506 212.892L171.251 202.257L171.211 202.157C170.647 200.626 171.435 198.884 173.015 198.177L173.121 198.131ZM242.014 76.422C242.9 76.3754 243.753 76.6743 244.379 77.2508C244.979 77.8452 245.302 78.6519 245.277 79.4961L245.301 90.9368C245.343 92.618 243.955 94.0692 242.198 94.1818C218.931 95.6402 197.655 108.612 186.078 128.397C178.913 140.853 175.948 155.004 177.606 168.827C177.765 170.227 176.914 171.591 175.535 172.147L174.854 172.419L163.097 174.289C162.222 174.432 161.339 174.226 160.654 173.72L160.602 173.741C159.897 173.243 159.449 172.48 159.364 171.631C157.249 153.932 161.114 135.82 170.397 119.928C185.176 94.7065 212.342 78.2037 242.014 76.422ZM219.171 135.025L309.255 98.987C310.874 98.3535 312.671 99.0167 313.37 100.486L313.415 100.586L317.67 111.221C318.309 112.777 317.519 114.58 315.904 115.303L315.8 115.347L225.716 151.385C224.061 152.016 222.241 151.3 221.584 149.777L221.542 149.677L217.327 139.14C216.692 137.594 217.467 135.802 219.066 135.071L219.171 135.025ZM268.726 77.558L268.88 77.4947L269.037 77.4336C274.058 75.4878 279.608 77.6899 281.541 82.3654L281.601 82.5123C281.62 82.5614 281.639 82.6107 281.658 82.6597C283.495 87.5045 280.824 93.0195 275.691 94.9782C270.558 96.9368 264.908 94.5968 263.07 89.7525C261.27 85.0062 263.797 79.6171 268.726 77.558Z" fill="#4CAF50"/>
</g>
<defs>
<clipPath id="clip0_53_459">
<rect width="345" height="255" rx="33" fill="white"/>
</clipPath>
</defs>
</svg>
