<svg width="345" height="255" viewBox="0 0 345 255" fill="none" xmlns="http://www.w3.org/2000/svg">
<g clip-path="url(#clip0_57_483)">
<rect width="345" height="255" rx="33" fill="#333333"/>
<path d="M24.94 58.21C23.56 58.21 22.32 57.97 21.22 57.49C20.14 56.99 19.29 56.31 18.67 55.45C18.05 54.57 17.73 53.56 17.71 52.42H20.62C20.72 53.4 21.12 54.23 21.82 54.91C22.54 55.57 23.58 55.9 24.94 55.9C26.24 55.9 27.26 55.58 28 54.94C28.76 54.28 29.14 53.44 29.14 52.42C29.14 51.62 28.92 50.97 28.48 50.47C28.04 49.97 27.49 49.59 26.83 49.33C26.17 49.07 25.28 48.79 24.16 48.49C22.78 48.13 21.67 47.77 20.83 47.41C20.01 47.05 19.3 46.49 18.7 45.73C18.12 44.95 17.83 43.91 17.83 42.61C17.83 41.47 18.12 40.46 18.7 39.58C19.28 38.7 20.09 38.02 21.13 37.54C22.19 37.06 23.4 36.82 24.76 36.82C26.72 36.82 28.32 37.31 29.56 38.29C30.82 39.27 31.53 40.57 31.69 42.19H28.69C28.59 41.39 28.17 40.69 27.43 40.09C26.69 39.47 25.71 39.16 24.49 39.16C23.35 39.16 22.42 39.46 21.7 40.06C20.98 40.64 20.62 41.46 20.62 42.52C20.62 43.28 20.83 43.9 21.25 44.38C21.69 44.86 22.22 45.23 22.84 45.49C23.48 45.73 24.37 46.01 25.51 46.33C26.89 46.71 28 47.09 28.84 47.47C29.68 47.83 30.4 48.4 31 49.18C31.6 49.94 31.9 50.98 31.9 52.3C31.9 53.32 31.63 54.28 31.09 55.18C30.55 56.08 29.75 56.81 28.69 57.37C27.63 57.93 26.38 58.21 24.94 58.21ZM34.8974 49.75C34.8974 48.05 35.2374 46.57 35.9174 45.31C36.5974 44.03 37.5374 43.04 38.7374 42.34C39.9574 41.64 41.3474 41.29 42.9074 41.29C44.9274 41.29 46.5874 41.78 47.8874 42.76C49.2074 43.74 50.0774 45.1 50.4974 46.84H47.5574C47.2774 45.84 46.7274 45.05 45.9074 44.47C45.1074 43.89 44.1074 43.6 42.9074 43.6C41.3474 43.6 40.0874 44.14 39.1274 45.22C38.1674 46.28 37.6874 47.79 37.6874 49.75C37.6874 51.73 38.1674 53.26 39.1274 54.34C40.0874 55.42 41.3474 55.96 42.9074 55.96C44.1074 55.96 45.1074 55.68 45.9074 55.12C46.7074 54.56 47.2574 53.76 47.5574 52.72H50.4974C50.0574 54.4 49.1774 55.75 47.8574 56.77C46.5374 57.77 44.8874 58.27 42.9074 58.27C41.3474 58.27 39.9574 57.92 38.7374 57.22C37.5374 56.52 36.5974 55.53 35.9174 54.25C35.2374 52.97 34.8974 51.47 34.8974 49.75ZM62.3001 41.26C63.5401 41.26 64.6601 41.53 65.6601 42.07C66.6601 42.59 67.4401 43.38 68.0001 44.44C68.5801 45.5 68.8701 46.79 68.8701 48.31V58H66.1701V48.7C66.1701 47.06 65.7601 45.81 64.9401 44.95C64.1201 44.07 63.0001 43.63 61.5801 43.63C60.1401 43.63 58.9901 44.08 58.1301 44.98C57.2901 45.88 56.8701 47.19 56.8701 48.91V58H54.1401V35.8H56.8701V43.9C57.4101 43.06 58.1501 42.41 59.0901 41.95C60.0501 41.49 61.1201 41.26 62.3001 41.26ZM88.3295 49.15C88.3295 49.67 88.2995 50.22 88.2395 50.8H75.0995C75.1995 52.42 75.7495 53.69 76.7495 54.61C77.7695 55.51 78.9995 55.96 80.4395 55.96C81.6195 55.96 82.5995 55.69 83.3795 55.15C84.1795 54.59 84.7395 53.85 85.0595 52.93H87.9995C87.5595 54.51 86.6795 55.8 85.3595 56.8C84.0395 57.78 82.3995 58.27 80.4395 58.27C78.8795 58.27 77.4795 57.92 76.2395 57.22C75.0195 56.52 74.0595 55.53 73.3595 54.25C72.6595 52.95 72.3095 51.45 72.3095 49.75C72.3095 48.05 72.6495 46.56 73.3295 45.28C74.0095 44 74.9595 43.02 76.1795 42.34C77.4195 41.64 78.8395 41.29 80.4395 41.29C81.9995 41.29 83.3795 41.63 84.5795 42.31C85.7795 42.99 86.6995 43.93 87.3395 45.13C87.9995 46.31 88.3295 47.65 88.3295 49.15ZM85.5095 48.58C85.5095 47.54 85.2795 46.65 84.8195 45.91C84.3595 45.15 83.7295 44.58 82.9295 44.2C82.1495 43.8 81.2795 43.6 80.3195 43.6C78.9395 43.6 77.7595 44.04 76.7795 44.92C75.8195 45.8 75.2695 47.02 75.1295 48.58H85.5095ZM90.913 49.72C90.913 48.04 91.253 46.57 91.933 45.31C92.613 44.03 93.543 43.04 94.723 42.34C95.923 41.64 97.263 41.29 98.743 41.29C100.023 41.29 101.213 41.59 102.313 42.19C103.413 42.77 104.253 43.54 104.833 44.5V35.8H107.593V58H104.833V54.91C104.293 55.89 103.493 56.7 102.433 57.34C101.373 57.96 100.133 58.27 98.713 58.27C97.253 58.27 95.923 57.91 94.723 57.19C93.543 56.47 92.613 55.46 91.933 54.16C91.253 52.86 90.913 51.38 90.913 49.72ZM104.833 49.75C104.833 48.51 104.583 47.43 104.083 46.51C103.583 45.59 102.903 44.89 102.043 44.41C101.203 43.91 100.273 43.66 99.253 43.66C98.233 43.66 97.303 43.9 96.463 44.38C95.623 44.86 94.953 45.56 94.453 46.48C93.953 47.4 93.703 48.48 93.703 49.72C93.703 50.98 93.953 52.08 94.453 53.02C94.953 53.94 95.623 54.65 96.463 55.15C97.303 55.63 98.233 55.87 99.253 55.87C100.273 55.87 101.203 55.63 102.043 55.15C102.903 54.65 103.583 53.94 104.083 53.02C104.583 52.08 104.833 50.99 104.833 49.75ZM126.786 41.56V58H124.056V55.57C123.536 56.41 122.806 57.07 121.866 57.55C120.946 58.01 119.926 58.24 118.806 58.24C117.526 58.24 116.376 57.98 115.356 57.46C114.336 56.92 113.526 56.12 112.926 55.06C112.346 54 112.056 52.71 112.056 51.19V41.56H114.756V50.83C114.756 52.45 115.166 53.7 115.986 54.58C116.806 55.44 117.926 55.87 119.346 55.87C120.806 55.87 121.956 55.42 122.796 54.52C123.636 53.62 124.056 52.31 124.056 50.59V41.56H126.786ZM134.126 35.8V58H131.396V35.8H134.126ZM153.779 49.15C153.779 49.67 153.749 50.22 153.689 50.8H140.549C140.649 52.42 141.199 53.69 142.199 54.61C143.219 55.51 144.449 55.96 145.889 55.96C147.069 55.96 148.049 55.69 148.829 55.15C149.629 54.59 150.189 53.85 150.509 52.93H153.449C153.009 54.51 152.129 55.8 150.809 56.8C149.489 57.78 147.849 58.27 145.889 58.27C144.329 58.27 142.929 57.92 141.689 57.22C140.469 56.52 139.509 55.53 138.809 54.25C138.109 52.95 137.759 51.45 137.759 49.75C137.759 48.05 138.099 46.56 138.779 45.28C139.459 44 140.409 43.02 141.629 42.34C142.869 41.64 144.289 41.29 145.889 41.29C147.449 41.29 148.829 41.63 150.029 42.31C151.229 42.99 152.149 43.93 152.789 45.13C153.449 46.31 153.779 47.65 153.779 49.15ZM150.959 48.58C150.959 47.54 150.729 46.65 150.269 45.91C149.809 45.15 149.179 44.58 148.379 44.2C147.599 43.8 146.729 43.6 145.769 43.6C144.389 43.6 143.209 44.04 142.229 44.92C141.269 45.8 140.719 47.02 140.579 48.58H150.959ZM156.362 49.72C156.362 48.04 156.702 46.57 157.382 45.31C158.062 44.03 158.992 43.04 160.172 42.34C161.372 41.64 162.712 41.29 164.192 41.29C165.472 41.29 166.662 41.59 167.762 42.19C168.862 42.77 169.702 43.54 170.282 44.5V35.8H173.042V58H170.282V54.91C169.742 55.89 168.942 56.7 167.882 57.34C166.822 57.96 165.582 58.27 164.162 58.27C162.702 58.27 161.372 57.91 160.172 57.19C158.992 56.47 158.062 55.46 157.382 54.16C156.702 52.86 156.362 51.38 156.362 49.72ZM170.282 49.75C170.282 48.51 170.032 47.43 169.532 46.51C169.032 45.59 168.352 44.89 167.492 44.41C166.652 43.91 165.722 43.66 164.702 43.66C163.682 43.66 162.752 43.9 161.912 44.38C161.072 44.86 160.402 45.56 159.902 46.48C159.402 47.4 159.152 48.48 159.152 49.72C159.152 50.98 159.402 52.08 159.902 53.02C160.402 53.94 161.072 54.65 161.912 55.15C162.752 55.63 163.682 55.87 164.702 55.87C165.722 55.87 166.652 55.63 167.492 55.15C168.352 54.65 169.032 53.94 169.532 53.02C170.032 52.08 170.282 50.99 170.282 49.75ZM17.29 85.53C17.29 83.49 17.75 81.66 18.67 80.04C19.59 78.4 20.84 77.12 22.42 76.2C24.02 75.28 25.79 74.82 27.73 74.82C30.01 74.82 32 75.37 33.7 76.47C35.4 77.57 36.64 79.13 37.42 81.15H34.15C33.57 79.89 32.73 78.92 31.63 78.24C30.55 77.56 29.25 77.22 27.73 77.22C26.27 77.22 24.96 77.56 23.8 78.24C22.64 78.92 21.73 79.89 21.07 81.15C20.41 82.39 20.08 83.85 20.08 85.53C20.08 87.19 20.41 88.65 21.07 89.91C21.73 91.15 22.64 92.11 23.8 92.79C24.96 93.47 26.27 93.81 27.73 93.81C29.25 93.81 30.55 93.48 31.63 92.82C32.73 92.14 33.57 91.17 34.15 89.91H37.42C36.64 91.91 35.4 93.46 33.7 94.56C32 95.64 30.01 96.18 27.73 96.18C25.79 96.18 24.02 95.73 22.42 94.83C20.84 93.91 19.59 92.64 18.67 91.02C17.75 89.4 17.29 87.57 17.29 85.53ZM40.4638 87.72C40.4638 86.04 40.8038 84.57 41.4838 83.31C42.1638 82.03 43.0938 81.04 44.2738 80.34C45.4738 79.64 46.8038 79.29 48.2638 79.29C49.7038 79.29 50.9538 79.6 52.0138 80.22C53.0738 80.84 53.8638 81.62 54.3838 82.56V79.56H57.1438V96H54.3838V92.94C53.8438 93.9 53.0338 94.7 51.9538 95.34C50.8938 95.96 49.6538 96.27 48.2338 96.27C46.7738 96.27 45.4538 95.91 44.2738 95.19C43.0938 94.47 42.1638 93.46 41.4838 92.16C40.8038 90.86 40.4638 89.38 40.4638 87.72ZM54.3838 87.75C54.3838 86.51 54.1338 85.43 53.6338 84.51C53.1338 83.59 52.4538 82.89 51.5938 82.41C50.7538 81.91 49.8238 81.66 48.8038 81.66C47.7838 81.66 46.8538 81.9 46.0138 82.38C45.1738 82.86 44.5038 83.56 44.0038 84.48C43.5038 85.4 43.2538 86.48 43.2538 87.72C43.2538 88.98 43.5038 90.08 44.0038 91.02C44.5038 91.94 45.1738 92.65 46.0138 93.15C46.8538 93.63 47.7838 93.87 48.8038 93.87C49.8238 93.87 50.7538 93.63 51.5938 93.15C52.4538 92.65 53.1338 91.94 53.6338 91.02C54.1338 90.08 54.3838 88.99 54.3838 87.75ZM81.5273 79.26C82.8073 79.26 83.9473 79.53 84.9473 80.07C85.9473 80.59 86.7373 81.38 87.3173 82.44C87.8973 83.5 88.1873 84.79 88.1873 86.31V96H85.4873V86.7C85.4873 85.06 85.0773 83.81 84.2573 82.95C83.4573 82.07 82.3673 81.63 80.9873 81.63C79.5673 81.63 78.4373 82.09 77.5973 83.01C76.7573 83.91 76.3373 85.22 76.3373 86.94V96H73.6373V86.7C73.6373 85.06 73.2273 83.81 72.4073 82.95C71.6073 82.07 70.5173 81.63 69.1373 81.63C67.7173 81.63 66.5873 82.09 65.7473 83.01C64.9073 83.91 64.4873 85.22 64.4873 86.94V96H61.7573V79.56H64.4873V81.93C65.0273 81.07 65.7473 80.41 66.6473 79.95C67.5673 79.49 68.5773 79.26 69.6773 79.26C71.0573 79.26 72.2773 79.57 73.3373 80.19C74.3973 80.81 75.1873 81.72 75.7073 82.92C76.1673 81.76 76.9273 80.86 77.9873 80.22C79.0473 79.58 80.2273 79.26 81.5273 79.26ZM95.3955 82.59C95.9355 81.65 96.7355 80.87 97.7955 80.25C98.8755 79.61 100.125 79.29 101.545 79.29C103.005 79.29 104.325 79.64 105.505 80.34C106.705 81.04 107.645 82.03 108.325 83.31C109.005 84.57 109.345 86.04 109.345 87.72C109.345 89.38 109.005 90.86 108.325 92.16C107.645 93.46 106.705 94.47 105.505 95.19C104.325 95.91 103.005 96.27 101.545 96.27C100.145 96.27 98.9055 95.96 97.8255 95.34C96.7655 94.7 95.9555 93.91 95.3955 92.97V103.8H92.6655V79.56H95.3955V82.59ZM106.555 87.72C106.555 86.48 106.305 85.4 105.805 84.48C105.305 83.56 104.625 82.86 103.765 82.38C102.925 81.9 101.995 81.66 100.975 81.66C99.9755 81.66 99.0455 81.91 98.1855 82.41C97.3455 82.89 96.6655 83.6 96.1455 84.54C95.6455 85.46 95.3955 86.53 95.3955 87.75C95.3955 88.99 95.6455 90.08 96.1455 91.02C96.6655 91.94 97.3455 92.65 98.1855 93.15C99.0455 93.63 99.9755 93.87 100.975 93.87C101.995 93.87 102.925 93.63 103.765 93.15C104.625 92.65 105.305 91.94 105.805 91.02C106.305 90.08 106.555 88.98 106.555 87.72ZM111.919 87.72C111.919 86.04 112.259 84.57 112.939 83.31C113.619 82.03 114.549 81.04 115.729 80.34C116.929 79.64 118.259 79.29 119.719 79.29C121.159 79.29 122.409 79.6 123.469 80.22C124.529 80.84 125.319 81.62 125.839 82.56V79.56H128.599V96H125.839V92.94C125.299 93.9 124.489 94.7 123.409 95.34C122.349 95.96 121.109 96.27 119.689 96.27C118.229 96.27 116.909 95.91 115.729 95.19C114.549 94.47 113.619 93.46 112.939 92.16C112.259 90.86 111.919 89.38 111.919 87.72ZM125.839 87.75C125.839 86.51 125.589 85.43 125.089 84.51C124.589 83.59 123.909 82.89 123.049 82.41C122.209 81.91 121.279 81.66 120.259 81.66C119.239 81.66 118.309 81.9 117.469 82.38C116.629 82.86 115.959 83.56 115.459 84.48C114.959 85.4 114.709 86.48 114.709 87.72C114.709 88.98 114.959 90.08 115.459 91.02C115.959 91.94 116.629 92.65 117.469 93.15C118.309 93.63 119.239 93.87 120.259 93.87C121.279 93.87 122.209 93.63 123.049 93.15C123.909 92.65 124.589 91.94 125.089 91.02C125.589 90.08 125.839 88.99 125.839 87.75ZM134.622 76.89C134.102 76.89 133.662 76.71 133.302 76.35C132.942 75.99 132.762 75.55 132.762 75.03C132.762 74.51 132.942 74.07 133.302 73.71C133.662 73.35 134.102 73.17 134.622 73.17C135.122 73.17 135.542 73.35 135.882 73.71C136.242 74.07 136.422 74.51 136.422 75.03C136.422 75.55 136.242 75.99 135.882 76.35C135.542 76.71 135.122 76.89 134.622 76.89ZM135.942 79.56V96H133.212V79.56H135.942ZM147.375 79.29C148.795 79.29 150.035 79.6 151.095 80.22C152.175 80.84 152.975 81.62 153.495 82.56V79.56H156.255V96.36C156.255 97.86 155.935 99.19 155.295 100.35C154.655 101.53 153.735 102.45 152.535 103.11C151.355 103.77 149.975 104.1 148.395 104.1C146.235 104.1 144.435 103.59 142.995 102.57C141.555 101.55 140.705 100.16 140.445 98.4H143.145C143.445 99.4 144.065 100.2 145.005 100.8C145.945 101.42 147.075 101.73 148.395 101.73C149.895 101.73 151.115 101.26 152.055 100.32C153.015 99.38 153.495 98.06 153.495 96.36V92.91C152.955 93.87 152.155 94.67 151.095 95.31C150.035 95.95 148.795 96.27 147.375 96.27C145.915 96.27 144.585 95.91 143.385 95.19C142.205 94.47 141.275 93.46 140.595 92.16C139.915 90.86 139.575 89.38 139.575 87.72C139.575 86.04 139.915 84.57 140.595 83.31C141.275 82.03 142.205 81.04 143.385 80.34C144.585 79.64 145.915 79.29 147.375 79.29ZM153.495 87.75C153.495 86.51 153.245 85.43 152.745 84.51C152.245 83.59 151.565 82.89 150.705 82.41C149.865 81.91 148.935 81.66 147.915 81.66C146.895 81.66 145.965 81.9 145.125 82.38C144.285 82.86 143.615 83.56 143.115 84.48C142.615 85.4 142.365 86.48 142.365 87.72C142.365 88.98 142.615 90.08 143.115 91.02C143.615 91.94 144.285 92.65 145.125 93.15C145.965 93.63 146.895 93.87 147.915 93.87C148.935 93.87 149.865 93.63 150.705 93.15C151.565 92.65 152.245 91.94 152.745 91.02C153.245 90.08 153.495 88.99 153.495 87.75ZM168.879 79.26C170.879 79.26 172.499 79.87 173.739 81.09C174.979 82.29 175.599 84.03 175.599 86.31V96H172.899V86.7C172.899 85.06 172.489 83.81 171.669 82.95C170.849 82.07 169.729 81.63 168.309 81.63C166.869 81.63 165.719 82.08 164.859 82.98C164.019 83.88 163.599 85.19 163.599 86.91V96H160.869V79.56H163.599V81.9C164.139 81.06 164.869 80.41 165.789 79.95C166.729 79.49 167.759 79.26 168.879 79.26ZM185.878 96.27C184.618 96.27 183.488 96.06 182.488 95.64C181.488 95.2 180.698 94.6 180.118 93.84C179.538 93.06 179.218 92.17 179.158 91.17H181.978C182.058 91.99 182.438 92.66 183.118 93.18C183.818 93.7 184.728 93.96 185.848 93.96C186.888 93.96 187.708 93.73 188.308 93.27C188.908 92.81 189.208 92.23 189.208 91.53C189.208 90.81 188.888 90.28 188.248 89.94C187.608 89.58 186.618 89.23 185.278 88.89C184.058 88.57 183.058 88.25 182.278 87.93C181.518 87.59 180.858 87.1 180.298 86.46C179.758 85.8 179.488 84.94 179.488 83.88C179.488 83.04 179.738 82.27 180.238 81.57C180.738 80.87 181.448 80.32 182.368 79.92C183.288 79.5 184.338 79.29 185.518 79.29C187.338 79.29 188.808 79.75 189.928 80.67C191.048 81.59 191.648 82.85 191.728 84.45H188.998C188.938 83.59 188.588 82.9 187.948 82.38C187.328 81.86 186.488 81.6 185.428 81.6C184.448 81.6 183.668 81.81 183.088 82.23C182.508 82.65 182.218 83.2 182.218 83.88C182.218 84.42 182.388 84.87 182.728 85.23C183.088 85.57 183.528 85.85 184.048 86.07C184.588 86.27 185.328 86.5 186.268 86.76C187.448 87.08 188.408 87.4 189.148 87.72C189.888 88.02 190.518 88.48 191.038 89.1C191.578 89.72 191.858 90.53 191.878 91.53C191.878 92.43 191.628 93.24 191.128 93.96C190.628 94.68 189.918 95.25 188.998 95.67C188.098 96.07 187.058 96.27 185.878 96.27Z" fill="white"/>
<path d="M179.625 137C175.276 137 171.75 140.526 171.75 144.875V207.875C171.75 229.621 189.379 247.25 211.125 247.25H289.875C311.621 247.25 329.25 229.621 329.25 207.875V144.875C329.25 140.526 325.724 137 321.375 137H179.625Z" fill="black" fill-opacity="0.25"/>
<path d="M211.125 89.75C215.474 89.75 219 93.2758 219 97.625V105.5H282V97.625C282 93.2758 285.526 89.75 289.875 89.75C294.224 89.75 297.75 93.2758 297.75 97.625V106.288C315.722 109.936 329.25 125.826 329.25 144.875C329.25 149.224 325.724 152.75 321.375 152.75H179.625C175.276 152.75 171.75 149.224 171.75 144.875C171.75 125.826 185.277 109.936 203.25 106.288V97.625C203.25 93.2758 206.776 89.75 211.125 89.75Z" fill="black"/>
<path fill-rule="evenodd" clip-rule="evenodd" d="M211.125 176.375C211.125 172.026 214.651 168.5 219 168.5H282C286.349 168.5 289.875 172.026 289.875 176.375C289.875 180.724 286.349 184.25 282 184.25H219C214.651 184.25 211.125 180.724 211.125 176.375Z" fill="#4CAF50"/>
<path fill-rule="evenodd" clip-rule="evenodd" d="M211.125 207.875C211.125 203.526 214.651 200 219 200H250.5C254.849 200 258.375 203.526 258.375 207.875C258.375 212.224 254.849 215.75 250.5 215.75H219C214.651 215.75 211.125 212.224 211.125 207.875Z" fill="#4CAF50"/>
</g>
<defs>
<clipPath id="clip0_57_483">
<rect width="345" height="255" rx="33" fill="white"/>
</clipPath>
</defs>
</svg>
