<svg xmlns="http://www.w3.org/2000/svg" xmlns:xlink="http://www.w3.org/1999/xlink" width="460" zoomAndPan="magnify" viewBox="0 0 345 239.999995" height="320" preserveAspectRatio="xMidYMid meet" version="1.0"><defs><filter x="0%" y="0%" width="100%" height="100%" id="09263030fe"><feColorMatrix values="0 0 0 0 1 0 0 0 0 1 0 0 0 0 1 0 0 0 1 0" color-interpolation-filters="sRGB"/></filter><g/><linearGradient x1="230" gradientTransform="matrix(0.75, 0, 0, 0.75, 0.00000380937, 0)" y1="0" x2="230" gradientUnits="userSpaceOnUse" y2="319.999987" id="7fd719a30d"><stop stop-opacity="1" stop-color="rgb(1.199341%, 5.899048%, 17.599487%)" offset="0"/><stop stop-opacity="1" stop-color="rgb(1.196289%, 5.984497%, 17.89093%)" offset="0.00390625"/><stop stop-opacity="1" stop-color="rgb(1.193237%, 6.069946%, 18.182373%)" offset="0.0078125"/><stop stop-opacity="1" stop-color="rgb(1.190186%, 6.155396%, 18.473816%)" offset="0.0117188"/><stop stop-opacity="1" stop-color="rgb(1.187134%, 6.240845%, 18.765259%)" offset="0.015625"/><stop stop-opacity="1" stop-color="rgb(1.184082%, 6.326294%, 19.056702%)" offset="0.0195312"/><stop stop-opacity="1" stop-color="rgb(1.18103%, 6.413269%, 19.348145%)" offset="0.0234375"/><stop stop-opacity="1" stop-color="rgb(1.177979%, 6.498718%, 19.639587%)" offset="0.0273438"/><stop stop-opacity="1" stop-color="rgb(1.174927%, 6.584167%, 19.93103%)" offset="0.03125"/><stop stop-opacity="1" stop-color="rgb(1.170349%, 6.669617%, 20.222473%)" offset="0.0351562"/><stop stop-opacity="1" stop-color="rgb(1.167297%, 6.755066%, 20.513916%)" offset="0.0390625"/><stop stop-opacity="1" stop-color="rgb(1.164246%, 6.840515%, 20.805359%)" offset="0.0429688"/><stop stop-opacity="1" stop-color="rgb(1.161194%, 6.925964%, 21.096802%)" offset="0.046875"/><stop stop-opacity="1" stop-color="rgb(1.158142%, 7.011414%, 21.386719%)" offset="0.0507812"/><stop stop-opacity="1" stop-color="rgb(1.15509%, 7.096863%, 21.678162%)" offset="0.0546875"/><stop stop-opacity="1" stop-color="rgb(1.152039%, 7.182312%, 21.969604%)" offset="0.0585938"/><stop stop-opacity="1" stop-color="rgb(1.148987%, 7.267761%, 22.261047%)" offset="0.0625"/><stop stop-opacity="1" stop-color="rgb(1.145935%, 7.35321%, 22.55249%)" offset="0.0664062"/><stop stop-opacity="1" stop-color="rgb(1.142883%, 7.43866%, 22.843933%)" offset="0.0703125"/><stop stop-opacity="1" stop-color="rgb(1.139832%, 7.524109%, 23.135376%)" offset="0.0742188"/><stop stop-opacity="1" stop-color="rgb(1.13678%, 7.609558%, 23.426819%)" offset="0.078125"/><stop stop-opacity="1" stop-color="rgb(1.133728%, 7.695007%, 23.718262%)" offset="0.0820312"/><stop stop-opacity="1" stop-color="rgb(1.130676%, 7.781982%, 24.009705%)" offset="0.0859375"/><stop stop-opacity="1" stop-color="rgb(1.127625%, 7.867432%, 24.301147%)" offset="0.0898438"/><stop stop-opacity="1" stop-color="rgb(1.124573%, 7.952881%, 24.59259%)" offset="0.09375"/><stop stop-opacity="1" stop-color="rgb(1.121521%, 8.03833%, 24.884033%)" offset="0.0976562"/><stop stop-opacity="1" stop-color="rgb(1.118469%, 8.123779%, 25.175476%)" offset="0.101562"/><stop stop-opacity="1" stop-color="rgb(1.115417%, 8.209229%, 25.466919%)" offset="0.105469"/><stop stop-opacity="1" stop-color="rgb(1.112366%, 8.294678%, 25.758362%)" offset="0.109375"/><stop stop-opacity="1" stop-color="rgb(1.107788%, 8.380127%, 26.049805%)" offset="0.113281"/><stop stop-opacity="1" stop-color="rgb(1.104736%, 8.465576%, 26.341248%)" offset="0.117188"/><stop stop-opacity="1" stop-color="rgb(1.101685%, 8.551025%, 26.63269%)" offset="0.121094"/><stop stop-opacity="1" stop-color="rgb(1.098633%, 8.636475%, 26.924133%)" offset="0.125"/><stop stop-opacity="1" stop-color="rgb(1.095581%, 8.721924%, 27.215576%)" offset="0.128906"/><stop stop-opacity="1" stop-color="rgb(1.092529%, 8.807373%, 27.507019%)" offset="0.132812"/><stop stop-opacity="1" stop-color="rgb(1.089478%, 8.892822%, 27.798462%)" offset="0.136719"/><stop stop-opacity="1" stop-color="rgb(1.086426%, 8.978271%, 28.089905%)" offset="0.140625"/><stop stop-opacity="1" stop-color="rgb(1.083374%, 9.063721%, 28.381348%)" offset="0.144531"/><stop stop-opacity="1" stop-color="rgb(1.080322%, 9.150696%, 28.672791%)" offset="0.148438"/><stop stop-opacity="1" stop-color="rgb(1.077271%, 9.236145%, 28.964233%)" offset="0.152344"/><stop stop-opacity="1" stop-color="rgb(1.074219%, 9.321594%, 29.255676%)" offset="0.15625"/><stop stop-opacity="1" stop-color="rgb(1.071167%, 9.407043%, 29.547119%)" offset="0.160156"/><stop stop-opacity="1" stop-color="rgb(1.068115%, 9.492493%, 29.838562%)" offset="0.164062"/><stop stop-opacity="1" stop-color="rgb(1.065063%, 9.577942%, 30.130005%)" offset="0.167969"/><stop stop-opacity="1" stop-color="rgb(1.062012%, 9.663391%, 30.421448%)" offset="0.171875"/><stop stop-opacity="1" stop-color="rgb(1.05896%, 9.74884%, 30.712891%)" offset="0.175781"/><stop stop-opacity="1" stop-color="rgb(1.055908%, 9.83429%, 31.004333%)" offset="0.179688"/><stop stop-opacity="1" stop-color="rgb(1.052856%, 9.919739%, 31.295776%)" offset="0.183594"/><stop stop-opacity="1" stop-color="rgb(1.049805%, 10.005188%, 31.587219%)" offset="0.1875"/><stop stop-opacity="1" stop-color="rgb(1.046753%, 10.090637%, 31.878662%)" offset="0.191406"/><stop stop-opacity="1" stop-color="rgb(1.043701%, 10.176086%, 32.170105%)" offset="0.195312"/><stop stop-opacity="1" stop-color="rgb(1.039124%, 10.261536%, 32.461548%)" offset="0.199219"/><stop stop-opacity="1" stop-color="rgb(1.036072%, 10.346985%, 32.752991%)" offset="0.203125"/><stop stop-opacity="1" stop-color="rgb(1.03302%, 10.432434%, 33.044434%)" offset="0.207031"/><stop stop-opacity="1" stop-color="rgb(1.029968%, 10.519409%, 33.335876%)" offset="0.210938"/><stop stop-opacity="1" stop-color="rgb(1.026917%, 10.604858%, 33.625793%)" offset="0.214844"/><stop stop-opacity="1" stop-color="rgb(1.023865%, 10.690308%, 33.917236%)" offset="0.21875"/><stop stop-opacity="1" stop-color="rgb(1.020813%, 10.775757%, 34.208679%)" offset="0.222656"/><stop stop-opacity="1" stop-color="rgb(1.017761%, 10.861206%, 34.500122%)" offset="0.226562"/><stop stop-opacity="1" stop-color="rgb(1.014709%, 10.946655%, 34.791565%)" offset="0.230469"/><stop stop-opacity="1" stop-color="rgb(1.011658%, 11.032104%, 35.083008%)" offset="0.234375"/><stop stop-opacity="1" stop-color="rgb(1.008606%, 11.117554%, 35.374451%)" offset="0.238281"/><stop stop-opacity="1" stop-color="rgb(1.005554%, 11.203003%, 35.665894%)" offset="0.242188"/><stop stop-opacity="1" stop-color="rgb(1.002502%, 11.288452%, 35.957336%)" offset="0.246094"/><stop stop-opacity="1" stop-color="rgb(0.999451%, 11.373901%, 36.248779%)" offset="0.25"/><stop stop-opacity="1" stop-color="rgb(0.996399%, 11.459351%, 36.540222%)" offset="0.253906"/><stop stop-opacity="1" stop-color="rgb(0.993347%, 11.5448%, 36.831665%)" offset="0.257812"/><stop stop-opacity="1" stop-color="rgb(0.990295%, 11.630249%, 37.123108%)" offset="0.261719"/><stop stop-opacity="1" stop-color="rgb(0.987244%, 11.715698%, 37.414551%)" offset="0.265625"/><stop stop-opacity="1" stop-color="rgb(0.984192%, 11.801147%, 37.705994%)" offset="0.269531"/><stop stop-opacity="1" stop-color="rgb(0.98114%, 11.888123%, 37.997437%)" offset="0.273438"/><stop stop-opacity="1" stop-color="rgb(0.976562%, 11.973572%, 38.288879%)" offset="0.277344"/><stop stop-opacity="1" stop-color="rgb(0.973511%, 12.059021%, 38.580322%)" offset="0.28125"/><stop stop-opacity="1" stop-color="rgb(0.970459%, 12.14447%, 38.871765%)" offset="0.285156"/><stop stop-opacity="1" stop-color="rgb(0.967407%, 12.229919%, 39.163208%)" offset="0.289062"/><stop stop-opacity="1" stop-color="rgb(0.964355%, 12.315369%, 39.454651%)" offset="0.292969"/><stop stop-opacity="1" stop-color="rgb(0.961304%, 12.400818%, 39.746094%)" offset="0.296875"/><stop stop-opacity="1" stop-color="rgb(0.958252%, 12.486267%, 40.037537%)" offset="0.300781"/><stop stop-opacity="1" stop-color="rgb(0.9552%, 12.571716%, 40.328979%)" offset="0.304688"/><stop stop-opacity="1" stop-color="rgb(0.952148%, 12.657166%, 40.620422%)" offset="0.308594"/><stop stop-opacity="1" stop-color="rgb(0.949097%, 12.742615%, 40.911865%)" offset="0.3125"/><stop stop-opacity="1" stop-color="rgb(0.946045%, 12.828064%, 41.203308%)" offset="0.316406"/><stop stop-opacity="1" stop-color="rgb(0.942993%, 12.913513%, 41.494751%)" offset="0.320312"/><stop stop-opacity="1" stop-color="rgb(0.939941%, 12.998962%, 41.786194%)" offset="0.324219"/><stop stop-opacity="1" stop-color="rgb(0.93689%, 13.084412%, 42.077637%)" offset="0.328125"/><stop stop-opacity="1" stop-color="rgb(0.933838%, 13.169861%, 42.36908%)" offset="0.332031"/><stop stop-opacity="1" stop-color="rgb(0.930786%, 13.256836%, 42.660522%)" offset="0.335938"/><stop stop-opacity="1" stop-color="rgb(0.927734%, 13.342285%, 42.951965%)" offset="0.339844"/><stop stop-opacity="1" stop-color="rgb(0.924683%, 13.427734%, 43.243408%)" offset="0.34375"/><stop stop-opacity="1" stop-color="rgb(0.921631%, 13.513184%, 43.534851%)" offset="0.347656"/><stop stop-opacity="1" stop-color="rgb(0.918579%, 13.598633%, 43.826294%)" offset="0.351562"/><stop stop-opacity="1" stop-color="rgb(0.915527%, 13.684082%, 44.117737%)" offset="0.355469"/><stop stop-opacity="1" stop-color="rgb(0.912476%, 13.769531%, 44.40918%)" offset="0.359375"/><stop stop-opacity="1" stop-color="rgb(0.907898%, 13.85498%, 44.700623%)" offset="0.363281"/><stop stop-opacity="1" stop-color="rgb(0.904846%, 13.94043%, 44.992065%)" offset="0.367188"/><stop stop-opacity="1" stop-color="rgb(0.901794%, 14.025879%, 45.283508%)" offset="0.371094"/><stop stop-opacity="1" stop-color="rgb(0.898743%, 14.111328%, 45.574951%)" offset="0.375"/><stop stop-opacity="1" stop-color="rgb(0.895691%, 14.196777%, 45.864868%)" offset="0.378906"/><stop stop-opacity="1" stop-color="rgb(0.892639%, 14.282227%, 46.156311%)" offset="0.382812"/><stop stop-opacity="1" stop-color="rgb(0.889587%, 14.367676%, 46.447754%)" offset="0.386719"/><stop stop-opacity="1" stop-color="rgb(0.886536%, 14.454651%, 46.739197%)" offset="0.390625"/><stop stop-opacity="1" stop-color="rgb(0.883484%, 14.5401%, 47.03064%)" offset="0.394531"/><stop stop-opacity="1" stop-color="rgb(0.880432%, 14.625549%, 47.322083%)" offset="0.398438"/><stop stop-opacity="1" stop-color="rgb(0.87738%, 14.710999%, 47.613525%)" offset="0.402344"/><stop stop-opacity="1" stop-color="rgb(0.874329%, 14.796448%, 47.904968%)" offset="0.40625"/><stop stop-opacity="1" stop-color="rgb(0.871277%, 14.881897%, 48.196411%)" offset="0.410156"/><stop stop-opacity="1" stop-color="rgb(0.868225%, 14.967346%, 48.487854%)" offset="0.414062"/><stop stop-opacity="1" stop-color="rgb(0.865173%, 15.052795%, 48.779297%)" offset="0.417969"/><stop stop-opacity="1" stop-color="rgb(0.862122%, 15.138245%, 49.07074%)" offset="0.421875"/><stop stop-opacity="1" stop-color="rgb(0.85907%, 15.223694%, 49.362183%)" offset="0.425781"/><stop stop-opacity="1" stop-color="rgb(0.856018%, 15.309143%, 49.653625%)" offset="0.429688"/><stop stop-opacity="1" stop-color="rgb(0.852966%, 15.394592%, 49.945068%)" offset="0.433594"/><stop stop-opacity="1" stop-color="rgb(0.849915%, 15.480042%, 50.236511%)" offset="0.4375"/><stop stop-opacity="1" stop-color="rgb(0.845337%, 15.565491%, 50.527954%)" offset="0.441406"/><stop stop-opacity="1" stop-color="rgb(0.842285%, 15.65094%, 50.819397%)" offset="0.445312"/><stop stop-opacity="1" stop-color="rgb(0.839233%, 15.736389%, 51.11084%)" offset="0.449219"/><stop stop-opacity="1" stop-color="rgb(0.836182%, 15.823364%, 51.402283%)" offset="0.453125"/><stop stop-opacity="1" stop-color="rgb(0.83313%, 15.908813%, 51.693726%)" offset="0.457031"/><stop stop-opacity="1" stop-color="rgb(0.830078%, 15.994263%, 51.985168%)" offset="0.460938"/><stop stop-opacity="1" stop-color="rgb(0.827026%, 16.079712%, 52.276611%)" offset="0.464844"/><stop stop-opacity="1" stop-color="rgb(0.823975%, 16.165161%, 52.568054%)" offset="0.46875"/><stop stop-opacity="1" stop-color="rgb(0.820923%, 16.25061%, 52.859497%)" offset="0.472656"/><stop stop-opacity="1" stop-color="rgb(0.817871%, 16.33606%, 53.15094%)" offset="0.476562"/><stop stop-opacity="1" stop-color="rgb(0.814819%, 16.421509%, 53.442383%)" offset="0.480469"/><stop stop-opacity="1" stop-color="rgb(0.811768%, 16.506958%, 53.733826%)" offset="0.484375"/><stop stop-opacity="1" stop-color="rgb(0.808716%, 16.592407%, 54.025269%)" offset="0.488281"/><stop stop-opacity="1" stop-color="rgb(0.805664%, 16.677856%, 54.316711%)" offset="0.492188"/><stop stop-opacity="1" stop-color="rgb(0.802612%, 16.763306%, 54.608154%)" offset="0.496094"/><stop stop-opacity="1" stop-color="rgb(0.799561%, 16.848755%, 54.899597%)" offset="0.5"/><stop stop-opacity="1" stop-color="rgb(0.796509%, 16.934204%, 55.19104%)" offset="0.503906"/><stop stop-opacity="1" stop-color="rgb(0.793457%, 17.019653%, 55.482483%)" offset="0.507812"/><stop stop-opacity="1" stop-color="rgb(0.790405%, 17.105103%, 55.773926%)" offset="0.511719"/><stop stop-opacity="1" stop-color="rgb(0.787354%, 17.192078%, 56.065369%)" offset="0.515625"/><stop stop-opacity="1" stop-color="rgb(0.784302%, 17.277527%, 56.356812%)" offset="0.519531"/><stop stop-opacity="1" stop-color="rgb(0.78125%, 17.362976%, 56.648254%)" offset="0.523438"/><stop stop-opacity="1" stop-color="rgb(0.776672%, 17.448425%, 56.939697%)" offset="0.527344"/><stop stop-opacity="1" stop-color="rgb(0.773621%, 17.533875%, 57.23114%)" offset="0.53125"/><stop stop-opacity="1" stop-color="rgb(0.770569%, 17.619324%, 57.522583%)" offset="0.535156"/><stop stop-opacity="1" stop-color="rgb(0.767517%, 17.704773%, 57.814026%)" offset="0.539062"/><stop stop-opacity="1" stop-color="rgb(0.764465%, 17.790222%, 58.103943%)" offset="0.542969"/><stop stop-opacity="1" stop-color="rgb(0.761414%, 17.875671%, 58.395386%)" offset="0.546875"/><stop stop-opacity="1" stop-color="rgb(0.758362%, 17.961121%, 58.686829%)" offset="0.550781"/><stop stop-opacity="1" stop-color="rgb(0.75531%, 18.04657%, 58.978271%)" offset="0.554688"/><stop stop-opacity="1" stop-color="rgb(0.752258%, 18.132019%, 59.269714%)" offset="0.558594"/><stop stop-opacity="1" stop-color="rgb(0.749207%, 18.217468%, 59.561157%)" offset="0.5625"/><stop stop-opacity="1" stop-color="rgb(0.746155%, 18.302917%, 59.8526%)" offset="0.566406"/><stop stop-opacity="1" stop-color="rgb(0.743103%, 18.388367%, 60.144043%)" offset="0.570312"/><stop stop-opacity="1" stop-color="rgb(0.740051%, 18.473816%, 60.435486%)" offset="0.574219"/><stop stop-opacity="1" stop-color="rgb(0.737%, 18.560791%, 60.726929%)" offset="0.578125"/><stop stop-opacity="1" stop-color="rgb(0.733948%, 18.64624%, 61.018372%)" offset="0.582031"/><stop stop-opacity="1" stop-color="rgb(0.730896%, 18.731689%, 61.309814%)" offset="0.585938"/><stop stop-opacity="1" stop-color="rgb(0.727844%, 18.817139%, 61.601257%)" offset="0.589844"/><stop stop-opacity="1" stop-color="rgb(0.724792%, 18.902588%, 61.8927%)" offset="0.59375"/><stop stop-opacity="1" stop-color="rgb(0.721741%, 18.988037%, 62.184143%)" offset="0.597656"/><stop stop-opacity="1" stop-color="rgb(0.718689%, 19.073486%, 62.475586%)" offset="0.601562"/><stop stop-opacity="1" stop-color="rgb(0.714111%, 19.158936%, 62.767029%)" offset="0.605469"/><stop stop-opacity="1" stop-color="rgb(0.71106%, 19.244385%, 63.058472%)" offset="0.609375"/><stop stop-opacity="1" stop-color="rgb(0.708008%, 19.329834%, 63.349915%)" offset="0.613281"/><stop stop-opacity="1" stop-color="rgb(0.704956%, 19.415283%, 63.641357%)" offset="0.617188"/><stop stop-opacity="1" stop-color="rgb(0.701904%, 19.500732%, 63.9328%)" offset="0.621094"/><stop stop-opacity="1" stop-color="rgb(0.698853%, 19.586182%, 64.224243%)" offset="0.625"/><stop stop-opacity="1" stop-color="rgb(0.695801%, 19.671631%, 64.515686%)" offset="0.628906"/><stop stop-opacity="1" stop-color="rgb(0.692749%, 19.75708%, 64.807129%)" offset="0.632812"/><stop stop-opacity="1" stop-color="rgb(0.689697%, 19.842529%, 65.098572%)" offset="0.636719"/><stop stop-opacity="1" stop-color="rgb(0.686646%, 19.929504%, 65.390015%)" offset="0.640625"/><stop stop-opacity="1" stop-color="rgb(0.683594%, 20.014954%, 65.681458%)" offset="0.644531"/><stop stop-opacity="1" stop-color="rgb(0.680542%, 20.100403%, 65.9729%)" offset="0.648438"/><stop stop-opacity="1" stop-color="rgb(0.67749%, 20.185852%, 66.264343%)" offset="0.652344"/><stop stop-opacity="1" stop-color="rgb(0.674438%, 20.271301%, 66.555786%)" offset="0.65625"/><stop stop-opacity="1" stop-color="rgb(0.671387%, 20.35675%, 66.847229%)" offset="0.660156"/><stop stop-opacity="1" stop-color="rgb(0.668335%, 20.4422%, 67.138672%)" offset="0.664062"/><stop stop-opacity="1" stop-color="rgb(0.665283%, 20.527649%, 67.430115%)" offset="0.667969"/><stop stop-opacity="1" stop-color="rgb(0.662231%, 20.613098%, 67.721558%)" offset="0.671875"/><stop stop-opacity="1" stop-color="rgb(0.65918%, 20.698547%, 68.013%)" offset="0.675781"/><stop stop-opacity="1" stop-color="rgb(0.656128%, 20.783997%, 68.304443%)" offset="0.679688"/><stop stop-opacity="1" stop-color="rgb(0.65155%, 20.869446%, 68.595886%)" offset="0.683594"/><stop stop-opacity="1" stop-color="rgb(0.648499%, 20.954895%, 68.887329%)" offset="0.6875"/><stop stop-opacity="1" stop-color="rgb(0.645447%, 21.040344%, 69.178772%)" offset="0.691406"/><stop stop-opacity="1" stop-color="rgb(0.642395%, 21.127319%, 69.470215%)" offset="0.695312"/><stop stop-opacity="1" stop-color="rgb(0.639343%, 21.212769%, 69.761658%)" offset="0.699219"/><stop stop-opacity="1" stop-color="rgb(0.636292%, 21.298218%, 70.053101%)" offset="0.703125"/><stop stop-opacity="1" stop-color="rgb(0.63324%, 21.383667%, 70.343018%)" offset="0.707031"/><stop stop-opacity="1" stop-color="rgb(0.630188%, 21.469116%, 70.63446%)" offset="0.710938"/><stop stop-opacity="1" stop-color="rgb(0.627136%, 21.554565%, 70.925903%)" offset="0.714844"/><stop stop-opacity="1" stop-color="rgb(0.624084%, 21.640015%, 71.217346%)" offset="0.71875"/><stop stop-opacity="1" stop-color="rgb(0.621033%, 21.725464%, 71.508789%)" offset="0.722656"/><stop stop-opacity="1" stop-color="rgb(0.617981%, 21.810913%, 71.800232%)" offset="0.726562"/><stop stop-opacity="1" stop-color="rgb(0.614929%, 21.896362%, 72.091675%)" offset="0.730469"/><stop stop-opacity="1" stop-color="rgb(0.611877%, 21.981812%, 72.383118%)" offset="0.734375"/><stop stop-opacity="1" stop-color="rgb(0.608826%, 22.067261%, 72.674561%)" offset="0.738281"/><stop stop-opacity="1" stop-color="rgb(0.605774%, 22.15271%, 72.966003%)" offset="0.742188"/><stop stop-opacity="1" stop-color="rgb(0.602722%, 22.238159%, 73.257446%)" offset="0.746094"/><stop stop-opacity="1" stop-color="rgb(0.59967%, 22.323608%, 73.548889%)" offset="0.75"/><stop stop-opacity="1" stop-color="rgb(0.596619%, 22.409058%, 73.840332%)" offset="0.753906"/><stop stop-opacity="1" stop-color="rgb(0.593567%, 22.496033%, 74.131775%)" offset="0.757812"/><stop stop-opacity="1" stop-color="rgb(0.590515%, 22.581482%, 74.423218%)" offset="0.761719"/><stop stop-opacity="1" stop-color="rgb(0.587463%, 22.666931%, 74.714661%)" offset="0.765625"/><stop stop-opacity="1" stop-color="rgb(0.582886%, 22.75238%, 75.006104%)" offset="0.769531"/><stop stop-opacity="1" stop-color="rgb(0.579834%, 22.83783%, 75.297546%)" offset="0.773438"/><stop stop-opacity="1" stop-color="rgb(0.576782%, 22.923279%, 75.588989%)" offset="0.777344"/><stop stop-opacity="1" stop-color="rgb(0.57373%, 23.008728%, 75.880432%)" offset="0.78125"/><stop stop-opacity="1" stop-color="rgb(0.570679%, 23.094177%, 76.171875%)" offset="0.785156"/><stop stop-opacity="1" stop-color="rgb(0.567627%, 23.179626%, 76.463318%)" offset="0.789062"/><stop stop-opacity="1" stop-color="rgb(0.564575%, 23.265076%, 76.754761%)" offset="0.792969"/><stop stop-opacity="1" stop-color="rgb(0.561523%, 23.350525%, 77.046204%)" offset="0.796875"/><stop stop-opacity="1" stop-color="rgb(0.558472%, 23.435974%, 77.337646%)" offset="0.800781"/><stop stop-opacity="1" stop-color="rgb(0.55542%, 23.521423%, 77.629089%)" offset="0.804688"/><stop stop-opacity="1" stop-color="rgb(0.552368%, 23.606873%, 77.920532%)" offset="0.808594"/><stop stop-opacity="1" stop-color="rgb(0.549316%, 23.692322%, 78.211975%)" offset="0.8125"/><stop stop-opacity="1" stop-color="rgb(0.546265%, 23.777771%, 78.503418%)" offset="0.816406"/><stop stop-opacity="1" stop-color="rgb(0.543213%, 23.864746%, 78.794861%)" offset="0.820312"/><stop stop-opacity="1" stop-color="rgb(0.540161%, 23.950195%, 79.086304%)" offset="0.824219"/><stop stop-opacity="1" stop-color="rgb(0.537109%, 24.035645%, 79.377747%)" offset="0.828125"/><stop stop-opacity="1" stop-color="rgb(0.534058%, 24.121094%, 79.669189%)" offset="0.832031"/><stop stop-opacity="1" stop-color="rgb(0.531006%, 24.206543%, 79.960632%)" offset="0.835938"/><stop stop-opacity="1" stop-color="rgb(0.527954%, 24.291992%, 80.252075%)" offset="0.839844"/><stop stop-opacity="1" stop-color="rgb(0.524902%, 24.377441%, 80.543518%)" offset="0.84375"/><stop stop-opacity="1" stop-color="rgb(0.520325%, 24.462891%, 80.834961%)" offset="0.847656"/><stop stop-opacity="1" stop-color="rgb(0.517273%, 24.54834%, 81.126404%)" offset="0.851562"/><stop stop-opacity="1" stop-color="rgb(0.514221%, 24.633789%, 81.417847%)" offset="0.855469"/><stop stop-opacity="1" stop-color="rgb(0.511169%, 24.719238%, 81.70929%)" offset="0.859375"/><stop stop-opacity="1" stop-color="rgb(0.508118%, 24.804688%, 82.000732%)" offset="0.863281"/><stop stop-opacity="1" stop-color="rgb(0.505066%, 24.890137%, 82.292175%)" offset="0.867188"/><stop stop-opacity="1" stop-color="rgb(0.502014%, 24.975586%, 82.582092%)" offset="0.871094"/><stop stop-opacity="1" stop-color="rgb(0.498962%, 25.061035%, 82.873535%)" offset="0.875"/><stop stop-opacity="1" stop-color="rgb(0.495911%, 25.146484%, 83.164978%)" offset="0.878906"/><stop stop-opacity="1" stop-color="rgb(0.492859%, 25.233459%, 83.456421%)" offset="0.882812"/><stop stop-opacity="1" stop-color="rgb(0.489807%, 25.318909%, 83.747864%)" offset="0.886719"/><stop stop-opacity="1" stop-color="rgb(0.486755%, 25.404358%, 84.039307%)" offset="0.890625"/><stop stop-opacity="1" stop-color="rgb(0.483704%, 25.489807%, 84.33075%)" offset="0.894531"/><stop stop-opacity="1" stop-color="rgb(0.480652%, 25.575256%, 84.622192%)" offset="0.898438"/><stop stop-opacity="1" stop-color="rgb(0.4776%, 25.660706%, 84.913635%)" offset="0.902344"/><stop stop-opacity="1" stop-color="rgb(0.474548%, 25.746155%, 85.205078%)" offset="0.90625"/><stop stop-opacity="1" stop-color="rgb(0.471497%, 25.831604%, 85.496521%)" offset="0.910156"/><stop stop-opacity="1" stop-color="rgb(0.468445%, 25.917053%, 85.787964%)" offset="0.914062"/><stop stop-opacity="1" stop-color="rgb(0.465393%, 26.002502%, 86.079407%)" offset="0.917969"/><stop stop-opacity="1" stop-color="rgb(0.462341%, 26.087952%, 86.37085%)" offset="0.921875"/><stop stop-opacity="1" stop-color="rgb(0.45929%, 26.173401%, 86.662292%)" offset="0.925781"/><stop stop-opacity="1" stop-color="rgb(0.456238%, 26.25885%, 86.953735%)" offset="0.929688"/><stop stop-opacity="1" stop-color="rgb(0.45166%, 26.344299%, 87.245178%)" offset="0.933594"/><stop stop-opacity="1" stop-color="rgb(0.448608%, 26.429749%, 87.536621%)" offset="0.9375"/><stop stop-opacity="1" stop-color="rgb(0.445557%, 26.515198%, 87.828064%)" offset="0.941406"/><stop stop-opacity="1" stop-color="rgb(0.442505%, 26.602173%, 88.119507%)" offset="0.945312"/><stop stop-opacity="1" stop-color="rgb(0.439453%, 26.687622%, 88.41095%)" offset="0.949219"/><stop stop-opacity="1" stop-color="rgb(0.436401%, 26.773071%, 88.702393%)" offset="0.953125"/><stop stop-opacity="1" stop-color="rgb(0.43335%, 26.858521%, 88.993835%)" offset="0.957031"/><stop stop-opacity="1" stop-color="rgb(0.430298%, 26.94397%, 89.285278%)" offset="0.960938"/><stop stop-opacity="1" stop-color="rgb(0.427246%, 27.029419%, 89.576721%)" offset="0.964844"/><stop stop-opacity="1" stop-color="rgb(0.424194%, 27.114868%, 89.868164%)" offset="0.96875"/><stop stop-opacity="1" stop-color="rgb(0.421143%, 27.200317%, 90.159607%)" offset="0.972656"/><stop stop-opacity="1" stop-color="rgb(0.418091%, 27.285767%, 90.45105%)" offset="0.976562"/><stop stop-opacity="1" stop-color="rgb(0.415039%, 27.371216%, 90.742493%)" offset="0.980469"/><stop stop-opacity="1" stop-color="rgb(0.411987%, 27.456665%, 91.033936%)" offset="0.984375"/><stop stop-opacity="1" stop-color="rgb(0.408936%, 27.542114%, 91.325378%)" offset="0.988281"/><stop stop-opacity="1" stop-color="rgb(0.405884%, 27.627563%, 91.616821%)" offset="0.992188"/><stop stop-opacity="1" stop-color="rgb(0.402832%, 27.713013%, 91.908264%)" offset="0.996094"/><stop stop-opacity="1" stop-color="rgb(0.39978%, 27.799988%, 92.199707%)" offset="1"/></linearGradient><mask id="91187ee27d"><g filter="url(#09263030fe)"><rect x="-34.5" width="414" fill="#000000" y="-23.999999" height="287.999994" fill-opacity="0.53"/></g></mask><clipPath id="ecda149f15"><path d="M 0.199219 0.917969 L 264.851562 0.917969 L 264.851562 85.082031 L 0.199219 85.082031 Z M 0.199219 0.917969 " clip-rule="nonzero"/></clipPath><clipPath id="385809721a"><path d="M 8.449219 0.917969 L 256.550781 0.917969 C 258.738281 0.917969 260.835938 1.789062 262.382812 3.335938 C 263.929688 4.882812 264.800781 6.980469 264.800781 9.167969 L 264.800781 76.832031 C 264.800781 79.019531 263.929688 81.117188 262.382812 82.664062 C 260.835938 84.210938 258.738281 85.082031 256.550781 85.082031 L 8.449219 85.082031 C 6.261719 85.082031 4.164062 84.210938 2.617188 82.664062 C 1.070312 81.117188 0.199219 79.019531 0.199219 76.832031 L 0.199219 9.167969 C 0.199219 6.980469 1.070312 4.882812 2.617188 3.335938 C 4.164062 1.789062 6.261719 0.917969 8.449219 0.917969 Z M 8.449219 0.917969 " clip-rule="nonzero"/></clipPath><clipPath id="d0a97122de"><rect x="0" width="266" y="0" height="86"/></clipPath><clipPath id="8b3960ed0a"><path d="M 46.433594 83.585938 L 71.117188 83.585938 L 71.117188 107.886719 L 46.433594 107.886719 Z M 46.433594 83.585938 " clip-rule="nonzero"/></clipPath><clipPath id="f317c2f6cb"><path d="M 54.683594 83.585938 L 62.847656 83.585938 C 65.035156 83.585938 67.132812 84.453125 68.679688 86 C 70.226562 87.546875 71.097656 89.648438 71.097656 91.835938 L 71.097656 99.636719 C 71.097656 101.824219 70.226562 103.921875 68.679688 105.46875 C 67.132812 107.015625 65.035156 107.886719 62.847656 107.886719 L 54.683594 107.886719 C 52.496094 107.886719 50.398438 107.015625 48.851562 105.46875 C 47.304688 103.921875 46.433594 101.824219 46.433594 99.636719 L 46.433594 91.835938 C 46.433594 89.648438 47.304688 87.546875 48.851562 86 C 50.398438 84.453125 52.496094 83.585938 54.683594 83.585938 Z M 54.683594 83.585938 " clip-rule="nonzero"/></clipPath></defs><rect x="-34.5" width="414" fill="#ffffff" y="-23.999999" height="287.999994" fill-opacity="1"/><rect x="-34.5" fill="url(#7fd719a30d)" width="414" y="-23.999999" height="287.999994"/><g mask="url(#91187ee27d)"><g transform="matrix(1, 0, 0, 1, 40, 77)"><g clip-path="url(#d0a97122de)"><g clip-path="url(#ecda149f15)"><g clip-path="url(#385809721a)"><path fill="#dfedf5" d="M 0.199219 0.917969 L 264.851562 0.917969 L 264.851562 85.082031 L 0.199219 85.082031 Z M 0.199219 0.917969 " fill-opacity="1" fill-rule="nonzero"/></g></g></g></g></g><g clip-path="url(#8b3960ed0a)"><g clip-path="url(#f317c2f6cb)"><path fill="#17519e" d="M 46.433594 83.585938 L 71.117188 83.585938 L 71.117188 107.886719 L 46.433594 107.886719 Z M 46.433594 83.585938 " fill-opacity="1" fill-rule="nonzero"/></g></g><g fill="#ffffff" fill-opacity="1"><g transform="translate(73.14832, 98.735598)"><g><path d="M 6.21875 -7.671875 L 3.71875 -2.890625 L 3.71875 0 L 2.71875 0 L 2.71875 -2.890625 L 0.203125 -7.671875 L 1.3125 -7.671875 L 3.21875 -3.78125 L 5.109375 -7.671875 Z M 6.21875 -7.671875 "/></g></g></g><g fill="#ffffff" fill-opacity="1"><g transform="translate(79.56778, 98.735598)"><g><path d="M 3.46875 0.09375 C 2.90625 0.09375 2.394531 -0.03125 1.9375 -0.28125 C 1.476562 -0.539062 1.117188 -0.90625 0.859375 -1.375 C 0.597656 -1.851562 0.46875 -2.40625 0.46875 -3.03125 C 0.46875 -3.644531 0.601562 -4.1875 0.875 -4.65625 C 1.144531 -5.132812 1.507812 -5.5 1.96875 -5.75 C 2.425781 -6 2.941406 -6.125 3.515625 -6.125 C 4.085938 -6.125 4.601562 -6 5.0625 -5.75 C 5.53125 -5.5 5.894531 -5.132812 6.15625 -4.65625 C 6.425781 -4.1875 6.5625 -3.644531 6.5625 -3.03125 C 6.5625 -2.40625 6.421875 -1.851562 6.140625 -1.375 C 5.867188 -0.90625 5.5 -0.539062 5.03125 -0.28125 C 4.5625 -0.03125 4.039062 0.09375 3.46875 0.09375 Z M 3.46875 -0.78125 C 3.832031 -0.78125 4.171875 -0.863281 4.484375 -1.03125 C 4.804688 -1.195312 5.0625 -1.445312 5.25 -1.78125 C 5.445312 -2.125 5.546875 -2.539062 5.546875 -3.03125 C 5.546875 -3.507812 5.445312 -3.914062 5.25 -4.25 C 5.0625 -4.59375 4.8125 -4.847656 4.5 -5.015625 C 4.195312 -5.179688 3.867188 -5.265625 3.515625 -5.265625 C 3.140625 -5.265625 2.800781 -5.179688 2.5 -5.015625 C 2.195312 -4.847656 1.953125 -4.59375 1.765625 -4.25 C 1.585938 -3.914062 1.5 -3.507812 1.5 -3.03125 C 1.5 -2.53125 1.585938 -2.113281 1.765625 -1.78125 C 1.941406 -1.445312 2.179688 -1.195312 2.484375 -1.03125 C 2.785156 -0.863281 3.113281 -0.78125 3.46875 -0.78125 Z M 3.46875 -0.78125 "/></g></g></g><g fill="#ffffff" fill-opacity="1"><g transform="translate(86.602806, 98.735598)"><g><path d="M 6.1875 -6.03125 L 6.1875 0 L 5.1875 0 L 5.1875 -0.890625 C 5 -0.578125 4.734375 -0.332031 4.390625 -0.15625 C 4.054688 0.0078125 3.679688 0.09375 3.265625 0.09375 C 2.796875 0.09375 2.375 -0.00390625 2 -0.203125 C 1.625 -0.398438 1.328125 -0.691406 1.109375 -1.078125 C 0.898438 -1.460938 0.796875 -1.9375 0.796875 -2.5 L 0.796875 -6.03125 L 1.78125 -6.03125 L 1.78125 -2.625 C 1.78125 -2.03125 1.929688 -1.570312 2.234375 -1.25 C 2.535156 -0.9375 2.945312 -0.78125 3.46875 -0.78125 C 4 -0.78125 4.414062 -0.941406 4.71875 -1.265625 C 5.03125 -1.597656 5.1875 -2.082031 5.1875 -2.71875 L 5.1875 -6.03125 Z M 6.1875 -6.03125 "/></g></g></g><g fill="#ffffff" fill-opacity="1"><g transform="translate(93.637832, 98.735598)"><g><path d="M 1.84375 -5.046875 C 2.019531 -5.390625 2.269531 -5.65625 2.59375 -5.84375 C 2.925781 -6.039062 3.328125 -6.140625 3.796875 -6.140625 L 3.796875 -5.109375 L 3.53125 -5.109375 C 2.40625 -5.109375 1.84375 -4.5 1.84375 -3.28125 L 1.84375 0 L 0.84375 0 L 0.84375 -6.03125 L 1.84375 -6.03125 Z M 1.84375 -5.046875 "/></g></g></g><g fill="#ffffff" fill-opacity="1"><g transform="translate(97.73793, 98.735598)"><g/></g></g><g fill="#ffffff" fill-opacity="1"><g transform="translate(100.672859, 98.735598)"><g><path d="M 4.6875 -3.953125 C 4.96875 -3.910156 5.222656 -3.796875 5.453125 -3.609375 C 5.679688 -3.421875 5.863281 -3.191406 6 -2.921875 C 6.132812 -2.648438 6.203125 -2.363281 6.203125 -2.0625 C 6.203125 -1.664062 6.101562 -1.3125 5.90625 -1 C 5.707031 -0.6875 5.421875 -0.441406 5.046875 -0.265625 C 4.671875 -0.0859375 4.222656 0 3.703125 0 L 0.84375 0 L 0.84375 -7.671875 L 3.59375 -7.671875 C 4.113281 -7.671875 4.554688 -7.582031 4.921875 -7.40625 C 5.296875 -7.238281 5.570312 -7.003906 5.75 -6.703125 C 5.9375 -6.410156 6.03125 -6.082031 6.03125 -5.71875 C 6.03125 -5.257812 5.90625 -4.878906 5.65625 -4.578125 C 5.414062 -4.285156 5.09375 -4.078125 4.6875 -3.953125 Z M 1.84375 -4.359375 L 3.53125 -4.359375 C 4 -4.359375 4.359375 -4.46875 4.609375 -4.6875 C 4.867188 -4.90625 5 -5.207031 5 -5.59375 C 5 -5.988281 4.867188 -6.296875 4.609375 -6.515625 C 4.359375 -6.734375 3.992188 -6.84375 3.515625 -6.84375 L 1.84375 -6.84375 Z M 3.625 -0.828125 C 4.113281 -0.828125 4.5 -0.941406 4.78125 -1.171875 C 5.0625 -1.410156 5.203125 -1.738281 5.203125 -2.15625 C 5.203125 -2.582031 5.054688 -2.914062 4.765625 -3.15625 C 4.472656 -3.40625 4.082031 -3.53125 3.59375 -3.53125 L 1.84375 -3.53125 L 1.84375 -0.828125 Z M 3.625 -0.828125 "/></g></g></g><g fill="#ffffff" fill-opacity="1"><g transform="translate(107.411094, 98.735598)"><g><path d="M 1.84375 -5.046875 C 2.019531 -5.390625 2.269531 -5.65625 2.59375 -5.84375 C 2.925781 -6.039062 3.328125 -6.140625 3.796875 -6.140625 L 3.796875 -5.109375 L 3.53125 -5.109375 C 2.40625 -5.109375 1.84375 -4.5 1.84375 -3.28125 L 1.84375 0 L 0.84375 0 L 0.84375 -6.03125 L 1.84375 -6.03125 Z M 1.84375 -5.046875 "/></g></g></g><g fill="#ffffff" fill-opacity="1"><g transform="translate(111.511191, 98.735598)"><g><path d="M 0.46875 -3.03125 C 0.46875 -3.644531 0.59375 -4.1875 0.84375 -4.65625 C 1.09375 -5.125 1.4375 -5.484375 1.875 -5.734375 C 2.3125 -5.992188 2.796875 -6.125 3.328125 -6.125 C 3.859375 -6.125 4.316406 -6.007812 4.703125 -5.78125 C 5.097656 -5.550781 5.390625 -5.265625 5.578125 -4.921875 L 5.578125 -6.03125 L 6.59375 -6.03125 L 6.59375 0 L 5.578125 0 L 5.578125 -1.125 C 5.378906 -0.769531 5.082031 -0.476562 4.6875 -0.25 C 4.300781 -0.0195312 3.847656 0.09375 3.328125 0.09375 C 2.785156 0.09375 2.296875 -0.0351562 1.859375 -0.296875 C 1.429688 -0.554688 1.09375 -0.925781 0.84375 -1.40625 C 0.59375 -1.882812 0.46875 -2.425781 0.46875 -3.03125 Z M 5.578125 -3.03125 C 5.578125 -3.476562 5.484375 -3.867188 5.296875 -4.203125 C 5.117188 -4.546875 4.875 -4.804688 4.5625 -4.984375 C 4.25 -5.171875 3.90625 -5.265625 3.53125 -5.265625 C 3.15625 -5.265625 2.8125 -5.175781 2.5 -5 C 2.195312 -4.820312 1.953125 -4.5625 1.765625 -4.21875 C 1.585938 -3.882812 1.5 -3.488281 1.5 -3.03125 C 1.5 -2.570312 1.585938 -2.171875 1.765625 -1.828125 C 1.953125 -1.484375 2.195312 -1.222656 2.5 -1.046875 C 2.8125 -0.867188 3.15625 -0.78125 3.53125 -0.78125 C 3.90625 -0.78125 4.25 -0.867188 4.5625 -1.046875 C 4.875 -1.222656 5.117188 -1.484375 5.296875 -1.828125 C 5.484375 -2.171875 5.578125 -2.570312 5.578125 -3.03125 Z M 5.578125 -3.03125 "/></g></g></g><g fill="#ffffff" fill-opacity="1"><g transform="translate(118.941942, 98.735598)"><g><path d="M 3.78125 -6.140625 C 4.519531 -6.140625 5.113281 -5.914062 5.5625 -5.46875 C 6.019531 -5.03125 6.25 -4.390625 6.25 -3.546875 L 6.25 0 L 5.265625 0 L 5.265625 -3.40625 C 5.265625 -4.007812 5.113281 -4.46875 4.8125 -4.78125 C 4.507812 -5.101562 4.097656 -5.265625 3.578125 -5.265625 C 3.046875 -5.265625 2.625 -5.097656 2.3125 -4.765625 C 2 -4.441406 1.84375 -3.960938 1.84375 -3.328125 L 1.84375 0 L 0.84375 0 L 0.84375 -6.03125 L 1.84375 -6.03125 L 1.84375 -5.171875 C 2.039062 -5.472656 2.3125 -5.707031 2.65625 -5.875 C 3 -6.050781 3.375 -6.140625 3.78125 -6.140625 Z M 3.78125 -6.140625 "/></g></g></g><g fill="#ffffff" fill-opacity="1"><g transform="translate(125.976969, 98.735598)"><g><path d="M 0.46875 -3.03125 C 0.46875 -3.644531 0.59375 -4.1875 0.84375 -4.65625 C 1.09375 -5.125 1.4375 -5.484375 1.875 -5.734375 C 2.3125 -5.992188 2.800781 -6.125 3.34375 -6.125 C 3.8125 -6.125 4.25 -6.015625 4.65625 -5.796875 C 5.0625 -5.585938 5.367188 -5.304688 5.578125 -4.953125 L 5.578125 -8.140625 L 6.59375 -8.140625 L 6.59375 0 L 5.578125 0 L 5.578125 -1.140625 C 5.378906 -0.773438 5.082031 -0.476562 4.6875 -0.25 C 4.300781 -0.0195312 3.847656 0.09375 3.328125 0.09375 C 2.796875 0.09375 2.3125 -0.0351562 1.875 -0.296875 C 1.4375 -0.554688 1.09375 -0.925781 0.84375 -1.40625 C 0.59375 -1.882812 0.46875 -2.425781 0.46875 -3.03125 Z M 5.578125 -3.03125 C 5.578125 -3.476562 5.484375 -3.867188 5.296875 -4.203125 C 5.117188 -4.546875 4.875 -4.804688 4.5625 -4.984375 C 4.25 -5.171875 3.90625 -5.265625 3.53125 -5.265625 C 3.15625 -5.265625 2.8125 -5.175781 2.5 -5 C 2.195312 -4.820312 1.953125 -4.5625 1.765625 -4.21875 C 1.585938 -3.882812 1.5 -3.488281 1.5 -3.03125 C 1.5 -2.570312 1.585938 -2.171875 1.765625 -1.828125 C 1.953125 -1.484375 2.195312 -1.222656 2.5 -1.046875 C 2.8125 -0.867188 3.15625 -0.78125 3.53125 -0.78125 C 3.90625 -0.78125 4.25 -0.867188 4.5625 -1.046875 C 4.875 -1.222656 5.117188 -1.484375 5.296875 -1.828125 C 5.484375 -2.171875 5.578125 -2.570312 5.578125 -3.03125 Z M 5.578125 -3.03125 "/></g></g></g><g fill="#fffff8" fill-opacity="1"><g transform="translate(269.083405, 95.868937)"><g><path d="M 0.296875 -5.125 L 0.296875 -5.78125 L 1.8125 -5.78125 L 1.8125 0 L 1.078125 0 L 1.078125 -5.125 Z M 0.296875 -5.125 "/></g></g></g><g fill="#fffff8" fill-opacity="1"><g transform="translate(271.643431, 95.868937)"><g><path d="M 2.796875 -4.46875 C 3.117188 -4.46875 3.414062 -4.394531 3.6875 -4.25 C 3.957031 -4.113281 4.164062 -3.898438 4.3125 -3.609375 C 4.46875 -3.328125 4.546875 -2.984375 4.546875 -2.578125 L 4.546875 0 L 3.828125 0 L 3.828125 -2.484375 C 3.828125 -2.921875 3.71875 -3.253906 3.5 -3.484375 C 3.28125 -3.710938 2.976562 -3.828125 2.59375 -3.828125 C 2.21875 -3.828125 1.914062 -3.707031 1.6875 -3.46875 C 1.457031 -3.226562 1.34375 -2.878906 1.34375 -2.421875 L 1.34375 0 L 0.609375 0 L 0.609375 -5.921875 L 1.34375 -5.921875 L 1.34375 -3.765625 C 1.488281 -3.984375 1.6875 -4.15625 1.9375 -4.28125 C 2.1875 -4.40625 2.472656 -4.46875 2.796875 -4.46875 Z M 2.796875 -4.46875 "/></g></g></g><g fill="#fffff8" fill-opacity="1"><g transform="translate(276.763482, 95.868937)"><g/></g></g><g fill="#fffff8" fill-opacity="1"><g transform="translate(278.899505, 95.868937)"><g><path d="M 0.34375 -2.203125 C 0.34375 -2.648438 0.429688 -3.039062 0.609375 -3.375 C 0.796875 -3.71875 1.046875 -3.984375 1.359375 -4.171875 C 1.679688 -4.359375 2.035156 -4.453125 2.421875 -4.453125 C 2.804688 -4.453125 3.140625 -4.367188 3.421875 -4.203125 C 3.703125 -4.035156 3.914062 -3.828125 4.0625 -3.578125 L 4.0625 -4.390625 L 4.796875 -4.390625 L 4.796875 0 L 4.0625 0 L 4.0625 -0.8125 C 3.914062 -0.5625 3.695312 -0.347656 3.40625 -0.171875 C 3.125 -0.00390625 2.796875 0.078125 2.421875 0.078125 C 2.023438 0.078125 1.671875 -0.015625 1.359375 -0.203125 C 1.046875 -0.398438 0.796875 -0.671875 0.609375 -1.015625 C 0.429688 -1.367188 0.34375 -1.765625 0.34375 -2.203125 Z M 4.0625 -2.203125 C 4.0625 -2.535156 3.992188 -2.820312 3.859375 -3.0625 C 3.722656 -3.3125 3.539062 -3.5 3.3125 -3.625 C 3.082031 -3.757812 2.832031 -3.828125 2.5625 -3.828125 C 2.289062 -3.828125 2.039062 -3.757812 1.8125 -3.625 C 1.59375 -3.5 1.414062 -3.3125 1.28125 -3.0625 C 1.15625 -2.820312 1.09375 -2.535156 1.09375 -2.203125 C 1.09375 -1.867188 1.15625 -1.578125 1.28125 -1.328125 C 1.414062 -1.078125 1.59375 -0.882812 1.8125 -0.75 C 2.039062 -0.625 2.289062 -0.5625 2.5625 -0.5625 C 2.832031 -0.5625 3.082031 -0.625 3.3125 -0.75 C 3.539062 -0.882812 3.722656 -1.078125 3.859375 -1.328125 C 3.992188 -1.578125 4.0625 -1.867188 4.0625 -2.203125 Z M 4.0625 -2.203125 "/></g></g></g><g fill="#fffff8" fill-opacity="1"><g transform="translate(284.307562, 95.868937)"><g><path d="M 2.421875 -4.453125 C 2.796875 -4.453125 3.125 -4.367188 3.40625 -4.203125 C 3.695312 -4.035156 3.914062 -3.828125 4.0625 -3.578125 L 4.0625 -4.390625 L 4.796875 -4.390625 L 4.796875 0.09375 C 4.796875 0.5 4.707031 0.851562 4.53125 1.15625 C 4.363281 1.46875 4.117188 1.710938 3.796875 1.890625 C 3.484375 2.066406 3.117188 2.15625 2.703125 2.15625 C 2.117188 2.15625 1.632812 2.019531 1.25 1.75 C 0.875 1.476562 0.648438 1.109375 0.578125 0.640625 L 1.296875 0.640625 C 1.378906 0.910156 1.546875 1.125 1.796875 1.28125 C 2.046875 1.445312 2.347656 1.53125 2.703125 1.53125 C 3.097656 1.53125 3.421875 1.40625 3.671875 1.15625 C 3.929688 0.90625 4.0625 0.550781 4.0625 0.09375 L 4.0625 -0.828125 C 3.914062 -0.566406 3.695312 -0.347656 3.40625 -0.171875 C 3.125 -0.00390625 2.796875 0.078125 2.421875 0.078125 C 2.035156 0.078125 1.679688 -0.015625 1.359375 -0.203125 C 1.046875 -0.398438 0.796875 -0.671875 0.609375 -1.015625 C 0.429688 -1.367188 0.34375 -1.765625 0.34375 -2.203125 C 0.34375 -2.648438 0.429688 -3.039062 0.609375 -3.375 C 0.796875 -3.71875 1.046875 -3.984375 1.359375 -4.171875 C 1.679688 -4.359375 2.035156 -4.453125 2.421875 -4.453125 Z M 4.0625 -2.203125 C 4.0625 -2.535156 3.992188 -2.820312 3.859375 -3.0625 C 3.722656 -3.3125 3.539062 -3.5 3.3125 -3.625 C 3.082031 -3.757812 2.832031 -3.828125 2.5625 -3.828125 C 2.289062 -3.828125 2.039062 -3.757812 1.8125 -3.625 C 1.59375 -3.5 1.414062 -3.3125 1.28125 -3.0625 C 1.15625 -2.820312 1.09375 -2.535156 1.09375 -2.203125 C 1.09375 -1.867188 1.15625 -1.578125 1.28125 -1.328125 C 1.414062 -1.078125 1.59375 -0.882812 1.8125 -0.75 C 2.039062 -0.625 2.289062 -0.5625 2.5625 -0.5625 C 2.832031 -0.5625 3.082031 -0.625 3.3125 -0.75 C 3.539062 -0.882812 3.722656 -1.078125 3.859375 -1.328125 C 3.992188 -1.578125 4.0625 -1.867188 4.0625 -2.203125 Z M 4.0625 -2.203125 "/></g></g></g><g fill="#fffff8" fill-opacity="1"><g transform="translate(289.715618, 95.868937)"><g><path d="M 2.53125 0.078125 C 2.113281 0.078125 1.738281 -0.015625 1.40625 -0.203125 C 1.070312 -0.390625 0.8125 -0.65625 0.625 -1 C 0.4375 -1.34375 0.34375 -1.742188 0.34375 -2.203125 C 0.34375 -2.648438 0.4375 -3.046875 0.625 -3.390625 C 0.820312 -3.734375 1.085938 -3.992188 1.421875 -4.171875 C 1.765625 -4.359375 2.144531 -4.453125 2.5625 -4.453125 C 2.976562 -4.453125 3.351562 -4.359375 3.6875 -4.171875 C 4.019531 -3.992188 4.285156 -3.734375 4.484375 -3.390625 C 4.679688 -3.046875 4.78125 -2.648438 4.78125 -2.203125 C 4.78125 -1.742188 4.675781 -1.34375 4.46875 -1 C 4.269531 -0.65625 4 -0.390625 3.65625 -0.203125 C 3.320312 -0.015625 2.945312 0.078125 2.53125 0.078125 Z M 2.53125 -0.5625 C 2.789062 -0.5625 3.035156 -0.625 3.265625 -0.75 C 3.492188 -0.875 3.675781 -1.054688 3.8125 -1.296875 C 3.957031 -1.546875 4.03125 -1.847656 4.03125 -2.203125 C 4.03125 -2.554688 3.957031 -2.851562 3.8125 -3.09375 C 3.675781 -3.34375 3.492188 -3.523438 3.265625 -3.640625 C 3.046875 -3.765625 2.804688 -3.828125 2.546875 -3.828125 C 2.285156 -3.828125 2.039062 -3.765625 1.8125 -3.640625 C 1.59375 -3.523438 1.414062 -3.34375 1.28125 -3.09375 C 1.15625 -2.851562 1.09375 -2.554688 1.09375 -2.203125 C 1.09375 -1.835938 1.15625 -1.53125 1.28125 -1.28125 C 1.414062 -1.039062 1.59375 -0.859375 1.8125 -0.734375 C 2.03125 -0.617188 2.269531 -0.5625 2.53125 -0.5625 Z M 2.53125 -0.5625 "/></g></g></g><g fill="#000000" fill-opacity="1"><g transform="translate(46.435448, 123.719428)"><g><path d="M 6.140625 -6.96875 L 6.140625 0 L 5.234375 0 L 5.234375 -3.15625 L 1.6875 -3.15625 L 1.6875 0 L 0.765625 0 L 0.765625 -6.96875 L 1.6875 -6.96875 L 1.6875 -3.90625 L 5.234375 -3.90625 L 5.234375 -6.96875 Z M 6.140625 -6.96875 "/></g></g></g><g fill="#000000" fill-opacity="1"><g transform="translate(53.352714, 123.719428)"><g><path d="M 5.765625 -2.953125 C 5.765625 -2.773438 5.753906 -2.59375 5.734375 -2.40625 L 1.359375 -2.40625 C 1.390625 -1.863281 1.570312 -1.441406 1.90625 -1.140625 C 2.25 -0.835938 2.660156 -0.6875 3.140625 -0.6875 C 3.535156 -0.6875 3.863281 -0.773438 4.125 -0.953125 C 4.382812 -1.140625 4.570312 -1.382812 4.6875 -1.6875 L 5.65625 -1.6875 C 5.507812 -1.164062 5.21875 -0.738281 4.78125 -0.40625 C 4.34375 -0.0703125 3.796875 0.09375 3.140625 0.09375 C 2.617188 0.09375 2.148438 -0.0195312 1.734375 -0.25 C 1.328125 -0.488281 1.007812 -0.820312 0.78125 -1.25 C 0.550781 -1.6875 0.4375 -2.1875 0.4375 -2.75 C 0.4375 -3.3125 0.546875 -3.804688 0.765625 -4.234375 C 0.992188 -4.660156 1.3125 -4.988281 1.71875 -5.21875 C 2.132812 -5.445312 2.609375 -5.5625 3.140625 -5.5625 C 3.660156 -5.5625 4.117188 -5.445312 4.515625 -5.21875 C 4.921875 -5 5.226562 -4.691406 5.4375 -4.296875 C 5.65625 -3.898438 5.765625 -3.453125 5.765625 -2.953125 Z M 4.828125 -3.140625 C 4.828125 -3.484375 4.75 -3.78125 4.59375 -4.03125 C 4.445312 -4.28125 4.238281 -4.46875 3.96875 -4.59375 C 3.707031 -4.726562 3.414062 -4.796875 3.09375 -4.796875 C 2.632812 -4.796875 2.242188 -4.648438 1.921875 -4.359375 C 1.597656 -4.066406 1.414062 -3.660156 1.375 -3.140625 Z M 4.828125 -3.140625 "/></g></g></g><g fill="#000000" fill-opacity="1"><g transform="translate(59.550273, 123.719428)"><g><path d="M 5.484375 -5.484375 L 2.1875 2.578125 L 1.25 2.578125 L 2.328125 -0.0625 L 0.125 -5.484375 L 1.125 -5.484375 L 2.84375 -1.046875 L 4.546875 -5.484375 Z M 5.484375 -5.484375 "/></g></g></g><g fill="#000000" fill-opacity="1"><g transform="translate(65.178054, 123.719428)"><g/></g></g><g fill="#000000" fill-opacity="1"><g transform="translate(67.846999, 123.719428)"><g><path d="M 4.890625 -1.546875 L 1.84375 -1.546875 L 1.296875 0 L 0.328125 0 L 2.84375 -6.9375 L 3.90625 -6.9375 L 6.40625 0 L 5.453125 0 Z M 4.625 -2.296875 L 3.375 -5.8125 L 2.109375 -2.296875 Z M 4.625 -2.296875 "/></g></g></g><g fill="#000000" fill-opacity="1"><g transform="translate(74.584342, 123.719428)"><g><path d="M 3.484375 -5.578125 C 3.898438 -5.578125 4.273438 -5.488281 4.609375 -5.3125 C 4.941406 -5.132812 5.203125 -4.867188 5.390625 -4.515625 C 5.585938 -4.160156 5.6875 -3.734375 5.6875 -3.234375 L 5.6875 0 L 4.78125 0 L 4.78125 -3.09375 C 4.78125 -3.644531 4.640625 -4.066406 4.359375 -4.359375 C 4.085938 -4.648438 3.71875 -4.796875 3.25 -4.796875 C 2.769531 -4.796875 2.390625 -4.644531 2.109375 -4.34375 C 1.828125 -4.039062 1.6875 -3.601562 1.6875 -3.03125 L 1.6875 0 L 0.765625 0 L 0.765625 -7.40625 L 1.6875 -7.40625 L 1.6875 -4.703125 C 1.863281 -4.984375 2.109375 -5.195312 2.421875 -5.34375 C 2.742188 -5.5 3.097656 -5.578125 3.484375 -5.578125 Z M 3.484375 -5.578125 "/></g></g></g><g fill="#000000" fill-opacity="1"><g transform="translate(80.981817, 123.719428)"><g><path d="M 7.359375 -5.578125 C 7.785156 -5.578125 8.164062 -5.488281 8.5 -5.3125 C 8.832031 -5.132812 9.09375 -4.867188 9.28125 -4.515625 C 9.476562 -4.160156 9.578125 -3.734375 9.578125 -3.234375 L 9.578125 0 L 8.6875 0 L 8.6875 -3.09375 C 8.6875 -3.644531 8.550781 -4.066406 8.28125 -4.359375 C 8.007812 -4.648438 7.644531 -4.796875 7.1875 -4.796875 C 6.707031 -4.796875 6.328125 -4.640625 6.046875 -4.328125 C 5.765625 -4.023438 5.625 -3.585938 5.625 -3.015625 L 5.625 0 L 4.734375 0 L 4.734375 -3.09375 C 4.734375 -3.644531 4.597656 -4.066406 4.328125 -4.359375 C 4.054688 -4.648438 3.691406 -4.796875 3.234375 -4.796875 C 2.753906 -4.796875 2.375 -4.640625 2.09375 -4.328125 C 1.820312 -4.023438 1.6875 -3.585938 1.6875 -3.015625 L 1.6875 0 L 0.765625 0 L 0.765625 -5.484375 L 1.6875 -5.484375 L 1.6875 -4.6875 C 1.863281 -4.976562 2.101562 -5.195312 2.40625 -5.34375 C 2.707031 -5.5 3.039062 -5.578125 3.40625 -5.578125 C 3.863281 -5.578125 4.269531 -5.472656 4.625 -5.265625 C 4.976562 -5.054688 5.242188 -4.753906 5.421875 -4.359375 C 5.578125 -4.742188 5.828125 -5.039062 6.171875 -5.25 C 6.523438 -5.46875 6.921875 -5.578125 7.359375 -5.578125 Z M 7.359375 -5.578125 "/></g></g></g><g fill="#000000" fill-opacity="1"><g transform="translate(91.277757, 123.719428)"><g><path d="M 5.765625 -2.953125 C 5.765625 -2.773438 5.753906 -2.59375 5.734375 -2.40625 L 1.359375 -2.40625 C 1.390625 -1.863281 1.570312 -1.441406 1.90625 -1.140625 C 2.25 -0.835938 2.660156 -0.6875 3.140625 -0.6875 C 3.535156 -0.6875 3.863281 -0.773438 4.125 -0.953125 C 4.382812 -1.140625 4.570312 -1.382812 4.6875 -1.6875 L 5.65625 -1.6875 C 5.507812 -1.164062 5.21875 -0.738281 4.78125 -0.40625 C 4.34375 -0.0703125 3.796875 0.09375 3.140625 0.09375 C 2.617188 0.09375 2.148438 -0.0195312 1.734375 -0.25 C 1.328125 -0.488281 1.007812 -0.820312 0.78125 -1.25 C 0.550781 -1.6875 0.4375 -2.1875 0.4375 -2.75 C 0.4375 -3.3125 0.546875 -3.804688 0.765625 -4.234375 C 0.992188 -4.660156 1.3125 -4.988281 1.71875 -5.21875 C 2.132812 -5.445312 2.609375 -5.5625 3.140625 -5.5625 C 3.660156 -5.5625 4.117188 -5.445312 4.515625 -5.21875 C 4.921875 -5 5.226562 -4.691406 5.4375 -4.296875 C 5.65625 -3.898438 5.765625 -3.453125 5.765625 -2.953125 Z M 4.828125 -3.140625 C 4.828125 -3.484375 4.75 -3.78125 4.59375 -4.03125 C 4.445312 -4.28125 4.238281 -4.46875 3.96875 -4.59375 C 3.707031 -4.726562 3.414062 -4.796875 3.09375 -4.796875 C 2.632812 -4.796875 2.242188 -4.648438 1.921875 -4.359375 C 1.597656 -4.066406 1.414062 -3.660156 1.375 -3.140625 Z M 4.828125 -3.140625 "/></g></g></g><g fill="#000000" fill-opacity="1"><g transform="translate(97.475316, 123.719428)"><g><path d="M 0.4375 -2.765625 C 0.4375 -3.316406 0.546875 -3.804688 0.765625 -4.234375 C 0.992188 -4.660156 1.304688 -4.988281 1.703125 -5.21875 C 2.097656 -5.445312 2.546875 -5.5625 3.046875 -5.5625 C 3.472656 -5.5625 3.867188 -5.460938 4.234375 -5.265625 C 4.597656 -5.078125 4.875 -4.820312 5.0625 -4.5 L 5.0625 -7.40625 L 5.984375 -7.40625 L 5.984375 0 L 5.0625 0 L 5.0625 -1.03125 C 4.882812 -0.707031 4.617188 -0.4375 4.265625 -0.21875 C 3.910156 -0.0078125 3.5 0.09375 3.03125 0.09375 C 2.539062 0.09375 2.097656 -0.0234375 1.703125 -0.265625 C 1.304688 -0.503906 0.992188 -0.84375 0.765625 -1.28125 C 0.546875 -1.71875 0.4375 -2.210938 0.4375 -2.765625 Z M 5.0625 -2.75 C 5.0625 -3.164062 4.976562 -3.523438 4.8125 -3.828125 C 4.644531 -4.140625 4.421875 -4.375 4.140625 -4.53125 C 3.859375 -4.695312 3.546875 -4.78125 3.203125 -4.78125 C 2.867188 -4.78125 2.5625 -4.695312 2.28125 -4.53125 C 2 -4.375 1.773438 -4.140625 1.609375 -3.828125 C 1.441406 -3.523438 1.359375 -3.171875 1.359375 -2.765625 C 1.359375 -2.335938 1.441406 -1.96875 1.609375 -1.65625 C 1.773438 -1.351562 2 -1.117188 2.28125 -0.953125 C 2.5625 -0.785156 2.867188 -0.703125 3.203125 -0.703125 C 3.546875 -0.703125 3.859375 -0.785156 4.140625 -0.953125 C 4.421875 -1.117188 4.644531 -1.351562 4.8125 -1.65625 C 4.976562 -1.96875 5.0625 -2.332031 5.0625 -2.75 Z M 5.0625 -2.75 "/></g></g></g><g fill="#000000" fill-opacity="1"><g transform="translate(104.232651, 123.719428)"><g><path d="M 1.703125 -1.265625 L 0.59375 1.4375 L -0.015625 1.4375 L 0.703125 -1.265625 Z M 1.703125 -1.265625 "/></g></g></g><g fill="#000000" fill-opacity="1"><g transform="translate(106.211873, 123.719428)"><g/></g></g><g fill="#000000" fill-opacity="1"><g transform="translate(108.880818, 123.719428)"><g><path d="M 6.046875 -4.953125 C 5.859375 -5.359375 5.578125 -5.671875 5.203125 -5.890625 C 4.835938 -6.117188 4.414062 -6.234375 3.9375 -6.234375 C 3.445312 -6.234375 3.003906 -6.117188 2.609375 -5.890625 C 2.222656 -5.671875 1.914062 -5.351562 1.6875 -4.9375 C 1.46875 -4.519531 1.359375 -4.035156 1.359375 -3.484375 C 1.359375 -2.941406 1.46875 -2.460938 1.6875 -2.046875 C 1.914062 -1.640625 2.222656 -1.320312 2.609375 -1.09375 C 3.003906 -0.875 3.445312 -0.765625 3.9375 -0.765625 C 4.613281 -0.765625 5.171875 -0.96875 5.609375 -1.375 C 6.046875 -1.78125 6.300781 -2.328125 6.375 -3.015625 L 3.59375 -3.015625 L 3.59375 -3.765625 L 7.34375 -3.765625 L 7.34375 -3.0625 C 7.289062 -2.488281 7.109375 -1.960938 6.796875 -1.484375 C 6.492188 -1.003906 6.09375 -0.625 5.59375 -0.34375 C 5.09375 -0.0703125 4.539062 0.0625 3.9375 0.0625 C 3.28125 0.0625 2.6875 -0.0859375 2.15625 -0.390625 C 1.625 -0.691406 1.203125 -1.113281 0.890625 -1.65625 C 0.585938 -2.195312 0.4375 -2.804688 0.4375 -3.484375 C 0.4375 -4.171875 0.585938 -4.785156 0.890625 -5.328125 C 1.203125 -5.867188 1.625 -6.289062 2.15625 -6.59375 C 2.6875 -6.894531 3.28125 -7.046875 3.9375 -7.046875 C 4.675781 -7.046875 5.328125 -6.863281 5.890625 -6.5 C 6.460938 -6.132812 6.878906 -5.617188 7.140625 -4.953125 Z M 6.046875 -4.953125 "/></g></g></g><g fill="#000000" fill-opacity="1"><g transform="translate(116.657753, 123.719428)"><g><path d="M 5.765625 -2.953125 C 5.765625 -2.773438 5.753906 -2.59375 5.734375 -2.40625 L 1.359375 -2.40625 C 1.390625 -1.863281 1.570312 -1.441406 1.90625 -1.140625 C 2.25 -0.835938 2.660156 -0.6875 3.140625 -0.6875 C 3.535156 -0.6875 3.863281 -0.773438 4.125 -0.953125 C 4.382812 -1.140625 4.570312 -1.382812 4.6875 -1.6875 L 5.65625 -1.6875 C 5.507812 -1.164062 5.21875 -0.738281 4.78125 -0.40625 C 4.34375 -0.0703125 3.796875 0.09375 3.140625 0.09375 C 2.617188 0.09375 2.148438 -0.0195312 1.734375 -0.25 C 1.328125 -0.488281 1.007812 -0.820312 0.78125 -1.25 C 0.550781 -1.6875 0.4375 -2.1875 0.4375 -2.75 C 0.4375 -3.3125 0.546875 -3.804688 0.765625 -4.234375 C 0.992188 -4.660156 1.3125 -4.988281 1.71875 -5.21875 C 2.132812 -5.445312 2.609375 -5.5625 3.140625 -5.5625 C 3.660156 -5.5625 4.117188 -5.445312 4.515625 -5.21875 C 4.921875 -5 5.226562 -4.691406 5.4375 -4.296875 C 5.65625 -3.898438 5.765625 -3.453125 5.765625 -2.953125 Z M 4.828125 -3.140625 C 4.828125 -3.484375 4.75 -3.78125 4.59375 -4.03125 C 4.445312 -4.28125 4.238281 -4.46875 3.96875 -4.59375 C 3.707031 -4.726562 3.414062 -4.796875 3.09375 -4.796875 C 2.632812 -4.796875 2.242188 -4.648438 1.921875 -4.359375 C 1.597656 -4.066406 1.414062 -3.660156 1.375 -3.140625 Z M 4.828125 -3.140625 "/></g></g></g><g fill="#000000" fill-opacity="1"><g transform="translate(122.855312, 123.719428)"><g><path d="M 1.875 -4.734375 L 1.875 -1.5 C 1.875 -1.226562 1.929688 -1.035156 2.046875 -0.921875 C 2.160156 -0.816406 2.359375 -0.765625 2.640625 -0.765625 L 3.3125 -0.765625 L 3.3125 0 L 2.484375 0 C 1.984375 0 1.601562 -0.113281 1.34375 -0.34375 C 1.09375 -0.582031 0.96875 -0.96875 0.96875 -1.5 L 0.96875 -4.734375 L 0.265625 -4.734375 L 0.265625 -5.484375 L 0.96875 -5.484375 L 0.96875 -6.859375 L 1.875 -6.859375 L 1.875 -5.484375 L 3.3125 -5.484375 L 3.3125 -4.734375 Z M 1.875 -4.734375 "/></g></g></g><g fill="#000000" fill-opacity="1"><g transform="translate(126.49388, 123.719428)"><g/></g></g><g fill="#000000" fill-opacity="1"><g transform="translate(129.162826, 123.719428)"><g><path d="M 0.375 -6.40625 L 0.375 -7.234375 L 2.265625 -7.234375 L 2.265625 0 L 1.34375 0 L 1.34375 -6.40625 Z M 0.375 -6.40625 "/></g></g></g><g fill="#000000" fill-opacity="1"><g transform="translate(132.361564, 123.719428)"><g><path d="M 5.234375 -6.4375 L 1.71875 -6.4375 L 1.71875 -4.15625 C 1.875 -4.375 2.097656 -4.550781 2.390625 -4.6875 C 2.691406 -4.820312 3.019531 -4.890625 3.375 -4.890625 C 3.925781 -4.890625 4.375 -4.773438 4.71875 -4.546875 C 5.0625 -4.316406 5.304688 -4.019531 5.453125 -3.65625 C 5.609375 -3.289062 5.6875 -2.90625 5.6875 -2.5 C 5.6875 -2.019531 5.597656 -1.585938 5.421875 -1.203125 C 5.242188 -0.828125 4.96875 -0.53125 4.59375 -0.3125 C 4.226562 -0.09375 3.769531 0.015625 3.21875 0.015625 C 2.519531 0.015625 1.953125 -0.160156 1.515625 -0.515625 C 1.085938 -0.878906 0.828125 -1.359375 0.734375 -1.953125 L 1.625 -1.953125 C 1.707031 -1.578125 1.890625 -1.28125 2.171875 -1.0625 C 2.453125 -0.851562 2.804688 -0.75 3.234375 -0.75 C 3.753906 -0.75 4.144531 -0.90625 4.40625 -1.21875 C 4.675781 -1.539062 4.8125 -1.960938 4.8125 -2.484375 C 4.8125 -3.003906 4.675781 -3.40625 4.40625 -3.6875 C 4.144531 -3.96875 3.753906 -4.109375 3.234375 -4.109375 C 2.878906 -4.109375 2.570312 -4.019531 2.3125 -3.84375 C 2.050781 -3.675781 1.859375 -3.445312 1.734375 -3.15625 L 0.875 -3.15625 L 0.875 -7.234375 L 5.234375 -7.234375 Z M 5.234375 -6.4375 "/></g></g></g><g fill="#000000" fill-opacity="1"><g transform="translate(138.639082, 123.719428)"><g><path d="M 0.421875 -5.59375 C 0.421875 -6.050781 0.554688 -6.414062 0.828125 -6.6875 C 1.097656 -6.957031 1.445312 -7.09375 1.875 -7.09375 C 2.300781 -7.09375 2.648438 -6.957031 2.921875 -6.6875 C 3.203125 -6.414062 3.34375 -6.050781 3.34375 -5.59375 C 3.34375 -5.132812 3.203125 -4.769531 2.921875 -4.5 C 2.648438 -4.226562 2.300781 -4.09375 1.875 -4.09375 C 1.445312 -4.09375 1.097656 -4.226562 0.828125 -4.5 C 0.554688 -4.769531 0.421875 -5.132812 0.421875 -5.59375 Z M 6.265625 -6.984375 L 2.203125 0 L 1.3125 0 L 5.359375 -6.984375 Z M 1.875 -6.53125 C 1.65625 -6.53125 1.476562 -6.453125 1.34375 -6.296875 C 1.21875 -6.140625 1.15625 -5.90625 1.15625 -5.59375 C 1.15625 -5.289062 1.21875 -5.054688 1.34375 -4.890625 C 1.476562 -4.734375 1.65625 -4.65625 1.875 -4.65625 C 2.101562 -4.65625 2.285156 -4.738281 2.421875 -4.90625 C 2.554688 -5.070312 2.625 -5.300781 2.625 -5.59375 C 2.625 -5.90625 2.554688 -6.140625 2.421875 -6.296875 C 2.285156 -6.453125 2.101562 -6.53125 1.875 -6.53125 Z M 4.25 -1.375 C 4.25 -1.832031 4.382812 -2.195312 4.65625 -2.46875 C 4.925781 -2.738281 5.273438 -2.875 5.703125 -2.875 C 6.128906 -2.875 6.476562 -2.738281 6.75 -2.46875 C 7.019531 -2.195312 7.15625 -1.832031 7.15625 -1.375 C 7.15625 -0.925781 7.019531 -0.5625 6.75 -0.28125 C 6.476562 -0.0078125 6.128906 0.125 5.703125 0.125 C 5.273438 0.125 4.925781 -0.0078125 4.65625 -0.28125 C 4.382812 -0.550781 4.25 -0.914062 4.25 -1.375 Z M 5.703125 -2.3125 C 5.472656 -2.3125 5.289062 -2.234375 5.15625 -2.078125 C 5.019531 -1.921875 4.953125 -1.6875 4.953125 -1.375 C 4.953125 -1.082031 5.019531 -0.851562 5.15625 -0.6875 C 5.289062 -0.53125 5.472656 -0.453125 5.703125 -0.453125 C 5.929688 -0.453125 6.109375 -0.53125 6.234375 -0.6875 C 6.367188 -0.851562 6.4375 -1.082031 6.4375 -1.375 C 6.4375 -1.6875 6.367188 -1.921875 6.234375 -2.078125 C 6.109375 -2.234375 5.929688 -2.3125 5.703125 -2.3125 Z M 5.703125 -2.3125 "/></g></g></g><g fill="#000000" fill-opacity="1"><g transform="translate(146.226091, 123.719428)"><g/></g></g><g fill="#000000" fill-opacity="1"><g transform="translate(148.895036, 123.719428)"><g><path d="M 3.15625 0.09375 C 2.644531 0.09375 2.179688 -0.0195312 1.765625 -0.25 C 1.347656 -0.488281 1.019531 -0.820312 0.78125 -1.25 C 0.550781 -1.6875 0.4375 -2.1875 0.4375 -2.75 C 0.4375 -3.3125 0.554688 -3.804688 0.796875 -4.234375 C 1.035156 -4.660156 1.363281 -4.988281 1.78125 -5.21875 C 2.207031 -5.445312 2.679688 -5.5625 3.203125 -5.5625 C 3.722656 -5.5625 4.191406 -5.445312 4.609375 -5.21875 C 5.023438 -4.988281 5.351562 -4.660156 5.59375 -4.234375 C 5.84375 -3.804688 5.96875 -3.3125 5.96875 -2.75 C 5.96875 -2.1875 5.84375 -1.6875 5.59375 -1.25 C 5.34375 -0.820312 5.003906 -0.488281 4.578125 -0.25 C 4.148438 -0.0195312 3.675781 0.09375 3.15625 0.09375 Z M 3.15625 -0.703125 C 3.488281 -0.703125 3.796875 -0.78125 4.078125 -0.9375 C 4.367188 -1.09375 4.601562 -1.320312 4.78125 -1.625 C 4.957031 -1.9375 5.046875 -2.3125 5.046875 -2.75 C 5.046875 -3.1875 4.957031 -3.554688 4.78125 -3.859375 C 4.601562 -4.171875 4.375 -4.398438 4.09375 -4.546875 C 3.820312 -4.703125 3.519531 -4.78125 3.1875 -4.78125 C 2.851562 -4.78125 2.546875 -4.703125 2.265625 -4.546875 C 1.992188 -4.398438 1.773438 -4.171875 1.609375 -3.859375 C 1.441406 -3.554688 1.359375 -3.1875 1.359375 -2.75 C 1.359375 -2.300781 1.4375 -1.921875 1.59375 -1.609375 C 1.757812 -1.304688 1.976562 -1.078125 2.25 -0.921875 C 2.53125 -0.773438 2.832031 -0.703125 3.15625 -0.703125 Z M 3.15625 -0.703125 "/></g></g></g><g fill="#000000" fill-opacity="1"><g transform="translate(155.292512, 123.719428)"><g><path d="M 3 -4.734375 L 1.84375 -4.734375 L 1.84375 0 L 0.9375 0 L 0.9375 -4.734375 L 0.234375 -4.734375 L 0.234375 -5.484375 L 0.9375 -5.484375 L 0.9375 -5.875 C 0.9375 -6.488281 1.09375 -6.9375 1.40625 -7.21875 C 1.726562 -7.5 2.238281 -7.640625 2.9375 -7.640625 L 2.9375 -6.875 C 2.539062 -6.875 2.257812 -6.796875 2.09375 -6.640625 C 1.925781 -6.484375 1.84375 -6.226562 1.84375 -5.875 L 1.84375 -5.484375 L 3 -5.484375 Z M 3 -4.734375 "/></g></g></g><g fill="#000000" fill-opacity="1"><g transform="translate(158.581212, 123.719428)"><g><path d="M 3 -4.734375 L 1.84375 -4.734375 L 1.84375 0 L 0.9375 0 L 0.9375 -4.734375 L 0.234375 -4.734375 L 0.234375 -5.484375 L 0.9375 -5.484375 L 0.9375 -5.875 C 0.9375 -6.488281 1.09375 -6.9375 1.40625 -7.21875 C 1.726562 -7.5 2.238281 -7.640625 2.9375 -7.640625 L 2.9375 -6.875 C 2.539062 -6.875 2.257812 -6.796875 2.09375 -6.640625 C 1.925781 -6.484375 1.84375 -6.226562 1.84375 -5.875 L 1.84375 -5.484375 L 3 -5.484375 Z M 3 -4.734375 "/></g></g></g><g fill="#000000" fill-opacity="1"><g transform="translate(161.869912, 123.719428)"><g/></g></g><g fill="#000000" fill-opacity="1"><g transform="translate(164.538857, 123.719428)"><g><path d="M 5.484375 -5.484375 L 2.1875 2.578125 L 1.25 2.578125 L 2.328125 -0.0625 L 0.125 -5.484375 L 1.125 -5.484375 L 2.84375 -1.046875 L 4.546875 -5.484375 Z M 5.484375 -5.484375 "/></g></g></g><g fill="#000000" fill-opacity="1"><g transform="translate(170.166638, 123.719428)"><g><path d="M 3.15625 0.09375 C 2.644531 0.09375 2.179688 -0.0195312 1.765625 -0.25 C 1.347656 -0.488281 1.019531 -0.820312 0.78125 -1.25 C 0.550781 -1.6875 0.4375 -2.1875 0.4375 -2.75 C 0.4375 -3.3125 0.554688 -3.804688 0.796875 -4.234375 C 1.035156 -4.660156 1.363281 -4.988281 1.78125 -5.21875 C 2.207031 -5.445312 2.679688 -5.5625 3.203125 -5.5625 C 3.722656 -5.5625 4.191406 -5.445312 4.609375 -5.21875 C 5.023438 -4.988281 5.351562 -4.660156 5.59375 -4.234375 C 5.84375 -3.804688 5.96875 -3.3125 5.96875 -2.75 C 5.96875 -2.1875 5.84375 -1.6875 5.59375 -1.25 C 5.34375 -0.820312 5.003906 -0.488281 4.578125 -0.25 C 4.148438 -0.0195312 3.675781 0.09375 3.15625 0.09375 Z M 3.15625 -0.703125 C 3.488281 -0.703125 3.796875 -0.78125 4.078125 -0.9375 C 4.367188 -1.09375 4.601562 -1.320312 4.78125 -1.625 C 4.957031 -1.9375 5.046875 -2.3125 5.046875 -2.75 C 5.046875 -3.1875 4.957031 -3.554688 4.78125 -3.859375 C 4.601562 -4.171875 4.375 -4.398438 4.09375 -4.546875 C 3.820312 -4.703125 3.519531 -4.78125 3.1875 -4.78125 C 2.851562 -4.78125 2.546875 -4.703125 2.265625 -4.546875 C 1.992188 -4.398438 1.773438 -4.171875 1.609375 -3.859375 C 1.441406 -3.554688 1.359375 -3.1875 1.359375 -2.75 C 1.359375 -2.300781 1.4375 -1.921875 1.59375 -1.609375 C 1.757812 -1.304688 1.976562 -1.078125 2.25 -0.921875 C 2.53125 -0.773438 2.832031 -0.703125 3.15625 -0.703125 Z M 3.15625 -0.703125 "/></g></g></g><g fill="#000000" fill-opacity="1"><g transform="translate(176.564114, 123.719428)"><g><path d="M 5.625 -5.484375 L 5.625 0 L 4.71875 0 L 4.71875 -0.8125 C 4.539062 -0.53125 4.296875 -0.3125 3.984375 -0.15625 C 3.679688 0 3.34375 0.078125 2.96875 0.078125 C 2.539062 0.078125 2.15625 -0.0078125 1.8125 -0.1875 C 1.476562 -0.363281 1.210938 -0.628906 1.015625 -0.984375 C 0.816406 -1.335938 0.71875 -1.765625 0.71875 -2.265625 L 0.71875 -5.484375 L 1.625 -5.484375 L 1.625 -2.390625 C 1.625 -1.847656 1.757812 -1.429688 2.03125 -1.140625 C 2.300781 -0.847656 2.675781 -0.703125 3.15625 -0.703125 C 3.632812 -0.703125 4.015625 -0.851562 4.296875 -1.15625 C 4.578125 -1.457031 4.71875 -1.894531 4.71875 -2.46875 L 4.71875 -5.484375 Z M 5.625 -5.484375 "/></g></g></g><g fill="#000000" fill-opacity="1"><g transform="translate(182.96159, 123.719428)"><g><path d="M 1.6875 -4.59375 C 1.84375 -4.90625 2.066406 -5.144531 2.359375 -5.3125 C 2.660156 -5.488281 3.023438 -5.578125 3.453125 -5.578125 L 3.453125 -4.640625 L 3.203125 -4.640625 C 2.191406 -4.640625 1.6875 -4.085938 1.6875 -2.984375 L 1.6875 0 L 0.765625 0 L 0.765625 -5.484375 L 1.6875 -5.484375 Z M 1.6875 -4.59375 "/></g></g></g><g fill="#000000" fill-opacity="1"><g transform="translate(186.69012, 123.719428)"><g/></g></g><g fill="#000000" fill-opacity="1"><g transform="translate(189.359065, 123.719428)"><g><path d="M 3 -4.734375 L 1.84375 -4.734375 L 1.84375 0 L 0.9375 0 L 0.9375 -4.734375 L 0.234375 -4.734375 L 0.234375 -5.484375 L 0.9375 -5.484375 L 0.9375 -5.875 C 0.9375 -6.488281 1.09375 -6.9375 1.40625 -7.21875 C 1.726562 -7.5 2.238281 -7.640625 2.9375 -7.640625 L 2.9375 -6.875 C 2.539062 -6.875 2.257812 -6.796875 2.09375 -6.640625 C 1.925781 -6.484375 1.84375 -6.226562 1.84375 -5.875 L 1.84375 -5.484375 L 3 -5.484375 Z M 3 -4.734375 "/></g></g></g><g fill="#000000" fill-opacity="1"><g transform="translate(192.647765, 123.719428)"><g><path d="M 0.4375 -2.765625 C 0.4375 -3.316406 0.546875 -3.804688 0.765625 -4.234375 C 0.992188 -4.660156 1.304688 -4.988281 1.703125 -5.21875 C 2.097656 -5.445312 2.539062 -5.5625 3.03125 -5.5625 C 3.507812 -5.5625 3.925781 -5.457031 4.28125 -5.25 C 4.632812 -5.050781 4.894531 -4.796875 5.0625 -4.484375 L 5.0625 -5.484375 L 5.984375 -5.484375 L 5.984375 0 L 5.0625 0 L 5.0625 -1.015625 C 4.882812 -0.703125 4.617188 -0.4375 4.265625 -0.21875 C 3.910156 -0.0078125 3.492188 0.09375 3.015625 0.09375 C 2.535156 0.09375 2.097656 -0.0234375 1.703125 -0.265625 C 1.304688 -0.503906 0.992188 -0.84375 0.765625 -1.28125 C 0.546875 -1.71875 0.4375 -2.210938 0.4375 -2.765625 Z M 5.0625 -2.75 C 5.0625 -3.164062 4.976562 -3.523438 4.8125 -3.828125 C 4.644531 -4.140625 4.421875 -4.375 4.140625 -4.53125 C 3.859375 -4.695312 3.546875 -4.78125 3.203125 -4.78125 C 2.867188 -4.78125 2.5625 -4.695312 2.28125 -4.53125 C 2 -4.375 1.773438 -4.140625 1.609375 -3.828125 C 1.441406 -3.523438 1.359375 -3.171875 1.359375 -2.765625 C 1.359375 -2.335938 1.441406 -1.96875 1.609375 -1.65625 C 1.773438 -1.351562 2 -1.117188 2.28125 -0.953125 C 2.5625 -0.785156 2.867188 -0.703125 3.203125 -0.703125 C 3.546875 -0.703125 3.859375 -0.785156 4.140625 -0.953125 C 4.421875 -1.117188 4.644531 -1.351562 4.8125 -1.65625 C 4.976562 -1.96875 5.0625 -2.332031 5.0625 -2.75 Z M 5.0625 -2.75 "/></g></g></g><g fill="#000000" fill-opacity="1"><g transform="translate(199.4051, 123.719428)"><g><path d="M 2.8125 -0.84375 L 4.515625 -5.484375 L 5.484375 -5.484375 L 3.328125 0 L 2.265625 0 L 0.125 -5.484375 L 1.09375 -5.484375 Z M 2.8125 -0.84375 "/></g></g></g><g fill="#000000" fill-opacity="1"><g transform="translate(205.012888, 123.719428)"><g/></g></g><g fill="#000000" fill-opacity="1"><g transform="translate(207.681833, 123.719428)"><g><path d="M 2.703125 0.09375 C 2.285156 0.09375 1.910156 0.0195312 1.578125 -0.125 C 1.242188 -0.269531 0.976562 -0.46875 0.78125 -0.71875 C 0.59375 -0.976562 0.488281 -1.273438 0.46875 -1.609375 L 1.40625 -1.609375 C 1.4375 -1.335938 1.566406 -1.113281 1.796875 -0.9375 C 2.023438 -0.769531 2.328125 -0.6875 2.703125 -0.6875 C 3.046875 -0.6875 3.316406 -0.757812 3.515625 -0.90625 C 3.710938 -1.0625 3.8125 -1.253906 3.8125 -1.484375 C 3.8125 -1.722656 3.707031 -1.898438 3.5 -2.015625 C 3.289062 -2.140625 2.960938 -2.257812 2.515625 -2.375 C 2.109375 -2.476562 1.773438 -2.582031 1.515625 -2.6875 C 1.253906 -2.800781 1.03125 -2.96875 0.84375 -3.1875 C 0.664062 -3.40625 0.578125 -3.691406 0.578125 -4.046875 C 0.578125 -4.316406 0.660156 -4.566406 0.828125 -4.796875 C 0.992188 -5.035156 1.226562 -5.222656 1.53125 -5.359375 C 1.84375 -5.492188 2.195312 -5.5625 2.59375 -5.5625 C 3.195312 -5.5625 3.6875 -5.410156 4.0625 -5.109375 C 4.4375 -4.804688 4.632812 -4.382812 4.65625 -3.84375 L 3.75 -3.84375 C 3.726562 -4.132812 3.613281 -4.363281 3.40625 -4.53125 C 3.195312 -4.707031 2.914062 -4.796875 2.5625 -4.796875 C 2.226562 -4.796875 1.960938 -4.722656 1.765625 -4.578125 C 1.578125 -4.441406 1.484375 -4.265625 1.484375 -4.046875 C 1.484375 -3.859375 1.539062 -3.707031 1.65625 -3.59375 C 1.78125 -3.476562 1.929688 -3.382812 2.109375 -3.3125 C 2.285156 -3.238281 2.53125 -3.160156 2.84375 -3.078125 C 3.238281 -2.972656 3.554688 -2.867188 3.796875 -2.765625 C 4.046875 -2.660156 4.257812 -2.503906 4.4375 -2.296875 C 4.613281 -2.085938 4.703125 -1.816406 4.703125 -1.484375 C 4.703125 -1.191406 4.617188 -0.921875 4.453125 -0.671875 C 4.285156 -0.429688 4.050781 -0.242188 3.75 -0.109375 C 3.445312 0.0234375 3.097656 0.09375 2.703125 0.09375 Z M 2.703125 0.09375 "/></g></g></g><g fill="#000000" fill-opacity="1"><g transform="translate(212.899778, 123.719428)"><g><path d="M 3.4375 -5.578125 C 4.101562 -5.578125 4.644531 -5.375 5.0625 -4.96875 C 5.476562 -4.570312 5.6875 -3.992188 5.6875 -3.234375 L 5.6875 0 L 4.78125 0 L 4.78125 -3.09375 C 4.78125 -3.644531 4.640625 -4.066406 4.359375 -4.359375 C 4.085938 -4.648438 3.71875 -4.796875 3.25 -4.796875 C 2.769531 -4.796875 2.390625 -4.644531 2.109375 -4.34375 C 1.828125 -4.039062 1.6875 -3.601562 1.6875 -3.03125 L 1.6875 0 L 0.765625 0 L 0.765625 -5.484375 L 1.6875 -5.484375 L 1.6875 -4.703125 C 1.863281 -4.984375 2.101562 -5.195312 2.40625 -5.34375 C 2.71875 -5.5 3.0625 -5.578125 3.4375 -5.578125 Z M 3.4375 -5.578125 "/></g></g></g><g fill="#000000" fill-opacity="1"><g transform="translate(219.297254, 123.719428)"><g><path d="M 5.765625 -2.953125 C 5.765625 -2.773438 5.753906 -2.59375 5.734375 -2.40625 L 1.359375 -2.40625 C 1.390625 -1.863281 1.570312 -1.441406 1.90625 -1.140625 C 2.25 -0.835938 2.660156 -0.6875 3.140625 -0.6875 C 3.535156 -0.6875 3.863281 -0.773438 4.125 -0.953125 C 4.382812 -1.140625 4.570312 -1.382812 4.6875 -1.6875 L 5.65625 -1.6875 C 5.507812 -1.164062 5.21875 -0.738281 4.78125 -0.40625 C 4.34375 -0.0703125 3.796875 0.09375 3.140625 0.09375 C 2.617188 0.09375 2.148438 -0.0195312 1.734375 -0.25 C 1.328125 -0.488281 1.007812 -0.820312 0.78125 -1.25 C 0.550781 -1.6875 0.4375 -2.1875 0.4375 -2.75 C 0.4375 -3.3125 0.546875 -3.804688 0.765625 -4.234375 C 0.992188 -4.660156 1.3125 -4.988281 1.71875 -5.21875 C 2.132812 -5.445312 2.609375 -5.5625 3.140625 -5.5625 C 3.660156 -5.5625 4.117188 -5.445312 4.515625 -5.21875 C 4.921875 -5 5.226562 -4.691406 5.4375 -4.296875 C 5.65625 -3.898438 5.765625 -3.453125 5.765625 -2.953125 Z M 4.828125 -3.140625 C 4.828125 -3.484375 4.75 -3.78125 4.59375 -4.03125 C 4.445312 -4.28125 4.238281 -4.46875 3.96875 -4.59375 C 3.707031 -4.726562 3.414062 -4.796875 3.09375 -4.796875 C 2.632812 -4.796875 2.242188 -4.648438 1.921875 -4.359375 C 1.597656 -4.066406 1.414062 -3.660156 1.375 -3.140625 Z M 4.828125 -3.140625 "/></g></g></g><g fill="#000000" fill-opacity="1"><g transform="translate(225.494813, 123.719428)"><g><path d="M 0.4375 -2.765625 C 0.4375 -3.316406 0.546875 -3.804688 0.765625 -4.234375 C 0.992188 -4.660156 1.304688 -4.988281 1.703125 -5.21875 C 2.097656 -5.445312 2.539062 -5.5625 3.03125 -5.5625 C 3.507812 -5.5625 3.925781 -5.457031 4.28125 -5.25 C 4.632812 -5.050781 4.894531 -4.796875 5.0625 -4.484375 L 5.0625 -5.484375 L 5.984375 -5.484375 L 5.984375 0 L 5.0625 0 L 5.0625 -1.015625 C 4.882812 -0.703125 4.617188 -0.4375 4.265625 -0.21875 C 3.910156 -0.0078125 3.492188 0.09375 3.015625 0.09375 C 2.535156 0.09375 2.097656 -0.0234375 1.703125 -0.265625 C 1.304688 -0.503906 0.992188 -0.84375 0.765625 -1.28125 C 0.546875 -1.71875 0.4375 -2.210938 0.4375 -2.765625 Z M 5.0625 -2.75 C 5.0625 -3.164062 4.976562 -3.523438 4.8125 -3.828125 C 4.644531 -4.140625 4.421875 -4.375 4.140625 -4.53125 C 3.859375 -4.695312 3.546875 -4.78125 3.203125 -4.78125 C 2.867188 -4.78125 2.5625 -4.695312 2.28125 -4.53125 C 2 -4.375 1.773438 -4.140625 1.609375 -3.828125 C 1.441406 -3.523438 1.359375 -3.171875 1.359375 -2.765625 C 1.359375 -2.335938 1.441406 -1.96875 1.609375 -1.65625 C 1.773438 -1.351562 2 -1.117188 2.28125 -0.953125 C 2.5625 -0.785156 2.867188 -0.703125 3.203125 -0.703125 C 3.546875 -0.703125 3.859375 -0.785156 4.140625 -0.953125 C 4.421875 -1.117188 4.644531 -1.351562 4.8125 -1.65625 C 4.976562 -1.96875 5.0625 -2.332031 5.0625 -2.75 Z M 5.0625 -2.75 "/></g></g></g><g fill="#000000" fill-opacity="1"><g transform="translate(232.252148, 123.719428)"><g><path d="M 3.828125 0 L 1.6875 -2.421875 L 1.6875 0 L 0.765625 0 L 0.765625 -7.40625 L 1.6875 -7.40625 L 1.6875 -3.046875 L 3.796875 -5.484375 L 5.0625 -5.484375 L 2.484375 -2.75 L 5.0625 0 Z M 3.828125 0 "/></g></g></g><g fill="#000000" fill-opacity="1"><g transform="translate(237.400112, 123.719428)"><g><path d="M 5.765625 -2.953125 C 5.765625 -2.773438 5.753906 -2.59375 5.734375 -2.40625 L 1.359375 -2.40625 C 1.390625 -1.863281 1.570312 -1.441406 1.90625 -1.140625 C 2.25 -0.835938 2.660156 -0.6875 3.140625 -0.6875 C 3.535156 -0.6875 3.863281 -0.773438 4.125 -0.953125 C 4.382812 -1.140625 4.570312 -1.382812 4.6875 -1.6875 L 5.65625 -1.6875 C 5.507812 -1.164062 5.21875 -0.738281 4.78125 -0.40625 C 4.34375 -0.0703125 3.796875 0.09375 3.140625 0.09375 C 2.617188 0.09375 2.148438 -0.0195312 1.734375 -0.25 C 1.328125 -0.488281 1.007812 -0.820312 0.78125 -1.25 C 0.550781 -1.6875 0.4375 -2.1875 0.4375 -2.75 C 0.4375 -3.3125 0.546875 -3.804688 0.765625 -4.234375 C 0.992188 -4.660156 1.3125 -4.988281 1.71875 -5.21875 C 2.132812 -5.445312 2.609375 -5.5625 3.140625 -5.5625 C 3.660156 -5.5625 4.117188 -5.445312 4.515625 -5.21875 C 4.921875 -5 5.226562 -4.691406 5.4375 -4.296875 C 5.65625 -3.898438 5.765625 -3.453125 5.765625 -2.953125 Z M 4.828125 -3.140625 C 4.828125 -3.484375 4.75 -3.78125 4.59375 -4.03125 C 4.445312 -4.28125 4.238281 -4.46875 3.96875 -4.59375 C 3.707031 -4.726562 3.414062 -4.796875 3.09375 -4.796875 C 2.632812 -4.796875 2.242188 -4.648438 1.921875 -4.359375 C 1.597656 -4.066406 1.414062 -3.660156 1.375 -3.140625 Z M 4.828125 -3.140625 "/></g></g></g><g fill="#000000" fill-opacity="1"><g transform="translate(243.597683, 123.719428)"><g><path d="M 1.6875 -4.59375 C 1.84375 -4.90625 2.066406 -5.144531 2.359375 -5.3125 C 2.660156 -5.488281 3.023438 -5.578125 3.453125 -5.578125 L 3.453125 -4.640625 L 3.203125 -4.640625 C 2.191406 -4.640625 1.6875 -4.085938 1.6875 -2.984375 L 1.6875 0 L 0.765625 0 L 0.765625 -5.484375 L 1.6875 -5.484375 Z M 1.6875 -4.59375 "/></g></g></g><g fill="#000000" fill-opacity="1"><g transform="translate(247.326213, 123.719428)"><g><path d="M 2.703125 0.09375 C 2.285156 0.09375 1.910156 0.0195312 1.578125 -0.125 C 1.242188 -0.269531 0.976562 -0.46875 0.78125 -0.71875 C 0.59375 -0.976562 0.488281 -1.273438 0.46875 -1.609375 L 1.40625 -1.609375 C 1.4375 -1.335938 1.566406 -1.113281 1.796875 -0.9375 C 2.023438 -0.769531 2.328125 -0.6875 2.703125 -0.6875 C 3.046875 -0.6875 3.316406 -0.757812 3.515625 -0.90625 C 3.710938 -1.0625 3.8125 -1.253906 3.8125 -1.484375 C 3.8125 -1.722656 3.707031 -1.898438 3.5 -2.015625 C 3.289062 -2.140625 2.960938 -2.257812 2.515625 -2.375 C 2.109375 -2.476562 1.773438 -2.582031 1.515625 -2.6875 C 1.253906 -2.800781 1.03125 -2.96875 0.84375 -3.1875 C 0.664062 -3.40625 0.578125 -3.691406 0.578125 -4.046875 C 0.578125 -4.316406 0.660156 -4.566406 0.828125 -4.796875 C 0.992188 -5.035156 1.226562 -5.222656 1.53125 -5.359375 C 1.84375 -5.492188 2.195312 -5.5625 2.59375 -5.5625 C 3.195312 -5.5625 3.6875 -5.410156 4.0625 -5.109375 C 4.4375 -4.804688 4.632812 -4.382812 4.65625 -3.84375 L 3.75 -3.84375 C 3.726562 -4.132812 3.613281 -4.363281 3.40625 -4.53125 C 3.195312 -4.707031 2.914062 -4.796875 2.5625 -4.796875 C 2.226562 -4.796875 1.960938 -4.722656 1.765625 -4.578125 C 1.578125 -4.441406 1.484375 -4.265625 1.484375 -4.046875 C 1.484375 -3.859375 1.539062 -3.707031 1.65625 -3.59375 C 1.78125 -3.476562 1.929688 -3.382812 2.109375 -3.3125 C 2.285156 -3.238281 2.53125 -3.160156 2.84375 -3.078125 C 3.238281 -2.972656 3.554688 -2.867188 3.796875 -2.765625 C 4.046875 -2.660156 4.257812 -2.503906 4.4375 -2.296875 C 4.613281 -2.085938 4.703125 -1.816406 4.703125 -1.484375 C 4.703125 -1.191406 4.617188 -0.921875 4.453125 -0.671875 C 4.285156 -0.429688 4.050781 -0.242188 3.75 -0.109375 C 3.445312 0.0234375 3.097656 0.09375 2.703125 0.09375 Z M 2.703125 0.09375 "/></g></g></g><g fill="#000000" fill-opacity="1"><g transform="translate(252.54417, 123.719428)"><g><path d="M 1.0625 0.0625 C 0.882812 0.0625 0.734375 0.00390625 0.609375 -0.109375 C 0.492188 -0.234375 0.4375 -0.382812 0.4375 -0.5625 C 0.4375 -0.726562 0.492188 -0.875 0.609375 -1 C 0.734375 -1.125 0.882812 -1.1875 1.0625 -1.1875 C 1.226562 -1.1875 1.367188 -1.125 1.484375 -1 C 1.597656 -0.875 1.65625 -0.726562 1.65625 -0.5625 C 1.65625 -0.382812 1.597656 -0.234375 1.484375 -0.109375 C 1.367188 0.00390625 1.226562 0.0625 1.0625 0.0625 Z M 1.0625 0.0625 "/></g></g></g><g fill="#000000" fill-opacity="1"><g transform="translate(254.654185, 123.719428)"><g/></g></g><g fill="#000000" fill-opacity="1"><g transform="translate(46.435448, 137.219427)"><g><path d="M 2.984375 0.0625 C 2.523438 0.0625 2.113281 -0.015625 1.75 -0.171875 C 1.382812 -0.335938 1.097656 -0.566406 0.890625 -0.859375 C 0.679688 -1.148438 0.570312 -1.484375 0.5625 -1.859375 L 1.546875 -1.859375 C 1.578125 -1.535156 1.707031 -1.257812 1.9375 -1.03125 C 2.175781 -0.8125 2.523438 -0.703125 2.984375 -0.703125 C 3.410156 -0.703125 3.75 -0.804688 4 -1.015625 C 4.25 -1.234375 4.375 -1.515625 4.375 -1.859375 C 4.375 -2.128906 4.300781 -2.347656 4.15625 -2.515625 C 4.007812 -2.679688 3.828125 -2.804688 3.609375 -2.890625 C 3.390625 -2.972656 3.09375 -3.066406 2.71875 -3.171875 C 2.257812 -3.285156 1.890625 -3.398438 1.609375 -3.515625 C 1.335938 -3.640625 1.101562 -3.832031 0.90625 -4.09375 C 0.707031 -4.351562 0.609375 -4.695312 0.609375 -5.125 C 0.609375 -5.507812 0.703125 -5.847656 0.890625 -6.140625 C 1.085938 -6.429688 1.359375 -6.65625 1.703125 -6.8125 C 2.054688 -6.976562 2.460938 -7.0625 2.921875 -7.0625 C 3.578125 -7.0625 4.113281 -6.894531 4.53125 -6.5625 C 4.945312 -6.238281 5.179688 -5.804688 5.234375 -5.265625 L 4.234375 -5.265625 C 4.203125 -5.535156 4.0625 -5.769531 3.8125 -5.96875 C 3.5625 -6.175781 3.234375 -6.28125 2.828125 -6.28125 C 2.453125 -6.28125 2.144531 -6.179688 1.90625 -5.984375 C 1.664062 -5.785156 1.546875 -5.507812 1.546875 -5.15625 C 1.546875 -4.90625 1.613281 -4.695312 1.75 -4.53125 C 1.894531 -4.375 2.070312 -4.253906 2.28125 -4.171875 C 2.488281 -4.085938 2.785156 -3.992188 3.171875 -3.890625 C 3.628906 -3.765625 4 -3.640625 4.28125 -3.515625 C 4.5625 -3.390625 4.800781 -3.195312 5 -2.9375 C 5.195312 -2.6875 5.296875 -2.34375 5.296875 -1.90625 C 5.296875 -1.5625 5.207031 -1.238281 5.03125 -0.9375 C 4.851562 -0.632812 4.585938 -0.390625 4.234375 -0.203125 C 3.878906 -0.0234375 3.460938 0.0625 2.984375 0.0625 Z M 2.984375 0.0625 "/></g></g></g><g fill="#000000" fill-opacity="1"><g transform="translate(52.303131, 137.219427)"><g><path d="M 3.484375 -5.578125 C 3.898438 -5.578125 4.273438 -5.488281 4.609375 -5.3125 C 4.941406 -5.132812 5.203125 -4.867188 5.390625 -4.515625 C 5.585938 -4.160156 5.6875 -3.734375 5.6875 -3.234375 L 5.6875 0 L 4.78125 0 L 4.78125 -3.09375 C 4.78125 -3.644531 4.640625 -4.066406 4.359375 -4.359375 C 4.085938 -4.648438 3.71875 -4.796875 3.25 -4.796875 C 2.769531 -4.796875 2.390625 -4.644531 2.109375 -4.34375 C 1.828125 -4.039062 1.6875 -3.601562 1.6875 -3.03125 L 1.6875 0 L 0.765625 0 L 0.765625 -7.40625 L 1.6875 -7.40625 L 1.6875 -4.703125 C 1.863281 -4.984375 2.109375 -5.195312 2.421875 -5.34375 C 2.742188 -5.5 3.097656 -5.578125 3.484375 -5.578125 Z M 3.484375 -5.578125 "/></g></g></g><g fill="#000000" fill-opacity="1"><g transform="translate(58.700607, 137.219427)"><g><path d="M 3.15625 0.09375 C 2.644531 0.09375 2.179688 -0.0195312 1.765625 -0.25 C 1.347656 -0.488281 1.019531 -0.820312 0.78125 -1.25 C 0.550781 -1.6875 0.4375 -2.1875 0.4375 -2.75 C 0.4375 -3.3125 0.554688 -3.804688 0.796875 -4.234375 C 1.035156 -4.660156 1.363281 -4.988281 1.78125 -5.21875 C 2.207031 -5.445312 2.679688 -5.5625 3.203125 -5.5625 C 3.722656 -5.5625 4.191406 -5.445312 4.609375 -5.21875 C 5.023438 -4.988281 5.351562 -4.660156 5.59375 -4.234375 C 5.84375 -3.804688 5.96875 -3.3125 5.96875 -2.75 C 5.96875 -2.1875 5.84375 -1.6875 5.59375 -1.25 C 5.34375 -0.820312 5.003906 -0.488281 4.578125 -0.25 C 4.148438 -0.0195312 3.675781 0.09375 3.15625 0.09375 Z M 3.15625 -0.703125 C 3.488281 -0.703125 3.796875 -0.78125 4.078125 -0.9375 C 4.367188 -1.09375 4.601562 -1.320312 4.78125 -1.625 C 4.957031 -1.9375 5.046875 -2.3125 5.046875 -2.75 C 5.046875 -3.1875 4.957031 -3.554688 4.78125 -3.859375 C 4.601562 -4.171875 4.375 -4.398438 4.09375 -4.546875 C 3.820312 -4.703125 3.519531 -4.78125 3.1875 -4.78125 C 2.851562 -4.78125 2.546875 -4.703125 2.265625 -4.546875 C 1.992188 -4.398438 1.773438 -4.171875 1.609375 -3.859375 C 1.441406 -3.554688 1.359375 -3.1875 1.359375 -2.75 C 1.359375 -2.300781 1.4375 -1.921875 1.59375 -1.609375 C 1.757812 -1.304688 1.976562 -1.078125 2.25 -0.921875 C 2.53125 -0.773438 2.832031 -0.703125 3.15625 -0.703125 Z M 3.15625 -0.703125 "/></g></g></g><g fill="#000000" fill-opacity="1"><g transform="translate(65.098083, 137.219427)"><g><path d="M 1.6875 -4.46875 C 1.863281 -4.78125 2.128906 -5.039062 2.484375 -5.25 C 2.835938 -5.457031 3.253906 -5.5625 3.734375 -5.5625 C 4.210938 -5.5625 4.648438 -5.445312 5.046875 -5.21875 C 5.453125 -4.988281 5.765625 -4.660156 5.984375 -4.234375 C 6.210938 -3.804688 6.328125 -3.316406 6.328125 -2.765625 C 6.328125 -2.210938 6.210938 -1.71875 5.984375 -1.28125 C 5.765625 -0.84375 5.453125 -0.503906 5.046875 -0.265625 C 4.648438 -0.0234375 4.210938 0.09375 3.734375 0.09375 C 3.265625 0.09375 2.847656 -0.0078125 2.484375 -0.21875 C 2.128906 -0.4375 1.863281 -0.703125 1.6875 -1.015625 L 1.6875 2.59375 L 0.765625 2.59375 L 0.765625 -5.484375 L 1.6875 -5.484375 Z M 5.40625 -2.765625 C 5.40625 -3.171875 5.320312 -3.523438 5.15625 -3.828125 C 4.988281 -4.140625 4.757812 -4.375 4.46875 -4.53125 C 4.1875 -4.695312 3.878906 -4.78125 3.546875 -4.78125 C 3.210938 -4.78125 2.898438 -4.695312 2.609375 -4.53125 C 2.328125 -4.375 2.101562 -4.140625 1.9375 -3.828125 C 1.769531 -3.515625 1.6875 -3.15625 1.6875 -2.75 C 1.6875 -2.332031 1.769531 -1.96875 1.9375 -1.65625 C 2.101562 -1.351562 2.328125 -1.117188 2.609375 -0.953125 C 2.898438 -0.785156 3.210938 -0.703125 3.546875 -0.703125 C 3.878906 -0.703125 4.1875 -0.785156 4.46875 -0.953125 C 4.757812 -1.117188 4.988281 -1.351562 5.15625 -1.65625 C 5.320312 -1.96875 5.40625 -2.335938 5.40625 -2.765625 Z M 5.40625 -2.765625 "/></g></g></g><g fill="#000000" fill-opacity="1"><g transform="translate(71.855418, 137.219427)"><g/></g></g><g fill="#000000" fill-opacity="1"><g transform="translate(74.524363, 137.219427)"><g><path d="M 3.4375 -5.578125 C 4.101562 -5.578125 4.644531 -5.375 5.0625 -4.96875 C 5.476562 -4.570312 5.6875 -3.992188 5.6875 -3.234375 L 5.6875 0 L 4.78125 0 L 4.78125 -3.09375 C 4.78125 -3.644531 4.640625 -4.066406 4.359375 -4.359375 C 4.085938 -4.648438 3.71875 -4.796875 3.25 -4.796875 C 2.769531 -4.796875 2.390625 -4.644531 2.109375 -4.34375 C 1.828125 -4.039062 1.6875 -3.601562 1.6875 -3.03125 L 1.6875 0 L 0.765625 0 L 0.765625 -5.484375 L 1.6875 -5.484375 L 1.6875 -4.703125 C 1.863281 -4.984375 2.101562 -5.195312 2.40625 -5.34375 C 2.71875 -5.5 3.0625 -5.578125 3.4375 -5.578125 Z M 3.4375 -5.578125 "/></g></g></g><g fill="#000000" fill-opacity="1"><g transform="translate(80.921839, 137.219427)"><g><path d="M 3.15625 0.09375 C 2.644531 0.09375 2.179688 -0.0195312 1.765625 -0.25 C 1.347656 -0.488281 1.019531 -0.820312 0.78125 -1.25 C 0.550781 -1.6875 0.4375 -2.1875 0.4375 -2.75 C 0.4375 -3.3125 0.554688 -3.804688 0.796875 -4.234375 C 1.035156 -4.660156 1.363281 -4.988281 1.78125 -5.21875 C 2.207031 -5.445312 2.679688 -5.5625 3.203125 -5.5625 C 3.722656 -5.5625 4.191406 -5.445312 4.609375 -5.21875 C 5.023438 -4.988281 5.351562 -4.660156 5.59375 -4.234375 C 5.84375 -3.804688 5.96875 -3.3125 5.96875 -2.75 C 5.96875 -2.1875 5.84375 -1.6875 5.59375 -1.25 C 5.34375 -0.820312 5.003906 -0.488281 4.578125 -0.25 C 4.148438 -0.0195312 3.675781 0.09375 3.15625 0.09375 Z M 3.15625 -0.703125 C 3.488281 -0.703125 3.796875 -0.78125 4.078125 -0.9375 C 4.367188 -1.09375 4.601562 -1.320312 4.78125 -1.625 C 4.957031 -1.9375 5.046875 -2.3125 5.046875 -2.75 C 5.046875 -3.1875 4.957031 -3.554688 4.78125 -3.859375 C 4.601562 -4.171875 4.375 -4.398438 4.09375 -4.546875 C 3.820312 -4.703125 3.519531 -4.78125 3.1875 -4.78125 C 2.851562 -4.78125 2.546875 -4.703125 2.265625 -4.546875 C 1.992188 -4.398438 1.773438 -4.171875 1.609375 -3.859375 C 1.441406 -3.554688 1.359375 -3.1875 1.359375 -2.75 C 1.359375 -2.300781 1.4375 -1.921875 1.59375 -1.609375 C 1.757812 -1.304688 1.976562 -1.078125 2.25 -0.921875 C 2.53125 -0.773438 2.832031 -0.703125 3.15625 -0.703125 Z M 3.15625 -0.703125 "/></g></g></g><g fill="#000000" fill-opacity="1"><g transform="translate(87.319315, 137.219427)"><g><path d="M 8.0625 -5.484375 L 6.359375 0 L 5.421875 0 L 4.09375 -4.34375 L 2.78125 0 L 1.84375 0 L 0.125 -5.484375 L 1.046875 -5.484375 L 2.3125 -0.875 L 3.671875 -5.484375 L 4.59375 -5.484375 L 5.9375 -0.875 L 7.171875 -5.484375 Z M 8.0625 -5.484375 "/></g></g></g><g fill="#000000" fill-opacity="1"><g transform="translate(95.516076, 137.219427)"><g><path d="M 1.0625 0.0625 C 0.882812 0.0625 0.734375 0.00390625 0.609375 -0.109375 C 0.492188 -0.234375 0.4375 -0.382812 0.4375 -0.5625 C 0.4375 -0.726562 0.492188 -0.875 0.609375 -1 C 0.734375 -1.125 0.882812 -1.1875 1.0625 -1.1875 C 1.226562 -1.1875 1.367188 -1.125 1.484375 -1 C 1.597656 -0.875 1.65625 -0.726562 1.65625 -0.5625 C 1.65625 -0.382812 1.597656 -0.234375 1.484375 -0.109375 C 1.367188 0.00390625 1.226562 0.0625 1.0625 0.0625 Z M 1.0625 -4.21875 C 0.882812 -4.21875 0.734375 -4.273438 0.609375 -4.390625 C 0.492188 -4.515625 0.4375 -4.664062 0.4375 -4.84375 C 0.4375 -5.007812 0.492188 -5.15625 0.609375 -5.28125 C 0.734375 -5.40625 0.882812 -5.46875 1.0625 -5.46875 C 1.226562 -5.46875 1.367188 -5.40625 1.484375 -5.28125 C 1.597656 -5.15625 1.65625 -5.007812 1.65625 -4.84375 C 1.65625 -4.664062 1.597656 -4.515625 1.484375 -4.390625 C 1.367188 -4.273438 1.226562 -4.21875 1.0625 -4.21875 Z M 1.0625 -4.21875 "/></g></g></g><g fill="#000000" fill-opacity="1"><g transform="translate(97.645238, 137.219427)"><g/></g></g><path fill="#000000" d="M 100.316406 137.96875 L 176.300781 137.96875 L 176.300781 138.71875 L 100.316406 138.71875 Z M 100.316406 137.96875 " fill-opacity="1" fill-rule="nonzero"/><g fill="#000000" fill-opacity="1"><g transform="translate(100.318257, 137.219427)"><g><path d="M 4.015625 -5.640625 C 4.671875 -5.640625 5.191406 -5.425781 5.578125 -5 C 5.972656 -4.582031 6.171875 -4.003906 6.171875 -3.265625 L 6.171875 0 L 4.46875 0 L 4.46875 -3.03125 C 4.46875 -3.40625 4.367188 -3.691406 4.171875 -3.890625 C 3.984375 -4.097656 3.726562 -4.203125 3.40625 -4.203125 C 3.070312 -4.203125 2.804688 -4.097656 2.609375 -3.890625 C 2.421875 -3.691406 2.328125 -3.40625 2.328125 -3.03125 L 2.328125 0 L 0.625 0 L 0.625 -5.578125 L 2.328125 -5.578125 L 2.328125 -4.84375 C 2.503906 -5.082031 2.738281 -5.273438 3.03125 -5.421875 C 3.320312 -5.566406 3.648438 -5.640625 4.015625 -5.640625 Z M 4.015625 -5.640625 "/></g></g></g><g fill="#000000" fill-opacity="1"><g transform="translate(107.0556, 137.219427)"><g><path d="M 1.484375 -6.15625 C 1.179688 -6.15625 0.929688 -6.242188 0.734375 -6.421875 C 0.546875 -6.597656 0.453125 -6.816406 0.453125 -7.078125 C 0.453125 -7.347656 0.546875 -7.570312 0.734375 -7.75 C 0.929688 -7.925781 1.179688 -8.015625 1.484375 -8.015625 C 1.773438 -8.015625 2.015625 -7.925781 2.203125 -7.75 C 2.390625 -7.570312 2.484375 -7.347656 2.484375 -7.078125 C 2.484375 -6.816406 2.390625 -6.597656 2.203125 -6.421875 C 2.015625 -6.242188 1.773438 -6.15625 1.484375 -6.15625 Z M 2.328125 -5.578125 L 2.328125 0 L 0.625 0 L 0.625 -5.578125 Z M 2.328125 -5.578125 "/></g></g></g><g fill="#000000" fill-opacity="1"><g transform="translate(110.004433, 137.219427)"><g><path d="M 0.390625 -1.375 C 0.617188 -1.550781 0.722656 -1.632812 0.703125 -1.625 C 1.359375 -2.164062 1.875 -2.609375 2.25 -2.953125 C 2.625 -3.296875 2.941406 -3.65625 3.203125 -4.03125 C 3.460938 -4.414062 3.59375 -4.789062 3.59375 -5.15625 C 3.59375 -5.425781 3.523438 -5.632812 3.390625 -5.78125 C 3.265625 -5.9375 3.078125 -6.015625 2.828125 -6.015625 C 2.578125 -6.015625 2.378906 -5.921875 2.234375 -5.734375 C 2.085938 -5.546875 2.015625 -5.28125 2.015625 -4.9375 L 0.375 -4.9375 C 0.382812 -5.5 0.503906 -5.96875 0.734375 -6.34375 C 0.960938 -6.726562 1.265625 -7.007812 1.640625 -7.1875 C 2.015625 -7.363281 2.4375 -7.453125 2.90625 -7.453125 C 3.695312 -7.453125 4.289062 -7.25 4.6875 -6.84375 C 5.09375 -6.4375 5.296875 -5.910156 5.296875 -5.265625 C 5.296875 -4.546875 5.050781 -3.878906 4.5625 -3.265625 C 4.082031 -2.660156 3.460938 -2.066406 2.703125 -1.484375 L 5.40625 -1.484375 L 5.40625 -0.09375 L 0.390625 -0.09375 Z M 0.390625 -1.375 "/></g></g></g><g fill="#000000" fill-opacity="1"><g transform="translate(115.712185, 137.219427)"><g><path d="M 1.421875 0.078125 C 1.117188 0.078125 0.875 -0.0078125 0.6875 -0.1875 C 0.5 -0.363281 0.40625 -0.582031 0.40625 -0.84375 C 0.40625 -1.101562 0.5 -1.320312 0.6875 -1.5 C 0.875 -1.6875 1.117188 -1.78125 1.421875 -1.78125 C 1.710938 -1.78125 1.953125 -1.6875 2.140625 -1.5 C 2.335938 -1.320312 2.4375 -1.101562 2.4375 -0.84375 C 2.4375 -0.582031 2.335938 -0.363281 2.140625 -0.1875 C 1.953125 -0.0078125 1.710938 0.078125 1.421875 0.078125 Z M 1.421875 0.078125 "/></g></g></g><g fill="#000000" fill-opacity="1"><g transform="translate(118.53107, 137.219427)"><g><path d="M 0.28125 -2.796875 C 0.28125 -3.367188 0.394531 -3.867188 0.625 -4.296875 C 0.863281 -4.734375 1.195312 -5.066406 1.625 -5.296875 C 2.050781 -5.535156 2.535156 -5.65625 3.078125 -5.65625 C 3.773438 -5.65625 4.359375 -5.472656 4.828125 -5.109375 C 5.304688 -4.742188 5.617188 -4.226562 5.765625 -3.5625 L 3.9375 -3.5625 C 3.78125 -3.988281 3.484375 -4.203125 3.046875 -4.203125 C 2.734375 -4.203125 2.484375 -4.078125 2.296875 -3.828125 C 2.109375 -3.585938 2.015625 -3.242188 2.015625 -2.796875 C 2.015625 -2.335938 2.109375 -1.984375 2.296875 -1.734375 C 2.484375 -1.492188 2.734375 -1.375 3.046875 -1.375 C 3.484375 -1.375 3.78125 -1.585938 3.9375 -2.015625 L 5.765625 -2.015625 C 5.617188 -1.367188 5.304688 -0.859375 4.828125 -0.484375 C 4.359375 -0.109375 3.773438 0.078125 3.078125 0.078125 C 2.535156 0.078125 2.050781 -0.0351562 1.625 -0.265625 C 1.195312 -0.503906 0.863281 -0.835938 0.625 -1.265625 C 0.394531 -1.703125 0.28125 -2.210938 0.28125 -2.796875 Z M 0.28125 -2.796875 "/></g></g></g><g fill="#000000" fill-opacity="1"><g transform="translate(124.578689, 137.219427)"><g><path d="M 3.15625 0.078125 C 2.613281 0.078125 2.125 -0.0351562 1.6875 -0.265625 C 1.25 -0.503906 0.90625 -0.835938 0.65625 -1.265625 C 0.40625 -1.703125 0.28125 -2.210938 0.28125 -2.796875 C 0.28125 -3.367188 0.40625 -3.867188 0.65625 -4.296875 C 0.914062 -4.734375 1.265625 -5.066406 1.703125 -5.296875 C 2.140625 -5.535156 2.632812 -5.65625 3.1875 -5.65625 C 3.726562 -5.65625 4.21875 -5.535156 4.65625 -5.296875 C 5.09375 -5.066406 5.4375 -4.734375 5.6875 -4.296875 C 5.945312 -3.867188 6.078125 -3.367188 6.078125 -2.796875 C 6.078125 -2.222656 5.945312 -1.71875 5.6875 -1.28125 C 5.4375 -0.84375 5.085938 -0.503906 4.640625 -0.265625 C 4.203125 -0.0351562 3.707031 0.078125 3.15625 0.078125 Z M 3.15625 -1.40625 C 3.488281 -1.40625 3.769531 -1.523438 4 -1.765625 C 4.226562 -2.003906 4.34375 -2.347656 4.34375 -2.796875 C 4.34375 -3.234375 4.226562 -3.570312 4 -3.8125 C 3.78125 -4.0625 3.507812 -4.1875 3.1875 -4.1875 C 2.851562 -4.1875 2.570312 -4.066406 2.34375 -3.828125 C 2.125 -3.585938 2.015625 -3.242188 2.015625 -2.796875 C 2.015625 -2.347656 2.125 -2.003906 2.34375 -1.765625 C 2.5625 -1.523438 2.832031 -1.40625 3.15625 -1.40625 Z M 3.15625 -1.40625 "/></g></g></g><g fill="#000000" fill-opacity="1"><g transform="translate(130.946181, 137.219427)"><g><path d="M 4.4375 -9.5 L 1.75 1.875 L 0.09375 1.875 L 2.78125 -9.5 Z M 4.4375 -9.5 "/></g></g></g><g fill="#000000" fill-opacity="1"><g transform="translate(135.47439, 137.219427)"><g><path d="M 7.734375 -5.640625 C 8.429688 -5.640625 8.984375 -5.425781 9.390625 -5 C 9.804688 -4.582031 10.015625 -4.003906 10.015625 -3.265625 L 10.015625 0 L 8.3125 0 L 8.3125 -3.03125 C 8.3125 -3.382812 8.210938 -3.660156 8.015625 -3.859375 C 7.828125 -4.054688 7.566406 -4.15625 7.234375 -4.15625 C 6.898438 -4.15625 6.640625 -4.054688 6.453125 -3.859375 C 6.265625 -3.660156 6.171875 -3.382812 6.171875 -3.03125 L 6.171875 0 L 4.46875 0 L 4.46875 -3.03125 C 4.46875 -3.382812 4.375 -3.660156 4.1875 -3.859375 C 4 -4.054688 3.738281 -4.15625 3.40625 -4.15625 C 3.070312 -4.15625 2.804688 -4.054688 2.609375 -3.859375 C 2.421875 -3.660156 2.328125 -3.382812 2.328125 -3.03125 L 2.328125 0 L 0.625 0 L 0.625 -5.578125 L 2.328125 -5.578125 L 2.328125 -4.875 C 2.503906 -5.113281 2.734375 -5.300781 3.015625 -5.4375 C 3.296875 -5.570312 3.609375 -5.640625 3.953125 -5.640625 C 4.378906 -5.640625 4.753906 -5.546875 5.078125 -5.359375 C 5.410156 -5.179688 5.671875 -4.925781 5.859375 -4.59375 C 6.054688 -4.90625 6.320312 -5.15625 6.65625 -5.34375 C 6.988281 -5.539062 7.347656 -5.640625 7.734375 -5.640625 Z M 7.734375 -5.640625 "/></g></g></g><g fill="#000000" fill-opacity="1"><g transform="translate(146.060209, 137.219427)"><g><path d="M 0.28125 -2.796875 C 0.28125 -3.367188 0.390625 -3.867188 0.609375 -4.296875 C 0.828125 -4.734375 1.117188 -5.066406 1.484375 -5.296875 C 1.859375 -5.535156 2.273438 -5.65625 2.734375 -5.65625 C 3.128906 -5.65625 3.472656 -5.578125 3.765625 -5.421875 C 4.066406 -5.265625 4.296875 -5.054688 4.453125 -4.796875 L 4.453125 -5.578125 L 6.171875 -5.578125 L 6.171875 0 L 4.453125 0 L 4.453125 -0.796875 C 4.285156 -0.535156 4.050781 -0.320312 3.75 -0.15625 C 3.457031 0 3.117188 0.078125 2.734375 0.078125 C 2.273438 0.078125 1.859375 -0.0351562 1.484375 -0.265625 C 1.117188 -0.503906 0.828125 -0.84375 0.609375 -1.28125 C 0.390625 -1.71875 0.28125 -2.222656 0.28125 -2.796875 Z M 4.453125 -2.796875 C 4.453125 -3.222656 4.332031 -3.554688 4.09375 -3.796875 C 3.863281 -4.046875 3.578125 -4.171875 3.234375 -4.171875 C 2.898438 -4.171875 2.613281 -4.046875 2.375 -3.796875 C 2.132812 -3.554688 2.015625 -3.222656 2.015625 -2.796875 C 2.015625 -2.367188 2.132812 -2.03125 2.375 -1.78125 C 2.613281 -1.53125 2.898438 -1.40625 3.234375 -1.40625 C 3.578125 -1.40625 3.863281 -1.53125 4.09375 -1.78125 C 4.332031 -2.03125 4.453125 -2.367188 4.453125 -2.796875 Z M 4.453125 -2.796875 "/></g></g></g><g fill="#000000" fill-opacity="1"><g transform="translate(152.847528, 137.219427)"><g><path d="M 4.015625 -5.640625 C 4.671875 -5.640625 5.191406 -5.425781 5.578125 -5 C 5.972656 -4.582031 6.171875 -4.003906 6.171875 -3.265625 L 6.171875 0 L 4.46875 0 L 4.46875 -3.03125 C 4.46875 -3.40625 4.367188 -3.691406 4.171875 -3.890625 C 3.984375 -4.097656 3.726562 -4.203125 3.40625 -4.203125 C 3.070312 -4.203125 2.804688 -4.097656 2.609375 -3.890625 C 2.421875 -3.691406 2.328125 -3.40625 2.328125 -3.03125 L 2.328125 0 L 0.625 0 L 0.625 -5.578125 L 2.328125 -5.578125 L 2.328125 -4.84375 C 2.503906 -5.082031 2.738281 -5.273438 3.03125 -5.421875 C 3.320312 -5.566406 3.648438 -5.640625 4.015625 -5.640625 Z M 4.015625 -5.640625 "/></g></g></g><g fill="#000000" fill-opacity="1"><g transform="translate(159.58487, 137.219427)"><g><path d="M 2.21875 -1.40625 L 4.640625 -1.40625 L 4.640625 0 L 0.3125 0 L 0.3125 -1.359375 L 2.625 -4.171875 L 0.328125 -4.171875 L 0.328125 -5.578125 L 4.59375 -5.578125 L 4.59375 -4.21875 Z M 2.21875 -1.40625 "/></g></g></g><g fill="#000000" fill-opacity="1"><g transform="translate(164.54292, 137.219427)"><g><path d="M 0.515625 -5.234375 C 0.535156 -5.953125 0.765625 -6.503906 1.203125 -6.890625 C 1.648438 -7.273438 2.25 -7.46875 3 -7.46875 C 3.5 -7.46875 3.925781 -7.378906 4.28125 -7.203125 C 4.632812 -7.035156 4.90625 -6.800781 5.09375 -6.5 C 5.28125 -6.195312 5.375 -5.859375 5.375 -5.484375 C 5.375 -5.046875 5.257812 -4.6875 5.03125 -4.40625 C 4.8125 -4.132812 4.554688 -3.945312 4.265625 -3.84375 L 4.265625 -3.8125 C 4.648438 -3.6875 4.953125 -3.472656 5.171875 -3.171875 C 5.390625 -2.878906 5.5 -2.503906 5.5 -2.046875 C 5.5 -1.640625 5.40625 -1.273438 5.21875 -0.953125 C 5.03125 -0.640625 4.753906 -0.390625 4.390625 -0.203125 C 4.023438 -0.0234375 3.59375 0.0625 3.09375 0.0625 C 2.289062 0.0625 1.648438 -0.132812 1.171875 -0.53125 C 0.691406 -0.925781 0.441406 -1.519531 0.421875 -2.3125 L 2.078125 -2.3125 C 2.085938 -2.019531 2.171875 -1.785156 2.328125 -1.609375 C 2.484375 -1.441406 2.71875 -1.359375 3.03125 -1.359375 C 3.289062 -1.359375 3.488281 -1.429688 3.625 -1.578125 C 3.769531 -1.734375 3.84375 -1.9375 3.84375 -2.1875 C 3.84375 -2.5 3.738281 -2.726562 3.53125 -2.875 C 3.332031 -3.019531 3.007812 -3.09375 2.5625 -3.09375 L 2.25 -3.09375 L 2.25 -4.484375 L 2.5625 -4.484375 C 2.90625 -4.484375 3.179688 -4.539062 3.390625 -4.65625 C 3.597656 -4.769531 3.703125 -4.976562 3.703125 -5.28125 C 3.703125 -5.519531 3.632812 -5.707031 3.5 -5.84375 C 3.375 -5.976562 3.191406 -6.046875 2.953125 -6.046875 C 2.703125 -6.046875 2.515625 -5.96875 2.390625 -5.8125 C 2.265625 -5.65625 2.195312 -5.460938 2.1875 -5.234375 Z M 0.515625 -5.234375 "/></g></g></g><g fill="#000000" fill-opacity="1"><g transform="translate(170.590538, 137.219427)"><g><path d="M 0.390625 -1.375 C 0.617188 -1.550781 0.722656 -1.632812 0.703125 -1.625 C 1.359375 -2.164062 1.875 -2.609375 2.25 -2.953125 C 2.625 -3.296875 2.941406 -3.65625 3.203125 -4.03125 C 3.460938 -4.414062 3.59375 -4.789062 3.59375 -5.15625 C 3.59375 -5.425781 3.523438 -5.632812 3.390625 -5.78125 C 3.265625 -5.9375 3.078125 -6.015625 2.828125 -6.015625 C 2.578125 -6.015625 2.378906 -5.921875 2.234375 -5.734375 C 2.085938 -5.546875 2.015625 -5.28125 2.015625 -4.9375 L 0.375 -4.9375 C 0.382812 -5.5 0.503906 -5.96875 0.734375 -6.34375 C 0.960938 -6.726562 1.265625 -7.007812 1.640625 -7.1875 C 2.015625 -7.363281 2.4375 -7.453125 2.90625 -7.453125 C 3.695312 -7.453125 4.289062 -7.25 4.6875 -6.84375 C 5.09375 -6.4375 5.296875 -5.910156 5.296875 -5.265625 C 5.296875 -4.546875 5.050781 -3.878906 4.5625 -3.265625 C 4.082031 -2.660156 3.460938 -2.066406 2.703125 -1.484375 L 5.40625 -1.484375 L 5.40625 -0.09375 L 0.390625 -0.09375 Z M 0.390625 -1.375 "/></g></g></g></svg>