<svg width="345" height="520" viewBox="0 0 345 520" fill="none" xmlns="http://www.w3.org/2000/svg">
<g clip-path="url(#clip0_37_378)">
<rect width="345" height="520" rx="33" fill="#272A33"/>
<rect width="345" height="520" rx="33" fill="#272A33"/>
<path d="M-180.742 244.933L647.282 -252.594" stroke="white" stroke-opacity="0.2" stroke-dasharray="2 2"/>
<path d="M-119.658 346.593L708.365 -150.934" stroke="white" stroke-opacity="0.2" stroke-dasharray="2 2"/>
<path d="M-58.5752 448.253L769.448 -49.2741" stroke="white" stroke-opacity="0.2" stroke-dasharray="2 2"/>
<path d="M2.50879 549.913L830.532 52.3861" stroke="white" stroke-opacity="0.2" stroke-dasharray="2 2"/>
<path d="M63.5918 651.573L891.615 154.046" stroke="white" stroke-opacity="0.2" stroke-dasharray="2 2"/>
<rect x="124.418" y="752.804" width="966" height="1" transform="rotate(-31 124.418 752.804)" fill="white" fill-opacity="0.4"/>
<path opacity="0.2" d="M-61.9462 415.829L-64.4407 419.492L123.774 732.734L951.76 235.23L887.748 128.696L886.209 133.949L884.67 139.202L873.577 128.555L876.815 141.758L867.632 134.29L887.112 174.525L876.019 163.877L873.524 167.54L851.922 139.402L852.293 147.835L841.2 137.188L840.616 144.031L837.167 146.104L823.207 130.686L830.267 150.25L822.04 144.372L807.125 127.364L818.006 153.288L814.556 155.361L824.482 179.695L744.599 54.5629L733.506 43.9153L729.101 44.3981L739.026 68.732L732.71 66.0347L740.725 87.1884L715.301 52.6899L714.717 59.533L720.821 77.5066L718.327 81.1696L713.922 81.6524L704.739 74.185L706.066 84.2082L696.884 76.7408L692.478 77.2237L696.672 92.0171L692.266 92.5L683.084 85.0325L678.679 85.5154L672.363 82.8182L671.779 89.6613L669.284 93.3243L662.013 89.0369L660.474 94.29L657.024 96.363L659.306 107.976L654.901 108.459L652.406 112.122L650.867 117.375L648.373 121.038L659.254 146.962L656.759 150.625L652.354 151.108L649.859 154.771L631.123 131.403L628.628 135.066L624.223 135.549L612.174 123.311L607.769 123.794L606.23 129.047L614.245 150.201L613.661 157.044L598.746 140.036L596.252 143.699L587.069 136.232L593.174 154.205L588.768 154.688L576.72 142.45L579.957 155.654L578.418 160.907L573.058 159.8L563.875 152.332L559.47 152.815L559.842 161.248L555.436 161.731L531.923 130.413L522.74 122.945L510.692 110.708L528.261 147.762L525.766 151.425L521.361 151.908L530.331 174.652L525.926 175.134L523.431 178.797L534.312 204.721L527.041 200.434L558.941 261.339L545.937 247.512L541.532 247.994L547.636 265.968L537.498 256.911L532.137 255.803L527.732 256.286L525.237 259.949L490.259 209.55L487.764 213.213L483.359 213.696L490.419 233.26L486.013 233.742L483.519 237.405L479.113 237.888L465.154 222.471L463.615 227.724L458.254 226.616L453.849 227.099L450.399 229.172L445.038 228.065L455.919 253.989L451.514 254.472L449.019 258.135L444.614 258.618L442.119 262.281L437.714 262.763L435.22 266.426L430.814 266.909L413.989 246.721L409.583 247.204L407.089 250.867L402.683 251.35L399.233 253.423L394.828 253.906L392.334 257.569L407.992 291.443L406.453 296.696L393.449 282.869L390.954 286.532L394.192 299.735L380.233 284.317L375.827 284.8L364.734 274.152L360.329 274.635L357.834 278.298L354.384 280.371L358.578 295.165L354.172 295.648L346.901 291.36L342.495 291.843L342.867 300.276L295.468 229.206L301.572 247.18L314.364 276.284L329.067 308.568L324.662 309.051L322.167 312.714L317.762 313.197L303.802 297.779L284.111 272.821L282.572 278.074L278.166 278.557L290.958 307.661L304.706 338.355L286.924 316.577L293.984 336.14L297.222 349.344L292.817 349.827L290.322 353.49L285.917 353.973L283.422 357.636L268.507 340.628L266.013 344.291L261.607 344.774L277.266 378.648L255.663 350.51L256.99 360.533L252.585 361.016L246.269 358.318L242.819 360.391L240.324 364.054L244.517 378.848L242.023 382.511L237.617 382.994L230.346 378.706L225.941 379.189L223.446 382.852L209.487 367.434L202.215 363.147L212.141 387.481L209.646 391.144L205.241 391.627L196.059 384.159L191.653 384.642L183.426 378.765L162.779 352.217L160.284 355.88L150.147 346.822L150.518 355.255L147.068 357.328L141.708 356.221L147.812 374.195L141.496 371.497L142.823 381.521L150.838 402.674L154.076 415.878L151.581 419.541L149.086 423.204L157.101 444.357L152.696 444.84L135.87 424.652L118.089 402.874L129.926 430.388L120.744 422.921L118.249 426.584L106.2 414.346L103.706 418.009L99.3005 418.492L92.9844 415.795L67.5601 381.296L50.7344 361.108L46.3291 361.591L35.2359 350.944L30.8305 351.426L36.9347 369.4L23.9307 355.572L36.7226 384.676L21.8078 367.668L23.1349 377.692L18.7295 378.175L26.7445 399.328L44.3135 436.383L46.596 447.996L31.6812 430.988L33.9637 442.601L53.4435 482.836L38.5287 465.828L22.6584 447.23L20.1639 450.893L14.8031 449.786L0.843731 434.368L0.26001 441.211L-4.14534 441.694L-8.55069 442.177L-11.0452 445.84L-15.4506 446.323L-21.7667 443.626L-51.9681 401.177L-54.4626 404.84L-49.3139 421.223L-51.8084 424.886L-61.9462 415.829Z" fill="url(#paint0_linear_37_378)"/>
<path d="M-64.4407 416.492L-61.9462 412.829L-51.8084 421.886L-49.3139 418.223L-54.4626 401.84L-51.9681 398.177L-21.7667 440.626L-15.4506 443.323L-11.0452 442.84L-8.55069 439.177L-4.14534 438.694L0.260009 438.211L0.84373 431.368L14.8031 446.786L20.1639 447.893L22.6584 444.23L38.5287 462.828L53.4435 479.836L33.9637 439.601L31.6812 427.988L46.596 444.996L44.3135 433.383L26.7445 396.328L18.7295 375.175L23.1349 374.692L21.8078 364.668L36.7226 381.676L23.9307 352.572L36.9347 366.4L30.8305 348.426L35.2359 347.944L46.3291 358.591L50.7344 358.108L67.5601 378.296L92.9844 412.795L99.3005 415.492L103.706 415.009L106.2 411.346L118.249 423.584L120.744 419.921L129.926 427.388L118.089 399.874L135.87 421.652L152.696 441.84L157.101 441.357L149.086 420.204L151.581 416.541L154.076 412.878L150.838 399.674L142.823 378.521L141.496 368.497L147.812 371.195L141.708 353.221L147.068 354.328L150.518 352.255L150.147 343.822L160.284 352.88L162.779 349.217L183.426 375.765L191.653 381.642L196.059 381.159L205.241 388.627L209.646 388.144L212.141 384.481L202.215 360.147L209.487 364.434L223.446 379.852L225.941 376.189L230.346 375.706L237.617 379.994L242.023 379.511L244.517 375.848L240.324 361.054L242.819 357.391L246.269 355.318L252.585 358.016L256.99 357.533L255.663 347.51L277.266 375.648L261.607 341.774L266.013 341.291L268.507 337.628L283.422 354.636L285.917 350.973L290.322 350.49L292.817 346.827L297.222 346.344L293.984 333.14L286.924 313.577L304.706 335.355L290.958 304.661L278.166 275.557L282.572 275.074L284.111 269.821L303.802 294.779L317.762 310.197L322.167 309.714L324.662 306.051L329.067 305.568L314.364 273.284L301.572 244.18L295.468 226.206L342.867 297.276L342.495 288.843L346.901 288.36L354.172 292.648L358.577 292.165L354.384 277.371L357.834 275.298L360.329 271.635L364.734 271.152L375.827 281.8L380.233 281.317L394.192 296.735L390.954 283.532L393.449 279.869L406.453 293.696L407.992 288.443L392.334 254.569L394.828 250.906L399.233 250.423L402.683 248.35L407.089 247.867L409.583 244.204L413.989 243.721L430.814 263.909L435.22 263.426L437.714 259.763L442.119 259.281L444.614 255.618L449.019 255.135L451.514 251.472L455.919 250.989L445.038 225.065L450.399 226.172L453.849 224.099L458.254 223.616L463.615 224.724L465.154 219.471L479.113 234.888L483.519 234.405L486.013 230.742L490.419 230.26L483.359 210.696L487.764 210.213L490.259 206.55L525.237 256.949L527.732 253.286L532.137 252.803L537.498 253.911L547.636 262.968L541.532 244.994L545.937 244.512L558.941 258.339L527.041 197.434L534.312 201.721L523.431 175.797L525.926 172.134L530.331 171.652L521.361 148.908L525.766 148.425L528.261 144.762L510.692 107.708L522.74 119.945L531.923 127.413L555.436 158.731L559.842 158.248L559.47 149.815L563.875 149.332L573.058 156.8L578.418 157.907L579.957 152.654L576.72 139.45L588.768 151.688L593.174 151.205L587.069 133.232L596.252 140.699L598.746 137.036L613.661 154.044L614.245 147.201L606.23 126.047L607.769 120.794L612.174 120.311L624.223 132.549L628.628 132.066L631.123 128.403L649.859 151.771L652.354 148.108L656.759 147.625L659.254 143.962L648.373 118.038L650.867 114.375L652.406 109.122L654.901 105.459L659.306 104.976L657.024 93.363L660.474 91.29L662.013 86.037L669.284 90.3243L671.779 86.6613L672.363 79.8182L678.679 82.5154L683.084 82.0325L692.266 89.5L696.672 89.0171L692.478 74.2237L696.884 73.7408L706.066 81.2083L704.739 71.185L713.921 78.6525L718.327 78.1696L720.821 74.5066L714.717 56.533L715.301 49.6899L740.725 84.1884L732.71 63.0347L739.026 65.732L729.101 41.3982L733.506 40.9153L744.599 51.5629L824.482 176.695L814.556 152.361L818.006 150.288L807.125 124.364L822.04 141.372L830.267 147.25L823.207 127.686L837.166 143.104L840.616 141.031L841.2 134.188L852.293 144.835L851.922 136.402L873.524 164.54L876.019 160.877L887.112 171.525L867.632 131.29L876.815 138.758L873.577 125.555L884.67 136.202L886.209 130.949L887.748 125.696" stroke="#58D764" stroke-linejoin="round"/>
<path d="M27.67 99.35H18.55L16.87 104H13.99L21.55 83.21H24.7L32.23 104H29.35L27.67 99.35ZM26.89 97.13L23.11 86.57L19.33 97.13H26.89ZM50.1048 87.56V104H47.3748V101.57C46.8548 102.41 46.1248 103.07 45.1848 103.55C44.2648 104.01 43.2448 104.24 42.1248 104.24C40.8448 104.24 39.6948 103.98 38.6748 103.46C37.6548 102.92 36.8448 102.12 36.2448 101.06C35.6648 100 35.3748 98.71 35.3748 97.19V87.56H38.0748V96.83C38.0748 98.45 38.4848 99.7 39.3048 100.58C40.1248 101.44 41.2448 101.87 42.6648 101.87C44.1248 101.87 45.2748 101.42 46.1148 100.52C46.9548 99.62 47.3748 98.31 47.3748 96.59V87.56H50.1048ZM58.0443 89.81V99.5C58.0443 100.3 58.2143 100.87 58.5543 101.21C58.8943 101.53 59.4843 101.69 60.3243 101.69H62.3343V104H59.8743C58.3543 104 57.2143 103.65 56.4543 102.95C55.6943 102.25 55.3143 101.1 55.3143 99.5V89.81H53.1843V87.56H55.3143V83.42H58.0443V87.56H62.3343V89.81H58.0443ZM72.812 104.27C71.272 104.27 69.872 103.92 68.612 103.22C67.372 102.52 66.392 101.53 65.672 100.25C64.972 98.95 64.622 97.45 64.622 95.75C64.622 94.07 64.982 92.59 65.702 91.31C66.442 90.01 67.442 89.02 68.702 88.34C69.962 87.64 71.372 87.29 72.932 87.29C74.492 87.29 75.902 87.64 77.162 88.34C78.422 89.02 79.412 90 80.132 91.28C80.872 92.56 81.242 94.05 81.242 95.75C81.242 97.45 80.862 98.95 80.102 100.25C79.362 101.53 78.352 102.52 77.072 103.22C75.792 103.92 74.372 104.27 72.812 104.27ZM72.812 101.87C73.792 101.87 74.712 101.64 75.572 101.18C76.432 100.72 77.122 100.03 77.642 99.11C78.182 98.19 78.452 97.07 78.452 95.75C78.452 94.43 78.192 93.31 77.672 92.39C77.152 91.47 76.472 90.79 75.632 90.35C74.792 89.89 73.882 89.66 72.902 89.66C71.902 89.66 70.982 89.89 70.142 90.35C69.322 90.79 68.662 91.47 68.162 92.39C67.662 93.31 67.412 94.43 67.412 95.75C67.412 97.09 67.652 98.22 68.132 99.14C68.632 100.06 69.292 100.75 70.112 101.21C70.932 101.65 71.832 101.87 72.812 101.87ZM104.601 87.26C105.881 87.26 107.021 87.53 108.021 88.07C109.021 88.59 109.811 89.38 110.391 90.44C110.971 91.5 111.261 92.79 111.261 94.31V104H108.561V94.7C108.561 93.06 108.151 91.81 107.331 90.95C106.531 90.07 105.441 89.63 104.061 89.63C102.641 89.63 101.511 90.09 100.671 91.01C99.8315 91.91 99.4115 93.22 99.4115 94.94V104H96.7115V94.7C96.7115 93.06 96.3015 91.81 95.4815 90.95C94.6815 90.07 93.5915 89.63 92.2115 89.63C90.7915 89.63 89.6615 90.09 88.8215 91.01C87.9815 91.91 87.5615 93.22 87.5615 94.94V104H84.8315V87.56H87.5615V89.93C88.1015 89.07 88.8215 88.41 89.7215 87.95C90.6415 87.49 91.6515 87.26 92.7515 87.26C94.1315 87.26 95.3515 87.57 96.4115 88.19C97.4715 88.81 98.2615 89.72 98.7815 90.92C99.2415 89.76 100.001 88.86 101.061 88.22C102.121 87.58 103.301 87.26 104.601 87.26ZM114.72 95.72C114.72 94.04 115.06 92.57 115.74 91.31C116.42 90.03 117.35 89.04 118.53 88.34C119.73 87.64 121.06 87.29 122.52 87.29C123.96 87.29 125.21 87.6 126.27 88.22C127.33 88.84 128.12 89.62 128.64 90.56V87.56H131.4V104H128.64V100.94C128.1 101.9 127.29 102.7 126.21 103.34C125.15 103.96 123.91 104.27 122.49 104.27C121.03 104.27 119.71 103.91 118.53 103.19C117.35 102.47 116.42 101.46 115.74 100.16C115.06 98.86 114.72 97.38 114.72 95.72ZM128.64 95.75C128.64 94.51 128.39 93.43 127.89 92.51C127.39 91.59 126.71 90.89 125.85 90.41C125.01 89.91 124.08 89.66 123.06 89.66C122.04 89.66 121.11 89.9 120.27 90.38C119.43 90.86 118.76 91.56 118.26 92.48C117.76 93.4 117.51 94.48 117.51 95.72C117.51 96.98 117.76 98.08 118.26 99.02C118.76 99.94 119.43 100.65 120.27 101.15C121.11 101.63 122.04 101.87 123.06 101.87C124.08 101.87 125.01 101.63 125.85 101.15C126.71 100.65 127.39 99.94 127.89 99.02C128.39 98.08 128.64 96.99 128.64 95.75ZM139.343 89.81V99.5C139.343 100.3 139.513 100.87 139.853 101.21C140.193 101.53 140.783 101.69 141.623 101.69H143.633V104H141.173C139.653 104 138.513 103.65 137.753 102.95C136.993 102.25 136.613 101.1 136.613 99.5V89.81H134.483V87.56H136.613V83.42H139.343V87.56H143.633V89.81H139.343ZM161.941 95.15C161.941 95.67 161.911 96.22 161.851 96.8H148.711C148.811 98.42 149.361 99.69 150.361 100.61C151.381 101.51 152.611 101.96 154.051 101.96C155.231 101.96 156.211 101.69 156.991 101.15C157.791 100.59 158.351 99.85 158.671 98.93H161.611C161.171 100.51 160.291 101.8 158.971 102.8C157.651 103.78 156.011 104.27 154.051 104.27C152.491 104.27 151.091 103.92 149.851 103.22C148.631 102.52 147.671 101.53 146.971 100.25C146.271 98.95 145.921 97.45 145.921 95.75C145.921 94.05 146.261 92.56 146.941 91.28C147.621 90 148.571 89.02 149.791 88.34C151.031 87.64 152.451 87.29 154.051 87.29C155.611 87.29 156.991 87.63 158.191 88.31C159.391 88.99 160.311 89.93 160.951 91.13C161.611 92.31 161.941 93.65 161.941 95.15ZM159.121 94.58C159.121 93.54 158.891 92.65 158.431 91.91C157.971 91.15 157.341 90.58 156.541 90.2C155.761 89.8 154.891 89.6 153.931 89.6C152.551 89.6 151.371 90.04 150.391 90.92C149.431 91.8 148.881 93.02 148.741 94.58H159.121ZM164.524 95.72C164.524 94.04 164.864 92.57 165.544 91.31C166.224 90.03 167.154 89.04 168.334 88.34C169.534 87.64 170.874 87.29 172.354 87.29C173.634 87.29 174.824 87.59 175.924 88.19C177.024 88.77 177.864 89.54 178.444 90.5V81.8H181.204V104H178.444V100.91C177.904 101.89 177.104 102.7 176.044 103.34C174.984 103.96 173.744 104.27 172.324 104.27C170.864 104.27 169.534 103.91 168.334 103.19C167.154 102.47 166.224 101.46 165.544 100.16C164.864 98.86 164.524 97.38 164.524 95.72ZM178.444 95.75C178.444 94.51 178.194 93.43 177.694 92.51C177.194 91.59 176.514 90.89 175.654 90.41C174.814 89.91 173.884 89.66 172.864 89.66C171.844 89.66 170.914 89.9 170.074 90.38C169.234 90.86 168.564 91.56 168.064 92.48C167.564 93.4 167.314 94.48 167.314 95.72C167.314 96.98 167.564 98.08 168.064 99.02C168.564 99.94 169.234 100.65 170.074 101.15C170.914 101.63 171.844 101.87 172.864 101.87C173.884 101.87 174.814 101.63 175.654 101.15C176.514 100.65 177.194 99.94 177.694 99.02C178.194 98.08 178.444 96.99 178.444 95.75ZM26.32 142L21.34 133.45H18.04V142H15.31V121.09H22.06C23.64 121.09 24.97 121.36 26.05 121.9C27.15 122.44 27.97 123.17 28.51 124.09C29.05 125.01 29.32 126.06 29.32 127.24C29.32 128.68 28.9 129.95 28.06 131.05C27.24 132.15 26 132.88 24.34 133.24L29.59 142H26.32ZM18.04 131.26H22.06C23.54 131.26 24.65 130.9 25.39 130.18C26.13 129.44 26.5 128.46 26.5 127.24C26.5 126 26.13 125.04 25.39 124.36C24.67 123.68 23.56 123.34 22.06 123.34H18.04V131.26ZM48.562 133.15C48.562 133.67 48.532 134.22 48.472 134.8H35.332C35.432 136.42 35.982 137.69 36.982 138.61C38.002 139.51 39.232 139.96 40.672 139.96C41.852 139.96 42.832 139.69 43.612 139.15C44.412 138.59 44.972 137.85 45.292 136.93H48.232C47.792 138.51 46.912 139.8 45.592 140.8C44.272 141.78 42.632 142.27 40.672 142.27C39.112 142.27 37.712 141.92 36.472 141.22C35.252 140.52 34.292 139.53 33.592 138.25C32.892 136.95 32.542 135.45 32.542 133.75C32.542 132.05 32.882 130.56 33.562 129.28C34.242 128 35.192 127.02 36.412 126.34C37.652 125.64 39.072 125.29 40.672 125.29C42.232 125.29 43.612 125.63 44.812 126.31C46.012 126.99 46.932 127.93 47.572 129.13C48.232 130.31 48.562 131.65 48.562 133.15ZM45.742 132.58C45.742 131.54 45.512 130.65 45.052 129.91C44.592 129.15 43.962 128.58 43.162 128.2C42.382 127.8 41.512 127.6 40.552 127.6C39.172 127.6 37.992 128.04 37.012 128.92C36.052 129.8 35.502 131.02 35.362 132.58H45.742ZM54.8955 128.59C55.4355 127.65 56.2355 126.87 57.2955 126.25C58.3755 125.61 59.6255 125.29 61.0455 125.29C62.5055 125.29 63.8255 125.64 65.0055 126.34C66.2055 127.04 67.1455 128.03 67.8255 129.31C68.5055 130.57 68.8455 132.04 68.8455 133.72C68.8455 135.38 68.5055 136.86 67.8255 138.16C67.1455 139.46 66.2055 140.47 65.0055 141.19C63.8255 141.91 62.5055 142.27 61.0455 142.27C59.6455 142.27 58.4055 141.96 57.3255 141.34C56.2655 140.7 55.4555 139.91 54.8955 138.97V149.8H52.1655V125.56H54.8955V128.59ZM66.0555 133.72C66.0555 132.48 65.8055 131.4 65.3055 130.48C64.8055 129.56 64.1255 128.86 63.2655 128.38C62.4255 127.9 61.4955 127.66 60.4755 127.66C59.4755 127.66 58.5455 127.91 57.6855 128.41C56.8455 128.89 56.1655 129.6 55.6455 130.54C55.1455 131.46 54.8955 132.53 54.8955 133.75C54.8955 134.99 55.1455 136.08 55.6455 137.02C56.1655 137.94 56.8455 138.65 57.6855 139.15C58.5455 139.63 59.4755 139.87 60.4755 139.87C61.4955 139.87 62.4255 139.63 63.2655 139.15C64.1255 138.65 64.8055 137.94 65.3055 137.02C65.8055 136.08 66.0555 134.98 66.0555 133.72ZM79.6089 142.27C78.0689 142.27 76.6689 141.92 75.4089 141.22C74.1689 140.52 73.1889 139.53 72.4689 138.25C71.7689 136.95 71.4189 135.45 71.4189 133.75C71.4189 132.07 71.7789 130.59 72.4989 129.31C73.2389 128.01 74.2389 127.02 75.4989 126.34C76.7589 125.64 78.1689 125.29 79.7289 125.29C81.2889 125.29 82.6989 125.64 83.9589 126.34C85.2189 127.02 86.2089 128 86.9289 129.28C87.6689 130.56 88.0389 132.05 88.0389 133.75C88.0389 135.45 87.6589 136.95 86.8989 138.25C86.1589 139.53 85.1489 140.52 83.8689 141.22C82.5889 141.92 81.1689 142.27 79.6089 142.27ZM79.6089 139.87C80.5889 139.87 81.5089 139.64 82.3689 139.18C83.2289 138.72 83.9189 138.03 84.4389 137.11C84.9789 136.19 85.2489 135.07 85.2489 133.75C85.2489 132.43 84.9889 131.31 84.4689 130.39C83.9489 129.47 83.2689 128.79 82.4289 128.35C81.5889 127.89 80.6789 127.66 79.6989 127.66C78.6989 127.66 77.7789 127.89 76.9389 128.35C76.1189 128.79 75.4589 129.47 74.9589 130.39C74.4589 131.31 74.2089 132.43 74.2089 133.75C74.2089 135.09 74.4489 136.22 74.9289 137.14C75.4289 138.06 76.0889 138.75 76.9089 139.21C77.7289 139.65 78.6289 139.87 79.6089 139.87ZM94.3584 128.23C94.8384 127.29 95.5184 126.56 96.3984 126.04C97.2984 125.52 98.3884 125.26 99.6684 125.26V128.08H98.9484C95.8884 128.08 94.3584 129.74 94.3584 133.06V142H91.6284V125.56H94.3584V128.23ZM106.15 127.81V137.5C106.15 138.3 106.32 138.87 106.66 139.21C107 139.53 107.59 139.69 108.43 139.69H110.44V142H107.98C106.46 142 105.32 141.65 104.56 140.95C103.8 140.25 103.42 139.1 103.42 137.5V127.81H101.29V125.56H103.42V121.42H106.15V125.56H110.44V127.81H106.15ZM115.158 122.89C114.638 122.89 114.198 122.71 113.838 122.35C113.478 121.99 113.298 121.55 113.298 121.03C113.298 120.51 113.478 120.07 113.838 119.71C114.198 119.35 114.638 119.17 115.158 119.17C115.658 119.17 116.078 119.35 116.418 119.71C116.778 120.07 116.958 120.51 116.958 121.03C116.958 121.55 116.778 121.99 116.418 122.35C116.078 122.71 115.658 122.89 115.158 122.89ZM116.478 125.56V142H113.748V125.56H116.478ZM129.14 125.26C131.14 125.26 132.76 125.87 134 127.09C135.24 128.29 135.86 130.03 135.86 132.31V142H133.16V132.7C133.16 131.06 132.75 129.81 131.93 128.95C131.11 128.07 129.99 127.63 128.57 127.63C127.13 127.63 125.98 128.08 125.12 128.98C124.28 129.88 123.86 131.19 123.86 132.91V142H121.13V125.56H123.86V127.9C124.4 127.06 125.13 126.41 126.05 125.95C126.99 125.49 128.02 125.26 129.14 125.26ZM147.1 125.29C148.52 125.29 149.76 125.6 150.82 126.22C151.9 126.84 152.7 127.62 153.22 128.56V125.56H155.98V142.36C155.98 143.86 155.66 145.19 155.02 146.35C154.38 147.53 153.46 148.45 152.26 149.11C151.08 149.77 149.7 150.1 148.12 150.1C145.96 150.1 144.16 149.59 142.72 148.57C141.28 147.55 140.43 146.16 140.17 144.4H142.87C143.17 145.4 143.79 146.2 144.73 146.8C145.67 147.42 146.8 147.73 148.12 147.73C149.62 147.73 150.84 147.26 151.78 146.32C152.74 145.38 153.22 144.06 153.22 142.36V138.91C152.68 139.87 151.88 140.67 150.82 141.31C149.76 141.95 148.52 142.27 147.1 142.27C145.64 142.27 144.31 141.91 143.11 141.19C141.93 140.47 141 139.46 140.32 138.16C139.64 136.86 139.3 135.38 139.3 133.72C139.3 132.04 139.64 130.57 140.32 129.31C141 128.03 141.93 127.04 143.11 126.34C144.31 125.64 145.64 125.29 147.1 125.29ZM153.22 133.75C153.22 132.51 152.97 131.43 152.47 130.51C151.97 129.59 151.29 128.89 150.43 128.41C149.59 127.91 148.66 127.66 147.64 127.66C146.62 127.66 145.69 127.9 144.85 128.38C144.01 128.86 143.34 129.56 142.84 130.48C142.34 131.4 142.09 132.48 142.09 133.72C142.09 134.98 142.34 136.08 142.84 137.02C143.34 137.94 144.01 138.65 144.85 139.15C145.69 139.63 146.62 139.87 147.64 139.87C148.66 139.87 149.59 139.63 150.43 139.15C151.29 138.65 151.97 137.94 152.47 137.02C152.97 136.08 153.22 134.99 153.22 133.75Z" fill="#F7F2EB"/>
<path d="M22.68 174.08C22.3707 173.429 21.9227 172.928 21.336 172.576C20.7493 172.213 20.0667 172.032 19.288 172.032C18.5093 172.032 17.8053 172.213 17.176 172.576C16.5573 172.928 16.0667 173.44 15.704 174.112C15.352 174.773 15.176 175.541 15.176 176.416C15.176 177.291 15.352 178.059 15.704 178.72C16.0667 179.381 16.5573 179.893 17.176 180.256C17.8053 180.608 18.5093 180.784 19.288 180.784C20.376 180.784 21.272 180.459 21.976 179.808C22.68 179.157 23.0907 178.277 23.208 177.168H18.76V175.984H24.76V177.104C24.6747 178.021 24.3867 178.864 23.896 179.632C23.4053 180.389 22.76 180.992 21.96 181.44C21.16 181.877 20.2693 182.096 19.288 182.096C18.2533 182.096 17.3093 181.856 16.456 181.376C15.6027 180.885 14.9253 180.208 14.424 179.344C13.9333 178.48 13.688 177.504 13.688 176.416C13.688 175.328 13.9333 174.352 14.424 173.488C14.9253 172.613 15.6027 171.936 16.456 171.456C17.3093 170.965 18.2533 170.72 19.288 170.72C20.472 170.72 21.5173 171.013 22.424 171.6C23.3413 172.187 24.008 173.013 24.424 174.08H22.68ZM34.6851 177.28C34.6851 177.557 34.6691 177.851 34.6371 178.16H27.6291C27.6825 179.024 27.9758 179.701 28.5091 180.192C29.0531 180.672 29.7091 180.912 30.4771 180.912C31.1065 180.912 31.6291 180.768 32.0451 180.48C32.4718 180.181 32.7705 179.787 32.9411 179.296H34.5091C34.2745 180.139 33.8051 180.827 33.1011 181.36C32.3971 181.883 31.5225 182.144 30.4771 182.144C29.6451 182.144 28.8985 181.957 28.2371 181.584C27.5865 181.211 27.0745 180.683 26.7011 180C26.3278 179.307 26.1411 178.507 26.1411 177.6C26.1411 176.693 26.3225 175.899 26.6851 175.216C27.0478 174.533 27.5545 174.011 28.2051 173.648C28.8665 173.275 29.6238 173.088 30.4771 173.088C31.3091 173.088 32.0451 173.269 32.6851 173.632C33.3251 173.995 33.8158 174.496 34.1571 175.136C34.5091 175.765 34.6851 176.48 34.6851 177.28ZM33.1811 176.976C33.1811 176.421 33.0585 175.947 32.8131 175.552C32.5678 175.147 32.2318 174.843 31.8051 174.64C31.3891 174.427 30.9251 174.32 30.4131 174.32C29.6771 174.32 29.0478 174.555 28.5251 175.024C28.0131 175.493 27.7198 176.144 27.6451 176.976H33.1811ZM38.383 174.432V179.6C38.383 180.027 38.4737 180.331 38.655 180.512C38.8363 180.683 39.151 180.768 39.599 180.768H40.671V182H39.359C38.5483 182 37.9403 181.813 37.535 181.44C37.1297 181.067 36.927 180.453 36.927 179.6V174.432H35.791V173.232H36.927V171.024H38.383V173.232H40.671V174.432H38.383ZM46.1568 177.584C46.1568 176.688 46.3381 175.904 46.7008 175.232C47.0634 174.549 47.5594 174.021 48.1888 173.648C48.8288 173.275 49.5434 173.088 50.3328 173.088C51.0154 173.088 51.6501 173.248 52.2368 173.568C52.8234 173.877 53.2714 174.288 53.5808 174.8V170.16H55.0528V182H53.5808V180.352C53.2928 180.875 52.8661 181.307 52.3008 181.648C51.7354 181.979 51.0741 182.144 50.3168 182.144C49.5381 182.144 48.8288 181.952 48.1888 181.568C47.5594 181.184 47.0634 180.645 46.7008 179.952C46.3381 179.259 46.1568 178.469 46.1568 177.584ZM53.5808 177.6C53.5808 176.939 53.4474 176.363 53.1808 175.872C52.9141 175.381 52.5514 175.008 52.0928 174.752C51.6448 174.485 51.1488 174.352 50.6048 174.352C50.0608 174.352 49.5648 174.48 49.1168 174.736C48.6688 174.992 48.3114 175.365 48.0448 175.856C47.7781 176.347 47.6448 176.923 47.6448 177.584C47.6448 178.256 47.7781 178.843 48.0448 179.344C48.3114 179.835 48.6688 180.213 49.1168 180.48C49.5648 180.736 50.0608 180.864 50.6048 180.864C51.1488 180.864 51.6448 180.736 52.0928 180.48C52.5514 180.213 52.9141 179.835 53.1808 179.344C53.4474 178.843 53.5808 178.261 53.5808 177.6ZM56.9693 177.584C56.9693 176.688 57.1506 175.904 57.5133 175.232C57.8759 174.549 58.3719 174.021 59.0013 173.648C59.6413 173.275 60.3506 173.088 61.1293 173.088C61.8973 173.088 62.5639 173.253 63.1293 173.584C63.6946 173.915 64.1159 174.331 64.3933 174.832V173.232H65.8653V182H64.3933V180.368C64.1053 180.88 63.6733 181.307 63.0973 181.648C62.5319 181.979 61.8706 182.144 61.1133 182.144C60.3346 182.144 59.6306 181.952 59.0013 181.568C58.3719 181.184 57.8759 180.645 57.5133 179.952C57.1506 179.259 56.9693 178.469 56.9693 177.584ZM64.3933 177.6C64.3933 176.939 64.2599 176.363 63.9933 175.872C63.7266 175.381 63.3639 175.008 62.9053 174.752C62.4573 174.485 61.9613 174.352 61.4173 174.352C60.8733 174.352 60.3773 174.48 59.9293 174.736C59.4813 174.992 59.1239 175.365 58.8573 175.856C58.5906 176.347 58.4573 176.923 58.4573 177.584C58.4573 178.256 58.5906 178.843 58.8573 179.344C59.1239 179.835 59.4813 180.213 59.9293 180.48C60.3773 180.736 60.8733 180.864 61.4173 180.864C61.9613 180.864 62.4573 180.736 62.9053 180.48C63.3639 180.213 63.7266 179.835 63.9933 179.344C64.2599 178.843 64.3933 178.261 64.3933 177.6ZM71.4298 182.144C70.7578 182.144 70.1551 182.032 69.6218 181.808C69.0884 181.573 68.6671 181.253 68.3578 180.848C68.0484 180.432 67.8778 179.957 67.8458 179.424H69.3498C69.3924 179.861 69.5951 180.219 69.9578 180.496C70.3311 180.773 70.8164 180.912 71.4138 180.912C71.9684 180.912 72.4058 180.789 72.7258 180.544C73.0458 180.299 73.2058 179.989 73.2058 179.616C73.2058 179.232 73.0351 178.949 72.6938 178.768C72.3524 178.576 71.8244 178.389 71.1098 178.208C70.4591 178.037 69.9258 177.867 69.5098 177.696C69.1044 177.515 68.7524 177.253 68.4538 176.912C68.1658 176.56 68.0218 176.101 68.0218 175.536C68.0218 175.088 68.1551 174.677 68.4218 174.304C68.6884 173.931 69.0671 173.637 69.5578 173.424C70.0484 173.2 70.6084 173.088 71.2378 173.088C72.2084 173.088 72.9924 173.333 73.5898 173.824C74.1871 174.315 74.5071 174.987 74.5498 175.84H73.0938C73.0618 175.381 72.8751 175.013 72.5338 174.736C72.2031 174.459 71.7551 174.32 71.1898 174.32C70.6671 174.32 70.2511 174.432 69.9418 174.656C69.6324 174.88 69.4778 175.173 69.4778 175.536C69.4778 175.824 69.5684 176.064 69.7498 176.256C69.9418 176.437 70.1764 176.587 70.4538 176.704C70.7418 176.811 71.1364 176.933 71.6378 177.072C72.2671 177.243 72.7791 177.413 73.1738 177.584C73.5684 177.744 73.9044 177.989 74.1818 178.32C74.4698 178.651 74.6191 179.083 74.6298 179.616C74.6298 180.096 74.4964 180.528 74.2298 180.912C73.9631 181.296 73.5844 181.6 73.0938 181.824C72.6138 182.037 72.0591 182.144 71.4298 182.144ZM81.0371 173.072C81.6985 173.072 82.2958 173.216 82.8291 173.504C83.3625 173.781 83.7785 174.203 84.0771 174.768C84.3865 175.333 84.5411 176.021 84.5411 176.832V182H83.1011V177.04C83.1011 176.165 82.8825 175.499 82.4451 175.04C82.0078 174.571 81.4105 174.336 80.6531 174.336C79.8851 174.336 79.2718 174.576 78.8131 175.056C78.3651 175.536 78.1411 176.235 78.1411 177.152V182H76.6851V170.16H78.1411V174.48C78.4291 174.032 78.8238 173.685 79.3251 173.44C79.8371 173.195 80.4078 173.072 81.0371 173.072ZM88.3755 174.864C88.6742 174.341 89.1115 173.915 89.6875 173.584C90.2635 173.253 90.9195 173.088 91.6555 173.088C92.4448 173.088 93.1542 173.275 93.7835 173.648C94.4128 174.021 94.9088 174.549 95.2715 175.232C95.6342 175.904 95.8155 176.688 95.8155 177.584C95.8155 178.469 95.6342 179.259 95.2715 179.952C94.9088 180.645 94.4075 181.184 93.7675 181.568C93.1382 181.952 92.4342 182.144 91.6555 182.144C90.8982 182.144 90.2315 181.979 89.6555 181.648C89.0902 181.317 88.6635 180.896 88.3755 180.384V182H86.9195V170.16H88.3755V174.864ZM94.3275 177.584C94.3275 176.923 94.1942 176.347 93.9275 175.856C93.6608 175.365 93.2982 174.992 92.8395 174.736C92.3915 174.48 91.8955 174.352 91.3515 174.352C90.8182 174.352 90.3222 174.485 89.8635 174.752C89.4155 175.008 89.0528 175.387 88.7755 175.888C88.5088 176.379 88.3755 176.949 88.3755 177.6C88.3755 178.261 88.5088 178.843 88.7755 179.344C89.0528 179.835 89.4155 180.213 89.8635 180.48C90.3222 180.736 90.8182 180.864 91.3515 180.864C91.8955 180.864 92.3915 180.736 92.8395 180.48C93.2982 180.213 93.6608 179.835 93.9275 179.344C94.1942 178.843 94.3275 178.256 94.3275 177.584ZM101.556 182.144C100.735 182.144 99.988 181.957 99.316 181.584C98.6547 181.211 98.132 180.683 97.748 180C97.3747 179.307 97.188 178.507 97.188 177.6C97.188 176.704 97.38 175.915 97.764 175.232C98.1587 174.539 98.692 174.011 99.364 173.648C100.036 173.275 100.788 173.088 101.62 173.088C102.452 173.088 103.204 173.275 103.876 173.648C104.548 174.011 105.076 174.533 105.46 175.216C105.855 175.899 106.052 176.693 106.052 177.6C106.052 178.507 105.849 179.307 105.444 180C105.049 180.683 104.511 181.211 103.828 181.584C103.145 181.957 102.388 182.144 101.556 182.144ZM101.556 180.864C102.079 180.864 102.569 180.741 103.028 180.496C103.487 180.251 103.855 179.883 104.132 179.392C104.42 178.901 104.564 178.304 104.564 177.6C104.564 176.896 104.425 176.299 104.148 175.808C103.871 175.317 103.508 174.955 103.06 174.72C102.612 174.475 102.127 174.352 101.604 174.352C101.071 174.352 100.58 174.475 100.132 174.72C99.6947 174.955 99.3427 175.317 99.076 175.808C98.8093 176.299 98.676 176.896 98.676 177.6C98.676 178.315 98.804 178.917 99.06 179.408C99.3267 179.899 99.6787 180.267 100.116 180.512C100.553 180.747 101.033 180.864 101.556 180.864ZM107.422 177.584C107.422 176.688 107.604 175.904 107.966 175.232C108.329 174.549 108.825 174.021 109.454 173.648C110.094 173.275 110.804 173.088 111.582 173.088C112.35 173.088 113.017 173.253 113.582 173.584C114.148 173.915 114.569 174.331 114.846 174.832V173.232H116.318V182H114.846V180.368C114.558 180.88 114.126 181.307 113.55 181.648C112.985 181.979 112.324 182.144 111.566 182.144C110.788 182.144 110.084 181.952 109.454 181.568C108.825 181.184 108.329 180.645 107.966 179.952C107.604 179.259 107.422 178.469 107.422 177.584ZM114.846 177.6C114.846 176.939 114.713 176.363 114.446 175.872C114.18 175.381 113.817 175.008 113.358 174.752C112.91 174.485 112.414 174.352 111.87 174.352C111.326 174.352 110.83 174.48 110.382 174.736C109.934 174.992 109.577 175.365 109.31 175.856C109.044 176.347 108.91 176.923 108.91 177.584C108.91 178.256 109.044 178.843 109.31 179.344C109.577 179.835 109.934 180.213 110.382 180.48C110.83 180.736 111.326 180.864 111.87 180.864C112.414 180.864 112.91 180.736 113.358 180.48C113.817 180.213 114.18 179.835 114.446 179.344C114.713 178.843 114.846 178.261 114.846 177.6ZM120.235 174.656C120.491 174.155 120.854 173.765 121.323 173.488C121.803 173.211 122.384 173.072 123.067 173.072V174.576H122.683C121.051 174.576 120.235 175.461 120.235 177.232V182H118.779V173.232H120.235V174.656ZM124.204 177.584C124.204 176.688 124.385 175.904 124.748 175.232C125.11 174.549 125.606 174.021 126.236 173.648C126.876 173.275 127.59 173.088 128.38 173.088C129.062 173.088 129.697 173.248 130.284 173.568C130.87 173.877 131.318 174.288 131.628 174.8V170.16H133.1V182H131.628V180.352C131.34 180.875 130.913 181.307 130.348 181.648C129.782 181.979 129.121 182.144 128.364 182.144C127.585 182.144 126.876 181.952 126.236 181.568C125.606 181.184 125.11 180.645 124.748 179.952C124.385 179.259 124.204 178.469 124.204 177.584ZM131.628 177.6C131.628 176.939 131.494 176.363 131.228 175.872C130.961 175.381 130.598 175.008 130.14 174.752C129.692 174.485 129.196 174.352 128.652 174.352C128.108 174.352 127.612 174.48 127.164 174.736C126.716 174.992 126.358 175.365 126.092 175.856C125.825 176.347 125.692 176.923 125.692 177.584C125.692 178.256 125.825 178.843 126.092 179.344C126.358 179.835 126.716 180.213 127.164 180.48C127.612 180.736 128.108 180.864 128.652 180.864C129.196 180.864 129.692 180.736 130.14 180.48C130.598 180.213 130.961 179.835 131.228 179.344C131.494 178.843 131.628 178.261 131.628 177.6ZM138.664 182.144C137.992 182.144 137.389 182.032 136.856 181.808C136.323 181.573 135.901 181.253 135.592 180.848C135.283 180.432 135.112 179.957 135.08 179.424H136.584C136.627 179.861 136.829 180.219 137.192 180.496C137.565 180.773 138.051 180.912 138.648 180.912C139.203 180.912 139.64 180.789 139.96 180.544C140.28 180.299 140.44 179.989 140.44 179.616C140.44 179.232 140.269 178.949 139.928 178.768C139.587 178.576 139.059 178.389 138.344 178.208C137.693 178.037 137.16 177.867 136.744 177.696C136.339 177.515 135.987 177.253 135.688 176.912C135.4 176.56 135.256 176.101 135.256 175.536C135.256 175.088 135.389 174.677 135.656 174.304C135.923 173.931 136.301 173.637 136.792 173.424C137.283 173.2 137.843 173.088 138.472 173.088C139.443 173.088 140.227 173.333 140.824 173.824C141.421 174.315 141.741 174.987 141.784 175.84H140.328C140.296 175.381 140.109 175.013 139.768 174.736C139.437 174.459 138.989 174.32 138.424 174.32C137.901 174.32 137.485 174.432 137.176 174.656C136.867 174.88 136.712 175.173 136.712 175.536C136.712 175.824 136.803 176.064 136.984 176.256C137.176 176.437 137.411 176.587 137.688 176.704C137.976 176.811 138.371 176.933 138.872 177.072C139.501 177.243 140.013 177.413 140.408 177.584C140.803 177.744 141.139 177.989 141.416 178.32C141.704 178.651 141.853 179.083 141.864 179.616C141.864 180.096 141.731 180.528 141.464 180.912C141.197 181.296 140.819 181.6 140.328 181.824C139.848 182.037 139.293 182.144 138.664 182.144ZM152.009 182.144C151.188 182.144 150.441 181.957 149.769 181.584C149.108 181.211 148.585 180.683 148.201 180C147.828 179.307 147.641 178.507 147.641 177.6C147.641 176.704 147.833 175.915 148.217 175.232C148.612 174.539 149.145 174.011 149.817 173.648C150.489 173.275 151.241 173.088 152.073 173.088C152.905 173.088 153.657 173.275 154.329 173.648C155.001 174.011 155.529 174.533 155.913 175.216C156.308 175.899 156.505 176.693 156.505 177.6C156.505 178.507 156.302 179.307 155.897 180C155.502 180.683 154.964 181.211 154.281 181.584C153.598 181.957 152.841 182.144 152.009 182.144ZM152.009 180.864C152.532 180.864 153.022 180.741 153.481 180.496C153.94 180.251 154.308 179.883 154.585 179.392C154.873 178.901 155.017 178.304 155.017 177.6C155.017 176.896 154.878 176.299 154.601 175.808C154.324 175.317 153.961 174.955 153.513 174.72C153.065 174.475 152.58 174.352 152.057 174.352C151.524 174.352 151.033 174.475 150.585 174.72C150.148 174.955 149.796 175.317 149.529 175.808C149.262 176.299 149.129 176.896 149.129 177.6C149.129 178.315 149.257 178.917 149.513 179.408C149.78 179.899 150.132 180.267 150.569 180.512C151.006 180.747 151.486 180.864 152.009 180.864ZM162.692 173.072C163.758 173.072 164.622 173.397 165.284 174.048C165.945 174.688 166.276 175.616 166.276 176.832V182H164.836V177.04C164.836 176.165 164.617 175.499 164.18 175.04C163.742 174.571 163.145 174.336 162.388 174.336C161.62 174.336 161.006 174.576 160.548 175.056C160.1 175.536 159.876 176.235 159.876 177.152V182H158.42V173.232H159.876V174.48C160.164 174.032 160.553 173.685 161.044 173.44C161.545 173.195 162.094 173.072 162.692 173.072ZM172.376 177.6C172.376 176.693 172.557 175.904 172.92 175.232C173.282 174.549 173.784 174.021 174.424 173.648C175.074 173.275 175.816 173.088 176.648 173.088C177.725 173.088 178.61 173.349 179.304 173.872C180.008 174.395 180.472 175.12 180.696 176.048H179.128C178.978 175.515 178.685 175.093 178.248 174.784C177.821 174.475 177.288 174.32 176.648 174.32C175.816 174.32 175.144 174.608 174.632 175.184C174.12 175.749 173.864 176.555 173.864 177.6C173.864 178.656 174.12 179.472 174.632 180.048C175.144 180.624 175.816 180.912 176.648 180.912C177.288 180.912 177.821 180.763 178.248 180.464C178.674 180.165 178.968 179.739 179.128 179.184H180.696C180.461 180.08 179.992 180.8 179.288 181.344C178.584 181.877 177.704 182.144 176.648 182.144C175.816 182.144 175.074 181.957 174.424 181.584C173.784 181.211 173.282 180.683 172.92 180C172.557 179.317 172.376 178.517 172.376 177.6ZM182.094 177.584C182.094 176.688 182.276 175.904 182.638 175.232C183.001 174.549 183.497 174.021 184.126 173.648C184.766 173.275 185.476 173.088 186.254 173.088C187.022 173.088 187.689 173.253 188.254 173.584C188.82 173.915 189.241 174.331 189.518 174.832V173.232H190.99V182H189.518V180.368C189.23 180.88 188.798 181.307 188.222 181.648C187.657 181.979 186.996 182.144 186.238 182.144C185.46 182.144 184.756 181.952 184.126 181.568C183.497 181.184 183.001 180.645 182.638 179.952C182.276 179.259 182.094 178.469 182.094 177.584ZM189.518 177.6C189.518 176.939 189.385 176.363 189.118 175.872C188.852 175.381 188.489 175.008 188.03 174.752C187.582 174.485 187.086 174.352 186.542 174.352C185.998 174.352 185.502 174.48 185.054 174.736C184.606 174.992 184.249 175.365 183.982 175.856C183.716 176.347 183.582 176.923 183.582 177.584C183.582 178.256 183.716 178.843 183.982 179.344C184.249 179.835 184.606 180.213 185.054 180.48C185.502 180.736 185.998 180.864 186.542 180.864C187.086 180.864 187.582 180.736 188.03 180.48C188.489 180.213 188.852 179.835 189.118 179.344C189.385 178.843 189.518 178.261 189.518 177.6ZM203.995 173.072C204.677 173.072 205.285 173.216 205.819 173.504C206.352 173.781 206.773 174.203 207.083 174.768C207.392 175.333 207.547 176.021 207.547 176.832V182H206.107V177.04C206.107 176.165 205.888 175.499 205.451 175.04C205.024 174.571 204.443 174.336 203.707 174.336C202.949 174.336 202.347 174.581 201.899 175.072C201.451 175.552 201.227 176.251 201.227 177.168V182H199.787V177.04C199.787 176.165 199.568 175.499 199.131 175.04C198.704 174.571 198.123 174.336 197.387 174.336C196.629 174.336 196.027 174.581 195.579 175.072C195.131 175.552 194.907 176.251 194.907 177.168V182H193.451V173.232H194.907V174.496C195.195 174.037 195.579 173.685 196.059 173.44C196.549 173.195 197.088 173.072 197.675 173.072C198.411 173.072 199.061 173.237 199.627 173.568C200.192 173.899 200.613 174.384 200.891 175.024C201.136 174.405 201.541 173.925 202.107 173.584C202.672 173.243 203.301 173.072 203.995 173.072ZM211.391 174.848C211.679 174.347 212.106 173.931 212.671 173.6C213.247 173.259 213.914 173.088 214.671 173.088C215.45 173.088 216.154 173.275 216.783 173.648C217.423 174.021 217.924 174.549 218.287 175.232C218.65 175.904 218.831 176.688 218.831 177.584C218.831 178.469 218.65 179.259 218.287 179.952C217.924 180.645 217.423 181.184 216.783 181.568C216.154 181.952 215.45 182.144 214.671 182.144C213.924 182.144 213.263 181.979 212.687 181.648C212.122 181.307 211.69 180.885 211.391 180.384V186.16H209.935V173.232H211.391V174.848ZM217.343 177.584C217.343 176.923 217.21 176.347 216.943 175.856C216.676 175.365 216.314 174.992 215.855 174.736C215.407 174.48 214.911 174.352 214.367 174.352C213.834 174.352 213.338 174.485 212.879 174.752C212.431 175.008 212.068 175.387 211.791 175.888C211.524 176.379 211.391 176.949 211.391 177.6C211.391 178.261 211.524 178.843 211.791 179.344C212.068 179.835 212.431 180.213 212.879 180.48C213.338 180.736 213.834 180.864 214.367 180.864C214.911 180.864 215.407 180.736 215.855 180.48C216.314 180.213 216.676 179.835 216.943 179.344C217.21 178.843 217.343 178.256 217.343 177.584ZM220.204 177.584C220.204 176.688 220.385 175.904 220.748 175.232C221.11 174.549 221.606 174.021 222.236 173.648C222.876 173.275 223.585 173.088 224.364 173.088C225.132 173.088 225.798 173.253 226.364 173.584C226.929 173.915 227.35 174.331 227.628 174.832V173.232H229.1V182H227.628V180.368C227.34 180.88 226.908 181.307 226.332 181.648C225.766 181.979 225.105 182.144 224.348 182.144C223.569 182.144 222.865 181.952 222.236 181.568C221.606 181.184 221.11 180.645 220.748 179.952C220.385 179.259 220.204 178.469 220.204 177.584ZM227.628 177.6C227.628 176.939 227.494 176.363 227.228 175.872C226.961 175.381 226.598 175.008 226.14 174.752C225.692 174.485 225.196 174.352 224.652 174.352C224.108 174.352 223.612 174.48 223.164 174.736C222.716 174.992 222.358 175.365 222.092 175.856C221.825 176.347 221.692 176.923 221.692 177.584C221.692 178.256 221.825 178.843 222.092 179.344C222.358 179.835 222.716 180.213 223.164 180.48C223.612 180.736 224.108 180.864 224.652 180.864C225.196 180.864 225.692 180.736 226.14 180.48C226.598 180.213 226.961 179.835 227.228 179.344C227.494 178.843 227.628 178.261 227.628 177.6ZM232.312 171.808C232.035 171.808 231.8 171.712 231.608 171.52C231.416 171.328 231.32 171.093 231.32 170.816C231.32 170.539 231.416 170.304 231.608 170.112C231.8 169.92 232.035 169.824 232.312 169.824C232.579 169.824 232.803 169.92 232.984 170.112C233.176 170.304 233.272 170.539 233.272 170.816C233.272 171.093 233.176 171.328 232.984 171.52C232.803 171.712 232.579 171.808 232.312 171.808ZM233.016 173.232V182H231.56V173.232H233.016ZM239.114 173.088C239.871 173.088 240.532 173.253 241.098 173.584C241.674 173.915 242.1 174.331 242.378 174.832V173.232H243.85V182.192C243.85 182.992 243.679 183.701 243.338 184.32C242.996 184.949 242.506 185.44 241.866 185.792C241.236 186.144 240.5 186.32 239.658 186.32C238.506 186.32 237.546 186.048 236.778 185.504C236.01 184.96 235.556 184.219 235.418 183.28H236.858C237.018 183.813 237.348 184.24 237.85 184.56C238.351 184.891 238.954 185.056 239.658 185.056C240.458 185.056 241.108 184.805 241.61 184.304C242.122 183.803 242.378 183.099 242.378 182.192V180.352C242.09 180.864 241.663 181.291 241.098 181.632C240.532 181.973 239.871 182.144 239.114 182.144C238.335 182.144 237.626 181.952 236.986 181.568C236.356 181.184 235.86 180.645 235.498 179.952C235.135 179.259 234.954 178.469 234.954 177.584C234.954 176.688 235.135 175.904 235.498 175.232C235.86 174.549 236.356 174.021 236.986 173.648C237.626 173.275 238.335 173.088 239.114 173.088ZM242.378 177.6C242.378 176.939 242.244 176.363 241.978 175.872C241.711 175.381 241.348 175.008 240.89 174.752C240.442 174.485 239.946 174.352 239.402 174.352C238.858 174.352 238.362 174.48 237.914 174.736C237.466 174.992 237.108 175.365 236.842 175.856C236.575 176.347 236.442 176.923 236.442 177.584C236.442 178.256 236.575 178.843 236.842 179.344C237.108 179.835 237.466 180.213 237.914 180.48C238.362 180.736 238.858 180.864 239.402 180.864C239.946 180.864 240.442 180.736 240.89 180.48C241.348 180.213 241.711 179.835 241.978 179.344C242.244 178.843 242.378 178.261 242.378 177.6ZM250.582 173.072C251.649 173.072 252.513 173.397 253.174 174.048C253.835 174.688 254.166 175.616 254.166 176.832V182H252.726V177.04C252.726 176.165 252.507 175.499 252.07 175.04C251.633 174.571 251.035 174.336 250.278 174.336C249.51 174.336 248.897 174.576 248.438 175.056C247.99 175.536 247.766 176.235 247.766 177.152V182H246.31V173.232H247.766V174.48C248.054 174.032 248.443 173.685 248.934 173.44C249.435 173.195 249.985 173.072 250.582 173.072ZM22.232 201.28C22.232 201.557 22.216 201.851 22.184 202.16H15.176C15.2293 203.024 15.5227 203.701 16.056 204.192C16.6 204.672 17.256 204.912 18.024 204.912C18.6533 204.912 19.176 204.768 19.592 204.48C20.0187 204.181 20.3173 203.787 20.488 203.296H22.056C21.8213 204.139 21.352 204.827 20.648 205.36C19.944 205.883 19.0693 206.144 18.024 206.144C17.192 206.144 16.4453 205.957 15.784 205.584C15.1333 205.211 14.6213 204.683 14.248 204C13.8747 203.307 13.688 202.507 13.688 201.6C13.688 200.693 13.8693 199.899 14.232 199.216C14.5947 198.533 15.1013 198.011 15.752 197.648C16.4133 197.275 17.1707 197.088 18.024 197.088C18.856 197.088 19.592 197.269 20.232 197.632C20.872 197.995 21.3627 198.496 21.704 199.136C22.056 199.765 22.232 200.48 22.232 201.28ZM20.728 200.976C20.728 200.421 20.6053 199.947 20.36 199.552C20.1147 199.147 19.7787 198.843 19.352 198.64C18.936 198.427 18.472 198.32 17.96 198.32C17.224 198.32 16.5947 198.555 16.072 199.024C15.56 199.493 15.2667 200.144 15.192 200.976H20.728ZM28.4259 197.072C29.4925 197.072 30.3565 197.397 31.0179 198.048C31.6792 198.688 32.0099 199.616 32.0099 200.832V206H30.5699V201.04C30.5699 200.165 30.3512 199.499 29.9139 199.04C29.4765 198.571 28.8792 198.336 28.1219 198.336C27.3539 198.336 26.7405 198.576 26.2819 199.056C25.8339 199.536 25.6099 200.235 25.6099 201.152V206H24.1539V197.232H25.6099V198.48C25.8979 198.032 26.2872 197.685 26.7779 197.44C27.2792 197.195 27.8285 197.072 28.4259 197.072ZM38.0043 197.088C38.7616 197.088 39.4229 197.253 39.9883 197.584C40.5643 197.915 40.9909 198.331 41.2683 198.832V197.232H42.7403V206.192C42.7403 206.992 42.5696 207.701 42.2283 208.32C41.8869 208.949 41.3963 209.44 40.7563 209.792C40.1269 210.144 39.3909 210.32 38.5483 210.32C37.3963 210.32 36.4363 210.048 35.6683 209.504C34.9003 208.96 34.4469 208.219 34.3083 207.28H35.7483C35.9083 207.813 36.2389 208.24 36.7403 208.56C37.2416 208.891 37.8443 209.056 38.5483 209.056C39.3483 209.056 39.9989 208.805 40.5003 208.304C41.0123 207.803 41.2683 207.099 41.2683 206.192V204.352C40.9803 204.864 40.5536 205.291 39.9883 205.632C39.4229 205.973 38.7616 206.144 38.0043 206.144C37.2256 206.144 36.5163 205.952 35.8763 205.568C35.2469 205.184 34.7509 204.645 34.3883 203.952C34.0256 203.259 33.8443 202.469 33.8443 201.584C33.8443 200.688 34.0256 199.904 34.3883 199.232C34.7509 198.549 35.2469 198.021 35.8763 197.648C36.5163 197.275 37.2256 197.088 38.0043 197.088ZM41.2683 201.6C41.2683 200.939 41.1349 200.363 40.8683 199.872C40.6016 199.381 40.2389 199.008 39.7803 198.752C39.3323 198.485 38.8363 198.352 38.2923 198.352C37.7483 198.352 37.2523 198.48 36.8043 198.736C36.3563 198.992 35.9989 199.365 35.7323 199.856C35.4656 200.347 35.3323 200.923 35.3323 201.584C35.3323 202.256 35.4656 202.843 35.7323 203.344C35.9989 203.835 36.3563 204.213 36.8043 204.48C37.2523 204.736 37.7483 204.864 38.2923 204.864C38.8363 204.864 39.3323 204.736 39.7803 204.48C40.2389 204.213 40.6016 203.835 40.8683 203.344C41.1349 202.843 41.2683 202.261 41.2683 201.6ZM44.6568 201.584C44.6568 200.688 44.8381 199.904 45.2008 199.232C45.5634 198.549 46.0594 198.021 46.6888 197.648C47.3288 197.275 48.0381 197.088 48.8168 197.088C49.5848 197.088 50.2514 197.253 50.8168 197.584C51.3821 197.915 51.8034 198.331 52.0808 198.832V197.232H53.5528V206H52.0808V204.368C51.7928 204.88 51.3608 205.307 50.7848 205.648C50.2194 205.979 49.5581 206.144 48.8008 206.144C48.0221 206.144 47.3181 205.952 46.6888 205.568C46.0594 205.184 45.5634 204.645 45.2008 203.952C44.8381 203.259 44.6568 202.469 44.6568 201.584ZM52.0808 201.6C52.0808 200.939 51.9474 200.363 51.6808 199.872C51.4141 199.381 51.0514 199.008 50.5928 198.752C50.1448 198.485 49.6488 198.352 49.1048 198.352C48.5608 198.352 48.0648 198.48 47.6168 198.736C47.1688 198.992 46.8114 199.365 46.5448 199.856C46.2781 200.347 46.1448 200.923 46.1448 201.584C46.1448 202.256 46.2781 202.843 46.5448 203.344C46.8114 203.835 47.1688 204.213 47.6168 204.48C48.0648 204.736 48.5608 204.864 49.1048 204.864C49.6488 204.864 50.1448 204.736 50.5928 204.48C51.0514 204.213 51.4141 203.835 51.6808 203.344C51.9474 202.843 52.0808 202.261 52.0808 201.6ZM59.6293 197.088C60.3866 197.088 61.0479 197.253 61.6133 197.584C62.1893 197.915 62.6159 198.331 62.8933 198.832V197.232H64.3653V206.192C64.3653 206.992 64.1946 207.701 63.8533 208.32C63.5119 208.949 63.0213 209.44 62.3813 209.792C61.7519 210.144 61.0159 210.32 60.1733 210.32C59.0213 210.32 58.0613 210.048 57.2933 209.504C56.5253 208.96 56.0719 208.219 55.9333 207.28H57.3733C57.5333 207.813 57.8639 208.24 58.3653 208.56C58.8666 208.891 59.4693 209.056 60.1733 209.056C60.9733 209.056 61.6239 208.805 62.1253 208.304C62.6373 207.803 62.8933 207.099 62.8933 206.192V204.352C62.6053 204.864 62.1786 205.291 61.6133 205.632C61.0479 205.973 60.3866 206.144 59.6293 206.144C58.8506 206.144 58.1413 205.952 57.5013 205.568C56.8719 205.184 56.3759 204.645 56.0133 203.952C55.6506 203.259 55.4693 202.469 55.4693 201.584C55.4693 200.688 55.6506 199.904 56.0133 199.232C56.3759 198.549 56.8719 198.021 57.5013 197.648C58.1413 197.275 58.8506 197.088 59.6293 197.088ZM62.8933 201.6C62.8933 200.939 62.7599 200.363 62.4933 199.872C62.2266 199.381 61.8639 199.008 61.4053 198.752C60.9573 198.485 60.4613 198.352 59.9173 198.352C59.3733 198.352 58.8773 198.48 58.4293 198.736C57.9813 198.992 57.6239 199.365 57.3573 199.856C57.0906 200.347 56.9573 200.923 56.9573 201.584C56.9573 202.256 57.0906 202.843 57.3573 203.344C57.6239 203.835 57.9813 204.213 58.4293 204.48C58.8773 204.736 59.3733 204.864 59.9173 204.864C60.4613 204.864 60.9573 204.736 61.4053 204.48C61.8639 204.213 62.2266 203.835 62.4933 203.344C62.7599 202.843 62.8933 202.261 62.8933 201.6ZM74.8258 201.28C74.8258 201.557 74.8098 201.851 74.7778 202.16H67.7698C67.8231 203.024 68.1164 203.701 68.6498 204.192C69.1938 204.672 69.8498 204.912 70.6178 204.912C71.2471 204.912 71.7698 204.768 72.1858 204.48C72.6124 204.181 72.9111 203.787 73.0818 203.296H74.6498C74.4151 204.139 73.9458 204.827 73.2418 205.36C72.5378 205.883 71.6631 206.144 70.6178 206.144C69.7858 206.144 69.0391 205.957 68.3778 205.584C67.7271 205.211 67.2151 204.683 66.8418 204C66.4684 203.307 66.2818 202.507 66.2818 201.6C66.2818 200.693 66.4631 199.899 66.8258 199.216C67.1884 198.533 67.6951 198.011 68.3458 197.648C69.0071 197.275 69.7644 197.088 70.6178 197.088C71.4498 197.088 72.1858 197.269 72.8258 197.632C73.4658 197.995 73.9564 198.496 74.2978 199.136C74.6498 199.765 74.8258 200.48 74.8258 201.28ZM73.3218 200.976C73.3218 200.421 73.1991 199.947 72.9538 199.552C72.7084 199.147 72.3724 198.843 71.9458 198.64C71.5298 198.427 71.0658 198.32 70.5538 198.32C69.8178 198.32 69.1884 198.555 68.6658 199.024C68.1538 199.493 67.8604 200.144 67.7858 200.976H73.3218ZM87.2916 197.072C87.9743 197.072 88.5823 197.216 89.1156 197.504C89.649 197.781 90.0703 198.203 90.3796 198.768C90.689 199.333 90.8436 200.021 90.8436 200.832V206H89.4036V201.04C89.4036 200.165 89.185 199.499 88.7476 199.04C88.321 198.571 87.7396 198.336 87.0036 198.336C86.2463 198.336 85.6436 198.581 85.1956 199.072C84.7476 199.552 84.5236 200.251 84.5236 201.168V206H83.0836V201.04C83.0836 200.165 82.865 199.499 82.4276 199.04C82.001 198.571 81.4196 198.336 80.6836 198.336C79.9263 198.336 79.3236 198.581 78.8756 199.072C78.4276 199.552 78.2036 200.251 78.2036 201.168V206H76.7476V197.232H78.2036V198.496C78.4916 198.037 78.8756 197.685 79.3556 197.44C79.8463 197.195 80.385 197.072 80.9716 197.072C81.7076 197.072 82.3583 197.237 82.9236 197.568C83.489 197.899 83.9103 198.384 84.1876 199.024C84.433 198.405 84.8383 197.925 85.4036 197.584C85.969 197.243 86.5983 197.072 87.2916 197.072ZM101.232 201.28C101.232 201.557 101.216 201.851 101.184 202.16H94.176C94.2293 203.024 94.5227 203.701 95.056 204.192C95.6 204.672 96.256 204.912 97.024 204.912C97.6533 204.912 98.176 204.768 98.592 204.48C99.0187 204.181 99.3173 203.787 99.488 203.296H101.056C100.821 204.139 100.352 204.827 99.648 205.36C98.944 205.883 98.0693 206.144 97.024 206.144C96.192 206.144 95.4453 205.957 94.784 205.584C94.1333 205.211 93.6213 204.683 93.248 204C92.8747 203.307 92.688 202.507 92.688 201.6C92.688 200.693 92.8693 199.899 93.232 199.216C93.5947 198.533 94.1013 198.011 94.752 197.648C95.4133 197.275 96.1707 197.088 97.024 197.088C97.856 197.088 98.592 197.269 99.232 197.632C99.872 197.995 100.363 198.496 100.704 199.136C101.056 199.765 101.232 200.48 101.232 201.28ZM99.728 200.976C99.728 200.421 99.6053 199.947 99.36 199.552C99.1147 199.147 98.7787 198.843 98.352 198.64C97.936 198.427 97.472 198.32 96.96 198.32C96.224 198.32 95.5947 198.555 95.072 199.024C94.56 199.493 94.2667 200.144 94.192 200.976H99.728ZM107.426 197.072C108.493 197.072 109.357 197.397 110.018 198.048C110.679 198.688 111.01 199.616 111.01 200.832V206H109.57V201.04C109.57 200.165 109.351 199.499 108.914 199.04C108.477 198.571 107.879 198.336 107.122 198.336C106.354 198.336 105.741 198.576 105.282 199.056C104.834 199.536 104.61 200.235 104.61 201.152V206H103.154V197.232H104.61V198.48C104.898 198.032 105.287 197.685 105.778 197.44C106.279 197.195 106.829 197.072 107.426 197.072ZM115.164 198.432V203.6C115.164 204.027 115.255 204.331 115.436 204.512C115.618 204.683 115.932 204.768 116.38 204.768H117.452V206H116.14C115.33 206 114.722 205.813 114.316 205.44C113.911 205.067 113.708 204.453 113.708 203.6V198.432H112.572V197.232H113.708V195.024H115.164V197.232H117.452V198.432H115.164ZM122.938 201.584C122.938 200.688 123.119 199.904 123.482 199.232C123.845 198.549 124.341 198.021 124.97 197.648C125.61 197.275 126.319 197.088 127.098 197.088C127.866 197.088 128.533 197.253 129.098 197.584C129.663 197.915 130.085 198.331 130.362 198.832V197.232H131.834V206H130.362V204.368C130.074 204.88 129.642 205.307 129.066 205.648C128.501 205.979 127.839 206.144 127.082 206.144C126.303 206.144 125.599 205.952 124.97 205.568C124.341 205.184 123.845 204.645 123.482 203.952C123.119 203.259 122.938 202.469 122.938 201.584ZM130.362 201.6C130.362 200.939 130.229 200.363 129.962 199.872C129.695 199.381 129.333 199.008 128.874 198.752C128.426 198.485 127.93 198.352 127.386 198.352C126.842 198.352 126.346 198.48 125.898 198.736C125.45 198.992 125.093 199.365 124.826 199.856C124.559 200.347 124.426 200.923 124.426 201.584C124.426 202.256 124.559 202.843 124.826 203.344C125.093 203.835 125.45 204.213 125.898 204.48C126.346 204.736 126.842 204.864 127.386 204.864C127.93 204.864 128.426 204.736 128.874 204.48C129.333 204.213 129.695 203.835 129.962 203.344C130.229 202.843 130.362 202.261 130.362 201.6ZM138.567 197.072C139.633 197.072 140.497 197.397 141.159 198.048C141.82 198.688 142.151 199.616 142.151 200.832V206H140.711V201.04C140.711 200.165 140.492 199.499 140.055 199.04C139.617 198.571 139.02 198.336 138.263 198.336C137.495 198.336 136.881 198.576 136.423 199.056C135.975 199.536 135.751 200.235 135.751 201.152V206H134.295V197.232H135.751V198.48C136.039 198.032 136.428 197.685 136.919 197.44C137.42 197.195 137.969 197.072 138.567 197.072ZM143.985 201.584C143.985 200.688 144.166 199.904 144.529 199.232C144.892 198.549 145.388 198.021 146.017 197.648C146.657 197.275 147.372 197.088 148.161 197.088C148.844 197.088 149.478 197.248 150.065 197.568C150.652 197.877 151.1 198.288 151.409 198.8V194.16H152.881V206H151.409V204.352C151.121 204.875 150.694 205.307 150.129 205.648C149.564 205.979 148.902 206.144 148.145 206.144C147.366 206.144 146.657 205.952 146.017 205.568C145.388 205.184 144.892 204.645 144.529 203.952C144.166 203.259 143.985 202.469 143.985 201.584ZM151.409 201.6C151.409 200.939 151.276 200.363 151.009 199.872C150.742 199.381 150.38 199.008 149.921 198.752C149.473 198.485 148.977 198.352 148.433 198.352C147.889 198.352 147.393 198.48 146.945 198.736C146.497 198.992 146.14 199.365 145.873 199.856C145.606 200.347 145.473 200.923 145.473 201.584C145.473 202.256 145.606 202.843 145.873 203.344C146.14 203.835 146.497 204.213 146.945 204.48C147.393 204.736 147.889 204.864 148.433 204.864C148.977 204.864 149.473 204.736 149.921 204.48C150.38 204.213 150.742 203.835 151.009 203.344C151.276 202.843 151.409 202.261 151.409 201.6ZM162.711 206.144C162.039 206.144 161.436 206.032 160.903 205.808C160.37 205.573 159.948 205.253 159.639 204.848C159.33 204.432 159.159 203.957 159.127 203.424H160.631C160.674 203.861 160.876 204.219 161.239 204.496C161.612 204.773 162.098 204.912 162.695 204.912C163.25 204.912 163.687 204.789 164.007 204.544C164.327 204.299 164.487 203.989 164.487 203.616C164.487 203.232 164.316 202.949 163.975 202.768C163.634 202.576 163.106 202.389 162.391 202.208C161.74 202.037 161.207 201.867 160.791 201.696C160.386 201.515 160.034 201.253 159.735 200.912C159.447 200.56 159.303 200.101 159.303 199.536C159.303 199.088 159.436 198.677 159.703 198.304C159.97 197.931 160.348 197.637 160.839 197.424C161.33 197.2 161.89 197.088 162.519 197.088C163.49 197.088 164.274 197.333 164.871 197.824C165.468 198.315 165.788 198.987 165.831 199.84H164.375C164.343 199.381 164.156 199.013 163.815 198.736C163.484 198.459 163.036 198.32 162.471 198.32C161.948 198.32 161.532 198.432 161.223 198.656C160.914 198.88 160.759 199.173 160.759 199.536C160.759 199.824 160.85 200.064 161.031 200.256C161.223 200.437 161.458 200.587 161.735 200.704C162.023 200.811 162.418 200.933 162.919 201.072C163.548 201.243 164.06 201.413 164.455 201.584C164.85 201.744 165.186 201.989 165.463 202.32C165.751 202.651 165.9 203.083 165.911 203.616C165.911 204.096 165.778 204.528 165.511 204.912C165.244 205.296 164.866 205.6 164.375 205.824C163.895 206.037 163.34 206.144 162.711 206.144ZM175.966 201.28C175.966 201.557 175.95 201.851 175.918 202.16H168.91C168.964 203.024 169.257 203.701 169.79 204.192C170.334 204.672 170.99 204.912 171.758 204.912C172.388 204.912 172.91 204.768 173.326 204.48C173.753 204.181 174.052 203.787 174.222 203.296H175.79C175.556 204.139 175.086 204.827 174.382 205.36C173.678 205.883 172.804 206.144 171.758 206.144C170.926 206.144 170.18 205.957 169.518 205.584C168.868 205.211 168.356 204.683 167.982 204C167.609 203.307 167.422 202.507 167.422 201.6C167.422 200.693 167.604 199.899 167.966 199.216C168.329 198.533 168.836 198.011 169.486 197.648C170.148 197.275 170.905 197.088 171.758 197.088C172.59 197.088 173.326 197.269 173.966 197.632C174.606 197.995 175.097 198.496 175.438 199.136C175.79 199.765 175.966 200.48 175.966 201.28ZM174.462 200.976C174.462 200.421 174.34 199.947 174.094 199.552C173.849 199.147 173.513 198.843 173.086 198.64C172.67 198.427 172.206 198.32 171.694 198.32C170.958 198.32 170.329 198.555 169.806 199.024C169.294 199.493 169.001 200.144 168.926 200.976H174.462ZM185.888 201.28C185.888 201.557 185.872 201.851 185.84 202.16H178.832C178.886 203.024 179.179 203.701 179.712 204.192C180.256 204.672 180.912 204.912 181.68 204.912C182.31 204.912 182.832 204.768 183.248 204.48C183.675 204.181 183.974 203.787 184.144 203.296H185.712C185.478 204.139 185.008 204.827 184.304 205.36C183.6 205.883 182.726 206.144 181.68 206.144C180.848 206.144 180.102 205.957 179.44 205.584C178.79 205.211 178.278 204.683 177.904 204C177.531 203.307 177.344 202.507 177.344 201.6C177.344 200.693 177.526 199.899 177.888 199.216C178.251 198.533 178.758 198.011 179.408 197.648C180.07 197.275 180.827 197.088 181.68 197.088C182.512 197.088 183.248 197.269 183.888 197.632C184.528 197.995 185.019 198.496 185.36 199.136C185.712 199.765 185.888 200.48 185.888 201.28ZM184.384 200.976C184.384 200.421 184.262 199.947 184.016 199.552C183.771 199.147 183.435 198.843 183.008 198.64C182.592 198.427 182.128 198.32 181.616 198.32C180.88 198.32 180.251 198.555 179.728 199.024C179.216 199.493 178.923 200.144 178.848 200.976H184.384ZM203.756 197.232L201.02 206H199.516L197.404 199.04L195.292 206H193.788L191.036 197.232H192.524L194.54 204.592L196.716 197.232H198.204L200.332 204.608L202.316 197.232H203.756ZM209.553 197.072C210.214 197.072 210.811 197.216 211.345 197.504C211.878 197.781 212.294 198.203 212.593 198.768C212.902 199.333 213.057 200.021 213.057 200.832V206H211.617V201.04C211.617 200.165 211.398 199.499 210.961 199.04C210.523 198.571 209.926 198.336 209.169 198.336C208.401 198.336 207.787 198.576 207.329 199.056C206.881 199.536 206.657 200.235 206.657 201.152V206H205.201V194.16H206.657V198.48C206.945 198.032 207.339 197.685 207.841 197.44C208.353 197.195 208.923 197.072 209.553 197.072ZM223.435 201.28C223.435 201.557 223.419 201.851 223.387 202.16H216.379C216.432 203.024 216.726 203.701 217.259 204.192C217.803 204.672 218.459 204.912 219.227 204.912C219.856 204.912 220.379 204.768 220.795 204.48C221.222 204.181 221.52 203.787 221.691 203.296H223.259C223.024 204.139 222.555 204.827 221.851 205.36C221.147 205.883 220.272 206.144 219.227 206.144C218.395 206.144 217.648 205.957 216.987 205.584C216.336 205.211 215.824 204.683 215.451 204C215.078 203.307 214.891 202.507 214.891 201.6C214.891 200.693 215.072 199.899 215.435 199.216C215.798 198.533 216.304 198.011 216.955 197.648C217.616 197.275 218.374 197.088 219.227 197.088C220.059 197.088 220.795 197.269 221.435 197.632C222.075 197.995 222.566 198.496 222.907 199.136C223.259 199.765 223.435 200.48 223.435 201.28ZM221.931 200.976C221.931 200.421 221.808 199.947 221.563 199.552C221.318 199.147 220.982 198.843 220.555 198.64C220.139 198.427 219.675 198.32 219.163 198.32C218.427 198.32 217.798 198.555 217.275 199.024C216.763 199.493 216.47 200.144 216.395 200.976H221.931ZM226.813 198.656C227.069 198.155 227.432 197.765 227.901 197.488C228.381 197.211 228.962 197.072 229.645 197.072V198.576H229.261C227.629 198.576 226.813 199.461 226.813 201.232V206H225.357V197.232H226.813V198.656ZM239.326 201.28C239.326 201.557 239.31 201.851 239.278 202.16H232.27C232.323 203.024 232.616 203.701 233.15 204.192C233.694 204.672 234.35 204.912 235.118 204.912C235.747 204.912 236.27 204.768 236.686 204.48C237.112 204.181 237.411 203.787 237.582 203.296H239.15C238.915 204.139 238.446 204.827 237.742 205.36C237.038 205.883 236.163 206.144 235.118 206.144C234.286 206.144 233.539 205.957 232.878 205.584C232.227 205.211 231.715 204.683 231.342 204C230.968 203.307 230.782 202.507 230.782 201.6C230.782 200.693 230.963 199.899 231.326 199.216C231.688 198.533 232.195 198.011 232.846 197.648C233.507 197.275 234.264 197.088 235.118 197.088C235.95 197.088 236.686 197.269 237.326 197.632C237.966 197.995 238.456 198.496 238.798 199.136C239.15 199.765 239.326 200.48 239.326 201.28ZM237.822 200.976C237.822 200.421 237.699 199.947 237.454 199.552C237.208 199.147 236.872 198.843 236.446 198.64C236.03 198.427 235.566 198.32 235.054 198.32C234.318 198.32 233.688 198.555 233.166 199.024C232.654 199.493 232.36 200.144 232.286 200.976H237.822ZM253.065 197.232L247.785 210.128H246.281L248.009 205.904L244.473 197.232H246.089L248.841 204.336L251.561 197.232H253.065ZM258.353 206.144C257.532 206.144 256.785 205.957 256.113 205.584C255.452 205.211 254.929 204.683 254.545 204C254.172 203.307 253.985 202.507 253.985 201.6C253.985 200.704 254.177 199.915 254.561 199.232C254.956 198.539 255.489 198.011 256.161 197.648C256.833 197.275 257.585 197.088 258.417 197.088C259.249 197.088 260.001 197.275 260.673 197.648C261.345 198.011 261.873 198.533 262.257 199.216C262.652 199.899 262.849 200.693 262.849 201.6C262.849 202.507 262.646 203.307 262.241 204C261.846 204.683 261.308 205.211 260.625 205.584C259.942 205.957 259.185 206.144 258.353 206.144ZM258.353 204.864C258.876 204.864 259.366 204.741 259.825 204.496C260.284 204.251 260.652 203.883 260.929 203.392C261.217 202.901 261.361 202.304 261.361 201.6C261.361 200.896 261.222 200.299 260.945 199.808C260.668 199.317 260.305 198.955 259.857 198.72C259.409 198.475 258.924 198.352 258.401 198.352C257.868 198.352 257.377 198.475 256.929 198.72C256.492 198.955 256.14 199.317 255.873 199.808C255.606 200.299 255.473 200.896 255.473 201.6C255.473 202.315 255.601 202.917 255.857 203.408C256.124 203.899 256.476 204.267 256.913 204.512C257.35 204.747 257.83 204.864 258.353 204.864ZM272.539 197.232V206H271.083V204.704C270.806 205.152 270.417 205.504 269.915 205.76C269.425 206.005 268.881 206.128 268.283 206.128C267.601 206.128 266.987 205.989 266.443 205.712C265.899 205.424 265.467 204.997 265.147 204.432C264.838 203.867 264.683 203.179 264.683 202.368V197.232H266.123V202.176C266.123 203.04 266.342 203.707 266.779 204.176C267.217 204.635 267.814 204.864 268.571 204.864C269.35 204.864 269.963 204.624 270.411 204.144C270.859 203.664 271.083 202.965 271.083 202.048V197.232H272.539ZM276.454 198.656C276.71 198.155 277.072 197.765 277.542 197.488C278.022 197.211 278.603 197.072 279.286 197.072V198.576H278.902C277.27 198.576 276.454 199.461 276.454 201.232V206H274.998V197.232H276.454V198.656ZM13.688 225.584C13.688 224.688 13.8693 223.904 14.232 223.232C14.5947 222.549 15.0907 222.021 15.72 221.648C16.36 221.275 17.0693 221.088 17.848 221.088C18.616 221.088 19.2827 221.253 19.848 221.584C20.4133 221.915 20.8347 222.331 21.112 222.832V221.232H22.584V230H21.112V228.368C20.824 228.88 20.392 229.307 19.816 229.648C19.2507 229.979 18.5893 230.144 17.832 230.144C17.0533 230.144 16.3493 229.952 15.72 229.568C15.0907 229.184 14.5947 228.645 14.232 227.952C13.8693 227.259 13.688 226.469 13.688 225.584ZM21.112 225.6C21.112 224.939 20.9787 224.363 20.712 223.872C20.4453 223.381 20.0827 223.008 19.624 222.752C19.176 222.485 18.68 222.352 18.136 222.352C17.592 222.352 17.096 222.48 16.648 222.736C16.2 222.992 15.8427 223.365 15.576 223.856C15.3093 224.347 15.176 224.923 15.176 225.584C15.176 226.256 15.3093 226.843 15.576 227.344C15.8427 227.835 16.2 228.213 16.648 228.48C17.096 228.736 17.592 228.864 18.136 228.864C18.68 228.864 19.176 228.736 19.624 228.48C20.0827 228.213 20.4453 227.835 20.712 227.344C20.9787 226.843 21.112 226.261 21.112 225.6ZM32.8205 221.232V230H31.3645V228.704C31.0872 229.152 30.6978 229.504 30.1965 229.76C29.7058 230.005 29.1618 230.128 28.5645 230.128C27.8818 230.128 27.2685 229.989 26.7245 229.712C26.1805 229.424 25.7485 228.997 25.4285 228.432C25.1192 227.867 24.9645 227.179 24.9645 226.368V221.232H26.4045V226.176C26.4045 227.04 26.6232 227.707 27.0605 228.176C27.4978 228.635 28.0952 228.864 28.8525 228.864C29.6312 228.864 30.2445 228.624 30.6925 228.144C31.1405 227.664 31.3645 226.965 31.3645 226.048V221.232H32.8205ZM34.7349 225.584C34.7349 224.688 34.9162 223.904 35.2789 223.232C35.6415 222.549 36.1375 222.021 36.7669 221.648C37.4069 221.275 38.1215 221.088 38.9109 221.088C39.5935 221.088 40.2282 221.248 40.8149 221.568C41.4015 221.877 41.8495 222.288 42.1589 222.8V218.16H43.6309V230H42.1589V228.352C41.8709 228.875 41.4442 229.307 40.8789 229.648C40.3135 229.979 39.6522 230.144 38.8949 230.144C38.1162 230.144 37.4069 229.952 36.7669 229.568C36.1375 229.184 35.6415 228.645 35.2789 227.952C34.9162 227.259 34.7349 226.469 34.7349 225.584ZM42.1589 225.6C42.1589 224.939 42.0255 224.363 41.7589 223.872C41.4922 223.381 41.1295 223.008 40.6709 222.752C40.2229 222.485 39.7269 222.352 39.1829 222.352C38.6389 222.352 38.1429 222.48 37.6949 222.736C37.2469 222.992 36.8895 223.365 36.6229 223.856C36.3562 224.347 36.2229 224.923 36.2229 225.584C36.2229 226.256 36.3562 226.843 36.6229 227.344C36.8895 227.835 37.2469 228.213 37.6949 228.48C38.1429 228.736 38.6389 228.864 39.1829 228.864C39.7269 228.864 40.2229 228.736 40.6709 228.48C41.1295 228.213 41.4922 227.835 41.7589 227.344C42.0255 226.843 42.1589 226.261 42.1589 225.6ZM46.8434 219.808C46.566 219.808 46.3314 219.712 46.1394 219.52C45.9474 219.328 45.8514 219.093 45.8514 218.816C45.8514 218.539 45.9474 218.304 46.1394 218.112C46.3314 217.92 46.566 217.824 46.8434 217.824C47.11 217.824 47.334 217.92 47.5154 218.112C47.7074 218.304 47.8034 218.539 47.8034 218.816C47.8034 219.093 47.7074 219.328 47.5154 219.52C47.334 219.712 47.11 219.808 46.8434 219.808ZM47.5474 221.232V230H46.0914V221.232H47.5474ZM58.0289 225.28C58.0289 225.557 58.0129 225.851 57.9809 226.16H50.9729C51.0262 227.024 51.3195 227.701 51.8529 228.192C52.3969 228.672 53.0529 228.912 53.8209 228.912C54.4502 228.912 54.9729 228.768 55.3889 228.48C55.8155 228.181 56.1142 227.787 56.2849 227.296H57.8529C57.6182 228.139 57.1489 228.827 56.4449 229.36C55.7409 229.883 54.8662 230.144 53.8209 230.144C52.9889 230.144 52.2422 229.957 51.5809 229.584C50.9302 229.211 50.4182 228.683 50.0449 228C49.6715 227.307 49.4849 226.507 49.4849 225.6C49.4849 224.693 49.6662 223.899 50.0289 223.216C50.3915 222.533 50.8982 222.011 51.5489 221.648C52.2102 221.275 52.9675 221.088 53.8209 221.088C54.6529 221.088 55.3889 221.269 56.0289 221.632C56.6689 221.995 57.1595 222.496 57.5009 223.136C57.8529 223.765 58.0289 224.48 58.0289 225.28ZM56.5249 224.976C56.5249 224.421 56.4022 223.947 56.1569 223.552C55.9115 223.147 55.5755 222.843 55.1489 222.64C54.7329 222.427 54.2689 222.32 53.7569 222.32C53.0209 222.32 52.3915 222.555 51.8689 223.024C51.3569 223.493 51.0635 224.144 50.9889 224.976H56.5249ZM64.2228 221.072C65.2894 221.072 66.1534 221.397 66.8148 222.048C67.4761 222.688 67.8068 223.616 67.8068 224.832V230H66.3668V225.04C66.3668 224.165 66.1481 223.499 65.7108 223.04C65.2734 222.571 64.6761 222.336 63.9188 222.336C63.1508 222.336 62.5374 222.576 62.0788 223.056C61.6308 223.536 61.4068 224.235 61.4068 225.152V230H59.9508V221.232H61.4068V222.48C61.6948 222.032 62.0841 221.685 62.5748 221.44C63.0761 221.195 63.6254 221.072 64.2228 221.072ZM69.6411 225.6C69.6411 224.693 69.8225 223.904 70.1851 223.232C70.5478 222.549 71.0491 222.021 71.6891 221.648C72.3398 221.275 73.0811 221.088 73.9131 221.088C74.9905 221.088 75.8758 221.349 76.5691 221.872C77.2731 222.395 77.7371 223.12 77.9611 224.048H76.3931C76.2438 223.515 75.9505 223.093 75.5131 222.784C75.0865 222.475 74.5531 222.32 73.9131 222.32C73.0811 222.32 72.4091 222.608 71.8971 223.184C71.3851 223.749 71.1291 224.555 71.1291 225.6C71.1291 226.656 71.3851 227.472 71.8971 228.048C72.4091 228.624 73.0811 228.912 73.9131 228.912C74.5531 228.912 75.0865 228.763 75.5131 228.464C75.9398 228.165 76.2331 227.739 76.3931 227.184H77.9611C77.7265 228.08 77.2571 228.8 76.5531 229.344C75.8491 229.877 74.9691 230.144 73.9131 230.144C73.0811 230.144 72.3398 229.957 71.6891 229.584C71.0491 229.211 70.5478 228.683 70.1851 228C69.8225 227.317 69.6411 226.517 69.6411 225.6ZM87.9039 225.28C87.9039 225.557 87.8879 225.851 87.8559 226.16H80.8479C80.9012 227.024 81.1945 227.701 81.7279 228.192C82.2719 228.672 82.9279 228.912 83.6959 228.912C84.3252 228.912 84.8479 228.768 85.2639 228.48C85.6905 228.181 85.9892 227.787 86.1599 227.296H87.7279C87.4932 228.139 87.0239 228.827 86.3199 229.36C85.6159 229.883 84.7412 230.144 83.6959 230.144C82.8639 230.144 82.1172 229.957 81.4559 229.584C80.8052 229.211 80.2932 228.683 79.9199 228C79.5465 227.307 79.3599 226.507 79.3599 225.6C79.3599 224.693 79.5412 223.899 79.9039 223.216C80.2665 222.533 80.7732 222.011 81.4239 221.648C82.0852 221.275 82.8425 221.088 83.6959 221.088C84.5279 221.088 85.2639 221.269 85.9039 221.632C86.5439 221.995 87.0345 222.496 87.3759 223.136C87.7279 223.765 87.9039 224.48 87.9039 225.28ZM86.3999 224.976C86.3999 224.421 86.2772 223.947 86.0319 223.552C85.7865 223.147 85.4505 222.843 85.0239 222.64C84.6079 222.427 84.1439 222.32 83.6319 222.32C82.8959 222.32 82.2665 222.555 81.7439 223.024C81.2319 223.493 80.9385 224.144 80.8639 224.976H86.3999ZM94.8434 219.808C94.566 219.808 94.3314 219.712 94.1394 219.52C93.9474 219.328 93.8514 219.093 93.8514 218.816C93.8514 218.539 93.9474 218.304 94.1394 218.112C94.3314 217.92 94.566 217.824 94.8434 217.824C95.11 217.824 95.334 217.92 95.5154 218.112C95.7074 218.304 95.8034 218.539 95.8034 218.816C95.8034 219.093 95.7074 219.328 95.5154 219.52C95.334 219.712 95.11 219.808 94.8434 219.808ZM95.5474 221.232V230H94.0914V221.232H95.5474ZM102.301 221.072C103.368 221.072 104.232 221.397 104.893 222.048C105.554 222.688 105.885 223.616 105.885 224.832V230H104.445V225.04C104.445 224.165 104.226 223.499 103.789 223.04C103.352 222.571 102.754 222.336 101.997 222.336C101.229 222.336 100.616 222.576 100.157 223.056C99.7089 223.536 99.4849 224.235 99.4849 225.152V230H98.0289V221.232H99.4849V222.48C99.7729 222.032 100.162 221.685 100.653 221.44C101.154 221.195 101.704 221.072 102.301 221.072ZM110.039 222.432V227.6C110.039 228.027 110.13 228.331 110.311 228.512C110.493 228.683 110.807 228.768 111.255 228.768H112.327V230H111.015C110.205 230 109.597 229.813 109.191 229.44C108.786 229.067 108.583 228.453 108.583 227.6V222.432H107.447V221.232H108.583V219.024H110.039V221.232H112.327V222.432H110.039ZM122.091 225.28C122.091 225.557 122.075 225.851 122.043 226.16H115.035C115.089 227.024 115.382 227.701 115.915 228.192C116.459 228.672 117.115 228.912 117.883 228.912C118.513 228.912 119.035 228.768 119.451 228.48C119.878 228.181 120.177 227.787 120.347 227.296H121.915C121.681 228.139 121.211 228.827 120.507 229.36C119.803 229.883 118.929 230.144 117.883 230.144C117.051 230.144 116.305 229.957 115.643 229.584C114.993 229.211 114.481 228.683 114.107 228C113.734 227.307 113.547 226.507 113.547 225.6C113.547 224.693 113.729 223.899 114.091 223.216C114.454 222.533 114.961 222.011 115.611 221.648C116.273 221.275 117.03 221.088 117.883 221.088C118.715 221.088 119.451 221.269 120.091 221.632C120.731 221.995 121.222 222.496 121.563 223.136C121.915 223.765 122.091 224.48 122.091 225.28ZM120.587 224.976C120.587 224.421 120.465 223.947 120.219 223.552C119.974 223.147 119.638 222.843 119.211 222.64C118.795 222.427 118.331 222.32 117.819 222.32C117.083 222.32 116.454 222.555 115.931 223.024C115.419 223.493 115.126 224.144 115.051 224.976H120.587ZM125.469 222.656C125.725 222.155 126.088 221.765 126.557 221.488C127.037 221.211 127.619 221.072 128.301 221.072V222.576H127.917C126.285 222.576 125.469 223.461 125.469 225.232V230H124.013V221.232H125.469V222.656ZM129.438 225.584C129.438 224.688 129.619 223.904 129.982 223.232C130.345 222.549 130.841 222.021 131.47 221.648C132.11 221.275 132.819 221.088 133.598 221.088C134.366 221.088 135.033 221.253 135.598 221.584C136.163 221.915 136.585 222.331 136.862 222.832V221.232H138.334V230H136.862V228.368C136.574 228.88 136.142 229.307 135.566 229.648C135.001 229.979 134.339 230.144 133.582 230.144C132.803 230.144 132.099 229.952 131.47 229.568C130.841 229.184 130.345 228.645 129.982 227.952C129.619 227.259 129.438 226.469 129.438 225.584ZM136.862 225.6C136.862 224.939 136.729 224.363 136.462 223.872C136.195 223.381 135.833 223.008 135.374 222.752C134.926 222.485 134.43 222.352 133.886 222.352C133.342 222.352 132.846 222.48 132.398 222.736C131.95 222.992 131.593 223.365 131.326 223.856C131.059 224.347 130.926 224.923 130.926 225.584C130.926 226.256 131.059 226.843 131.326 227.344C131.593 227.835 131.95 228.213 132.398 228.48C132.846 228.736 133.342 228.864 133.886 228.864C134.43 228.864 134.926 228.736 135.374 228.48C135.833 228.213 136.195 227.835 136.462 227.344C136.729 226.843 136.862 226.261 136.862 225.6ZM140.251 225.6C140.251 224.693 140.432 223.904 140.795 223.232C141.157 222.549 141.659 222.021 142.299 221.648C142.949 221.275 143.691 221.088 144.523 221.088C145.6 221.088 146.485 221.349 147.179 221.872C147.883 222.395 148.347 223.12 148.571 224.048H147.003C146.853 223.515 146.56 223.093 146.123 222.784C145.696 222.475 145.163 222.32 144.523 222.32C143.691 222.32 143.019 222.608 142.507 223.184C141.995 223.749 141.739 224.555 141.739 225.6C141.739 226.656 141.995 227.472 142.507 228.048C143.019 228.624 143.691 228.912 144.523 228.912C145.163 228.912 145.696 228.763 146.123 228.464C146.549 228.165 146.843 227.739 147.003 227.184H148.571C148.336 228.08 147.867 228.8 147.163 229.344C146.459 229.877 145.579 230.144 144.523 230.144C143.691 230.144 142.949 229.957 142.299 229.584C141.659 229.211 141.157 228.683 140.795 228C140.432 227.317 140.251 226.517 140.251 225.6ZM152.289 222.432V227.6C152.289 228.027 152.38 228.331 152.561 228.512C152.743 228.683 153.057 228.768 153.505 228.768H154.577V230H153.265C152.455 230 151.847 229.813 151.441 229.44C151.036 229.067 150.833 228.453 150.833 227.6V222.432H149.697V221.232H150.833V219.024H152.289V221.232H154.577V222.432H152.289ZM159.445 230.144C158.773 230.144 158.171 230.032 157.637 229.808C157.104 229.573 156.683 229.253 156.373 228.848C156.064 228.432 155.893 227.957 155.861 227.424H157.365C157.408 227.861 157.611 228.219 157.973 228.496C158.347 228.773 158.832 228.912 159.429 228.912C159.984 228.912 160.421 228.789 160.741 228.544C161.061 228.299 161.221 227.989 161.221 227.616C161.221 227.232 161.051 226.949 160.709 226.768C160.368 226.576 159.84 226.389 159.125 226.208C158.475 226.037 157.941 225.867 157.525 225.696C157.12 225.515 156.768 225.253 156.469 224.912C156.181 224.56 156.037 224.101 156.037 223.536C156.037 223.088 156.171 222.677 156.437 222.304C156.704 221.931 157.083 221.637 157.573 221.424C158.064 221.2 158.624 221.088 159.253 221.088C160.224 221.088 161.008 221.333 161.605 221.824C162.203 222.315 162.523 222.987 162.565 223.84H161.109C161.077 223.381 160.891 223.013 160.549 222.736C160.219 222.459 159.771 222.32 159.205 222.32C158.683 222.32 158.267 222.432 157.957 222.656C157.648 222.88 157.493 223.173 157.493 223.536C157.493 223.824 157.584 224.064 157.765 224.256C157.957 224.437 158.192 224.587 158.469 224.704C158.757 224.811 159.152 224.933 159.653 225.072C160.283 225.243 160.795 225.413 161.189 225.584C161.584 225.744 161.92 225.989 162.197 226.32C162.485 226.651 162.635 227.083 162.645 227.616C162.645 228.096 162.512 228.528 162.245 228.912C161.979 229.296 161.6 229.6 161.109 229.824C160.629 230.037 160.075 230.144 159.445 230.144ZM166.205 227.984L164.413 232.288H163.437L164.605 227.984H166.205ZM183.818 221.232L181.082 230H179.578L177.466 223.04L175.354 230H173.85L171.098 221.232H172.586L174.602 228.592L176.778 221.232H178.266L180.394 228.608L182.378 221.232H183.818ZM186.015 219.808C185.738 219.808 185.503 219.712 185.311 219.52C185.119 219.328 185.023 219.093 185.023 218.816C185.023 218.539 185.119 218.304 185.311 218.112C185.503 217.92 185.738 217.824 186.015 217.824C186.282 217.824 186.506 217.92 186.687 218.112C186.879 218.304 186.975 218.539 186.975 218.816C186.975 219.093 186.879 219.328 186.687 219.52C186.506 219.712 186.282 219.808 186.015 219.808ZM186.719 221.232V230H185.263V221.232H186.719ZM190.977 222.432V227.6C190.977 228.027 191.067 228.331 191.249 228.512C191.43 228.683 191.745 228.768 192.193 228.768H193.265V230H191.953C191.142 230 190.534 229.813 190.129 229.44C189.723 229.067 189.521 228.453 189.521 227.6V222.432H188.385V221.232H189.521V219.024H190.977V221.232H193.265V222.432H190.977ZM199.381 221.072C200.042 221.072 200.64 221.216 201.173 221.504C201.706 221.781 202.122 222.203 202.421 222.768C202.73 223.333 202.885 224.021 202.885 224.832V230H201.445V225.04C201.445 224.165 201.226 223.499 200.789 223.04C200.352 222.571 199.754 222.336 198.997 222.336C198.229 222.336 197.616 222.576 197.157 223.056C196.709 223.536 196.485 224.235 196.485 225.152V230H195.029V218.16H196.485V222.48C196.773 222.032 197.168 221.685 197.669 221.44C198.181 221.195 198.752 221.072 199.381 221.072ZM210.281 219.808C210.004 219.808 209.769 219.712 209.577 219.52C209.385 219.328 209.289 219.093 209.289 218.816C209.289 218.539 209.385 218.304 209.577 218.112C209.769 217.92 210.004 217.824 210.281 217.824C210.548 217.824 210.772 217.92 210.953 218.112C211.145 218.304 211.241 218.539 211.241 218.816C211.241 219.093 211.145 219.328 210.953 219.52C210.772 219.712 210.548 219.808 210.281 219.808ZM210.985 221.232V230H209.529V221.232H210.985ZM217.738 221.072C218.805 221.072 219.669 221.397 220.33 222.048C220.992 222.688 221.322 223.616 221.322 224.832V230H219.882V225.04C219.882 224.165 219.664 223.499 219.226 223.04C218.789 222.571 218.192 222.336 217.434 222.336C216.666 222.336 216.053 222.576 215.594 223.056C215.146 223.536 214.922 224.235 214.922 225.152V230H213.466V221.232H214.922V222.48C215.21 222.032 215.6 221.685 216.09 221.44C216.592 221.195 217.141 221.072 217.738 221.072ZM226.805 230.144C226.133 230.144 225.53 230.032 224.997 229.808C224.463 229.573 224.042 229.253 223.733 228.848C223.423 228.432 223.253 227.957 223.221 227.424H224.725C224.767 227.861 224.97 228.219 225.333 228.496C225.706 228.773 226.191 228.912 226.789 228.912C227.343 228.912 227.781 228.789 228.101 228.544C228.421 228.299 228.581 227.989 228.581 227.616C228.581 227.232 228.41 226.949 228.069 226.768C227.727 226.576 227.199 226.389 226.485 226.208C225.834 226.037 225.301 225.867 224.885 225.696C224.479 225.515 224.127 225.253 223.829 224.912C223.541 224.56 223.397 224.101 223.397 223.536C223.397 223.088 223.53 222.677 223.797 222.304C224.063 221.931 224.442 221.637 224.933 221.424C225.423 221.2 225.983 221.088 226.613 221.088C227.583 221.088 228.367 221.333 228.965 221.824C229.562 222.315 229.882 222.987 229.925 223.84H228.469C228.437 223.381 228.25 223.013 227.909 222.736C227.578 222.459 227.13 222.32 226.565 222.32C226.042 222.32 225.626 222.432 225.317 222.656C225.007 222.88 224.853 223.173 224.853 223.536C224.853 223.824 224.943 224.064 225.125 224.256C225.317 224.437 225.551 224.587 225.829 224.704C226.117 224.811 226.511 224.933 227.013 225.072C227.642 225.243 228.154 225.413 228.549 225.584C228.943 225.744 229.279 225.989 229.557 226.32C229.845 226.651 229.994 227.083 230.005 227.616C230.005 228.096 229.871 228.528 229.605 228.912C229.338 229.296 228.959 229.6 228.469 229.824C227.989 230.037 227.434 230.144 226.805 230.144ZM232.812 219.808C232.535 219.808 232.3 219.712 232.108 219.52C231.916 219.328 231.82 219.093 231.82 218.816C231.82 218.539 231.916 218.304 232.108 218.112C232.3 217.92 232.535 217.824 232.812 217.824C233.079 217.824 233.303 217.92 233.484 218.112C233.676 218.304 233.772 218.539 233.772 218.816C233.772 219.093 233.676 219.328 233.484 219.52C233.303 219.712 233.079 219.808 232.812 219.808ZM233.516 221.232V230H232.06V221.232H233.516ZM239.614 221.088C240.371 221.088 241.032 221.253 241.598 221.584C242.174 221.915 242.6 222.331 242.878 222.832V221.232H244.35V230.192C244.35 230.992 244.179 231.701 243.838 232.32C243.496 232.949 243.006 233.44 242.366 233.792C241.736 234.144 241 234.32 240.158 234.32C239.006 234.32 238.046 234.048 237.278 233.504C236.51 232.96 236.056 232.219 235.918 231.28H237.358C237.518 231.813 237.848 232.24 238.35 232.56C238.851 232.891 239.454 233.056 240.158 233.056C240.958 233.056 241.608 232.805 242.11 232.304C242.622 231.803 242.878 231.099 242.878 230.192V228.352C242.59 228.864 242.163 229.291 241.598 229.632C241.032 229.973 240.371 230.144 239.614 230.144C238.835 230.144 238.126 229.952 237.486 229.568C236.856 229.184 236.36 228.645 235.998 227.952C235.635 227.259 235.454 226.469 235.454 225.584C235.454 224.688 235.635 223.904 235.998 223.232C236.36 222.549 236.856 222.021 237.486 221.648C238.126 221.275 238.835 221.088 239.614 221.088ZM242.878 225.6C242.878 224.939 242.744 224.363 242.478 223.872C242.211 223.381 241.848 223.008 241.39 222.752C240.942 222.485 240.446 222.352 239.902 222.352C239.358 222.352 238.862 222.48 238.414 222.736C237.966 222.992 237.608 223.365 237.342 223.856C237.075 224.347 236.942 224.923 236.942 225.584C236.942 226.256 237.075 226.843 237.342 227.344C237.608 227.835 237.966 228.213 238.414 228.48C238.862 228.736 239.358 228.864 239.902 228.864C240.446 228.864 240.942 228.736 241.39 228.48C241.848 228.213 242.211 227.835 242.478 227.344C242.744 226.843 242.878 226.261 242.878 225.6ZM251.162 221.072C251.823 221.072 252.421 221.216 252.954 221.504C253.487 221.781 253.903 222.203 254.202 222.768C254.511 223.333 254.666 224.021 254.666 224.832V230H253.226V225.04C253.226 224.165 253.007 223.499 252.57 223.04C252.133 222.571 251.535 222.336 250.778 222.336C250.01 222.336 249.397 222.576 248.938 223.056C248.49 223.536 248.266 224.235 248.266 225.152V230H246.81V218.16H248.266V222.48C248.554 222.032 248.949 221.685 249.45 221.44C249.962 221.195 250.533 221.072 251.162 221.072ZM258.821 222.432V227.6C258.821 228.027 258.911 228.331 259.093 228.512C259.274 228.683 259.589 228.768 260.036 228.768H261.109V230H259.797C258.986 230 258.378 229.813 257.973 229.44C257.567 229.067 257.365 228.453 257.365 227.6V222.432H256.229V221.232H257.365V219.024H258.821V221.232H261.109V222.432H258.821ZM265.977 230.144C265.305 230.144 264.702 230.032 264.169 229.808C263.635 229.573 263.214 229.253 262.905 228.848C262.595 228.432 262.425 227.957 262.393 227.424H263.897C263.939 227.861 264.142 228.219 264.505 228.496C264.878 228.773 265.363 228.912 265.961 228.912C266.515 228.912 266.953 228.789 267.273 228.544C267.593 228.299 267.753 227.989 267.753 227.616C267.753 227.232 267.582 226.949 267.241 226.768C266.899 226.576 266.371 226.389 265.657 226.208C265.006 226.037 264.473 225.867 264.057 225.696C263.651 225.515 263.299 225.253 263.001 224.912C262.713 224.56 262.569 224.101 262.569 223.536C262.569 223.088 262.702 222.677 262.969 222.304C263.235 221.931 263.614 221.637 264.105 221.424C264.595 221.2 265.155 221.088 265.785 221.088C266.755 221.088 267.539 221.333 268.137 221.824C268.734 222.315 269.054 222.987 269.097 223.84H267.641C267.609 223.381 267.422 223.013 267.081 222.736C266.75 222.459 266.302 222.32 265.737 222.32C265.214 222.32 264.798 222.432 264.489 222.656C264.179 222.88 264.025 223.173 264.025 223.536C264.025 223.824 264.115 224.064 264.297 224.256C264.489 224.437 264.723 224.587 265.001 224.704C265.289 224.811 265.683 224.933 266.185 225.072C266.814 225.243 267.326 225.413 267.721 225.584C268.115 225.744 268.451 225.989 268.729 226.32C269.017 226.651 269.166 227.083 269.177 227.616C269.177 228.096 269.043 228.528 268.777 228.912C268.51 229.296 268.131 229.6 267.641 229.824C267.161 230.037 266.606 230.144 265.977 230.144ZM276.954 222.864C277.252 222.341 277.69 221.915 278.266 221.584C278.842 221.253 279.498 221.088 280.234 221.088C281.023 221.088 281.732 221.275 282.362 221.648C282.991 222.021 283.487 222.549 283.85 223.232C284.212 223.904 284.394 224.688 284.394 225.584C284.394 226.469 284.212 227.259 283.85 227.952C283.487 228.645 282.986 229.184 282.346 229.568C281.716 229.952 281.012 230.144 280.234 230.144C279.476 230.144 278.81 229.979 278.234 229.648C277.668 229.317 277.242 228.896 276.954 228.384V230H275.498V218.16H276.954V222.864ZM282.906 225.584C282.906 224.923 282.772 224.347 282.506 223.856C282.239 223.365 281.876 222.992 281.418 222.736C280.97 222.48 280.474 222.352 279.93 222.352C279.396 222.352 278.9 222.485 278.442 222.752C277.994 223.008 277.631 223.387 277.354 223.888C277.087 224.379 276.954 224.949 276.954 225.6C276.954 226.261 277.087 226.843 277.354 227.344C277.631 227.835 277.994 228.213 278.442 228.48C278.9 228.736 279.396 228.864 279.93 228.864C280.474 228.864 280.97 228.736 281.418 228.48C281.876 228.213 282.239 227.835 282.506 227.344C282.772 226.843 282.906 226.256 282.906 225.584ZM293.862 221.232L288.582 234.128H287.078L288.806 229.904L285.27 221.232H286.886L289.638 228.336L292.358 221.232H293.862ZM13.688 249.584C13.688 248.688 13.8693 247.904 14.232 247.232C14.5947 246.549 15.0907 246.021 15.72 245.648C16.36 245.275 17.0747 245.088 17.864 245.088C18.5467 245.088 19.1813 245.248 19.768 245.568C20.3547 245.877 20.8027 246.288 21.112 246.8V242.16H22.584V254H21.112V252.352C20.824 252.875 20.3973 253.307 19.832 253.648C19.2667 253.979 18.6053 254.144 17.848 254.144C17.0693 254.144 16.36 253.952 15.72 253.568C15.0907 253.184 14.5947 252.645 14.232 251.952C13.8693 251.259 13.688 250.469 13.688 249.584ZM21.112 249.6C21.112 248.939 20.9787 248.363 20.712 247.872C20.4453 247.381 20.0827 247.008 19.624 246.752C19.176 246.485 18.68 246.352 18.136 246.352C17.592 246.352 17.096 246.48 16.648 246.736C16.2 246.992 15.8427 247.365 15.576 247.856C15.3093 248.347 15.176 248.923 15.176 249.584C15.176 250.256 15.3093 250.843 15.576 251.344C15.8427 251.835 16.2 252.213 16.648 252.48C17.096 252.736 17.592 252.864 18.136 252.864C18.68 252.864 19.176 252.736 19.624 252.48C20.0827 252.213 20.4453 251.835 20.712 251.344C20.9787 250.843 21.112 250.261 21.112 249.6ZM33.0445 249.28C33.0445 249.557 33.0285 249.851 32.9965 250.16H25.9885C26.0418 251.024 26.3352 251.701 26.8685 252.192C27.4125 252.672 28.0685 252.912 28.8365 252.912C29.4658 252.912 29.9885 252.768 30.4045 252.48C30.8312 252.181 31.1298 251.787 31.3005 251.296H32.8685C32.6338 252.139 32.1645 252.827 31.4605 253.36C30.7565 253.883 29.8818 254.144 28.8365 254.144C28.0045 254.144 27.2578 253.957 26.5965 253.584C25.9458 253.211 25.4338 252.683 25.0605 252C24.6872 251.307 24.5005 250.507 24.5005 249.6C24.5005 248.693 24.6818 247.899 25.0445 247.216C25.4072 246.533 25.9138 246.011 26.5645 245.648C27.2258 245.275 27.9832 245.088 28.8365 245.088C29.6685 245.088 30.4045 245.269 31.0445 245.632C31.6845 245.995 32.1752 246.496 32.5165 247.136C32.8685 247.765 33.0445 248.48 33.0445 249.28ZM31.5405 248.976C31.5405 248.421 31.4178 247.947 31.1725 247.552C30.9272 247.147 30.5912 246.843 30.1645 246.64C29.7485 246.427 29.2845 246.32 28.7725 246.32C28.0365 246.32 27.4072 246.555 26.8845 247.024C26.3725 247.493 26.0792 248.144 26.0045 248.976H31.5405ZM38.2304 252.656L40.9504 245.232H42.5024L39.0624 254H37.3664L33.9264 245.232H35.4944L38.2304 252.656ZM44.6871 243.808C44.4098 243.808 44.1751 243.712 43.9831 243.52C43.7911 243.328 43.6951 243.093 43.6951 242.816C43.6951 242.539 43.7911 242.304 43.9831 242.112C44.1751 241.92 44.4098 241.824 44.6871 241.824C44.9538 241.824 45.1778 241.92 45.3591 242.112C45.5511 242.304 45.6471 242.539 45.6471 242.816C45.6471 243.093 45.5511 243.328 45.3591 243.52C45.1778 243.712 44.9538 243.808 44.6871 243.808ZM45.3911 245.232V254H43.9351V245.232H45.3911ZM47.3286 249.6C47.3286 248.693 47.51 247.904 47.8726 247.232C48.2353 246.549 48.7366 246.021 49.3766 245.648C50.0273 245.275 50.7686 245.088 51.6006 245.088C52.678 245.088 53.5633 245.349 54.2566 245.872C54.9606 246.395 55.4246 247.12 55.6486 248.048H54.0806C53.9313 247.515 53.638 247.093 53.2006 246.784C52.774 246.475 52.2406 246.32 51.6006 246.32C50.7686 246.32 50.0966 246.608 49.5846 247.184C49.0726 247.749 48.8166 248.555 48.8166 249.6C48.8166 250.656 49.0726 251.472 49.5846 252.048C50.0966 252.624 50.7686 252.912 51.6006 252.912C52.2406 252.912 52.774 252.763 53.2006 252.464C53.6273 252.165 53.9206 251.739 54.0806 251.184H55.6486C55.414 252.08 54.9446 252.8 54.2406 253.344C53.5366 253.877 52.6566 254.144 51.6006 254.144C50.7686 254.144 50.0273 253.957 49.3766 253.584C48.7366 253.211 48.2353 252.683 47.8726 252C47.51 251.317 47.3286 250.517 47.3286 249.6ZM65.5914 249.28C65.5914 249.557 65.5754 249.851 65.5434 250.16H58.5354C58.5887 251.024 58.882 251.701 59.4154 252.192C59.9594 252.672 60.6154 252.912 61.3834 252.912C62.0127 252.912 62.5354 252.768 62.9514 252.48C63.378 252.181 63.6767 251.787 63.8474 251.296H65.4154C65.1807 252.139 64.7114 252.827 64.0074 253.36C63.3034 253.883 62.4287 254.144 61.3834 254.144C60.5514 254.144 59.8047 253.957 59.1434 253.584C58.4927 253.211 57.9807 252.683 57.6074 252C57.234 251.307 57.0474 250.507 57.0474 249.6C57.0474 248.693 57.2287 247.899 57.5914 247.216C57.954 246.533 58.4607 246.011 59.1114 245.648C59.7727 245.275 60.53 245.088 61.3834 245.088C62.2154 245.088 62.9514 245.269 63.5914 245.632C64.2314 245.995 64.722 246.496 65.0634 247.136C65.4154 247.765 65.5914 248.48 65.5914 249.28ZM64.0874 248.976C64.0874 248.421 63.9647 247.947 63.7194 247.552C63.474 247.147 63.138 246.843 62.7114 246.64C62.2954 246.427 61.8314 246.32 61.3194 246.32C60.5834 246.32 59.954 246.555 59.4314 247.024C58.9194 247.493 58.626 248.144 58.5514 248.976H64.0874ZM71.2349 249.584C71.2349 248.688 71.4162 247.904 71.7789 247.232C72.1415 246.549 72.6375 246.021 73.2669 245.648C73.9069 245.275 74.6162 245.088 75.3949 245.088C76.1629 245.088 76.8295 245.253 77.3949 245.584C77.9602 245.915 78.3815 246.331 78.6589 246.832V245.232H80.1309V254H78.6589V252.368C78.3709 252.88 77.9389 253.307 77.3629 253.648C76.7975 253.979 76.1362 254.144 75.3789 254.144C74.6002 254.144 73.8962 253.952 73.2669 253.568C72.6375 253.184 72.1415 252.645 71.7789 251.952C71.4162 251.259 71.2349 250.469 71.2349 249.584ZM78.6589 249.6C78.6589 248.939 78.5255 248.363 78.2589 247.872C77.9922 247.381 77.6295 247.008 77.1709 246.752C76.7229 246.485 76.2269 246.352 75.6829 246.352C75.1389 246.352 74.6429 246.48 74.1949 246.736C73.7469 246.992 73.3895 247.365 73.1229 247.856C72.8562 248.347 72.7229 248.923 72.7229 249.584C72.7229 250.256 72.8562 250.843 73.1229 251.344C73.3895 251.835 73.7469 252.213 74.1949 252.48C74.6429 252.736 75.1389 252.864 75.6829 252.864C76.2269 252.864 76.7229 252.736 77.1709 252.48C77.6295 252.213 77.9922 251.835 78.2589 251.344C78.5255 250.843 78.6589 250.261 78.6589 249.6ZM86.8634 245.072C87.93 245.072 88.794 245.397 89.4554 246.048C90.1167 246.688 90.4474 247.616 90.4474 248.832V254H89.0074V249.04C89.0074 248.165 88.7887 247.499 88.3514 247.04C87.914 246.571 87.3167 246.336 86.5594 246.336C85.7914 246.336 85.178 246.576 84.7194 247.056C84.2714 247.536 84.0474 248.235 84.0474 249.152V254H82.5914V245.232H84.0474V246.48C84.3354 246.032 84.7247 245.685 85.2154 245.44C85.7167 245.195 86.266 245.072 86.8634 245.072ZM92.2818 249.584C92.2818 248.688 92.4631 247.904 92.8258 247.232C93.1884 246.549 93.6844 246.021 94.3138 245.648C94.9538 245.275 95.6684 245.088 96.4578 245.088C97.1404 245.088 97.7751 245.248 98.3618 245.568C98.9484 245.877 99.3964 246.288 99.7058 246.8V242.16H101.178V254H99.7058V252.352C99.4178 252.875 98.9911 253.307 98.4258 253.648C97.8604 253.979 97.1991 254.144 96.4418 254.144C95.6631 254.144 94.9538 253.952 94.3138 253.568C93.6844 253.184 93.1884 252.645 92.8258 251.952C92.4631 251.259 92.2818 250.469 92.2818 249.584ZM99.7058 249.6C99.7058 248.939 99.5724 248.363 99.3058 247.872C99.0391 247.381 98.6764 247.008 98.2178 246.752C97.7698 246.485 97.2738 246.352 96.7298 246.352C96.1858 246.352 95.6898 246.48 95.2418 246.736C94.7938 246.992 94.4364 247.365 94.1698 247.856C93.9031 248.347 93.7698 248.923 93.7698 249.584C93.7698 250.256 93.9031 250.843 94.1698 251.344C94.4364 251.835 94.7938 252.213 95.2418 252.48C95.6898 252.736 96.1858 252.864 96.7298 252.864C97.2738 252.864 97.7698 252.736 98.2178 252.48C98.6764 252.213 99.0391 251.835 99.3058 251.344C99.5724 250.843 99.7058 250.261 99.7058 249.6ZM109.36 242.16V254H107.904V242.16H109.36ZM115.665 254.144C114.844 254.144 114.097 253.957 113.425 253.584C112.764 253.211 112.241 252.683 111.857 252C111.484 251.307 111.297 250.507 111.297 249.6C111.297 248.704 111.489 247.915 111.873 247.232C112.268 246.539 112.801 246.011 113.473 245.648C114.145 245.275 114.897 245.088 115.729 245.088C116.561 245.088 117.313 245.275 117.985 245.648C118.657 246.011 119.185 246.533 119.569 247.216C119.964 247.899 120.161 248.693 120.161 249.6C120.161 250.507 119.959 251.307 119.553 252C119.159 252.683 118.62 253.211 117.937 253.584C117.255 253.957 116.497 254.144 115.665 254.144ZM115.665 252.864C116.188 252.864 116.679 252.741 117.137 252.496C117.596 252.251 117.964 251.883 118.241 251.392C118.529 250.901 118.673 250.304 118.673 249.6C118.673 248.896 118.535 248.299 118.257 247.808C117.98 247.317 117.617 246.955 117.169 246.72C116.721 246.475 116.236 246.352 115.713 246.352C115.18 246.352 114.689 246.475 114.241 246.72C113.804 246.955 113.452 247.317 113.185 247.808C112.919 248.299 112.785 248.896 112.785 249.6C112.785 250.315 112.913 250.917 113.169 251.408C113.436 251.899 113.788 252.267 114.225 252.512C114.663 252.747 115.143 252.864 115.665 252.864ZM121.532 249.6C121.532 248.693 121.713 247.904 122.076 247.232C122.438 246.549 122.94 246.021 123.58 245.648C124.23 245.275 124.972 245.088 125.804 245.088C126.881 245.088 127.766 245.349 128.46 245.872C129.164 246.395 129.628 247.12 129.852 248.048H128.284C128.134 247.515 127.841 247.093 127.404 246.784C126.977 246.475 126.444 246.32 125.804 246.32C124.972 246.32 124.3 246.608 123.788 247.184C123.276 247.749 123.02 248.555 123.02 249.6C123.02 250.656 123.276 251.472 123.788 252.048C124.3 252.624 124.972 252.912 125.804 252.912C126.444 252.912 126.977 252.763 127.404 252.464C127.83 252.165 128.124 251.739 128.284 251.184H129.852C129.617 252.08 129.148 252.8 128.444 253.344C127.74 253.877 126.86 254.144 125.804 254.144C124.972 254.144 124.23 253.957 123.58 253.584C122.94 253.211 122.438 252.683 122.076 252C121.713 251.317 121.532 250.517 121.532 249.6ZM131.251 249.584C131.251 248.688 131.432 247.904 131.795 247.232C132.157 246.549 132.653 246.021 133.283 245.648C133.923 245.275 134.632 245.088 135.411 245.088C136.179 245.088 136.845 245.253 137.411 245.584C137.976 245.915 138.397 246.331 138.675 246.832V245.232H140.147V254H138.675V252.368C138.387 252.88 137.955 253.307 137.379 253.648C136.813 253.979 136.152 254.144 135.395 254.144C134.616 254.144 133.912 253.952 133.283 253.568C132.653 253.184 132.157 252.645 131.795 251.952C131.432 251.259 131.251 250.469 131.251 249.584ZM138.675 249.6C138.675 248.939 138.541 248.363 138.275 247.872C138.008 247.381 137.645 247.008 137.187 246.752C136.739 246.485 136.243 246.352 135.699 246.352C135.155 246.352 134.659 246.48 134.211 246.736C133.763 246.992 133.405 247.365 133.139 247.856C132.872 248.347 132.739 248.923 132.739 249.584C132.739 250.256 132.872 250.843 133.139 251.344C133.405 251.835 133.763 252.213 134.211 252.48C134.659 252.736 135.155 252.864 135.699 252.864C136.243 252.864 136.739 252.736 137.187 252.48C137.645 252.213 138.008 251.835 138.275 251.344C138.541 250.843 138.675 250.261 138.675 249.6ZM144.383 246.432V251.6C144.383 252.027 144.474 252.331 144.655 252.512C144.836 252.683 145.151 252.768 145.599 252.768H146.671V254H145.359C144.548 254 143.94 253.813 143.535 253.44C143.13 253.067 142.927 252.453 142.927 251.6V246.432H141.791V245.232H142.927V243.024H144.383V245.232H146.671V246.432H144.383ZM149.187 243.808C148.91 243.808 148.675 243.712 148.483 243.52C148.291 243.328 148.195 243.093 148.195 242.816C148.195 242.539 148.291 242.304 148.483 242.112C148.675 241.92 148.91 241.824 149.187 241.824C149.454 241.824 149.678 241.92 149.859 242.112C150.051 242.304 150.147 242.539 150.147 242.816C150.147 243.093 150.051 243.328 149.859 243.52C149.678 243.712 149.454 243.808 149.187 243.808ZM149.891 245.232V254H148.435V245.232H149.891ZM156.197 254.144C155.375 254.144 154.629 253.957 153.957 253.584C153.295 253.211 152.773 252.683 152.389 252C152.015 251.307 151.829 250.507 151.829 249.6C151.829 248.704 152.021 247.915 152.405 247.232C152.799 246.539 153.333 246.011 154.005 245.648C154.677 245.275 155.429 245.088 156.261 245.088C157.093 245.088 157.845 245.275 158.517 245.648C159.189 246.011 159.717 246.533 160.101 247.216C160.495 247.899 160.693 248.693 160.693 249.6C160.693 250.507 160.49 251.307 160.085 252C159.69 252.683 159.151 253.211 158.469 253.584C157.786 253.957 157.029 254.144 156.197 254.144ZM156.197 252.864C156.719 252.864 157.21 252.741 157.669 252.496C158.127 252.251 158.495 251.883 158.773 251.392C159.061 250.901 159.205 250.304 159.205 249.6C159.205 248.896 159.066 248.299 158.789 247.808C158.511 247.317 158.149 246.955 157.701 246.72C157.253 246.475 156.767 246.352 156.245 246.352C155.711 246.352 155.221 246.475 154.773 246.72C154.335 246.955 153.983 247.317 153.717 247.808C153.45 248.299 153.317 248.896 153.317 249.6C153.317 250.315 153.445 250.917 153.701 251.408C153.967 251.899 154.319 252.267 154.757 252.512C155.194 252.747 155.674 252.864 156.197 252.864ZM166.879 245.072C167.946 245.072 168.81 245.397 169.471 246.048C170.132 246.688 170.463 247.616 170.463 248.832V254H169.023V249.04C169.023 248.165 168.804 247.499 168.367 247.04C167.93 246.571 167.332 246.336 166.575 246.336C165.807 246.336 165.194 246.576 164.735 247.056C164.287 247.536 164.063 248.235 164.063 249.152V254H162.607V245.232H164.063V246.48C164.351 246.032 164.74 245.685 165.231 245.44C165.732 245.195 166.282 245.072 166.879 245.072ZM173.305 254.096C173.028 254.096 172.793 254 172.601 253.808C172.409 253.616 172.313 253.381 172.313 253.104C172.313 252.827 172.409 252.592 172.601 252.4C172.793 252.208 173.028 252.112 173.305 252.112C173.572 252.112 173.796 252.208 173.977 252.4C174.169 252.592 174.265 252.827 174.265 253.104C174.265 253.381 174.169 253.616 173.977 253.808C173.796 254 173.572 254.096 173.305 254.096Z" fill="#F7F2EB"/>
</g>
<defs>
<linearGradient id="paint0_linear_37_378" x1="344.775" y1="162.789" x2="537.767" y2="483.982" gradientUnits="userSpaceOnUse">
<stop stop-color="#58D764"/>
<stop offset="1" stop-color="#58D764" stop-opacity="0.2"/>
</linearGradient>
<clipPath id="clip0_37_378">
<rect width="345" height="520" rx="33" fill="white"/>
</clipPath>
</defs>
</svg>
