<svg width="345" height="255" viewBox="0 0 345 255" fill="none" xmlns="http://www.w3.org/2000/svg">
<rect width="345" height="255" rx="33" fill="#333333"/>
<path d="M27.04 78.78H34.36V81H24.31V60.09H27.04V78.78ZM38.6692 61.89C38.1492 61.89 37.7092 61.71 37.3492 61.35C36.9892 60.99 36.8092 60.55 36.8092 60.03C36.8092 59.51 36.9892 59.07 37.3492 58.71C37.7092 58.35 38.1492 58.17 38.6692 58.17C39.1692 58.17 39.5892 58.35 39.9292 58.71C40.2892 59.07 40.4692 59.51 40.4692 60.03C40.4692 60.55 40.2892 60.99 39.9292 61.35C39.5892 61.71 39.1692 61.89 38.6692 61.89ZM39.9892 64.56V81H37.2592V64.56H39.9892ZM52.652 64.26C54.652 64.26 56.272 64.87 57.512 66.09C58.752 67.29 59.372 69.03 59.372 71.31V81H56.672V71.7C56.672 70.06 56.262 68.81 55.442 67.95C54.622 67.07 53.502 66.63 52.082 66.63C50.642 66.63 49.492 67.08 48.632 67.98C47.792 68.88 47.372 70.19 47.372 71.91V81H44.642V64.56H47.372V66.9C47.912 66.06 48.642 65.41 49.562 64.95C50.502 64.49 51.532 64.26 52.652 64.26ZM73.0115 81L66.5615 73.74V81H63.8315V58.8H66.5615V71.85L72.8915 64.56H76.7015L68.9615 72.75L76.7315 81H73.0115ZM85.0909 81.27C83.8309 81.27 82.7009 81.06 81.7009 80.64C80.7009 80.2 79.9109 79.6 79.3309 78.84C78.7509 78.06 78.4309 77.17 78.3709 76.17H81.1909C81.2709 76.99 81.6509 77.66 82.3309 78.18C83.0309 78.7 83.9409 78.96 85.0609 78.96C86.1009 78.96 86.9209 78.73 87.5209 78.27C88.1209 77.81 88.4209 77.23 88.4209 76.53C88.4209 75.81 88.1009 75.28 87.4609 74.94C86.8209 74.58 85.8309 74.23 84.4909 73.89C83.2709 73.57 82.2709 73.25 81.4909 72.93C80.7309 72.59 80.0709 72.1 79.5109 71.46C78.9709 70.8 78.7009 69.94 78.7009 68.88C78.7009 68.04 78.9509 67.27 79.4509 66.57C79.9509 65.87 80.6609 65.32 81.5809 64.92C82.5009 64.5 83.5509 64.29 84.7309 64.29C86.5509 64.29 88.0209 64.75 89.1409 65.67C90.2609 66.59 90.8609 67.85 90.9409 69.45H88.2109C88.1509 68.59 87.8009 67.9 87.1609 67.38C86.5409 66.86 85.7009 66.6 84.6409 66.6C83.6609 66.6 82.8809 66.81 82.3009 67.23C81.7209 67.65 81.4309 68.2 81.4309 68.88C81.4309 69.42 81.6009 69.87 81.9409 70.23C82.3009 70.57 82.7409 70.85 83.2609 71.07C83.8009 71.27 84.5409 71.5 85.4809 71.76C86.6609 72.08 87.6209 72.4 88.3609 72.72C89.1009 73.02 89.7309 73.48 90.2509 74.1C90.7909 74.72 91.0709 75.53 91.0909 76.53C91.0909 77.43 90.8409 78.24 90.3409 78.96C89.8409 79.68 89.1309 80.25 88.2109 80.67C87.3109 81.07 86.2709 81.27 85.0909 81.27ZM118.993 81L116.263 78.24C115.243 79.3 114.153 80.09 112.993 80.61C111.833 81.11 110.523 81.36 109.063 81.36C107.623 81.36 106.343 81.1 105.223 80.58C104.123 80.06 103.263 79.32 102.643 78.36C102.043 77.4 101.743 76.28 101.743 75C101.743 73.54 102.153 72.26 102.973 71.16C103.813 70.04 105.043 69.16 106.663 68.52C106.023 67.76 105.563 67.06 105.283 66.42C105.003 65.78 104.863 65.08 104.863 64.32C104.863 63.44 105.083 62.65 105.523 61.95C105.983 61.23 106.633 60.67 107.473 60.27C108.313 59.87 109.283 59.67 110.383 59.67C111.463 59.67 112.403 59.88 113.203 60.3C114.003 60.72 114.603 61.31 115.003 62.07C115.403 62.81 115.583 63.64 115.543 64.56H112.813C112.833 63.74 112.603 63.1 112.123 62.64C111.643 62.16 111.023 61.92 110.263 61.92C109.463 61.92 108.813 62.15 108.313 62.61C107.833 63.05 107.593 63.62 107.593 64.32C107.593 64.92 107.753 65.5 108.073 66.06C108.413 66.62 108.973 67.31 109.753 68.13L115.993 74.4L116.533 73.56L118.573 70.14H121.513L119.053 74.4C118.713 75 118.313 75.63 117.853 76.29L122.563 81H118.993ZM109.063 79.02C110.143 79.02 111.113 78.81 111.973 78.39C112.853 77.97 113.683 77.32 114.463 76.44L108.313 70.26C105.753 71.24 104.473 72.79 104.473 74.91C104.473 76.09 104.893 77.07 105.733 77.85C106.593 78.63 107.703 79.02 109.063 79.02ZM149.889 84.96L145.719 80.79C144.699 81.07 143.659 81.21 142.599 81.21C140.659 81.21 138.889 80.76 137.289 79.86C135.689 78.94 134.419 77.67 133.479 76.05C132.559 74.41 132.099 72.57 132.099 70.53C132.099 68.49 132.559 66.66 133.479 65.04C134.419 63.4 135.689 62.13 137.289 61.23C138.889 60.31 140.659 59.85 142.599 59.85C144.559 59.85 146.339 60.31 147.939 61.23C149.539 62.13 150.799 63.39 151.719 65.01C152.639 66.63 153.099 68.47 153.099 70.53C153.099 72.53 152.659 74.33 151.779 75.93C150.899 77.53 149.689 78.79 148.149 79.71L153.429 84.96H149.889ZM134.889 70.53C134.889 72.19 135.219 73.65 135.879 74.91C136.559 76.17 137.479 77.14 138.639 77.82C139.819 78.5 141.139 78.84 142.599 78.84C144.059 78.84 145.369 78.5 146.529 77.82C147.709 77.14 148.629 76.17 149.289 74.91C149.969 73.65 150.309 72.19 150.309 70.53C150.309 68.85 149.969 67.39 149.289 66.15C148.629 64.89 147.719 63.92 146.559 63.24C145.399 62.56 144.079 62.22 142.599 62.22C141.119 62.22 139.799 62.56 138.639 63.24C137.479 63.92 136.559 64.89 135.879 66.15C135.219 67.39 134.889 68.85 134.889 70.53ZM167.771 81L162.791 72.45H159.491V81H156.761V60.09H163.511C165.091 60.09 166.421 60.36 167.501 60.9C168.601 61.44 169.421 62.17 169.961 63.09C170.501 64.01 170.771 65.06 170.771 66.24C170.771 67.68 170.351 68.95 169.511 70.05C168.691 71.15 167.451 71.88 165.791 72.24L171.041 81H167.771ZM159.491 70.26H163.511C164.991 70.26 166.101 69.9 166.841 69.18C167.581 68.44 167.951 67.46 167.951 66.24C167.951 65 167.581 64.04 166.841 63.36C166.121 62.68 165.011 62.34 163.511 62.34H159.491V70.26ZM23.29 108.53C23.29 106.49 23.75 104.66 24.67 103.04C25.59 101.4 26.84 100.12 28.42 99.2C30.02 98.28 31.79 97.82 33.73 97.82C36.01 97.82 38 98.37 39.7 99.47C41.4 100.57 42.64 102.13 43.42 104.15H40.15C39.57 102.89 38.73 101.92 37.63 101.24C36.55 100.56 35.25 100.22 33.73 100.22C32.27 100.22 30.96 100.56 29.8 101.24C28.64 101.92 27.73 102.89 27.07 104.15C26.41 105.39 26.08 106.85 26.08 108.53C26.08 110.19 26.41 111.65 27.07 112.91C27.73 114.15 28.64 115.11 29.8 115.79C30.96 116.47 32.27 116.81 33.73 116.81C35.25 116.81 36.55 116.48 37.63 115.82C38.73 115.14 39.57 114.17 40.15 112.91H43.42C42.64 114.91 41.4 116.46 39.7 117.56C38 118.64 36.01 119.18 33.73 119.18C31.79 119.18 30.02 118.73 28.42 117.83C26.84 116.91 25.59 115.64 24.67 114.02C23.75 112.4 23.29 110.57 23.29 108.53ZM54.6538 119.27C53.1138 119.27 51.7138 118.92 50.4538 118.22C49.2138 117.52 48.2338 116.53 47.5138 115.25C46.8138 113.95 46.4638 112.45 46.4638 110.75C46.4638 109.07 46.8238 107.59 47.5438 106.31C48.2838 105.01 49.2838 104.02 50.5438 103.34C51.8038 102.64 53.2138 102.29 54.7738 102.29C56.3338 102.29 57.7438 102.64 59.0038 103.34C60.2638 104.02 61.2538 105 61.9738 106.28C62.7138 107.56 63.0838 109.05 63.0838 110.75C63.0838 112.45 62.7038 113.95 61.9438 115.25C61.2038 116.53 60.1938 117.52 58.9138 118.22C57.6338 118.92 56.2138 119.27 54.6538 119.27ZM54.6538 116.87C55.6338 116.87 56.5538 116.64 57.4138 116.18C58.2738 115.72 58.9638 115.03 59.4838 114.11C60.0238 113.19 60.2938 112.07 60.2938 110.75C60.2938 109.43 60.0338 108.31 59.5138 107.39C58.9938 106.47 58.3138 105.79 57.4738 105.35C56.6338 104.89 55.7238 104.66 54.7438 104.66C53.7438 104.66 52.8238 104.89 51.9838 105.35C51.1638 105.79 50.5038 106.47 50.0038 107.39C49.5038 108.31 49.2538 109.43 49.2538 110.75C49.2538 112.09 49.4938 113.22 49.9738 114.14C50.4738 115.06 51.1338 115.75 51.9538 116.21C52.7738 116.65 53.6738 116.87 54.6538 116.87ZM65.6533 110.72C65.6533 109.04 65.9933 107.57 66.6733 106.31C67.3533 105.03 68.2833 104.04 69.4633 103.34C70.6633 102.64 72.0033 102.29 73.4833 102.29C74.7633 102.29 75.9533 102.59 77.0533 103.19C78.1533 103.77 78.9933 104.54 79.5733 105.5V96.8H82.3333V119H79.5733V115.91C79.0333 116.89 78.2333 117.7 77.1733 118.34C76.1133 118.96 74.8733 119.27 73.4533 119.27C71.9933 119.27 70.6633 118.91 69.4633 118.19C68.2833 117.47 67.3533 116.46 66.6733 115.16C65.9933 113.86 65.6533 112.38 65.6533 110.72ZM79.5733 110.75C79.5733 109.51 79.3233 108.43 78.8233 107.51C78.3233 106.59 77.6433 105.89 76.7833 105.41C75.9433 104.91 75.0133 104.66 73.9933 104.66C72.9733 104.66 72.0433 104.9 71.2033 105.38C70.3633 105.86 69.6933 106.56 69.1933 107.48C68.6933 108.4 68.4433 109.48 68.4433 110.72C68.4433 111.98 68.6933 113.08 69.1933 114.02C69.6933 114.94 70.3633 115.65 71.2033 116.15C72.0433 116.63 72.9733 116.87 73.9933 116.87C75.0133 116.87 75.9433 116.63 76.7833 116.15C77.6433 115.65 78.3233 114.94 78.8233 114.02C79.3233 113.08 79.5733 111.99 79.5733 110.75ZM101.947 110.15C101.947 110.67 101.917 111.22 101.857 111.8H88.7167C88.8167 113.42 89.3667 114.69 90.3667 115.61C91.3867 116.51 92.6167 116.96 94.0567 116.96C95.2367 116.96 96.2167 116.69 96.9967 116.15C97.7967 115.59 98.3567 114.85 98.6767 113.93H101.617C101.177 115.51 100.297 116.8 98.9767 117.8C97.6567 118.78 96.0167 119.27 94.0567 119.27C92.4967 119.27 91.0967 118.92 89.8567 118.22C88.6367 117.52 87.6767 116.53 86.9767 115.25C86.2767 113.95 85.9267 112.45 85.9267 110.75C85.9267 109.05 86.2667 107.56 86.9467 106.28C87.6267 105 88.5767 104.02 89.7967 103.34C91.0367 102.64 92.4567 102.29 94.0567 102.29C95.6167 102.29 96.9967 102.63 98.1967 103.31C99.3967 103.99 100.317 104.93 100.957 106.13C101.617 107.31 101.947 108.65 101.947 110.15ZM99.1267 109.58C99.1267 108.54 98.8967 107.65 98.4367 106.91C97.9767 106.15 97.3467 105.58 96.5467 105.2C95.7667 104.8 94.8967 104.6 93.9367 104.6C92.5567 104.6 91.3767 105.04 90.3967 105.92C89.4367 106.8 88.8867 108.02 88.7467 109.58H99.1267ZM111.37 119.27C110.11 119.27 108.98 119.06 107.98 118.64C106.98 118.2 106.19 117.6 105.61 116.84C105.03 116.06 104.71 115.17 104.65 114.17H107.47C107.55 114.99 107.93 115.66 108.61 116.18C109.31 116.7 110.22 116.96 111.34 116.96C112.38 116.96 113.2 116.73 113.8 116.27C114.4 115.81 114.7 115.23 114.7 114.53C114.7 113.81 114.38 113.28 113.74 112.94C113.1 112.58 112.11 112.23 110.77 111.89C109.55 111.57 108.55 111.25 107.77 110.93C107.01 110.59 106.35 110.1 105.79 109.46C105.25 108.8 104.98 107.94 104.98 106.88C104.98 106.04 105.23 105.27 105.73 104.57C106.23 103.87 106.94 103.32 107.86 102.92C108.78 102.5 109.83 102.29 111.01 102.29C112.83 102.29 114.3 102.75 115.42 103.67C116.54 104.59 117.14 105.85 117.22 107.45H114.49C114.43 106.59 114.08 105.9 113.44 105.38C112.82 104.86 111.98 104.6 110.92 104.6C109.94 104.6 109.16 104.81 108.58 105.23C108 105.65 107.71 106.2 107.71 106.88C107.71 107.42 107.88 107.87 108.22 108.23C108.58 108.57 109.02 108.85 109.54 109.07C110.08 109.27 110.82 109.5 111.76 109.76C112.94 110.08 113.9 110.4 114.64 110.72C115.38 111.02 116.01 111.48 116.53 112.1C117.07 112.72 117.35 113.53 117.37 114.53C117.37 115.43 117.12 116.24 116.62 116.96C116.12 117.68 115.41 118.25 114.49 118.67C113.59 119.07 112.55 119.27 111.37 119.27Z" fill="white"/>
<line x1="271.293" y1="130.872" x2="195.293" y2="175.872" stroke="white" stroke-width="9"/>
<circle cx="146.5" cy="190.5" r="54.5" fill="#4CAF50"/>
<circle cx="281.5" cy="127.5" r="54.5" fill="#4CAF50"/>
<path fill-rule="evenodd" clip-rule="evenodd" d="M138.545 164.636H121.636V181.545H138.545V164.636ZM116 159V187.182H144.182V159H116ZM138.545 198.455H121.636V215.364H138.545V198.455ZM116 192.818V221H144.182V192.818H116ZM155.455 164.636H172.364V181.545H155.455V164.636ZM149.818 187.182V159H178V187.182H149.818ZM149.818 209.727V192.818H155.455V209.727H149.818ZM127.273 170.273V175.909H132.909V170.273H127.273ZM127.273 209.727V204.091H132.909V209.727H127.273ZM161.091 170.273V175.909H166.727V170.273H161.091ZM172.364 221V212.545H178V221H172.364ZM172.364 192.818V201.273H166.727V192.818H161.091V215.364H149.818V221H166.727V206.909H178V201.273V192.818H172.364Z" fill="white"/>
<g clip-path="url(#clip0_45_459)">
<path d="M287.817 123.006C293.151 131.219 290.817 142.201 282.603 147.535L276.655 151.398C268.442 156.731 257.46 154.397 252.126 146.184C246.793 137.971 249.127 126.989 257.34 121.655L258.827 120.689M275.92 130.732C270.587 122.519 272.921 111.537 281.134 106.203L287.082 102.34C295.296 97.0066 306.277 99.3408 311.611 107.554C316.945 115.767 314.61 126.749 306.397 132.083L304.91 133.048" stroke="white" stroke-width="8.08333" stroke-linecap="round"/>
</g>
<defs>
<clipPath id="clip0_45_459">
<rect width="85.1131" height="85.1131" fill="white" transform="translate(223 114.356) rotate(-33)"/>
</clipPath>
</defs>
</svg>
